G04 #@! TF.GenerationSoftware,KiCad,Pcbnew,(6.0.0)*
G04 #@! TF.CreationDate,2022-12-26T17:53:18+03:00*
G04 #@! TF.ProjectId,back,6261636b-2e6b-4696-9361-645f70636258,rev?*
G04 #@! TF.SameCoordinates,Original*
G04 #@! TF.FileFunction,Copper,L1,Top*
G04 #@! TF.FilePolarity,Positive*
%FSLAX46Y46*%
G04 Gerber Fmt 4.6, Leading zero omitted, Abs format (unit mm)*
G04 Created by KiCad (PCBNEW (6.0.0)) date 2022-12-26 17:53:18*
%MOMM*%
%LPD*%
G01*
G04 APERTURE LIST*
G04 #@! TA.AperFunction,ComponentPad*
%ADD10C,3.000000*%
G04 #@! TD*
G04 #@! TA.AperFunction,ComponentPad*
%ADD11R,3.000000X3.000000*%
G04 #@! TD*
G04 APERTURE END LIST*
D10*
X174265001Y-99879834D03*
D11*
X153775001Y-99879834D03*
G04 #@! TA.AperFunction,NonConductor*
G36*
X202434121Y-80528002D02*
G01*
X202480614Y-80581658D01*
X202492000Y-80634000D01*
X202492000Y-127366000D01*
X202471998Y-127434121D01*
X202418342Y-127480614D01*
X202366000Y-127492000D01*
X200008702Y-127492000D01*
X200007932Y-127491998D01*
X200007078Y-127491993D01*
X199930348Y-127491524D01*
X199921719Y-127493990D01*
X199921714Y-127493991D01*
X199901952Y-127499639D01*
X199885191Y-127503217D01*
X199864848Y-127506130D01*
X199864838Y-127506133D01*
X199855955Y-127507405D01*
X199832605Y-127518021D01*
X199815093Y-127524464D01*
X199807057Y-127526761D01*
X199790435Y-127531512D01*
X199765452Y-127547274D01*
X199750386Y-127555404D01*
X199723490Y-127567633D01*
X199704061Y-127584374D01*
X199689053Y-127595479D01*
X199667369Y-127609160D01*
X199661427Y-127615888D01*
X199647819Y-127631296D01*
X199635627Y-127643340D01*
X199613253Y-127662619D01*
X199608374Y-127670147D01*
X199608371Y-127670150D01*
X199599304Y-127684139D01*
X199588014Y-127699013D01*
X199571044Y-127718228D01*
X199558490Y-127744966D01*
X199550176Y-127759935D01*
X199534107Y-127784727D01*
X199531535Y-127793327D01*
X199526761Y-127809290D01*
X199520099Y-127826736D01*
X199509201Y-127849948D01*
X199504658Y-127879128D01*
X199500874Y-127895849D01*
X199494986Y-127915536D01*
X199494985Y-127915539D01*
X199492413Y-127924141D01*
X199492358Y-127933116D01*
X199492358Y-127933117D01*
X199492203Y-127958546D01*
X199492170Y-127959328D01*
X199492000Y-127960423D01*
X199492000Y-127991298D01*
X199491998Y-127992068D01*
X199491524Y-128069652D01*
X199491908Y-128070996D01*
X199492000Y-128072341D01*
X199492000Y-128966000D01*
X199471998Y-129034121D01*
X199418342Y-129080614D01*
X199366000Y-129092000D01*
X188634000Y-129092000D01*
X188565879Y-129071998D01*
X188519386Y-129018342D01*
X188508000Y-128966000D01*
X188508000Y-128008702D01*
X188508002Y-128007932D01*
X188508421Y-127939322D01*
X188508476Y-127930348D01*
X188506010Y-127921719D01*
X188506009Y-127921714D01*
X188500361Y-127901952D01*
X188496783Y-127885191D01*
X188493870Y-127864848D01*
X188493867Y-127864838D01*
X188492595Y-127855955D01*
X188481979Y-127832605D01*
X188475536Y-127815093D01*
X188470954Y-127799063D01*
X188468488Y-127790435D01*
X188452726Y-127765452D01*
X188444596Y-127750386D01*
X188432367Y-127723490D01*
X188415626Y-127704061D01*
X188404521Y-127689053D01*
X188395630Y-127674961D01*
X188390840Y-127667369D01*
X188368703Y-127647818D01*
X188356659Y-127635626D01*
X188343239Y-127620051D01*
X188343237Y-127620050D01*
X188337381Y-127613253D01*
X188329853Y-127608374D01*
X188329850Y-127608371D01*
X188315861Y-127599304D01*
X188300987Y-127588014D01*
X188288502Y-127576988D01*
X188281772Y-127571044D01*
X188273646Y-127567229D01*
X188273645Y-127567228D01*
X188267979Y-127564568D01*
X188255034Y-127558490D01*
X188240065Y-127550176D01*
X188215273Y-127534107D01*
X188190709Y-127526761D01*
X188173264Y-127520099D01*
X188168827Y-127518016D01*
X188150052Y-127509201D01*
X188120870Y-127504657D01*
X188104151Y-127500874D01*
X188084464Y-127494986D01*
X188084461Y-127494985D01*
X188075859Y-127492413D01*
X188066884Y-127492358D01*
X188066883Y-127492358D01*
X188060190Y-127492317D01*
X188041444Y-127492203D01*
X188040672Y-127492170D01*
X188039577Y-127492000D01*
X188008702Y-127492000D01*
X188007932Y-127491998D01*
X187934284Y-127491548D01*
X187934283Y-127491548D01*
X187930348Y-127491524D01*
X187929004Y-127491908D01*
X187927659Y-127492000D01*
X186834000Y-127492000D01*
X186765879Y-127471998D01*
X186719386Y-127418342D01*
X186708000Y-127366000D01*
X186708000Y-124708702D01*
X186708002Y-124707932D01*
X186708421Y-124639322D01*
X186708476Y-124630348D01*
X186706010Y-124621719D01*
X186706009Y-124621714D01*
X186700361Y-124601952D01*
X186696783Y-124585191D01*
X186693870Y-124564848D01*
X186693867Y-124564838D01*
X186692595Y-124555955D01*
X186681979Y-124532605D01*
X186675536Y-124515093D01*
X186670954Y-124499063D01*
X186668488Y-124490435D01*
X186652726Y-124465452D01*
X186644596Y-124450386D01*
X186632367Y-124423490D01*
X186615626Y-124404061D01*
X186604521Y-124389053D01*
X186595630Y-124374961D01*
X186590840Y-124367369D01*
X186568703Y-124347818D01*
X186556659Y-124335626D01*
X186543239Y-124320051D01*
X186543237Y-124320050D01*
X186537381Y-124313253D01*
X186529853Y-124308374D01*
X186529850Y-124308371D01*
X186515861Y-124299304D01*
X186500987Y-124288014D01*
X186488502Y-124276988D01*
X186481772Y-124271044D01*
X186473646Y-124267229D01*
X186473645Y-124267228D01*
X186467979Y-124264568D01*
X186455034Y-124258490D01*
X186440065Y-124250176D01*
X186415273Y-124234107D01*
X186390709Y-124226761D01*
X186373264Y-124220099D01*
X186368827Y-124218016D01*
X186350052Y-124209201D01*
X186320870Y-124204657D01*
X186304151Y-124200874D01*
X186284464Y-124194986D01*
X186284461Y-124194985D01*
X186275859Y-124192413D01*
X186266884Y-124192358D01*
X186266883Y-124192358D01*
X186260190Y-124192317D01*
X186241444Y-124192203D01*
X186240672Y-124192170D01*
X186239577Y-124192000D01*
X186208702Y-124192000D01*
X186207932Y-124191998D01*
X186134284Y-124191548D01*
X186134283Y-124191548D01*
X186130348Y-124191524D01*
X186129004Y-124191908D01*
X186127659Y-124192000D01*
X175608702Y-124192000D01*
X175607932Y-124191998D01*
X175607078Y-124191993D01*
X175530348Y-124191524D01*
X175521719Y-124193990D01*
X175521714Y-124193991D01*
X175501952Y-124199639D01*
X175485191Y-124203217D01*
X175464848Y-124206130D01*
X175464838Y-124206133D01*
X175455955Y-124207405D01*
X175432605Y-124218021D01*
X175415093Y-124224464D01*
X175407057Y-124226761D01*
X175390435Y-124231512D01*
X175365452Y-124247274D01*
X175350386Y-124255404D01*
X175323490Y-124267633D01*
X175304061Y-124284374D01*
X175289053Y-124295479D01*
X175267369Y-124309160D01*
X175261427Y-124315888D01*
X175247819Y-124331296D01*
X175235627Y-124343340D01*
X175213253Y-124362619D01*
X175208374Y-124370147D01*
X175208371Y-124370150D01*
X175199304Y-124384139D01*
X175188014Y-124399013D01*
X175171044Y-124418228D01*
X175158490Y-124444966D01*
X175150176Y-124459935D01*
X175134107Y-124484727D01*
X175131535Y-124493327D01*
X175126761Y-124509290D01*
X175120099Y-124526736D01*
X175109201Y-124549948D01*
X175104658Y-124579128D01*
X175100874Y-124595849D01*
X175094986Y-124615536D01*
X175094985Y-124615539D01*
X175092413Y-124624141D01*
X175092358Y-124633116D01*
X175092358Y-124633117D01*
X175092203Y-124658546D01*
X175092170Y-124659328D01*
X175092000Y-124660423D01*
X175092000Y-124691298D01*
X175091998Y-124692068D01*
X175091524Y-124769652D01*
X175091908Y-124770996D01*
X175092000Y-124772341D01*
X175092000Y-127366000D01*
X175071998Y-127434121D01*
X175018342Y-127480614D01*
X174966000Y-127492000D01*
X118008702Y-127492000D01*
X118007932Y-127491998D01*
X118007078Y-127491993D01*
X117930348Y-127491524D01*
X117921719Y-127493990D01*
X117921714Y-127493991D01*
X117901952Y-127499639D01*
X117885191Y-127503217D01*
X117864848Y-127506130D01*
X117864838Y-127506133D01*
X117855955Y-127507405D01*
X117832605Y-127518021D01*
X117815093Y-127524464D01*
X117807057Y-127526761D01*
X117790435Y-127531512D01*
X117765452Y-127547274D01*
X117750386Y-127555404D01*
X117723490Y-127567633D01*
X117704061Y-127584374D01*
X117689053Y-127595479D01*
X117667369Y-127609160D01*
X117661427Y-127615888D01*
X117647819Y-127631296D01*
X117635627Y-127643340D01*
X117613253Y-127662619D01*
X117608374Y-127670147D01*
X117608371Y-127670150D01*
X117599304Y-127684139D01*
X117588014Y-127699013D01*
X117571044Y-127718228D01*
X117558490Y-127744966D01*
X117550176Y-127759935D01*
X117534107Y-127784727D01*
X117531535Y-127793327D01*
X117526761Y-127809290D01*
X117520099Y-127826736D01*
X117509201Y-127849948D01*
X117504658Y-127879128D01*
X117500874Y-127895849D01*
X117494986Y-127915536D01*
X117494985Y-127915539D01*
X117492413Y-127924141D01*
X117492358Y-127933116D01*
X117492358Y-127933117D01*
X117492203Y-127958546D01*
X117492170Y-127959328D01*
X117492000Y-127960423D01*
X117492000Y-127991298D01*
X117491998Y-127992068D01*
X117491524Y-128069652D01*
X117491908Y-128070996D01*
X117492000Y-128072341D01*
X117492000Y-128966000D01*
X117471998Y-129034121D01*
X117418342Y-129080614D01*
X117366000Y-129092000D01*
X103634000Y-129092000D01*
X103565879Y-129071998D01*
X103519386Y-129018342D01*
X103508000Y-128966000D01*
X103508000Y-128008702D01*
X103508002Y-128007932D01*
X103508421Y-127939322D01*
X103508476Y-127930348D01*
X103506010Y-127921719D01*
X103506009Y-127921714D01*
X103500361Y-127901952D01*
X103496783Y-127885191D01*
X103493870Y-127864848D01*
X103493867Y-127864838D01*
X103492595Y-127855955D01*
X103481979Y-127832605D01*
X103475536Y-127815093D01*
X103470954Y-127799063D01*
X103468488Y-127790435D01*
X103452726Y-127765452D01*
X103444596Y-127750386D01*
X103432367Y-127723490D01*
X103415626Y-127704061D01*
X103404521Y-127689053D01*
X103395630Y-127674961D01*
X103390840Y-127667369D01*
X103368703Y-127647818D01*
X103356659Y-127635626D01*
X103343239Y-127620051D01*
X103343237Y-127620050D01*
X103337381Y-127613253D01*
X103329853Y-127608374D01*
X103329850Y-127608371D01*
X103315861Y-127599304D01*
X103300987Y-127588014D01*
X103288502Y-127576988D01*
X103281772Y-127571044D01*
X103273646Y-127567229D01*
X103273645Y-127567228D01*
X103267979Y-127564568D01*
X103255034Y-127558490D01*
X103240065Y-127550176D01*
X103215273Y-127534107D01*
X103190709Y-127526761D01*
X103173264Y-127520099D01*
X103168827Y-127518016D01*
X103150052Y-127509201D01*
X103120870Y-127504657D01*
X103104151Y-127500874D01*
X103084464Y-127494986D01*
X103084461Y-127494985D01*
X103075859Y-127492413D01*
X103066884Y-127492358D01*
X103066883Y-127492358D01*
X103060190Y-127492317D01*
X103041444Y-127492203D01*
X103040672Y-127492170D01*
X103039577Y-127492000D01*
X103008702Y-127492000D01*
X103007932Y-127491998D01*
X102934284Y-127491548D01*
X102934283Y-127491548D01*
X102930348Y-127491524D01*
X102929004Y-127491908D01*
X102927659Y-127492000D01*
X100634000Y-127492000D01*
X100565879Y-127471998D01*
X100519386Y-127418342D01*
X100508000Y-127366000D01*
X100508000Y-101427968D01*
X151766501Y-101427968D01*
X151773256Y-101490150D01*
X151824386Y-101626539D01*
X151911740Y-101743095D01*
X152028296Y-101830449D01*
X152164685Y-101881579D01*
X152226867Y-101888334D01*
X155323135Y-101888334D01*
X155385317Y-101881579D01*
X155521706Y-101830449D01*
X155638262Y-101743095D01*
X155725616Y-101626539D01*
X155776746Y-101490150D01*
X155783501Y-101427968D01*
X155783501Y-99858752D01*
X172251918Y-99858752D01*
X172267683Y-100132154D01*
X172268508Y-100136359D01*
X172268509Y-100136367D01*
X172279128Y-100190491D01*
X172320406Y-100400887D01*
X172321793Y-100404937D01*
X172321794Y-100404942D01*
X172342606Y-100465729D01*
X172409113Y-100659978D01*
X172532161Y-100904633D01*
X172534587Y-100908162D01*
X172534590Y-100908168D01*
X172684844Y-101126787D01*
X172687275Y-101130324D01*
X172871583Y-101332877D01*
X173081676Y-101508541D01*
X173085317Y-101510825D01*
X173310025Y-101651785D01*
X173310029Y-101651787D01*
X173313665Y-101654068D01*
X173381545Y-101684717D01*
X173559346Y-101764998D01*
X173559350Y-101765000D01*
X173563258Y-101766764D01*
X173567378Y-101767984D01*
X173567377Y-101767984D01*
X173821724Y-101843325D01*
X173821728Y-101843326D01*
X173825837Y-101844543D01*
X173830071Y-101845191D01*
X173830076Y-101845192D01*
X174092299Y-101885317D01*
X174092301Y-101885317D01*
X174096541Y-101885966D01*
X174235913Y-101888156D01*
X174366072Y-101890201D01*
X174366078Y-101890201D01*
X174370363Y-101890268D01*
X174642236Y-101857368D01*
X174907128Y-101787875D01*
X174911088Y-101786235D01*
X174911093Y-101786233D01*
X175033633Y-101735475D01*
X175160137Y-101683075D01*
X175396583Y-101544907D01*
X175612090Y-101375928D01*
X175653810Y-101332877D01*
X175799687Y-101182343D01*
X175802670Y-101179265D01*
X175805203Y-101175817D01*
X175805207Y-101175812D01*
X175962258Y-100962012D01*
X175964796Y-100958557D01*
X175992155Y-100908168D01*
X176093419Y-100721664D01*
X176093420Y-100721662D01*
X176095469Y-100717888D01*
X176192270Y-100461711D01*
X176253408Y-100194767D01*
X176277752Y-99921995D01*
X176278194Y-99879834D01*
X176259568Y-99606612D01*
X176204033Y-99338446D01*
X176112618Y-99080299D01*
X175987014Y-98836946D01*
X175977041Y-98822755D01*
X175832009Y-98616396D01*
X175829546Y-98612891D01*
X175643126Y-98412279D01*
X175639811Y-98409565D01*
X175639807Y-98409562D01*
X175478305Y-98277374D01*
X175431206Y-98238824D01*
X175197705Y-98095735D01*
X175193769Y-98094007D01*
X174950874Y-97987383D01*
X174950870Y-97987382D01*
X174946946Y-97985659D01*
X174683567Y-97910634D01*
X174679325Y-97910030D01*
X174679319Y-97910029D01*
X174474388Y-97880863D01*
X174412444Y-97872047D01*
X174268590Y-97871294D01*
X174142878Y-97870636D01*
X174142872Y-97870636D01*
X174138592Y-97870614D01*
X174134348Y-97871173D01*
X174134344Y-97871173D01*
X174060742Y-97880863D01*
X173867079Y-97906359D01*
X173862939Y-97907492D01*
X173862937Y-97907492D01*
X173795038Y-97926067D01*
X173602929Y-97978622D01*
X173598981Y-97980306D01*
X173354983Y-98084380D01*
X173354979Y-98084382D01*
X173351031Y-98086066D01*
X173331126Y-98097979D01*
X173119726Y-98224498D01*
X173119722Y-98224501D01*
X173116044Y-98226702D01*
X172902319Y-98397928D01*
X172713809Y-98596576D01*
X172554003Y-98818970D01*
X172425858Y-99060995D01*
X172424386Y-99065018D01*
X172424384Y-99065022D01*
X172417315Y-99084340D01*
X172331744Y-99318171D01*
X172273405Y-99585741D01*
X172251918Y-99858752D01*
X155783501Y-99858752D01*
X155783501Y-98331700D01*
X155776746Y-98269518D01*
X155725616Y-98133129D01*
X155638262Y-98016573D01*
X155521706Y-97929219D01*
X155385317Y-97878089D01*
X155323135Y-97871334D01*
X152226867Y-97871334D01*
X152164685Y-97878089D01*
X152028296Y-97929219D01*
X151911740Y-98016573D01*
X151824386Y-98133129D01*
X151773256Y-98269518D01*
X151766501Y-98331700D01*
X151766501Y-101427968D01*
X100508000Y-101427968D01*
X100508000Y-80634000D01*
X100528002Y-80565879D01*
X100581658Y-80519386D01*
X100634000Y-80508000D01*
X202366000Y-80508000D01*
X202434121Y-80528002D01*
G37*
G04 #@! TD.AperFunction*
M02*
