G04 #@! TF.GenerationSoftware,KiCad,Pcbnew,(6.0.0)*
G04 #@! TF.CreationDate,2022-12-26T17:53:18+03:00*
G04 #@! TF.ProjectId,back,6261636b-2e6b-4696-9361-645f70636258,rev?*
G04 #@! TF.SameCoordinates,Original*
G04 #@! TF.FileFunction,Soldermask,Bot*
G04 #@! TF.FilePolarity,Negative*
%FSLAX46Y46*%
G04 Gerber Fmt 4.6, Leading zero omitted, Abs format (unit mm)*
G04 Created by KiCad (PCBNEW (6.0.0)) date 2022-12-26 17:53:18*
%MOMM*%
%LPD*%
G01*
G04 APERTURE LIST*
%ADD10C,3.102000*%
G04 APERTURE END LIST*
D10*
X174265001Y-99879834D03*
G36*
G01*
X152224001Y-101379834D02*
X152224001Y-98379834D01*
G75*
G02*
X152275001Y-98328834I51000J0D01*
G01*
X155275001Y-98328834D01*
G75*
G02*
X155326001Y-98379834I0J-51000D01*
G01*
X155326001Y-101379834D01*
G75*
G02*
X155275001Y-101430834I-51000J0D01*
G01*
X152275001Y-101430834D01*
G75*
G02*
X152224001Y-101379834I0J51000D01*
G01*
G37*
G36*
G01*
X161460000Y-98249000D02*
X162460000Y-98249000D01*
G75*
G02*
X162511000Y-98300000I0J-51000D01*
G01*
X162511000Y-101450000D01*
G75*
G02*
X162460000Y-101501000I-51000J0D01*
G01*
X161460000Y-101501000D01*
G75*
G02*
X161409000Y-101450000I0J51000D01*
G01*
X161409000Y-98300000D01*
G75*
G02*
X161460000Y-98249000I51000J0D01*
G01*
G37*
G36*
G01*
X161460000Y-103299000D02*
X162460000Y-103299000D01*
G75*
G02*
X162511000Y-103350000I0J-51000D01*
G01*
X162511000Y-106500000D01*
G75*
G02*
X162460000Y-106551000I-51000J0D01*
G01*
X161460000Y-106551000D01*
G75*
G02*
X161409000Y-106500000I0J51000D01*
G01*
X161409000Y-103350000D01*
G75*
G02*
X161460000Y-103299000I51000J0D01*
G01*
G37*
G36*
G01*
X164000000Y-98249000D02*
X165000000Y-98249000D01*
G75*
G02*
X165051000Y-98300000I0J-51000D01*
G01*
X165051000Y-101450000D01*
G75*
G02*
X165000000Y-101501000I-51000J0D01*
G01*
X164000000Y-101501000D01*
G75*
G02*
X163949000Y-101450000I0J51000D01*
G01*
X163949000Y-98300000D01*
G75*
G02*
X164000000Y-98249000I51000J0D01*
G01*
G37*
G36*
G01*
X164000000Y-103299000D02*
X165000000Y-103299000D01*
G75*
G02*
X165051000Y-103350000I0J-51000D01*
G01*
X165051000Y-106500000D01*
G75*
G02*
X165000000Y-106551000I-51000J0D01*
G01*
X164000000Y-106551000D01*
G75*
G02*
X163949000Y-106500000I0J51000D01*
G01*
X163949000Y-103350000D01*
G75*
G02*
X164000000Y-103299000I51000J0D01*
G01*
G37*
G36*
G01*
X166540000Y-98249000D02*
X167540000Y-98249000D01*
G75*
G02*
X167591000Y-98300000I0J-51000D01*
G01*
X167591000Y-101450000D01*
G75*
G02*
X167540000Y-101501000I-51000J0D01*
G01*
X166540000Y-101501000D01*
G75*
G02*
X166489000Y-101450000I0J51000D01*
G01*
X166489000Y-98300000D01*
G75*
G02*
X166540000Y-98249000I51000J0D01*
G01*
G37*
G36*
G01*
X166540000Y-103299000D02*
X167540000Y-103299000D01*
G75*
G02*
X167591000Y-103350000I0J-51000D01*
G01*
X167591000Y-106500000D01*
G75*
G02*
X167540000Y-106551000I-51000J0D01*
G01*
X166540000Y-106551000D01*
G75*
G02*
X166489000Y-106500000I0J51000D01*
G01*
X166489000Y-103350000D01*
G75*
G02*
X166540000Y-103299000I51000J0D01*
G01*
G37*
G36*
X117942121Y-123020002D02*
G01*
X117988614Y-123073658D01*
X118000000Y-123126000D01*
X118000000Y-129474000D01*
X117979998Y-129542121D01*
X117926342Y-129588614D01*
X117874000Y-129600000D01*
X103126000Y-129600000D01*
X103057879Y-129579998D01*
X103011386Y-129526342D01*
X103000000Y-129474000D01*
X103000000Y-123126000D01*
X103020002Y-123057879D01*
X103073658Y-123011386D01*
X103126000Y-123000000D01*
X117874000Y-123000000D01*
X117942121Y-123020002D01*
G37*
G36*
X199942121Y-123020002D02*
G01*
X199988614Y-123073658D01*
X200000000Y-123126000D01*
X200000000Y-129474000D01*
X199979998Y-129542121D01*
X199926342Y-129588614D01*
X199874000Y-129600000D01*
X188126000Y-129600000D01*
X188057879Y-129579998D01*
X188011386Y-129526342D01*
X188000000Y-129474000D01*
X188000000Y-123126000D01*
X188020002Y-123057879D01*
X188073658Y-123011386D01*
X188126000Y-123000000D01*
X199874000Y-123000000D01*
X199942121Y-123020002D01*
G37*
M02*
