G04 #@! TF.GenerationSoftware,KiCad,Pcbnew,(6.0.0)*
G04 #@! TF.CreationDate,2022-12-26T17:37:19+03:00*
G04 #@! TF.ProjectId,nixie display,6e697869-6520-4646-9973-706c61792e6b,rev?*
G04 #@! TF.SameCoordinates,Original*
G04 #@! TF.FileFunction,Legend,Top*
G04 #@! TF.FilePolarity,Positive*
%FSLAX46Y46*%
G04 Gerber Fmt 4.6, Leading zero omitted, Abs format (unit mm)*
G04 Created by KiCad (PCBNEW (6.0.0)) date 2022-12-26 17:37:19*
%MOMM*%
%LPD*%
G01*
G04 APERTURE LIST*
%ADD10C,0.150000*%
%ADD11C,0.120000*%
%ADD12C,0.381000*%
G04 APERTURE END LIST*
D10*
X121010514Y-88234780D02*
X121010514Y-87234780D01*
X121248609Y-87234780D01*
X121391466Y-87282400D01*
X121486704Y-87377638D01*
X121534323Y-87472876D01*
X121581942Y-87663352D01*
X121581942Y-87806209D01*
X121534323Y-87996685D01*
X121486704Y-88091923D01*
X121391466Y-88187161D01*
X121248609Y-88234780D01*
X121010514Y-88234780D01*
X121962895Y-88187161D02*
X122105752Y-88234780D01*
X122343847Y-88234780D01*
X122439085Y-88187161D01*
X122486704Y-88139542D01*
X122534323Y-88044304D01*
X122534323Y-87949066D01*
X122486704Y-87853828D01*
X122439085Y-87806209D01*
X122343847Y-87758590D01*
X122153371Y-87710971D01*
X122058133Y-87663352D01*
X122010514Y-87615733D01*
X121962895Y-87520495D01*
X121962895Y-87425257D01*
X122010514Y-87330019D01*
X122058133Y-87282400D01*
X122153371Y-87234780D01*
X122391466Y-87234780D01*
X122534323Y-87282400D01*
X123486704Y-88234780D02*
X122915276Y-88234780D01*
X123200990Y-88234780D02*
X123200990Y-87234780D01*
X123105752Y-87377638D01*
X123010514Y-87472876D01*
X122915276Y-87520495D01*
X144530914Y-88285580D02*
X144530914Y-87285580D01*
X144769009Y-87285580D01*
X144911866Y-87333200D01*
X145007104Y-87428438D01*
X145054723Y-87523676D01*
X145102342Y-87714152D01*
X145102342Y-87857009D01*
X145054723Y-88047485D01*
X145007104Y-88142723D01*
X144911866Y-88237961D01*
X144769009Y-88285580D01*
X144530914Y-88285580D01*
X145483295Y-88237961D02*
X145626152Y-88285580D01*
X145864247Y-88285580D01*
X145959485Y-88237961D01*
X146007104Y-88190342D01*
X146054723Y-88095104D01*
X146054723Y-87999866D01*
X146007104Y-87904628D01*
X145959485Y-87857009D01*
X145864247Y-87809390D01*
X145673771Y-87761771D01*
X145578533Y-87714152D01*
X145530914Y-87666533D01*
X145483295Y-87571295D01*
X145483295Y-87476057D01*
X145530914Y-87380819D01*
X145578533Y-87333200D01*
X145673771Y-87285580D01*
X145911866Y-87285580D01*
X146054723Y-87333200D01*
X146435676Y-87380819D02*
X146483295Y-87333200D01*
X146578533Y-87285580D01*
X146816628Y-87285580D01*
X146911866Y-87333200D01*
X146959485Y-87380819D01*
X147007104Y-87476057D01*
X147007104Y-87571295D01*
X146959485Y-87714152D01*
X146388057Y-88285580D01*
X147007104Y-88285580D01*
X173791714Y-88234780D02*
X173791714Y-87234780D01*
X174029809Y-87234780D01*
X174172666Y-87282400D01*
X174267904Y-87377638D01*
X174315523Y-87472876D01*
X174363142Y-87663352D01*
X174363142Y-87806209D01*
X174315523Y-87996685D01*
X174267904Y-88091923D01*
X174172666Y-88187161D01*
X174029809Y-88234780D01*
X173791714Y-88234780D01*
X174744095Y-88187161D02*
X174886952Y-88234780D01*
X175125047Y-88234780D01*
X175220285Y-88187161D01*
X175267904Y-88139542D01*
X175315523Y-88044304D01*
X175315523Y-87949066D01*
X175267904Y-87853828D01*
X175220285Y-87806209D01*
X175125047Y-87758590D01*
X174934571Y-87710971D01*
X174839333Y-87663352D01*
X174791714Y-87615733D01*
X174744095Y-87520495D01*
X174744095Y-87425257D01*
X174791714Y-87330019D01*
X174839333Y-87282400D01*
X174934571Y-87234780D01*
X175172666Y-87234780D01*
X175315523Y-87282400D01*
X175648857Y-87234780D02*
X176267904Y-87234780D01*
X175934571Y-87615733D01*
X176077428Y-87615733D01*
X176172666Y-87663352D01*
X176220285Y-87710971D01*
X176267904Y-87806209D01*
X176267904Y-88044304D01*
X176220285Y-88139542D01*
X176172666Y-88187161D01*
X176077428Y-88234780D01*
X175791714Y-88234780D01*
X175696476Y-88187161D01*
X175648857Y-88139542D01*
X196785714Y-88488780D02*
X196785714Y-87488780D01*
X197023809Y-87488780D01*
X197166666Y-87536400D01*
X197261904Y-87631638D01*
X197309523Y-87726876D01*
X197357142Y-87917352D01*
X197357142Y-88060209D01*
X197309523Y-88250685D01*
X197261904Y-88345923D01*
X197166666Y-88441161D01*
X197023809Y-88488780D01*
X196785714Y-88488780D01*
X197738095Y-88441161D02*
X197880952Y-88488780D01*
X198119047Y-88488780D01*
X198214285Y-88441161D01*
X198261904Y-88393542D01*
X198309523Y-88298304D01*
X198309523Y-88203066D01*
X198261904Y-88107828D01*
X198214285Y-88060209D01*
X198119047Y-88012590D01*
X197928571Y-87964971D01*
X197833333Y-87917352D01*
X197785714Y-87869733D01*
X197738095Y-87774495D01*
X197738095Y-87679257D01*
X197785714Y-87584019D01*
X197833333Y-87536400D01*
X197928571Y-87488780D01*
X198166666Y-87488780D01*
X198309523Y-87536400D01*
X199166666Y-87822114D02*
X199166666Y-88488780D01*
X198928571Y-87441161D02*
X198690476Y-88155447D01*
X199309523Y-88155447D01*
X159811904Y-88844380D02*
X159811904Y-87844380D01*
X160050000Y-87844380D01*
X160192857Y-87892000D01*
X160288095Y-87987238D01*
X160335714Y-88082476D01*
X160383333Y-88272952D01*
X160383333Y-88415809D01*
X160335714Y-88606285D01*
X160288095Y-88701523D01*
X160192857Y-88796761D01*
X160050000Y-88844380D01*
X159811904Y-88844380D01*
X161335714Y-88844380D02*
X160764285Y-88844380D01*
X161050000Y-88844380D02*
X161050000Y-87844380D01*
X160954761Y-87987238D01*
X160859523Y-88082476D01*
X160764285Y-88130095D01*
X159175714Y-65892380D02*
X159175714Y-64892380D01*
X159747142Y-65892380D01*
X159747142Y-64892380D01*
X160223333Y-65368571D02*
X160556666Y-65368571D01*
X160699523Y-65892380D02*
X160223333Y-65892380D01*
X160223333Y-64892380D01*
X160699523Y-64892380D01*
X161651904Y-65892380D02*
X161080476Y-65892380D01*
X161366190Y-65892380D02*
X161366190Y-64892380D01*
X161270952Y-65035238D01*
X161175714Y-65130476D01*
X161080476Y-65178095D01*
X159225714Y-76892380D02*
X159225714Y-75892380D01*
X159797142Y-76892380D01*
X159797142Y-75892380D01*
X160273333Y-76368571D02*
X160606666Y-76368571D01*
X160749523Y-76892380D02*
X160273333Y-76892380D01*
X160273333Y-75892380D01*
X160749523Y-75892380D01*
X161130476Y-75987619D02*
X161178095Y-75940000D01*
X161273333Y-75892380D01*
X161511428Y-75892380D01*
X161606666Y-75940000D01*
X161654285Y-75987619D01*
X161701904Y-76082857D01*
X161701904Y-76178095D01*
X161654285Y-76320952D01*
X161082857Y-76892380D01*
X161701904Y-76892380D01*
X156148019Y-97123238D02*
X156100400Y-97218476D01*
X156005161Y-97313714D01*
X155862304Y-97456571D01*
X155814685Y-97551809D01*
X155814685Y-97647047D01*
X156052780Y-97599428D02*
X156005161Y-97694666D01*
X155909923Y-97789904D01*
X155719447Y-97837523D01*
X155386114Y-97837523D01*
X155195638Y-97789904D01*
X155100400Y-97694666D01*
X155052780Y-97599428D01*
X155052780Y-97408952D01*
X155100400Y-97313714D01*
X155195638Y-97218476D01*
X155386114Y-97170857D01*
X155719447Y-97170857D01*
X155909923Y-97218476D01*
X156005161Y-97313714D01*
X156052780Y-97408952D01*
X156052780Y-97599428D01*
X155148019Y-96789904D02*
X155100400Y-96742285D01*
X155052780Y-96647047D01*
X155052780Y-96408952D01*
X155100400Y-96313714D01*
X155148019Y-96266095D01*
X155243257Y-96218476D01*
X155338495Y-96218476D01*
X155481352Y-96266095D01*
X156052780Y-96837523D01*
X156052780Y-96218476D01*
X165796933Y-55062380D02*
X165463600Y-54586190D01*
X165225504Y-55062380D02*
X165225504Y-54062380D01*
X165606457Y-54062380D01*
X165701695Y-54110000D01*
X165749314Y-54157619D01*
X165796933Y-54252857D01*
X165796933Y-54395714D01*
X165749314Y-54490952D01*
X165701695Y-54538571D01*
X165606457Y-54586190D01*
X165225504Y-54586190D01*
X166130266Y-54062380D02*
X166796933Y-54062380D01*
X166368361Y-55062380D01*
X165847733Y-57703980D02*
X165514400Y-57227790D01*
X165276304Y-57703980D02*
X165276304Y-56703980D01*
X165657257Y-56703980D01*
X165752495Y-56751600D01*
X165800114Y-56799219D01*
X165847733Y-56894457D01*
X165847733Y-57037314D01*
X165800114Y-57132552D01*
X165752495Y-57180171D01*
X165657257Y-57227790D01*
X165276304Y-57227790D01*
X166419161Y-57132552D02*
X166323923Y-57084933D01*
X166276304Y-57037314D01*
X166228685Y-56942076D01*
X166228685Y-56894457D01*
X166276304Y-56799219D01*
X166323923Y-56751600D01*
X166419161Y-56703980D01*
X166609638Y-56703980D01*
X166704876Y-56751600D01*
X166752495Y-56799219D01*
X166800114Y-56894457D01*
X166800114Y-56942076D01*
X166752495Y-57037314D01*
X166704876Y-57084933D01*
X166609638Y-57132552D01*
X166419161Y-57132552D01*
X166323923Y-57180171D01*
X166276304Y-57227790D01*
X166228685Y-57323028D01*
X166228685Y-57513504D01*
X166276304Y-57608742D01*
X166323923Y-57656361D01*
X166419161Y-57703980D01*
X166609638Y-57703980D01*
X166704876Y-57656361D01*
X166752495Y-57608742D01*
X166800114Y-57513504D01*
X166800114Y-57323028D01*
X166752495Y-57227790D01*
X166704876Y-57180171D01*
X166609638Y-57132552D01*
X162461642Y-95998380D02*
X162128309Y-95522190D01*
X161890214Y-95998380D02*
X161890214Y-94998380D01*
X162271166Y-94998380D01*
X162366404Y-95046000D01*
X162414023Y-95093619D01*
X162461642Y-95188857D01*
X162461642Y-95331714D01*
X162414023Y-95426952D01*
X162366404Y-95474571D01*
X162271166Y-95522190D01*
X161890214Y-95522190D01*
X163414023Y-95998380D02*
X162842595Y-95998380D01*
X163128309Y-95998380D02*
X163128309Y-94998380D01*
X163033071Y-95141238D01*
X162937833Y-95236476D01*
X162842595Y-95284095D01*
X164366404Y-95998380D02*
X163794976Y-95998380D01*
X164080690Y-95998380D02*
X164080690Y-94998380D01*
X163985452Y-95141238D01*
X163890214Y-95236476D01*
X163794976Y-95284095D01*
X153535142Y-94838780D02*
X153201809Y-94362590D01*
X152963714Y-94838780D02*
X152963714Y-93838780D01*
X153344666Y-93838780D01*
X153439904Y-93886400D01*
X153487523Y-93934019D01*
X153535142Y-94029257D01*
X153535142Y-94172114D01*
X153487523Y-94267352D01*
X153439904Y-94314971D01*
X153344666Y-94362590D01*
X152963714Y-94362590D01*
X154487523Y-94838780D02*
X153916095Y-94838780D01*
X154201809Y-94838780D02*
X154201809Y-93838780D01*
X154106571Y-93981638D01*
X154011333Y-94076876D01*
X153916095Y-94124495D01*
X154868476Y-93934019D02*
X154916095Y-93886400D01*
X155011333Y-93838780D01*
X155249428Y-93838780D01*
X155344666Y-93886400D01*
X155392285Y-93934019D01*
X155439904Y-94029257D01*
X155439904Y-94124495D01*
X155392285Y-94267352D01*
X154820857Y-94838780D01*
X155439904Y-94838780D01*
X187280642Y-94728380D02*
X186947309Y-94252190D01*
X186709214Y-94728380D02*
X186709214Y-93728380D01*
X187090166Y-93728380D01*
X187185404Y-93776000D01*
X187233023Y-93823619D01*
X187280642Y-93918857D01*
X187280642Y-94061714D01*
X187233023Y-94156952D01*
X187185404Y-94204571D01*
X187090166Y-94252190D01*
X186709214Y-94252190D01*
X188233023Y-94728380D02*
X187661595Y-94728380D01*
X187947309Y-94728380D02*
X187947309Y-93728380D01*
X187852071Y-93871238D01*
X187756833Y-93966476D01*
X187661595Y-94014095D01*
X189090166Y-93728380D02*
X188899690Y-93728380D01*
X188804452Y-93776000D01*
X188756833Y-93823619D01*
X188661595Y-93966476D01*
X188613976Y-94156952D01*
X188613976Y-94537904D01*
X188661595Y-94633142D01*
X188709214Y-94680761D01*
X188804452Y-94728380D01*
X188994928Y-94728380D01*
X189090166Y-94680761D01*
X189137785Y-94633142D01*
X189185404Y-94537904D01*
X189185404Y-94299809D01*
X189137785Y-94204571D01*
X189090166Y-94156952D01*
X188994928Y-94109333D01*
X188804452Y-94109333D01*
X188709214Y-94156952D01*
X188661595Y-94204571D01*
X188613976Y-94299809D01*
D11*
X111749126Y-65099051D02*
X111750001Y-87899999D01*
X132750874Y-87900949D02*
X132749999Y-65100001D01*
X132749999Y-65100001D02*
G75*
G03*
X122250000Y-61001292I-10499998J-11399997D01*
G01*
X122250000Y-92000000D02*
G75*
G03*
X132750874Y-87900949I-1J15500001D01*
G01*
X122250000Y-61000000D02*
G75*
G03*
X111749126Y-65099051I1J-15500001D01*
G01*
X111750001Y-87899999D02*
G75*
G03*
X122250000Y-91998708I10499998J11399997D01*
G01*
X135249126Y-65099051D02*
X135250001Y-87899999D01*
X156250874Y-87900949D02*
X156249999Y-65100001D01*
X145750000Y-92000000D02*
G75*
G03*
X156250874Y-87900949I-1J15500001D01*
G01*
X145750000Y-61000000D02*
G75*
G03*
X135249126Y-65099051I1J-15500001D01*
G01*
X135250001Y-87899999D02*
G75*
G03*
X145750000Y-91998708I10499998J11399997D01*
G01*
X156249999Y-65100001D02*
G75*
G03*
X145750000Y-61001292I-10499998J-11399997D01*
G01*
X164499126Y-65099051D02*
X164500001Y-87899999D01*
X185500874Y-87900949D02*
X185499999Y-65100001D01*
X164500001Y-87899999D02*
G75*
G03*
X175000000Y-91998708I10499998J11399997D01*
G01*
X185499999Y-65100001D02*
G75*
G03*
X175000000Y-61001292I-10499998J-11399997D01*
G01*
X175000000Y-61000000D02*
G75*
G03*
X164499126Y-65099051I1J-15500001D01*
G01*
X175000000Y-92000000D02*
G75*
G03*
X185500874Y-87900949I-1J15500001D01*
G01*
X187499126Y-65099051D02*
X187500001Y-87899999D01*
X208500874Y-87900949D02*
X208499999Y-65100001D01*
X208499999Y-65100001D02*
G75*
G03*
X198000000Y-61001292I-10499998J-11399997D01*
G01*
X198000000Y-61000000D02*
G75*
G03*
X187499126Y-65099051I1J-15500001D01*
G01*
X198000000Y-92000000D02*
G75*
G03*
X208500874Y-87900949I-1J15500001D01*
G01*
X187500001Y-87899999D02*
G75*
G03*
X198000000Y-91998708I10499998J11399997D01*
G01*
X164950000Y-92640000D02*
X158050000Y-92640000D01*
X164950000Y-92640000D02*
X164950000Y-89340000D01*
X164950000Y-89340000D02*
X158050000Y-89340000D01*
X156330000Y-68858000D02*
X156330000Y-73142000D01*
X164980000Y-71000486D02*
G75*
G03*
X156330000Y-68858855I-4590000J486D01*
G01*
X156330000Y-73141145D02*
G75*
G03*
X164980000Y-70999514I4060000J2141145D01*
G01*
X164390000Y-71000000D02*
G75*
G03*
X164390000Y-71000000I-4000000J0D01*
G01*
X156380000Y-79858000D02*
X156380000Y-84142000D01*
X156380000Y-84141145D02*
G75*
G03*
X165030000Y-81999514I4060000J2141145D01*
G01*
X165030000Y-82000486D02*
G75*
G03*
X156380000Y-79858855I-4590000J486D01*
G01*
X164440000Y-82000000D02*
G75*
G03*
X164440000Y-82000000I-4000000J0D01*
G01*
X156494000Y-97012000D02*
X156494000Y-97662000D01*
X156494000Y-97012000D02*
X156494000Y-96362000D01*
X159614000Y-97012000D02*
X159614000Y-97662000D01*
X159614000Y-97012000D02*
X159614000Y-95337000D01*
X161970436Y-53590000D02*
X163174564Y-53590000D01*
X161970436Y-55410000D02*
X163174564Y-55410000D01*
X161947936Y-58140000D02*
X163152064Y-58140000D01*
X161947936Y-56320000D02*
X163152064Y-56320000D01*
X163706564Y-94636000D02*
X162502436Y-94636000D01*
X163706564Y-92816000D02*
X162502436Y-92816000D01*
X157422436Y-92816000D02*
X158626564Y-92816000D01*
X157422436Y-94636000D02*
X158626564Y-94636000D01*
X188525564Y-91546000D02*
X187321436Y-91546000D01*
X188525564Y-93366000D02*
X187321436Y-93366000D01*
D12*
X186570000Y-53660000D02*
X181880000Y-60630000D01*
X186620000Y-57360000D02*
X187290000Y-56920000D01*
X181880000Y-60630000D02*
X191250000Y-60640000D01*
D11*
X186730000Y-57370000D02*
X186620000Y-57360000D01*
D12*
X191250000Y-60640000D02*
X186570000Y-53660000D01*
X186470000Y-55050000D02*
X185640000Y-58090000D01*
X185640000Y-58090000D02*
X186980000Y-55230000D01*
X185640000Y-58090000D02*
X186730000Y-57370000D01*
X187290000Y-56920000D02*
X186070000Y-60090000D01*
X186070000Y-60090000D02*
X186690000Y-59340000D01*
X186070000Y-60090000D02*
X186830000Y-57330000D01*
X186070000Y-60090000D02*
X185970000Y-59140000D01*
M02*
