M48
; DRILL file {KiCad (6.0.0)} date Mon Dec 26 17:37:25 2022
; FORMAT={-:-/ absolute / inch / decimal}
; #@! TF.CreationDate,2022-12-26T17:37:25+03:00
; #@! TF.GenerationSoftware,Kicad,Pcbnew,(6.0.0)
; #@! TF.FileFunction,MixedPlating,1,2
FMAT,2
INCH
; #@! TA.AperFunction,Plated,PTH,ViaDrill
T1C0.0157
; #@! TA.AperFunction,Plated,PTH,ComponentDrill
T2C0.0315
; #@! TA.AperFunction,Plated,PTH,ComponentDrill
T3C0.0354
; #@! TA.AperFunction,Plated,PTH,ComponentDrill
T4C0.0394
; #@! TA.AperFunction,Plated,PTH,ComponentDrill
T5C0.0472
; #@! TA.AperFunction,NonPlated,NPTH,ComponentDrill
T6C0.1772
%
G90
G05
T1
X4.8921Y-3.55
X5.1862Y-3.7543
X5.3996Y-2.5079
X5.4Y-3.8
X5.4878Y-3.55
X6.0091Y-3.6272
X6.0091Y-3.6724
X6.4528Y-3.3445
X6.59Y-3.2986
X6.61Y-3.67
X6.66Y-3.5472
X7.52Y-3.64
X7.5524Y-3.5516
T2
X4.439Y-2.1827
X4.439Y-2.4827
X4.539Y-2.1827
X4.539Y-2.4827
X4.639Y-2.1827
X4.639Y-2.4827
X4.739Y-2.1827
X4.739Y-2.4827
X4.839Y-2.1827
X4.839Y-2.4827
X4.939Y-2.1827
X4.939Y-2.4827
X5.039Y-2.1827
X5.039Y-2.4827
X5.139Y-2.1827
X5.139Y-2.4827
T3
X6.2146Y-2.7953
X6.2165Y-3.2283
X6.4146Y-2.7953
X6.4165Y-3.2283
T4
X4.6394Y-3.7079
X4.8394Y-3.7079
X5.2594Y-2.1894
X5.4594Y-2.1894
X5.622Y-3.8248
X5.6484Y-2.189
X5.722Y-3.8248
X5.7484Y-2.189
X5.822Y-3.8248
X5.8484Y-2.189
X5.922Y-3.8248
X5.9484Y-2.189
X6.022Y-3.8248
X6.0484Y-2.189
X6.1661Y-3.5823
X6.2283Y-2.1425
X6.2283Y-2.2425
X6.2299Y-2.4484
X6.3299Y-2.4484
X6.3795Y-3.8323
X6.4299Y-2.4484
X6.4654Y-3.5823
X6.4795Y-3.8323
X6.5795Y-3.8323
T5
X4.5866Y-2.8346
X4.5866Y-3.0118
X4.5866Y-3.189
X4.6555Y-2.6969
X4.6555Y-3.3268
X4.813Y-2.6575
X4.813Y-3.3661
X4.9705Y-2.6969
X4.9705Y-3.3268
X5.0394Y-2.8346
X5.0394Y-3.0118
X5.0394Y-3.189
X5.5118Y-2.8346
X5.5118Y-3.0118
X5.5118Y-3.189
X5.5807Y-2.6969
X5.5807Y-3.3268
X5.7382Y-2.6575
X5.7382Y-3.3661
X5.8957Y-2.6969
X5.8957Y-3.3268
X5.9646Y-2.8346
X5.9646Y-3.0118
X5.9646Y-3.189
X6.6634Y-2.8346
X6.6634Y-3.0118
X6.6634Y-3.189
X6.7323Y-2.6969
X6.7323Y-3.3268
X6.8898Y-2.6575
X6.8898Y-3.3661
X7.0472Y-2.6969
X7.0472Y-3.3268
X7.1161Y-2.8346
X7.1161Y-3.0118
X7.1161Y-3.189
X7.5689Y-2.8346
X7.5689Y-3.0118
X7.5689Y-3.189
X7.6378Y-2.6969
X7.6378Y-3.3268
X7.7953Y-2.6575
X7.7953Y-3.3661
X7.9528Y-2.6969
X7.9528Y-3.3268
X8.0217Y-2.8346
X8.0217Y-3.0118
X8.0217Y-3.189
T6
X4.813Y-3.0118
X5.7382Y-3.0118
X6.8898Y-3.0118
X7.7953Y-3.0118
T0
M30
