G04 #@! TF.GenerationSoftware,KiCad,Pcbnew,(6.0.0)*
G04 #@! TF.CreationDate,2022-12-26T17:37:19+03:00*
G04 #@! TF.ProjectId,nixie display,6e697869-6520-4646-9973-706c61792e6b,rev?*
G04 #@! TF.SameCoordinates,Original*
G04 #@! TF.FileFunction,Copper,L1,Top*
G04 #@! TF.FilePolarity,Positive*
%FSLAX46Y46*%
G04 Gerber Fmt 4.6, Leading zero omitted, Abs format (unit mm)*
G04 Created by KiCad (PCBNEW (6.0.0)) date 2022-12-26 17:37:19*
%MOMM*%
%LPD*%
G01*
G04 APERTURE LIST*
G04 #@! TA.AperFunction,ComponentPad*
%ADD10C,1.800000*%
G04 #@! TD*
G04 #@! TA.AperFunction,SMDPad,CuDef*
%ADD11R,3.500000X1.800000*%
G04 #@! TD*
G04 #@! TA.AperFunction,ComponentPad*
%ADD12R,1.800000X1.800000*%
G04 #@! TD*
G04 #@! TA.AperFunction,ComponentPad*
%ADD13R,2.000000X2.000000*%
G04 #@! TD*
G04 #@! TA.AperFunction,ComponentPad*
%ADD14C,2.000000*%
G04 #@! TD*
G04 #@! TA.AperFunction,ComponentPad*
%ADD15R,1.700000X1.700000*%
G04 #@! TD*
G04 #@! TA.AperFunction,ComponentPad*
%ADD16O,1.700000X1.700000*%
G04 #@! TD*
G04 #@! TA.AperFunction,ComponentPad*
%ADD17O,1.800000X1.800000*%
G04 #@! TD*
G04 #@! TA.AperFunction,ComponentPad*
%ADD18R,1.600000X1.600000*%
G04 #@! TD*
G04 #@! TA.AperFunction,ComponentPad*
%ADD19O,1.600000X1.600000*%
G04 #@! TD*
G04 #@! TA.AperFunction,ViaPad*
%ADD20C,0.800000*%
G04 #@! TD*
G04 #@! TA.AperFunction,Conductor*
%ADD21C,0.500000*%
G04 #@! TD*
G04 #@! TA.AperFunction,Conductor*
%ADD22C,0.800000*%
G04 #@! TD*
G04 #@! TA.AperFunction,Conductor*
%ADD23C,0.400000*%
G04 #@! TD*
G04 APERTURE END LIST*
D10*
X126250000Y-84500000D03*
X128000000Y-81000000D03*
X128000000Y-76500000D03*
X128000000Y-72000000D03*
X126250000Y-68500000D03*
X122250000Y-67500000D03*
X118250000Y-68500000D03*
X116500000Y-72000000D03*
X116500000Y-76500000D03*
X116500000Y-81000000D03*
X118250000Y-84500000D03*
X122250000Y-85500000D03*
X149750000Y-84500000D03*
X151500000Y-81000000D03*
X151500000Y-76500000D03*
X151500000Y-72000000D03*
X149750000Y-68500000D03*
X145750000Y-67500000D03*
X141750000Y-68500000D03*
X140000000Y-72000000D03*
X140000000Y-76500000D03*
X140000000Y-81000000D03*
X141750000Y-84500000D03*
X145750000Y-85500000D03*
X179000000Y-84500000D03*
X180750000Y-81000000D03*
X180750000Y-76500000D03*
X180750000Y-72000000D03*
X179000000Y-68500000D03*
X175000000Y-67500000D03*
X171000000Y-68500000D03*
X169250000Y-72000000D03*
X169250000Y-76500000D03*
X169250000Y-81000000D03*
X171000000Y-84500000D03*
X175000000Y-85500000D03*
X202000000Y-84500000D03*
X203750000Y-81000000D03*
X203750000Y-76500000D03*
X203750000Y-72000000D03*
X202000000Y-68500000D03*
X198000000Y-67500000D03*
X194000000Y-68500000D03*
X192250000Y-72000000D03*
X192250000Y-76500000D03*
X192250000Y-81000000D03*
X194000000Y-84500000D03*
X198000000Y-85500000D03*
D11*
X163050000Y-90990000D03*
X158050000Y-90990000D03*
D12*
X157850000Y-71000000D03*
D10*
X162930000Y-71000000D03*
D12*
X157900000Y-82000000D03*
D10*
X162980000Y-82000000D03*
G04 #@! TA.AperFunction,SMDPad,CuDef*
G36*
G01*
X158854000Y-95337000D02*
X159154000Y-95337000D01*
G75*
G02*
X159304000Y-95487000I0J-150000D01*
G01*
X159304000Y-96662000D01*
G75*
G02*
X159154000Y-96812000I-150000J0D01*
G01*
X158854000Y-96812000D01*
G75*
G02*
X158704000Y-96662000I0J150000D01*
G01*
X158704000Y-95487000D01*
G75*
G02*
X158854000Y-95337000I150000J0D01*
G01*
G37*
G04 #@! TD.AperFunction*
G04 #@! TA.AperFunction,SMDPad,CuDef*
G36*
G01*
X156954000Y-95337000D02*
X157254000Y-95337000D01*
G75*
G02*
X157404000Y-95487000I0J-150000D01*
G01*
X157404000Y-96662000D01*
G75*
G02*
X157254000Y-96812000I-150000J0D01*
G01*
X156954000Y-96812000D01*
G75*
G02*
X156804000Y-96662000I0J150000D01*
G01*
X156804000Y-95487000D01*
G75*
G02*
X156954000Y-95337000I150000J0D01*
G01*
G37*
G04 #@! TD.AperFunction*
G04 #@! TA.AperFunction,SMDPad,CuDef*
G36*
G01*
X157904000Y-97212000D02*
X158204000Y-97212000D01*
G75*
G02*
X158354000Y-97362000I0J-150000D01*
G01*
X158354000Y-98537000D01*
G75*
G02*
X158204000Y-98687000I-150000J0D01*
G01*
X157904000Y-98687000D01*
G75*
G02*
X157754000Y-98537000I0J150000D01*
G01*
X157754000Y-97362000D01*
G75*
G02*
X157904000Y-97212000I150000J0D01*
G01*
G37*
G04 #@! TD.AperFunction*
G04 #@! TA.AperFunction,SMDPad,CuDef*
G36*
G01*
X160372500Y-55124999D02*
X160372500Y-53875001D01*
G75*
G02*
X160622501Y-53625000I250001J0D01*
G01*
X161547499Y-53625000D01*
G75*
G02*
X161797500Y-53875001I0J-250001D01*
G01*
X161797500Y-55124999D01*
G75*
G02*
X161547499Y-55375000I-250001J0D01*
G01*
X160622501Y-55375000D01*
G75*
G02*
X160372500Y-55124999I0J250001D01*
G01*
G37*
G04 #@! TD.AperFunction*
G04 #@! TA.AperFunction,SMDPad,CuDef*
G36*
G01*
X163347500Y-55124999D02*
X163347500Y-53875001D01*
G75*
G02*
X163597501Y-53625000I250001J0D01*
G01*
X164522499Y-53625000D01*
G75*
G02*
X164772500Y-53875001I0J-250001D01*
G01*
X164772500Y-55124999D01*
G75*
G02*
X164522499Y-55375000I-250001J0D01*
G01*
X163597501Y-55375000D01*
G75*
G02*
X163347500Y-55124999I0J250001D01*
G01*
G37*
G04 #@! TD.AperFunction*
G04 #@! TA.AperFunction,SMDPad,CuDef*
G36*
G01*
X160350000Y-57854999D02*
X160350000Y-56605001D01*
G75*
G02*
X160600001Y-56355000I250001J0D01*
G01*
X161524999Y-56355000D01*
G75*
G02*
X161775000Y-56605001I0J-250001D01*
G01*
X161775000Y-57854999D01*
G75*
G02*
X161524999Y-58105000I-250001J0D01*
G01*
X160600001Y-58105000D01*
G75*
G02*
X160350000Y-57854999I0J250001D01*
G01*
G37*
G04 #@! TD.AperFunction*
G04 #@! TA.AperFunction,SMDPad,CuDef*
G36*
G01*
X163325000Y-57854999D02*
X163325000Y-56605001D01*
G75*
G02*
X163575001Y-56355000I250001J0D01*
G01*
X164499999Y-56355000D01*
G75*
G02*
X164750000Y-56605001I0J-250001D01*
G01*
X164750000Y-57854999D01*
G75*
G02*
X164499999Y-58105000I-250001J0D01*
G01*
X163575001Y-58105000D01*
G75*
G02*
X163325000Y-57854999I0J250001D01*
G01*
G37*
G04 #@! TD.AperFunction*
G04 #@! TA.AperFunction,SMDPad,CuDef*
G36*
G01*
X165304500Y-93101001D02*
X165304500Y-94350999D01*
G75*
G02*
X165054499Y-94601000I-250001J0D01*
G01*
X164129501Y-94601000D01*
G75*
G02*
X163879500Y-94350999I0J250001D01*
G01*
X163879500Y-93101001D01*
G75*
G02*
X164129501Y-92851000I250001J0D01*
G01*
X165054499Y-92851000D01*
G75*
G02*
X165304500Y-93101001I0J-250001D01*
G01*
G37*
G04 #@! TD.AperFunction*
G04 #@! TA.AperFunction,SMDPad,CuDef*
G36*
G01*
X162329500Y-93101001D02*
X162329500Y-94350999D01*
G75*
G02*
X162079499Y-94601000I-250001J0D01*
G01*
X161154501Y-94601000D01*
G75*
G02*
X160904500Y-94350999I0J250001D01*
G01*
X160904500Y-93101001D01*
G75*
G02*
X161154501Y-92851000I250001J0D01*
G01*
X162079499Y-92851000D01*
G75*
G02*
X162329500Y-93101001I0J-250001D01*
G01*
G37*
G04 #@! TD.AperFunction*
G04 #@! TA.AperFunction,SMDPad,CuDef*
G36*
G01*
X155824500Y-94350999D02*
X155824500Y-93101001D01*
G75*
G02*
X156074501Y-92851000I250001J0D01*
G01*
X156999499Y-92851000D01*
G75*
G02*
X157249500Y-93101001I0J-250001D01*
G01*
X157249500Y-94350999D01*
G75*
G02*
X156999499Y-94601000I-250001J0D01*
G01*
X156074501Y-94601000D01*
G75*
G02*
X155824500Y-94350999I0J250001D01*
G01*
G37*
G04 #@! TD.AperFunction*
G04 #@! TA.AperFunction,SMDPad,CuDef*
G36*
G01*
X158799500Y-94350999D02*
X158799500Y-93101001D01*
G75*
G02*
X159049501Y-92851000I250001J0D01*
G01*
X159974499Y-92851000D01*
G75*
G02*
X160224500Y-93101001I0J-250001D01*
G01*
X160224500Y-94350999D01*
G75*
G02*
X159974499Y-94601000I-250001J0D01*
G01*
X159049501Y-94601000D01*
G75*
G02*
X158799500Y-94350999I0J250001D01*
G01*
G37*
G04 #@! TD.AperFunction*
G04 #@! TA.AperFunction,SMDPad,CuDef*
G36*
G01*
X190123500Y-91831001D02*
X190123500Y-93080999D01*
G75*
G02*
X189873499Y-93331000I-250001J0D01*
G01*
X188948501Y-93331000D01*
G75*
G02*
X188698500Y-93080999I0J250001D01*
G01*
X188698500Y-91831001D01*
G75*
G02*
X188948501Y-91581000I250001J0D01*
G01*
X189873499Y-91581000D01*
G75*
G02*
X190123500Y-91831001I0J-250001D01*
G01*
G37*
G04 #@! TD.AperFunction*
G04 #@! TA.AperFunction,SMDPad,CuDef*
G36*
G01*
X187148500Y-91831001D02*
X187148500Y-93080999D01*
G75*
G02*
X186898499Y-93331000I-250001J0D01*
G01*
X185973501Y-93331000D01*
G75*
G02*
X185723500Y-93080999I0J250001D01*
G01*
X185723500Y-91831001D01*
G75*
G02*
X185973501Y-91581000I250001J0D01*
G01*
X186898499Y-91581000D01*
G75*
G02*
X187148500Y-91831001I0J-250001D01*
G01*
G37*
G04 #@! TD.AperFunction*
D13*
X164220000Y-90990000D03*
D14*
X156620000Y-90990000D03*
D15*
X133590000Y-55610000D03*
D16*
X138670000Y-55610000D03*
D12*
X163320000Y-62190000D03*
D17*
X160780000Y-62190000D03*
X158240000Y-62190000D03*
D15*
X142800000Y-97150000D03*
D16*
X145340000Y-97150000D03*
X147880000Y-97150000D03*
X150420000Y-97150000D03*
X152960000Y-97150000D03*
D15*
X153630000Y-55600000D03*
D16*
X151090000Y-55600000D03*
X148550000Y-55600000D03*
X146010000Y-55600000D03*
X143470000Y-55600000D03*
D15*
X158200000Y-54420000D03*
D16*
X158200000Y-56960000D03*
D15*
X122920000Y-94180000D03*
D16*
X117840000Y-94180000D03*
D15*
X162040000Y-97340000D03*
D16*
X164580000Y-97340000D03*
X167120000Y-97340000D03*
D18*
X112750000Y-55440000D03*
D19*
X115290000Y-55440000D03*
X117830000Y-55440000D03*
X120370000Y-55440000D03*
X122910000Y-55440000D03*
X125450000Y-55440000D03*
X127990000Y-55440000D03*
X130530000Y-55440000D03*
X130530000Y-63060000D03*
X127990000Y-63060000D03*
X125450000Y-63060000D03*
X122910000Y-63060000D03*
X120370000Y-63060000D03*
X117830000Y-63060000D03*
X115290000Y-63060000D03*
X112750000Y-63060000D03*
D20*
X139390000Y-90170000D03*
X191830000Y-90210000D03*
X124260000Y-90170000D03*
X137150000Y-63700000D03*
X169164000Y-90100000D03*
X167386404Y-83783596D03*
X163900000Y-84950000D03*
X131730000Y-95360000D03*
X191008000Y-92456000D03*
X167894000Y-93218000D03*
X137160000Y-96520000D03*
X152630000Y-92130000D03*
X152630000Y-93280000D03*
D21*
X158050000Y-90990000D02*
X158050000Y-95117998D01*
X158050000Y-95117998D02*
X158054000Y-95121998D01*
X158054000Y-95121998D02*
X158054000Y-97062000D01*
X158054000Y-97062000D02*
X158054000Y-98012000D01*
D22*
X114250000Y-94180000D02*
X117840000Y-94180000D01*
X168570000Y-90100000D02*
X191720000Y-90100000D01*
X121721390Y-61020020D02*
X134470020Y-61020020D01*
X191830000Y-90210000D02*
X192558001Y-90938001D01*
X156537000Y-95445000D02*
X156537000Y-93726000D01*
X113480000Y-94950000D02*
X114250000Y-94180000D01*
X161062500Y-57230000D02*
X158470000Y-57230000D01*
X123694315Y-90170000D02*
X124260000Y-90170000D01*
X154568000Y-93726000D02*
X154500000Y-93658000D01*
X156537000Y-93726000D02*
X154568000Y-93726000D01*
X113480000Y-94950000D02*
X111230000Y-94950000D01*
X110725010Y-94445010D02*
X110725010Y-60404990D01*
X123030000Y-62328630D02*
X123030000Y-63460000D01*
X191720000Y-90100000D02*
X191830000Y-90210000D01*
X117840000Y-92977919D02*
X120647919Y-90170000D01*
X154500000Y-88090000D02*
X166590000Y-88090000D01*
X153870000Y-88090000D02*
X154500000Y-88090000D01*
X113510000Y-94980000D02*
X113480000Y-94950000D01*
X114890020Y-61020020D02*
X121721390Y-61020020D01*
X134470020Y-61020020D02*
X137150000Y-63700000D01*
X154500000Y-93658000D02*
X154500000Y-95610000D01*
X124260000Y-90170000D02*
X139390000Y-90170000D01*
X110725010Y-60404990D02*
X111060000Y-60070000D01*
X191910000Y-96070000D02*
X167187919Y-96070000D01*
X157104000Y-96012000D02*
X156537000Y-95445000D01*
X117840000Y-94180000D02*
X117840000Y-92977919D01*
X166590000Y-88090000D02*
X168570000Y-90070000D01*
X168570000Y-90070000D02*
X168570000Y-90100000D01*
X120647919Y-90170000D02*
X123694315Y-90170000D01*
X158470000Y-57230000D02*
X158200000Y-56960000D01*
X154500000Y-95610000D02*
X152960000Y-97150000D01*
X111230000Y-94950000D02*
X110725010Y-94445010D01*
X124210000Y-90220000D02*
X124260000Y-90170000D01*
X121721390Y-61020020D02*
X123030000Y-62328630D01*
X167187919Y-96070000D02*
X167120000Y-96137919D01*
X151790000Y-90170000D02*
X153870000Y-88090000D01*
X154500000Y-88090000D02*
X154500000Y-93658000D01*
X192558001Y-90938001D02*
X192558001Y-95421999D01*
X111060000Y-60070000D02*
X113940000Y-60070000D01*
X167120000Y-96137919D02*
X167120000Y-97340000D01*
X113940000Y-60070000D02*
X114890020Y-61020020D01*
X139390000Y-90170000D02*
X151790000Y-90170000D01*
X192558001Y-95421999D02*
X191910000Y-96070000D01*
X166004510Y-95915490D02*
X165429999Y-96490001D01*
X163050000Y-90990000D02*
X165600000Y-90990000D01*
X166004510Y-91394510D02*
X166004510Y-95915490D01*
X165429999Y-96490001D02*
X164580000Y-97340000D01*
X165600000Y-90990000D02*
X166004510Y-91394510D01*
D23*
X186470000Y-72000000D02*
X188320001Y-70149999D01*
X167879999Y-69149999D02*
X168879999Y-70149999D01*
X151500000Y-72000000D02*
X152772792Y-72000000D01*
X128000000Y-72000000D02*
X129850001Y-70149999D01*
X142738002Y-72000000D02*
X151500000Y-72000000D01*
X152772792Y-72000000D02*
X155622793Y-69149999D01*
X194988002Y-72000000D02*
X203750000Y-72000000D01*
X188320001Y-70149999D02*
X193138001Y-70149999D01*
X170138001Y-70149999D02*
X171988002Y-72000000D01*
X180750000Y-72000000D02*
X186470000Y-72000000D01*
X171988002Y-72000000D02*
X180750000Y-72000000D01*
X168879999Y-70149999D02*
X170138001Y-70149999D01*
X193138001Y-70149999D02*
X194988002Y-72000000D01*
X140888001Y-70149999D02*
X142738002Y-72000000D01*
X155622793Y-69149999D02*
X167879999Y-69149999D01*
X129850001Y-70149999D02*
X140888001Y-70149999D01*
X171799999Y-78036001D02*
X173463999Y-79700001D01*
X189511998Y-76500000D02*
X191881998Y-74130000D01*
X144213999Y-79700001D02*
X147286001Y-79700001D01*
X149586003Y-77399999D02*
X150600001Y-77399999D01*
X200549999Y-73299999D02*
X203750000Y-76500000D01*
X166511998Y-76500000D02*
X168361999Y-74649999D01*
X147286001Y-79700001D02*
X149586003Y-77399999D01*
X196463999Y-73299999D02*
X200549999Y-73299999D01*
X142549999Y-78036001D02*
X144213999Y-79700001D01*
X139300009Y-74461989D02*
X140835630Y-74461989D01*
X180750000Y-76500000D02*
X189511998Y-76500000D01*
X170429999Y-74649999D02*
X171799999Y-76019999D01*
X128000000Y-76500000D02*
X137261998Y-76500000D01*
X168361999Y-74649999D02*
X170429999Y-74649999D01*
X150600001Y-77399999D02*
X151500000Y-76500000D01*
X191881998Y-74130000D02*
X195633998Y-74130000D01*
X151500000Y-76500000D02*
X166511998Y-76500000D01*
X177549999Y-79700001D02*
X180750000Y-76500000D01*
X195633998Y-74130000D02*
X196463999Y-73299999D01*
X137261998Y-76500000D02*
X139300009Y-74461989D01*
X140835630Y-74461989D02*
X142549999Y-76176358D01*
X171799999Y-76019999D02*
X171799999Y-78036001D01*
X142549999Y-76176358D02*
X142549999Y-78036001D01*
X173463999Y-79700001D02*
X177549999Y-79700001D01*
X148642374Y-79969989D02*
X149643651Y-79969989D01*
X127441998Y-78680000D02*
X137820000Y-78680000D01*
X116500000Y-76500000D02*
X119700001Y-73299999D01*
X149643651Y-79969989D02*
X151263639Y-78350001D01*
X119700001Y-73299999D02*
X124935639Y-73299999D01*
X140000000Y-77772792D02*
X143077220Y-80850012D01*
X169250000Y-76500000D02*
X169250000Y-77112359D01*
X126149999Y-74514359D02*
X126149999Y-77388001D01*
X137820000Y-78680000D02*
X140000000Y-76500000D01*
X172987650Y-80850011D02*
X178026347Y-80850011D01*
X190399999Y-78350001D02*
X192250000Y-76500000D01*
X178026347Y-80850011D02*
X180526357Y-78350001D01*
X169250000Y-77112359D02*
X172987650Y-80850011D01*
X147762351Y-80850012D02*
X148642374Y-79969989D01*
X126149999Y-77388001D02*
X127441998Y-78680000D01*
X180526357Y-78350001D02*
X190399999Y-78350001D01*
X140000000Y-76500000D02*
X140000000Y-77772792D01*
X151263639Y-78350001D02*
X167399999Y-78350001D01*
X124935639Y-73299999D02*
X126149999Y-74514359D01*
X143077220Y-80850012D02*
X147762351Y-80850012D01*
X167399999Y-78350001D02*
X169250000Y-76500000D01*
X141340000Y-73340000D02*
X144173998Y-73340000D01*
X125261998Y-72000000D02*
X127111999Y-73850001D01*
X116500000Y-72000000D02*
X125261998Y-72000000D01*
X138149999Y-73850001D02*
X140000000Y-72000000D01*
X169250000Y-72000000D02*
X170549999Y-73299999D01*
X147326002Y-73340000D02*
X150101998Y-73340000D01*
X144213999Y-73299999D02*
X147286001Y-73299999D01*
X140000000Y-72000000D02*
X141340000Y-73340000D01*
X179311997Y-73299999D02*
X179861999Y-73850001D01*
X167399999Y-73850001D02*
X169250000Y-72000000D01*
X170549999Y-73299999D02*
X179311997Y-73299999D01*
X150611999Y-73850001D02*
X167399999Y-73850001D01*
X147286001Y-73299999D02*
X147326002Y-73340000D01*
X144173998Y-73340000D02*
X144213999Y-73299999D01*
X190399999Y-73850001D02*
X192250000Y-72000000D01*
X150101998Y-73340000D02*
X150611999Y-73850001D01*
X179861999Y-73850001D02*
X190399999Y-73850001D01*
X127111999Y-73850001D02*
X138149999Y-73850001D01*
X167540000Y-83800000D02*
X165050000Y-83800000D01*
X165050000Y-83800000D02*
X163900000Y-84950000D01*
X167560000Y-83820000D02*
X167540000Y-83800000D01*
X180750000Y-81000000D02*
X189511998Y-81000000D01*
X151260000Y-81240000D02*
X151500000Y-81000000D01*
X168361999Y-82850001D02*
X170138001Y-82850001D01*
X148238701Y-82000023D02*
X148998723Y-81240000D01*
X143261297Y-82000021D02*
X143261299Y-82000023D01*
X152399999Y-80100001D02*
X165611999Y-80100001D01*
X170668002Y-82320000D02*
X179430000Y-82320000D01*
X170138001Y-82850001D02*
X170668002Y-82320000D01*
X197763998Y-81000000D02*
X203750000Y-81000000D01*
X143261299Y-82000023D02*
X148238701Y-82000023D01*
X165611999Y-80100001D02*
X168361999Y-82850001D01*
X195913997Y-79149999D02*
X197763998Y-81000000D01*
X138976360Y-82850001D02*
X140779999Y-82850001D01*
X140779999Y-82850001D02*
X141629979Y-82000021D01*
X141629979Y-82000021D02*
X143261297Y-82000021D01*
X128000000Y-81000000D02*
X137126359Y-81000000D01*
X137126359Y-81000000D02*
X138976360Y-82850001D01*
X148998723Y-81240000D02*
X151260000Y-81240000D01*
X189511998Y-81000000D02*
X191361999Y-79149999D01*
X191361999Y-79149999D02*
X195913997Y-79149999D01*
X179430000Y-82320000D02*
X180750000Y-81000000D01*
X151500000Y-81000000D02*
X152399999Y-80100001D01*
X191925000Y-66475000D02*
X194935002Y-66475000D01*
X200999999Y-69500001D02*
X202000000Y-68500000D01*
X171719991Y-66259989D02*
X172999999Y-67539997D01*
X179000000Y-68500000D02*
X180390000Y-67110000D01*
X174039999Y-69500001D02*
X177999999Y-69500001D01*
X149750000Y-68500000D02*
X152373639Y-68500000D01*
X172999999Y-68460001D02*
X174039999Y-69500001D01*
X172999999Y-67539997D02*
X172999999Y-68460001D01*
X196000001Y-67539999D02*
X196000001Y-68525001D01*
X196975001Y-69500001D02*
X200999999Y-69500001D01*
X194935002Y-66475000D02*
X196000001Y-67539999D01*
X152373639Y-68500000D02*
X154613650Y-66259989D01*
X128260000Y-66490000D02*
X140780000Y-66490000D01*
X144789999Y-69500001D02*
X148749999Y-69500001D01*
X140789999Y-66499999D02*
X142710001Y-66499999D01*
X142710001Y-66499999D02*
X143749999Y-67539997D01*
X148749999Y-69500001D02*
X149750000Y-68500000D01*
X180390000Y-67110000D02*
X191290000Y-67110000D01*
X196000001Y-68525001D02*
X196975001Y-69500001D01*
X154613650Y-66259989D02*
X171719991Y-66259989D01*
X143749999Y-67539997D02*
X143749999Y-68460001D01*
X126250000Y-68500000D02*
X128260000Y-66490000D01*
X177999999Y-69500001D02*
X179000000Y-68500000D01*
X191290000Y-67110000D02*
X191925000Y-66475000D01*
X143749999Y-68460001D02*
X144789999Y-69500001D01*
X140780000Y-66490000D02*
X140789999Y-66499999D01*
X150611999Y-70149999D02*
X152350001Y-70149999D01*
X128978002Y-68510000D02*
X141740000Y-68510000D01*
X120200001Y-70450001D02*
X126811997Y-70450001D01*
X181668002Y-68570000D02*
X193930000Y-68570000D01*
X141750000Y-68500000D02*
X143900011Y-70650011D01*
X193930000Y-68570000D02*
X194000000Y-68500000D01*
X118250000Y-68500000D02*
X120200001Y-70450001D01*
X178599989Y-70650011D02*
X178899999Y-70350001D01*
X178899999Y-70350001D02*
X179888001Y-70350001D01*
X152350001Y-70149999D02*
X155090000Y-67410000D01*
X169910000Y-67410000D02*
X171000000Y-68500000D01*
X127138001Y-70350001D02*
X128978002Y-68510000D01*
X141740000Y-68510000D02*
X141750000Y-68500000D01*
X179888001Y-70350001D02*
X181668002Y-68570000D01*
X150111987Y-70650011D02*
X150611999Y-70149999D01*
X143900011Y-70650011D02*
X150111987Y-70650011D01*
X126811997Y-70450001D02*
X126911997Y-70350001D01*
X126911997Y-70350001D02*
X127138001Y-70350001D01*
X155090000Y-67410000D02*
X169910000Y-67410000D01*
X173150011Y-70650011D02*
X178599989Y-70650011D01*
X171000000Y-68500000D02*
X173150011Y-70650011D01*
X182510000Y-84500000D02*
X194000000Y-84500000D01*
X145271998Y-83240000D02*
X147528000Y-83240000D01*
X180439999Y-86350001D02*
X182400000Y-84390000D01*
X150688002Y-86300000D02*
X169200000Y-86300000D01*
X141750000Y-84500000D02*
X144011998Y-84500000D01*
X147899999Y-83611999D02*
X147899999Y-85388001D01*
X114610001Y-83580001D02*
X115530000Y-84500000D01*
X147899999Y-85388001D02*
X148861999Y-86350001D01*
X174111999Y-83649999D02*
X175888001Y-83649999D01*
X118250000Y-84500000D02*
X120511998Y-84500000D01*
X144011998Y-84500000D02*
X145271998Y-83240000D01*
X122361999Y-82649999D02*
X127138001Y-82649999D01*
X150638001Y-86350001D02*
X150688002Y-86300000D01*
X115530000Y-84500000D02*
X116977208Y-84500000D01*
X127138001Y-82649999D02*
X128988002Y-84500000D01*
X177149999Y-85388001D02*
X178111999Y-86350001D01*
X128988002Y-84500000D02*
X141750000Y-84500000D01*
X115410000Y-63460000D02*
X114610001Y-64259999D01*
X147528000Y-83240000D02*
X147899999Y-83611999D01*
X114610001Y-64259999D02*
X114610001Y-83580001D01*
X116977208Y-84500000D02*
X118250000Y-84500000D01*
X178111999Y-86350001D02*
X180439999Y-86350001D01*
X169200000Y-86300000D02*
X171000000Y-84500000D01*
X148861999Y-86350001D02*
X150638001Y-86350001D01*
X177149999Y-84911997D02*
X177149999Y-85388001D01*
X182400000Y-84390000D02*
X182510000Y-84500000D01*
X175888001Y-83649999D02*
X177149999Y-84911997D01*
X173261998Y-84500000D02*
X174111999Y-83649999D01*
X171000000Y-84500000D02*
X173261998Y-84500000D01*
X120511998Y-84500000D02*
X122361999Y-82649999D01*
X145700000Y-67450000D02*
X145750000Y-67500000D01*
X125470000Y-65250000D02*
X125800000Y-65250000D01*
X154022278Y-65225000D02*
X154497278Y-64750000D01*
X175000000Y-65800000D02*
X175000000Y-67500000D01*
X188875000Y-65800000D02*
X189975000Y-64700000D01*
X175000000Y-65800000D02*
X188875000Y-65800000D01*
X138900000Y-65225000D02*
X145175000Y-65225000D01*
X145175000Y-65225000D02*
X145700000Y-65750000D01*
X138875000Y-65250000D02*
X138900000Y-65225000D01*
X173950000Y-64750000D02*
X175000000Y-65800000D01*
X145175000Y-65225000D02*
X154022278Y-65225000D01*
X122250000Y-67500000D02*
X124500000Y-65250000D01*
X198000000Y-66025000D02*
X198000000Y-67500000D01*
X189975000Y-64700000D02*
X196675000Y-64700000D01*
X154497278Y-64750000D02*
X173950000Y-64750000D01*
X145700000Y-65750000D02*
X145700000Y-67450000D01*
X124500000Y-65250000D02*
X125800000Y-65250000D01*
X125800000Y-65250000D02*
X138875000Y-65250000D01*
X196675000Y-64700000D02*
X198000000Y-66025000D01*
X125570000Y-65150000D02*
X125470000Y-65250000D01*
X125570000Y-63460000D02*
X125570000Y-65150000D01*
D21*
X137832001Y-97920001D02*
X134210001Y-97920001D01*
X138602002Y-97150000D02*
X137832001Y-97920001D01*
X142800000Y-97150000D02*
X138602002Y-97150000D01*
X132390000Y-96100000D02*
X132390000Y-96020000D01*
X134210001Y-97920001D02*
X132390000Y-96100000D01*
X132390000Y-96020000D02*
X131730000Y-95360000D01*
X137750000Y-62790000D02*
X135030010Y-60070010D01*
X119070010Y-60070010D02*
X117950000Y-58950000D01*
X117950000Y-58950000D02*
X117950000Y-55840000D01*
X135030010Y-60070010D02*
X119070010Y-60070010D01*
X153630000Y-59100000D02*
X149940000Y-62790000D01*
X149940000Y-62790000D02*
X137750000Y-62790000D01*
X153630000Y-55600000D02*
X153630000Y-59100000D01*
X121300000Y-59270000D02*
X135690000Y-59270000D01*
X120490000Y-55840000D02*
X120490000Y-58460000D01*
X120490000Y-58460000D02*
X121300000Y-59270000D01*
X151090000Y-58580000D02*
X151090000Y-55600000D01*
X138120000Y-61700000D02*
X147970000Y-61700000D01*
X147970000Y-61700000D02*
X151090000Y-58580000D01*
X135690000Y-59270000D02*
X138120000Y-61700000D01*
X125500000Y-55910000D02*
X125570000Y-55840000D01*
X148550000Y-58070000D02*
X148550000Y-55600000D01*
X125500000Y-58450010D02*
X125500000Y-55910000D01*
X146230000Y-60390000D02*
X148550000Y-58070000D01*
X138420000Y-60390000D02*
X136480010Y-58450010D01*
X138420000Y-60390000D02*
X146230000Y-60390000D01*
X136480010Y-58450010D02*
X125500000Y-58450010D01*
X162564000Y-95420000D02*
X164360000Y-95420000D01*
X162052000Y-95932000D02*
X162564000Y-95420000D01*
X162052000Y-97282000D02*
X162052000Y-95932000D01*
X164360000Y-95420000D02*
X164592000Y-95188000D01*
X164592000Y-95188000D02*
X164592000Y-93726000D01*
D22*
X164037500Y-57230000D02*
X164037500Y-61472500D01*
X164037500Y-61472500D02*
X163320000Y-62190000D01*
X164060000Y-54500000D02*
X164060000Y-57207500D01*
X164060000Y-57207500D02*
X164037500Y-57230000D01*
X159512000Y-93726000D02*
X161617000Y-93726000D01*
X159512000Y-93726000D02*
X159512000Y-95504000D01*
X159512000Y-95504000D02*
X159004000Y-96012000D01*
X189411000Y-92456000D02*
X191008000Y-92456000D01*
X138664000Y-92730000D02*
X137668000Y-93726000D01*
X125450000Y-93300000D02*
X137242000Y-93300000D01*
X183896000Y-92456000D02*
X186436000Y-92456000D01*
X167894000Y-93218000D02*
X183134000Y-93218000D01*
X122920000Y-94180000D02*
X124570000Y-94180000D01*
X152595685Y-92730000D02*
X138664000Y-92730000D01*
X124570000Y-94180000D02*
X125450000Y-93300000D01*
X152630000Y-92695685D02*
X152595685Y-92730000D01*
X137668000Y-93726000D02*
X137668000Y-96012000D01*
X137668000Y-96012000D02*
X137160000Y-96520000D01*
X137242000Y-93300000D02*
X137668000Y-93726000D01*
X152630000Y-92130000D02*
X152630000Y-93280000D01*
X183134000Y-93218000D02*
X183896000Y-92456000D01*
X152630000Y-92130000D02*
X152630000Y-92695685D01*
X158280000Y-54500000D02*
X158200000Y-54420000D01*
X161085000Y-54500000D02*
X158280000Y-54500000D01*
D21*
X137810000Y-58615685D02*
X138104315Y-58910000D01*
X144690000Y-58910000D02*
X146010000Y-57590000D01*
X146010000Y-57590000D02*
X146010000Y-55600000D01*
X128320000Y-57650000D02*
X137380000Y-57650000D01*
X138104315Y-58910000D02*
X144690000Y-58910000D01*
X128110000Y-55840000D02*
X128110000Y-57440000D01*
X128110000Y-57440000D02*
X128320000Y-57650000D01*
X137380000Y-57650000D02*
X137810000Y-58080000D01*
X137810000Y-58080000D02*
X137810000Y-58615685D01*
G04 #@! TA.AperFunction,NonConductor*
G36*
X124942121Y-97020002D02*
G01*
X124988614Y-97073658D01*
X125000000Y-97126000D01*
X125000000Y-99574000D01*
X124979998Y-99642121D01*
X124926342Y-99688614D01*
X124874000Y-99700000D01*
X114126000Y-99700000D01*
X114057879Y-99679998D01*
X114011386Y-99626342D01*
X114000000Y-99574000D01*
X114000000Y-97126000D01*
X114020002Y-97057879D01*
X114073658Y-97011386D01*
X114126000Y-97000000D01*
X124874000Y-97000000D01*
X124942121Y-97020002D01*
G37*
G04 #@! TD.AperFunction*
G04 #@! TA.AperFunction,NonConductor*
G36*
X207942121Y-97020002D02*
G01*
X207988614Y-97073658D01*
X208000000Y-97126000D01*
X208000000Y-99574000D01*
X207979998Y-99642121D01*
X207926342Y-99688614D01*
X207874000Y-99700000D01*
X197126000Y-99700000D01*
X197057879Y-99679998D01*
X197011386Y-99626342D01*
X197000000Y-99574000D01*
X197000000Y-97126000D01*
X197020002Y-97057879D01*
X197073658Y-97011386D01*
X197126000Y-97000000D01*
X207874000Y-97000000D01*
X207942121Y-97020002D01*
G37*
G04 #@! TD.AperFunction*
M02*
