G04 #@! TF.GenerationSoftware,KiCad,Pcbnew,(6.0.0)*
G04 #@! TF.CreationDate,2022-12-26T17:37:19+03:00*
G04 #@! TF.ProjectId,nixie display,6e697869-6520-4646-9973-706c61792e6b,rev?*
G04 #@! TF.SameCoordinates,Original*
G04 #@! TF.FileFunction,Soldermask,Top*
G04 #@! TF.FilePolarity,Negative*
%FSLAX46Y46*%
G04 Gerber Fmt 4.6, Leading zero omitted, Abs format (unit mm)*
G04 Created by KiCad (PCBNEW (6.0.0)) date 2022-12-26 17:37:19*
%MOMM*%
%LPD*%
G01*
G04 APERTURE LIST*
%ADD10C,0.100000*%
%ADD11C,4.602000*%
%ADD12C,1.902000*%
%ADD13C,2.102000*%
%ADD14O,1.802000X1.802000*%
%ADD15O,1.902000X1.902000*%
%ADD16O,1.702000X1.702000*%
G04 APERTURE END LIST*
D10*
X197000000Y-97000000D02*
X208000000Y-97000000D01*
X208000000Y-97000000D02*
X208000000Y-100000000D01*
X208000000Y-100000000D02*
X197000000Y-100000000D01*
X197000000Y-100000000D02*
X197000000Y-97000000D01*
G36*
X208000000Y-100000000D02*
G01*
X197000000Y-100000000D01*
X197000000Y-97000000D01*
X208000000Y-97000000D01*
X208000000Y-100000000D01*
G37*
X208000000Y-100000000D02*
X197000000Y-100000000D01*
X197000000Y-97000000D01*
X208000000Y-97000000D01*
X208000000Y-100000000D01*
X114000000Y-97000000D02*
X125000000Y-97000000D01*
X125000000Y-97000000D02*
X125000000Y-100000000D01*
X125000000Y-100000000D02*
X114000000Y-100000000D01*
X114000000Y-100000000D02*
X114000000Y-97000000D01*
G36*
X125000000Y-100000000D02*
G01*
X114000000Y-100000000D01*
X114000000Y-97000000D01*
X125000000Y-97000000D01*
X125000000Y-100000000D01*
G37*
X125000000Y-100000000D02*
X114000000Y-100000000D01*
X114000000Y-97000000D01*
X125000000Y-97000000D01*
X125000000Y-100000000D01*
X197000000Y-97000000D02*
X208000000Y-97000000D01*
X208000000Y-97000000D02*
X208000000Y-100000000D01*
X208000000Y-100000000D02*
X197000000Y-100000000D01*
X197000000Y-100000000D02*
X197000000Y-97000000D01*
G36*
X208000000Y-100000000D02*
G01*
X197000000Y-100000000D01*
X197000000Y-97000000D01*
X208000000Y-97000000D01*
X208000000Y-100000000D01*
G37*
X208000000Y-100000000D02*
X197000000Y-100000000D01*
X197000000Y-97000000D01*
X208000000Y-97000000D01*
X208000000Y-100000000D01*
X114000000Y-97000000D02*
X125000000Y-97000000D01*
X125000000Y-97000000D02*
X125000000Y-100000000D01*
X125000000Y-100000000D02*
X114000000Y-100000000D01*
X114000000Y-100000000D02*
X114000000Y-97000000D01*
G36*
X125000000Y-100000000D02*
G01*
X114000000Y-100000000D01*
X114000000Y-97000000D01*
X125000000Y-97000000D01*
X125000000Y-100000000D01*
G37*
X125000000Y-100000000D02*
X114000000Y-100000000D01*
X114000000Y-97000000D01*
X125000000Y-97000000D01*
X125000000Y-100000000D01*
D11*
X122250000Y-76500000D03*
D12*
X126250000Y-84500000D03*
X128000000Y-81000000D03*
X128000000Y-76500000D03*
X128000000Y-72000000D03*
X126250000Y-68500000D03*
X122250000Y-67500000D03*
X118250000Y-68500000D03*
X116500000Y-72000000D03*
X116500000Y-76500000D03*
X116500000Y-81000000D03*
X118250000Y-84500000D03*
X122250000Y-85500000D03*
D11*
X145750000Y-76500000D03*
D12*
X149750000Y-84500000D03*
X151500000Y-81000000D03*
X151500000Y-76500000D03*
X151500000Y-72000000D03*
X149750000Y-68500000D03*
X145750000Y-67500000D03*
X141750000Y-68500000D03*
X140000000Y-72000000D03*
X140000000Y-76500000D03*
X140000000Y-81000000D03*
X141750000Y-84500000D03*
X145750000Y-85500000D03*
D11*
X175000000Y-76500000D03*
D12*
X179000000Y-84500000D03*
X180750000Y-81000000D03*
X180750000Y-76500000D03*
X180750000Y-72000000D03*
X179000000Y-68500000D03*
X175000000Y-67500000D03*
X171000000Y-68500000D03*
X169250000Y-72000000D03*
X169250000Y-76500000D03*
X169250000Y-81000000D03*
X171000000Y-84500000D03*
X175000000Y-85500000D03*
D11*
X198000000Y-76500000D03*
D12*
X202000000Y-84500000D03*
X203750000Y-81000000D03*
X203750000Y-76500000D03*
X203750000Y-72000000D03*
X202000000Y-68500000D03*
X198000000Y-67500000D03*
X194000000Y-68500000D03*
X192250000Y-72000000D03*
X192250000Y-76500000D03*
X192250000Y-81000000D03*
X194000000Y-84500000D03*
X198000000Y-85500000D03*
G36*
G01*
X164851000Y-90090000D02*
X164851000Y-91890000D01*
G75*
G02*
X164800000Y-91941000I-51000J0D01*
G01*
X161300000Y-91941000D01*
G75*
G02*
X161249000Y-91890000I0J51000D01*
G01*
X161249000Y-90090000D01*
G75*
G02*
X161300000Y-90039000I51000J0D01*
G01*
X164800000Y-90039000D01*
G75*
G02*
X164851000Y-90090000I0J-51000D01*
G01*
G37*
G36*
G01*
X159851000Y-90090000D02*
X159851000Y-91890000D01*
G75*
G02*
X159800000Y-91941000I-51000J0D01*
G01*
X156300000Y-91941000D01*
G75*
G02*
X156249000Y-91890000I0J51000D01*
G01*
X156249000Y-90090000D01*
G75*
G02*
X156300000Y-90039000I51000J0D01*
G01*
X159800000Y-90039000D01*
G75*
G02*
X159851000Y-90090000I0J-51000D01*
G01*
G37*
G36*
G01*
X156899000Y-71900000D02*
X156899000Y-70100000D01*
G75*
G02*
X156950000Y-70049000I51000J0D01*
G01*
X158750000Y-70049000D01*
G75*
G02*
X158801000Y-70100000I0J-51000D01*
G01*
X158801000Y-71900000D01*
G75*
G02*
X158750000Y-71951000I-51000J0D01*
G01*
X156950000Y-71951000D01*
G75*
G02*
X156899000Y-71900000I0J51000D01*
G01*
G37*
X162930000Y-71000000D03*
G36*
G01*
X156949000Y-82900000D02*
X156949000Y-81100000D01*
G75*
G02*
X157000000Y-81049000I51000J0D01*
G01*
X158800000Y-81049000D01*
G75*
G02*
X158851000Y-81100000I0J-51000D01*
G01*
X158851000Y-82900000D01*
G75*
G02*
X158800000Y-82951000I-51000J0D01*
G01*
X157000000Y-82951000D01*
G75*
G02*
X156949000Y-82900000I0J51000D01*
G01*
G37*
X162980000Y-82000000D03*
G36*
G01*
X158854000Y-95286000D02*
X159154000Y-95286000D01*
G75*
G02*
X159355000Y-95487000I0J-201000D01*
G01*
X159355000Y-96662000D01*
G75*
G02*
X159154000Y-96863000I-201000J0D01*
G01*
X158854000Y-96863000D01*
G75*
G02*
X158653000Y-96662000I0J201000D01*
G01*
X158653000Y-95487000D01*
G75*
G02*
X158854000Y-95286000I201000J0D01*
G01*
G37*
G36*
G01*
X156954000Y-95286000D02*
X157254000Y-95286000D01*
G75*
G02*
X157455000Y-95487000I0J-201000D01*
G01*
X157455000Y-96662000D01*
G75*
G02*
X157254000Y-96863000I-201000J0D01*
G01*
X156954000Y-96863000D01*
G75*
G02*
X156753000Y-96662000I0J201000D01*
G01*
X156753000Y-95487000D01*
G75*
G02*
X156954000Y-95286000I201000J0D01*
G01*
G37*
G36*
G01*
X157904000Y-97161000D02*
X158204000Y-97161000D01*
G75*
G02*
X158405000Y-97362000I0J-201000D01*
G01*
X158405000Y-98537000D01*
G75*
G02*
X158204000Y-98738000I-201000J0D01*
G01*
X157904000Y-98738000D01*
G75*
G02*
X157703000Y-98537000I0J201000D01*
G01*
X157703000Y-97362000D01*
G75*
G02*
X157904000Y-97161000I201000J0D01*
G01*
G37*
G36*
G01*
X160321500Y-55124999D02*
X160321500Y-53875001D01*
G75*
G02*
X160622501Y-53574000I301001J0D01*
G01*
X161547499Y-53574000D01*
G75*
G02*
X161848500Y-53875001I0J-301001D01*
G01*
X161848500Y-55124999D01*
G75*
G02*
X161547499Y-55426000I-301001J0D01*
G01*
X160622501Y-55426000D01*
G75*
G02*
X160321500Y-55124999I0J301001D01*
G01*
G37*
G36*
G01*
X163296500Y-55124999D02*
X163296500Y-53875001D01*
G75*
G02*
X163597501Y-53574000I301001J0D01*
G01*
X164522499Y-53574000D01*
G75*
G02*
X164823500Y-53875001I0J-301001D01*
G01*
X164823500Y-55124999D01*
G75*
G02*
X164522499Y-55426000I-301001J0D01*
G01*
X163597501Y-55426000D01*
G75*
G02*
X163296500Y-55124999I0J301001D01*
G01*
G37*
G36*
G01*
X160299000Y-57854999D02*
X160299000Y-56605001D01*
G75*
G02*
X160600001Y-56304000I301001J0D01*
G01*
X161524999Y-56304000D01*
G75*
G02*
X161826000Y-56605001I0J-301001D01*
G01*
X161826000Y-57854999D01*
G75*
G02*
X161524999Y-58156000I-301001J0D01*
G01*
X160600001Y-58156000D01*
G75*
G02*
X160299000Y-57854999I0J301001D01*
G01*
G37*
G36*
G01*
X163274000Y-57854999D02*
X163274000Y-56605001D01*
G75*
G02*
X163575001Y-56304000I301001J0D01*
G01*
X164499999Y-56304000D01*
G75*
G02*
X164801000Y-56605001I0J-301001D01*
G01*
X164801000Y-57854999D01*
G75*
G02*
X164499999Y-58156000I-301001J0D01*
G01*
X163575001Y-58156000D01*
G75*
G02*
X163274000Y-57854999I0J301001D01*
G01*
G37*
G36*
G01*
X165355500Y-93101001D02*
X165355500Y-94350999D01*
G75*
G02*
X165054499Y-94652000I-301001J0D01*
G01*
X164129501Y-94652000D01*
G75*
G02*
X163828500Y-94350999I0J301001D01*
G01*
X163828500Y-93101001D01*
G75*
G02*
X164129501Y-92800000I301001J0D01*
G01*
X165054499Y-92800000D01*
G75*
G02*
X165355500Y-93101001I0J-301001D01*
G01*
G37*
G36*
G01*
X162380500Y-93101001D02*
X162380500Y-94350999D01*
G75*
G02*
X162079499Y-94652000I-301001J0D01*
G01*
X161154501Y-94652000D01*
G75*
G02*
X160853500Y-94350999I0J301001D01*
G01*
X160853500Y-93101001D01*
G75*
G02*
X161154501Y-92800000I301001J0D01*
G01*
X162079499Y-92800000D01*
G75*
G02*
X162380500Y-93101001I0J-301001D01*
G01*
G37*
G36*
G01*
X155773500Y-94350999D02*
X155773500Y-93101001D01*
G75*
G02*
X156074501Y-92800000I301001J0D01*
G01*
X156999499Y-92800000D01*
G75*
G02*
X157300500Y-93101001I0J-301001D01*
G01*
X157300500Y-94350999D01*
G75*
G02*
X156999499Y-94652000I-301001J0D01*
G01*
X156074501Y-94652000D01*
G75*
G02*
X155773500Y-94350999I0J301001D01*
G01*
G37*
G36*
G01*
X158748500Y-94350999D02*
X158748500Y-93101001D01*
G75*
G02*
X159049501Y-92800000I301001J0D01*
G01*
X159974499Y-92800000D01*
G75*
G02*
X160275500Y-93101001I0J-301001D01*
G01*
X160275500Y-94350999D01*
G75*
G02*
X159974499Y-94652000I-301001J0D01*
G01*
X159049501Y-94652000D01*
G75*
G02*
X158748500Y-94350999I0J301001D01*
G01*
G37*
G36*
G01*
X190174500Y-91831001D02*
X190174500Y-93080999D01*
G75*
G02*
X189873499Y-93382000I-301001J0D01*
G01*
X188948501Y-93382000D01*
G75*
G02*
X188647500Y-93080999I0J301001D01*
G01*
X188647500Y-91831001D01*
G75*
G02*
X188948501Y-91530000I301001J0D01*
G01*
X189873499Y-91530000D01*
G75*
G02*
X190174500Y-91831001I0J-301001D01*
G01*
G37*
G36*
G01*
X187199500Y-91831001D02*
X187199500Y-93080999D01*
G75*
G02*
X186898499Y-93382000I-301001J0D01*
G01*
X185973501Y-93382000D01*
G75*
G02*
X185672500Y-93080999I0J301001D01*
G01*
X185672500Y-91831001D01*
G75*
G02*
X185973501Y-91530000I301001J0D01*
G01*
X186898499Y-91530000D01*
G75*
G02*
X187199500Y-91831001I0J-301001D01*
G01*
G37*
G36*
G01*
X165271000Y-89990000D02*
X165271000Y-91990000D01*
G75*
G02*
X165220000Y-92041000I-51000J0D01*
G01*
X163220000Y-92041000D01*
G75*
G02*
X163169000Y-91990000I0J51000D01*
G01*
X163169000Y-89990000D01*
G75*
G02*
X163220000Y-89939000I51000J0D01*
G01*
X165220000Y-89939000D01*
G75*
G02*
X165271000Y-89990000I0J-51000D01*
G01*
G37*
D13*
X156620000Y-90990000D03*
G36*
G01*
X132740000Y-54709000D02*
X134440000Y-54709000D01*
G75*
G02*
X134491000Y-54760000I0J-51000D01*
G01*
X134491000Y-56460000D01*
G75*
G02*
X134440000Y-56511000I-51000J0D01*
G01*
X132740000Y-56511000D01*
G75*
G02*
X132689000Y-56460000I0J51000D01*
G01*
X132689000Y-54760000D01*
G75*
G02*
X132740000Y-54709000I51000J0D01*
G01*
G37*
D14*
X138670000Y-55610000D03*
G36*
G01*
X164271000Y-61290000D02*
X164271000Y-63090000D01*
G75*
G02*
X164220000Y-63141000I-51000J0D01*
G01*
X162420000Y-63141000D01*
G75*
G02*
X162369000Y-63090000I0J51000D01*
G01*
X162369000Y-61290000D01*
G75*
G02*
X162420000Y-61239000I51000J0D01*
G01*
X164220000Y-61239000D01*
G75*
G02*
X164271000Y-61290000I0J-51000D01*
G01*
G37*
D15*
X160780000Y-62190000D03*
X158240000Y-62190000D03*
G36*
G01*
X141950000Y-96249000D02*
X143650000Y-96249000D01*
G75*
G02*
X143701000Y-96300000I0J-51000D01*
G01*
X143701000Y-98000000D01*
G75*
G02*
X143650000Y-98051000I-51000J0D01*
G01*
X141950000Y-98051000D01*
G75*
G02*
X141899000Y-98000000I0J51000D01*
G01*
X141899000Y-96300000D01*
G75*
G02*
X141950000Y-96249000I51000J0D01*
G01*
G37*
D14*
X145340000Y-97150000D03*
X147880000Y-97150000D03*
X150420000Y-97150000D03*
X152960000Y-97150000D03*
G36*
G01*
X154480000Y-56501000D02*
X152780000Y-56501000D01*
G75*
G02*
X152729000Y-56450000I0J51000D01*
G01*
X152729000Y-54750000D01*
G75*
G02*
X152780000Y-54699000I51000J0D01*
G01*
X154480000Y-54699000D01*
G75*
G02*
X154531000Y-54750000I0J-51000D01*
G01*
X154531000Y-56450000D01*
G75*
G02*
X154480000Y-56501000I-51000J0D01*
G01*
G37*
X151090000Y-55600000D03*
X148550000Y-55600000D03*
X146010000Y-55600000D03*
X143470000Y-55600000D03*
G36*
G01*
X159101000Y-53570000D02*
X159101000Y-55270000D01*
G75*
G02*
X159050000Y-55321000I-51000J0D01*
G01*
X157350000Y-55321000D01*
G75*
G02*
X157299000Y-55270000I0J51000D01*
G01*
X157299000Y-53570000D01*
G75*
G02*
X157350000Y-53519000I51000J0D01*
G01*
X159050000Y-53519000D01*
G75*
G02*
X159101000Y-53570000I0J-51000D01*
G01*
G37*
X158200000Y-56960000D03*
G36*
G01*
X123770000Y-95081000D02*
X122070000Y-95081000D01*
G75*
G02*
X122019000Y-95030000I0J51000D01*
G01*
X122019000Y-93330000D01*
G75*
G02*
X122070000Y-93279000I51000J0D01*
G01*
X123770000Y-93279000D01*
G75*
G02*
X123821000Y-93330000I0J-51000D01*
G01*
X123821000Y-95030000D01*
G75*
G02*
X123770000Y-95081000I-51000J0D01*
G01*
G37*
X117840000Y-94180000D03*
G36*
G01*
X161190000Y-96439000D02*
X162890000Y-96439000D01*
G75*
G02*
X162941000Y-96490000I0J-51000D01*
G01*
X162941000Y-98190000D01*
G75*
G02*
X162890000Y-98241000I-51000J0D01*
G01*
X161190000Y-98241000D01*
G75*
G02*
X161139000Y-98190000I0J51000D01*
G01*
X161139000Y-96490000D01*
G75*
G02*
X161190000Y-96439000I51000J0D01*
G01*
G37*
X164580000Y-97340000D03*
X167120000Y-97340000D03*
G36*
G01*
X111950000Y-54589000D02*
X113550000Y-54589000D01*
G75*
G02*
X113601000Y-54640000I0J-51000D01*
G01*
X113601000Y-56240000D01*
G75*
G02*
X113550000Y-56291000I-51000J0D01*
G01*
X111950000Y-56291000D01*
G75*
G02*
X111899000Y-56240000I0J51000D01*
G01*
X111899000Y-54640000D01*
G75*
G02*
X111950000Y-54589000I51000J0D01*
G01*
G37*
D16*
X115290000Y-55440000D03*
X117830000Y-55440000D03*
X120370000Y-55440000D03*
X122910000Y-55440000D03*
X125450000Y-55440000D03*
X127990000Y-55440000D03*
X130530000Y-55440000D03*
X130530000Y-63060000D03*
X127990000Y-63060000D03*
X125450000Y-63060000D03*
X122910000Y-63060000D03*
X120370000Y-63060000D03*
X117830000Y-63060000D03*
X115290000Y-63060000D03*
X112750000Y-63060000D03*
M02*
