G04 #@! TF.GenerationSoftware,KiCad,Pcbnew,(6.0.0)*
G04 #@! TF.CreationDate,2022-12-26T18:08:21+03:00*
G04 #@! TF.ProjectId,right,72696768-742e-46b6-9963-61645f706362,rev?*
G04 #@! TF.SameCoordinates,Original*
G04 #@! TF.FileFunction,Soldermask,Top*
G04 #@! TF.FilePolarity,Negative*
%FSLAX46Y46*%
G04 Gerber Fmt 4.6, Leading zero omitted, Abs format (unit mm)*
G04 Created by KiCad (PCBNEW (6.0.0)) date 2022-12-26 18:08:21*
%MOMM*%
%LPD*%
G01*
G04 APERTURE LIST*
G04 APERTURE END LIST*
G36*
G01*
X185274001Y-83390001D02*
X185274001Y-82090001D01*
G75*
G02*
X185325001Y-82039001I51000J0D01*
G01*
X186875001Y-82039001D01*
G75*
G02*
X186926001Y-82090001I0J-51000D01*
G01*
X186926001Y-83390001D01*
G75*
G02*
X186875001Y-83441001I-51000J0D01*
G01*
X185325001Y-83441001D01*
G75*
G02*
X185274001Y-83390001I0J51000D01*
G01*
G37*
G36*
G01*
X185274001Y-78890001D02*
X185274001Y-77590001D01*
G75*
G02*
X185325001Y-77539001I51000J0D01*
G01*
X186875001Y-77539001D01*
G75*
G02*
X186926001Y-77590001I0J-51000D01*
G01*
X186926001Y-78890001D01*
G75*
G02*
X186875001Y-78941001I-51000J0D01*
G01*
X185325001Y-78941001D01*
G75*
G02*
X185274001Y-78890001I0J51000D01*
G01*
G37*
G36*
G01*
X193224001Y-78890001D02*
X193224001Y-77590001D01*
G75*
G02*
X193275001Y-77539001I51000J0D01*
G01*
X194825001Y-77539001D01*
G75*
G02*
X194876001Y-77590001I0J-51000D01*
G01*
X194876001Y-78890001D01*
G75*
G02*
X194825001Y-78941001I-51000J0D01*
G01*
X193275001Y-78941001D01*
G75*
G02*
X193224001Y-78890001I0J51000D01*
G01*
G37*
G36*
G01*
X193224001Y-83390001D02*
X193224001Y-82090001D01*
G75*
G02*
X193275001Y-82039001I51000J0D01*
G01*
X194825001Y-82039001D01*
G75*
G02*
X194876001Y-82090001I0J-51000D01*
G01*
X194876001Y-83390001D01*
G75*
G02*
X194825001Y-83441001I-51000J0D01*
G01*
X193275001Y-83441001D01*
G75*
G02*
X193224001Y-83390001I0J51000D01*
G01*
G37*
G36*
G01*
X193224001Y-90970001D02*
X193224001Y-89670001D01*
G75*
G02*
X193275001Y-89619001I51000J0D01*
G01*
X194825001Y-89619001D01*
G75*
G02*
X194876001Y-89670001I0J-51000D01*
G01*
X194876001Y-90970001D01*
G75*
G02*
X194825001Y-91021001I-51000J0D01*
G01*
X193275001Y-91021001D01*
G75*
G02*
X193224001Y-90970001I0J51000D01*
G01*
G37*
G36*
G01*
X193224001Y-86470001D02*
X193224001Y-85170001D01*
G75*
G02*
X193275001Y-85119001I51000J0D01*
G01*
X194825001Y-85119001D01*
G75*
G02*
X194876001Y-85170001I0J-51000D01*
G01*
X194876001Y-86470001D01*
G75*
G02*
X194825001Y-86521001I-51000J0D01*
G01*
X193275001Y-86521001D01*
G75*
G02*
X193224001Y-86470001I0J51000D01*
G01*
G37*
G36*
G01*
X185274001Y-86470001D02*
X185274001Y-85170001D01*
G75*
G02*
X185325001Y-85119001I51000J0D01*
G01*
X186875001Y-85119001D01*
G75*
G02*
X186926001Y-85170001I0J-51000D01*
G01*
X186926001Y-86470001D01*
G75*
G02*
X186875001Y-86521001I-51000J0D01*
G01*
X185325001Y-86521001D01*
G75*
G02*
X185274001Y-86470001I0J51000D01*
G01*
G37*
G36*
G01*
X185274001Y-90970001D02*
X185274001Y-89670001D01*
G75*
G02*
X185325001Y-89619001I51000J0D01*
G01*
X186875001Y-89619001D01*
G75*
G02*
X186926001Y-89670001I0J-51000D01*
G01*
X186926001Y-90970001D01*
G75*
G02*
X186875001Y-91021001I-51000J0D01*
G01*
X185325001Y-91021001D01*
G75*
G02*
X185274001Y-90970001I0J51000D01*
G01*
G37*
M02*
