G04 #@! TF.GenerationSoftware,KiCad,Pcbnew,(6.0.0)*
G04 #@! TF.CreationDate,2022-12-26T18:08:20+03:00*
G04 #@! TF.ProjectId,right,72696768-742e-46b6-9963-61645f706362,rev?*
G04 #@! TF.SameCoordinates,Original*
G04 #@! TF.FileFunction,Copper,L1,Top*
G04 #@! TF.FilePolarity,Positive*
%FSLAX46Y46*%
G04 Gerber Fmt 4.6, Leading zero omitted, Abs format (unit mm)*
G04 Created by KiCad (PCBNEW (6.0.0)) date 2022-12-26 18:08:20*
%MOMM*%
%LPD*%
G01*
G04 APERTURE LIST*
G04 #@! TA.AperFunction,SMDPad,CuDef*
%ADD10R,1.550000X1.300000*%
G04 #@! TD*
G04 #@! TA.AperFunction,ViaPad*
%ADD11C,0.800000*%
G04 #@! TD*
G04 #@! TA.AperFunction,Conductor*
%ADD12C,0.800000*%
G04 #@! TD*
G04 APERTURE END LIST*
D10*
X186100001Y-82740001D03*
X186100001Y-78240001D03*
X194050001Y-78240001D03*
X194050001Y-82740001D03*
X194050001Y-90320001D03*
X194050001Y-85820001D03*
X186100001Y-85820001D03*
X186100001Y-90320001D03*
D11*
X190159999Y-78240001D03*
X190159999Y-82740001D03*
X190079999Y-85820001D03*
X190079999Y-90320001D03*
D12*
X186100001Y-78240001D02*
X190159999Y-78240001D01*
X190159999Y-78240001D02*
X194050001Y-78240001D01*
X194050001Y-82740001D02*
X190159999Y-82740001D01*
X190159999Y-82740001D02*
X186100001Y-82740001D01*
X186100001Y-85820001D02*
X190079999Y-85820001D01*
X190079999Y-85820001D02*
X194050001Y-85820001D01*
X194050001Y-90320001D02*
X190079999Y-90320001D01*
X190079999Y-90320001D02*
X186100001Y-90320001D01*
G04 #@! TA.AperFunction,NonConductor*
G36*
X207834121Y-70528002D02*
G01*
X207880614Y-70581658D01*
X207892000Y-70634000D01*
X207892000Y-117366000D01*
X207871998Y-117434121D01*
X207818342Y-117480614D01*
X207766000Y-117492000D01*
X202008702Y-117492000D01*
X202007932Y-117491998D01*
X202007078Y-117491993D01*
X201930348Y-117491524D01*
X201921719Y-117493990D01*
X201921714Y-117493991D01*
X201901952Y-117499639D01*
X201885191Y-117503217D01*
X201864848Y-117506130D01*
X201864838Y-117506133D01*
X201855955Y-117507405D01*
X201832605Y-117518021D01*
X201815093Y-117524464D01*
X201807057Y-117526761D01*
X201790435Y-117531512D01*
X201765452Y-117547274D01*
X201750386Y-117555404D01*
X201723490Y-117567633D01*
X201704061Y-117584374D01*
X201689053Y-117595479D01*
X201667369Y-117609160D01*
X201661427Y-117615888D01*
X201647819Y-117631296D01*
X201635627Y-117643340D01*
X201613253Y-117662619D01*
X201608374Y-117670147D01*
X201608371Y-117670150D01*
X201599304Y-117684139D01*
X201588014Y-117699013D01*
X201571044Y-117718228D01*
X201558490Y-117744966D01*
X201550176Y-117759935D01*
X201534107Y-117784727D01*
X201531535Y-117793327D01*
X201526761Y-117809290D01*
X201520099Y-117826736D01*
X201509201Y-117849948D01*
X201504658Y-117879128D01*
X201500874Y-117895849D01*
X201494986Y-117915536D01*
X201494985Y-117915539D01*
X201492413Y-117924141D01*
X201492358Y-117933116D01*
X201492358Y-117933117D01*
X201492203Y-117958546D01*
X201492170Y-117959328D01*
X201492000Y-117960423D01*
X201492000Y-117991298D01*
X201491998Y-117992068D01*
X201491524Y-118069652D01*
X201491908Y-118070996D01*
X201492000Y-118072341D01*
X201492000Y-118966000D01*
X201471998Y-119034121D01*
X201418342Y-119080614D01*
X201366000Y-119092000D01*
X194634000Y-119092000D01*
X194565879Y-119071998D01*
X194519386Y-119018342D01*
X194508000Y-118966000D01*
X194508000Y-118008702D01*
X194508002Y-118007932D01*
X194508421Y-117939322D01*
X194508476Y-117930348D01*
X194506010Y-117921719D01*
X194506009Y-117921714D01*
X194500361Y-117901952D01*
X194496783Y-117885191D01*
X194493870Y-117864848D01*
X194493867Y-117864838D01*
X194492595Y-117855955D01*
X194481979Y-117832605D01*
X194475536Y-117815093D01*
X194470954Y-117799063D01*
X194468488Y-117790435D01*
X194452726Y-117765452D01*
X194444596Y-117750386D01*
X194432367Y-117723490D01*
X194415626Y-117704061D01*
X194404521Y-117689053D01*
X194395630Y-117674961D01*
X194390840Y-117667369D01*
X194368703Y-117647818D01*
X194356659Y-117635626D01*
X194343239Y-117620051D01*
X194343237Y-117620050D01*
X194337381Y-117613253D01*
X194329853Y-117608374D01*
X194329850Y-117608371D01*
X194315861Y-117599304D01*
X194300987Y-117588014D01*
X194288502Y-117576988D01*
X194281772Y-117571044D01*
X194273646Y-117567229D01*
X194273645Y-117567228D01*
X194267979Y-117564568D01*
X194255034Y-117558490D01*
X194240065Y-117550176D01*
X194215273Y-117534107D01*
X194190709Y-117526761D01*
X194173264Y-117520099D01*
X194168827Y-117518016D01*
X194150052Y-117509201D01*
X194120870Y-117504657D01*
X194104151Y-117500874D01*
X194084464Y-117494986D01*
X194084461Y-117494985D01*
X194075859Y-117492413D01*
X194066884Y-117492358D01*
X194066883Y-117492358D01*
X194060190Y-117492317D01*
X194041444Y-117492203D01*
X194040672Y-117492170D01*
X194039577Y-117492000D01*
X194008702Y-117492000D01*
X194007932Y-117491998D01*
X193934284Y-117491548D01*
X193934283Y-117491548D01*
X193930348Y-117491524D01*
X193929004Y-117491908D01*
X193927659Y-117492000D01*
X140008702Y-117492000D01*
X140007932Y-117491998D01*
X140007078Y-117491993D01*
X139930348Y-117491524D01*
X139921719Y-117493990D01*
X139921714Y-117493991D01*
X139901952Y-117499639D01*
X139885191Y-117503217D01*
X139864848Y-117506130D01*
X139864838Y-117506133D01*
X139855955Y-117507405D01*
X139832605Y-117518021D01*
X139815093Y-117524464D01*
X139807057Y-117526761D01*
X139790435Y-117531512D01*
X139765452Y-117547274D01*
X139750386Y-117555404D01*
X139723490Y-117567633D01*
X139704061Y-117584374D01*
X139689053Y-117595479D01*
X139667369Y-117609160D01*
X139661427Y-117615888D01*
X139647819Y-117631296D01*
X139635627Y-117643340D01*
X139613253Y-117662619D01*
X139608374Y-117670147D01*
X139608371Y-117670150D01*
X139599304Y-117684139D01*
X139588014Y-117699013D01*
X139571044Y-117718228D01*
X139558490Y-117744966D01*
X139550176Y-117759935D01*
X139534107Y-117784727D01*
X139531535Y-117793327D01*
X139526761Y-117809290D01*
X139520099Y-117826736D01*
X139509201Y-117849948D01*
X139504658Y-117879128D01*
X139500874Y-117895849D01*
X139494986Y-117915536D01*
X139494985Y-117915539D01*
X139492413Y-117924141D01*
X139492358Y-117933116D01*
X139492358Y-117933117D01*
X139492203Y-117958546D01*
X139492170Y-117959328D01*
X139492000Y-117960423D01*
X139492000Y-117991298D01*
X139491998Y-117992068D01*
X139491524Y-118069652D01*
X139491908Y-118070996D01*
X139492000Y-118072341D01*
X139492000Y-118966000D01*
X139471998Y-119034121D01*
X139418342Y-119080614D01*
X139366000Y-119092000D01*
X132634000Y-119092000D01*
X132565879Y-119071998D01*
X132519386Y-119018342D01*
X132508000Y-118966000D01*
X132508000Y-118008702D01*
X132508002Y-118007932D01*
X132508421Y-117939322D01*
X132508476Y-117930348D01*
X132506010Y-117921719D01*
X132506009Y-117921714D01*
X132500361Y-117901952D01*
X132496783Y-117885191D01*
X132493870Y-117864848D01*
X132493867Y-117864838D01*
X132492595Y-117855955D01*
X132481979Y-117832605D01*
X132475536Y-117815093D01*
X132470954Y-117799063D01*
X132468488Y-117790435D01*
X132452726Y-117765452D01*
X132444596Y-117750386D01*
X132432367Y-117723490D01*
X132415626Y-117704061D01*
X132404521Y-117689053D01*
X132395630Y-117674961D01*
X132390840Y-117667369D01*
X132368703Y-117647818D01*
X132356659Y-117635626D01*
X132343239Y-117620051D01*
X132343237Y-117620050D01*
X132337381Y-117613253D01*
X132329853Y-117608374D01*
X132329850Y-117608371D01*
X132315861Y-117599304D01*
X132300987Y-117588014D01*
X132288502Y-117576988D01*
X132281772Y-117571044D01*
X132273646Y-117567229D01*
X132273645Y-117567228D01*
X132267979Y-117564568D01*
X132255034Y-117558490D01*
X132240065Y-117550176D01*
X132215273Y-117534107D01*
X132190709Y-117526761D01*
X132173264Y-117520099D01*
X132168827Y-117518016D01*
X132150052Y-117509201D01*
X132120870Y-117504657D01*
X132104151Y-117500874D01*
X132084464Y-117494986D01*
X132084461Y-117494985D01*
X132075859Y-117492413D01*
X132066884Y-117492358D01*
X132066883Y-117492358D01*
X132060190Y-117492317D01*
X132041444Y-117492203D01*
X132040672Y-117492170D01*
X132039577Y-117492000D01*
X132008702Y-117492000D01*
X132007932Y-117491998D01*
X131934284Y-117491548D01*
X131934283Y-117491548D01*
X131930348Y-117491524D01*
X131929004Y-117491908D01*
X131927659Y-117492000D01*
X122234000Y-117492000D01*
X122165879Y-117471998D01*
X122119386Y-117418342D01*
X122108000Y-117366000D01*
X122108000Y-91018135D01*
X184816501Y-91018135D01*
X184823256Y-91080317D01*
X184874386Y-91216706D01*
X184961740Y-91333262D01*
X185078296Y-91420616D01*
X185214685Y-91471746D01*
X185276867Y-91478501D01*
X186923135Y-91478501D01*
X186985317Y-91471746D01*
X187121706Y-91420616D01*
X187238262Y-91333262D01*
X187278977Y-91278936D01*
X187335836Y-91236421D01*
X187379803Y-91228501D01*
X192770199Y-91228501D01*
X192838320Y-91248503D01*
X192871025Y-91278936D01*
X192911740Y-91333262D01*
X193028296Y-91420616D01*
X193164685Y-91471746D01*
X193226867Y-91478501D01*
X194873135Y-91478501D01*
X194935317Y-91471746D01*
X195071706Y-91420616D01*
X195188262Y-91333262D01*
X195275616Y-91216706D01*
X195326746Y-91080317D01*
X195333501Y-91018135D01*
X195333501Y-89621867D01*
X195326746Y-89559685D01*
X195275616Y-89423296D01*
X195188262Y-89306740D01*
X195071706Y-89219386D01*
X194935317Y-89168256D01*
X194873135Y-89161501D01*
X193226867Y-89161501D01*
X193164685Y-89168256D01*
X193028296Y-89219386D01*
X192911740Y-89306740D01*
X192906359Y-89313920D01*
X192871025Y-89361066D01*
X192814166Y-89403581D01*
X192770199Y-89411501D01*
X187379803Y-89411501D01*
X187311682Y-89391499D01*
X187278977Y-89361066D01*
X187243643Y-89313920D01*
X187238262Y-89306740D01*
X187121706Y-89219386D01*
X186985317Y-89168256D01*
X186923135Y-89161501D01*
X185276867Y-89161501D01*
X185214685Y-89168256D01*
X185078296Y-89219386D01*
X184961740Y-89306740D01*
X184874386Y-89423296D01*
X184823256Y-89559685D01*
X184816501Y-89621867D01*
X184816501Y-91018135D01*
X122108000Y-91018135D01*
X122108000Y-86518135D01*
X184816501Y-86518135D01*
X184823256Y-86580317D01*
X184874386Y-86716706D01*
X184961740Y-86833262D01*
X185078296Y-86920616D01*
X185214685Y-86971746D01*
X185276867Y-86978501D01*
X186923135Y-86978501D01*
X186985317Y-86971746D01*
X187121706Y-86920616D01*
X187238262Y-86833262D01*
X187278977Y-86778936D01*
X187335836Y-86736421D01*
X187379803Y-86728501D01*
X192770199Y-86728501D01*
X192838320Y-86748503D01*
X192871025Y-86778936D01*
X192911740Y-86833262D01*
X193028296Y-86920616D01*
X193164685Y-86971746D01*
X193226867Y-86978501D01*
X194873135Y-86978501D01*
X194935317Y-86971746D01*
X195071706Y-86920616D01*
X195188262Y-86833262D01*
X195275616Y-86716706D01*
X195326746Y-86580317D01*
X195333501Y-86518135D01*
X195333501Y-85121867D01*
X195326746Y-85059685D01*
X195275616Y-84923296D01*
X195188262Y-84806740D01*
X195071706Y-84719386D01*
X194935317Y-84668256D01*
X194873135Y-84661501D01*
X193226867Y-84661501D01*
X193164685Y-84668256D01*
X193028296Y-84719386D01*
X192911740Y-84806740D01*
X192906359Y-84813920D01*
X192871025Y-84861066D01*
X192814166Y-84903581D01*
X192770199Y-84911501D01*
X187379803Y-84911501D01*
X187311682Y-84891499D01*
X187278977Y-84861066D01*
X187243643Y-84813920D01*
X187238262Y-84806740D01*
X187121706Y-84719386D01*
X186985317Y-84668256D01*
X186923135Y-84661501D01*
X185276867Y-84661501D01*
X185214685Y-84668256D01*
X185078296Y-84719386D01*
X184961740Y-84806740D01*
X184874386Y-84923296D01*
X184823256Y-85059685D01*
X184816501Y-85121867D01*
X184816501Y-86518135D01*
X122108000Y-86518135D01*
X122108000Y-83438135D01*
X184816501Y-83438135D01*
X184823256Y-83500317D01*
X184874386Y-83636706D01*
X184961740Y-83753262D01*
X185078296Y-83840616D01*
X185214685Y-83891746D01*
X185276867Y-83898501D01*
X186923135Y-83898501D01*
X186985317Y-83891746D01*
X187121706Y-83840616D01*
X187238262Y-83753262D01*
X187278977Y-83698936D01*
X187335836Y-83656421D01*
X187379803Y-83648501D01*
X192770199Y-83648501D01*
X192838320Y-83668503D01*
X192871025Y-83698936D01*
X192911740Y-83753262D01*
X193028296Y-83840616D01*
X193164685Y-83891746D01*
X193226867Y-83898501D01*
X194873135Y-83898501D01*
X194935317Y-83891746D01*
X195071706Y-83840616D01*
X195188262Y-83753262D01*
X195275616Y-83636706D01*
X195326746Y-83500317D01*
X195333501Y-83438135D01*
X195333501Y-82041867D01*
X195326746Y-81979685D01*
X195275616Y-81843296D01*
X195188262Y-81726740D01*
X195071706Y-81639386D01*
X194935317Y-81588256D01*
X194873135Y-81581501D01*
X193226867Y-81581501D01*
X193164685Y-81588256D01*
X193028296Y-81639386D01*
X192911740Y-81726740D01*
X192906359Y-81733920D01*
X192871025Y-81781066D01*
X192814166Y-81823581D01*
X192770199Y-81831501D01*
X187379803Y-81831501D01*
X187311682Y-81811499D01*
X187278977Y-81781066D01*
X187243643Y-81733920D01*
X187238262Y-81726740D01*
X187121706Y-81639386D01*
X186985317Y-81588256D01*
X186923135Y-81581501D01*
X185276867Y-81581501D01*
X185214685Y-81588256D01*
X185078296Y-81639386D01*
X184961740Y-81726740D01*
X184874386Y-81843296D01*
X184823256Y-81979685D01*
X184816501Y-82041867D01*
X184816501Y-83438135D01*
X122108000Y-83438135D01*
X122108000Y-78938135D01*
X184816501Y-78938135D01*
X184823256Y-79000317D01*
X184874386Y-79136706D01*
X184961740Y-79253262D01*
X185078296Y-79340616D01*
X185214685Y-79391746D01*
X185276867Y-79398501D01*
X186923135Y-79398501D01*
X186985317Y-79391746D01*
X187121706Y-79340616D01*
X187238262Y-79253262D01*
X187278977Y-79198936D01*
X187335836Y-79156421D01*
X187379803Y-79148501D01*
X192770199Y-79148501D01*
X192838320Y-79168503D01*
X192871025Y-79198936D01*
X192911740Y-79253262D01*
X193028296Y-79340616D01*
X193164685Y-79391746D01*
X193226867Y-79398501D01*
X194873135Y-79398501D01*
X194935317Y-79391746D01*
X195071706Y-79340616D01*
X195188262Y-79253262D01*
X195275616Y-79136706D01*
X195326746Y-79000317D01*
X195333501Y-78938135D01*
X195333501Y-77541867D01*
X195326746Y-77479685D01*
X195275616Y-77343296D01*
X195188262Y-77226740D01*
X195071706Y-77139386D01*
X194935317Y-77088256D01*
X194873135Y-77081501D01*
X193226867Y-77081501D01*
X193164685Y-77088256D01*
X193028296Y-77139386D01*
X192911740Y-77226740D01*
X192906359Y-77233920D01*
X192871025Y-77281066D01*
X192814166Y-77323581D01*
X192770199Y-77331501D01*
X187379803Y-77331501D01*
X187311682Y-77311499D01*
X187278977Y-77281066D01*
X187243643Y-77233920D01*
X187238262Y-77226740D01*
X187121706Y-77139386D01*
X186985317Y-77088256D01*
X186923135Y-77081501D01*
X185276867Y-77081501D01*
X185214685Y-77088256D01*
X185078296Y-77139386D01*
X184961740Y-77226740D01*
X184874386Y-77343296D01*
X184823256Y-77479685D01*
X184816501Y-77541867D01*
X184816501Y-78938135D01*
X122108000Y-78938135D01*
X122108000Y-70634000D01*
X122128002Y-70565879D01*
X122181658Y-70519386D01*
X122234000Y-70508000D01*
X207766000Y-70508000D01*
X207834121Y-70528002D01*
G37*
G04 #@! TD.AperFunction*
M02*
