G04 #@! TF.GenerationSoftware,KiCad,Pcbnew,(6.0.0)*
G04 #@! TF.CreationDate,2022-12-26T17:58:56+03:00*
G04 #@! TF.ProjectId,left,6c656674-2e6b-4696-9361-645f70636258,rev?*
G04 #@! TF.SameCoordinates,Original*
G04 #@! TF.FileFunction,Soldermask,Bot*
G04 #@! TF.FilePolarity,Negative*
%FSLAX46Y46*%
G04 Gerber Fmt 4.6, Leading zero omitted, Abs format (unit mm)*
G04 Created by KiCad (PCBNEW (6.0.0)) date 2022-12-26 17:58:56*
%MOMM*%
%LPD*%
G01*
G04 APERTURE LIST*
G04 APERTURE END LIST*
G36*
X114342121Y-98020002D02*
G01*
X114388614Y-98073658D01*
X114400000Y-98126000D01*
X114400000Y-102874000D01*
X114379998Y-102942121D01*
X114326342Y-102988614D01*
X114274000Y-103000000D01*
X106526000Y-103000000D01*
X106457879Y-102979998D01*
X106411386Y-102926342D01*
X106400000Y-102874000D01*
X106400000Y-98126000D01*
X106420002Y-98057879D01*
X106473658Y-98011386D01*
X106526000Y-98000000D01*
X114274000Y-98000000D01*
X114342121Y-98020002D01*
G37*
G36*
X176542121Y-97020002D02*
G01*
X176588614Y-97073658D01*
X176600000Y-97126000D01*
X176600000Y-101274000D01*
X176579998Y-101342121D01*
X176526342Y-101388614D01*
X176474000Y-101400000D01*
X176418115Y-101400000D01*
X176402876Y-101404475D01*
X176401671Y-101405865D01*
X176400000Y-101413548D01*
X176400000Y-102874000D01*
X176379998Y-102942121D01*
X176326342Y-102988614D01*
X176274000Y-103000000D01*
X168726000Y-103000000D01*
X168657879Y-102979998D01*
X168611386Y-102926342D01*
X168600000Y-102874000D01*
X168600000Y-97126000D01*
X168620002Y-97057879D01*
X168673658Y-97011386D01*
X168726000Y-97000000D01*
X176474000Y-97000000D01*
X176542121Y-97020002D01*
G37*
M02*
