G04 #@! TF.GenerationSoftware,KiCad,Pcbnew,(6.0.0)*
G04 #@! TF.CreationDate,2022-12-26T17:58:56+03:00*
G04 #@! TF.ProjectId,left,6c656674-2e6b-4696-9361-645f70636258,rev?*
G04 #@! TF.SameCoordinates,Original*
G04 #@! TF.FileFunction,Copper,L2,Bot*
G04 #@! TF.FilePolarity,Positive*
%FSLAX46Y46*%
G04 Gerber Fmt 4.6, Leading zero omitted, Abs format (unit mm)*
G04 Created by KiCad (PCBNEW (6.0.0)) date 2022-12-26 17:58:56*
%MOMM*%
%LPD*%
G01*
G04 APERTURE LIST*
G04 #@! TA.AperFunction,ViaPad*
%ADD10C,0.600000*%
G04 #@! TD*
G04 APERTURE END LIST*
D10*
X102900000Y-99800000D03*
G04 #@! TA.AperFunction,NonConductor*
G36*
X186234121Y-53928002D02*
G01*
X186280614Y-53981658D01*
X186292000Y-54034000D01*
X186292000Y-100766000D01*
X186271998Y-100834121D01*
X186218342Y-100880614D01*
X186166000Y-100892000D01*
X176408702Y-100892000D01*
X176407932Y-100891998D01*
X176407078Y-100891993D01*
X176330348Y-100891524D01*
X176321719Y-100893990D01*
X176321714Y-100893991D01*
X176301952Y-100899639D01*
X176285191Y-100903217D01*
X176264848Y-100906130D01*
X176264838Y-100906133D01*
X176255955Y-100907405D01*
X176232605Y-100918021D01*
X176215093Y-100924464D01*
X176207057Y-100926761D01*
X176190435Y-100931512D01*
X176165452Y-100947274D01*
X176150386Y-100955404D01*
X176123490Y-100967633D01*
X176116688Y-100973494D01*
X176109128Y-100978329D01*
X176107481Y-100975753D01*
X176056717Y-100998767D01*
X176039130Y-101000000D01*
X168761217Y-101000000D01*
X168692040Y-100979311D01*
X168688499Y-100976985D01*
X168681772Y-100971044D01*
X168655034Y-100958490D01*
X168640065Y-100950176D01*
X168615273Y-100934107D01*
X168590709Y-100926761D01*
X168573264Y-100920099D01*
X168568827Y-100918016D01*
X168550052Y-100909201D01*
X168520870Y-100904657D01*
X168504151Y-100900874D01*
X168484464Y-100894986D01*
X168484461Y-100894985D01*
X168475859Y-100892413D01*
X168466884Y-100892358D01*
X168466883Y-100892358D01*
X168460190Y-100892317D01*
X168441444Y-100892203D01*
X168440672Y-100892170D01*
X168439577Y-100892000D01*
X168408702Y-100892000D01*
X168407932Y-100891998D01*
X168334284Y-100891548D01*
X168334283Y-100891548D01*
X168330348Y-100891524D01*
X168329004Y-100891908D01*
X168327659Y-100892000D01*
X114408702Y-100892000D01*
X114407932Y-100891998D01*
X114407078Y-100891993D01*
X114330348Y-100891524D01*
X114321719Y-100893990D01*
X114321714Y-100893991D01*
X114301952Y-100899639D01*
X114285191Y-100903217D01*
X114264848Y-100906130D01*
X114264838Y-100906133D01*
X114255955Y-100907405D01*
X114232605Y-100918021D01*
X114215093Y-100924464D01*
X114207057Y-100926761D01*
X114190435Y-100931512D01*
X114165452Y-100947274D01*
X114150386Y-100955404D01*
X114123490Y-100967633D01*
X114116688Y-100973494D01*
X114109128Y-100978329D01*
X114107481Y-100975753D01*
X114056717Y-100998767D01*
X114039130Y-101000000D01*
X106761217Y-101000000D01*
X106692040Y-100979311D01*
X106688499Y-100976985D01*
X106681772Y-100971044D01*
X106655034Y-100958490D01*
X106640065Y-100950176D01*
X106615273Y-100934107D01*
X106590709Y-100926761D01*
X106573264Y-100920099D01*
X106568827Y-100918016D01*
X106550052Y-100909201D01*
X106520870Y-100904657D01*
X106504151Y-100900874D01*
X106484464Y-100894986D01*
X106484461Y-100894985D01*
X106475859Y-100892413D01*
X106466884Y-100892358D01*
X106466883Y-100892358D01*
X106460190Y-100892317D01*
X106441444Y-100892203D01*
X106440672Y-100892170D01*
X106439577Y-100892000D01*
X106408702Y-100892000D01*
X106407932Y-100891998D01*
X106334284Y-100891548D01*
X106334283Y-100891548D01*
X106330348Y-100891524D01*
X106329004Y-100891908D01*
X106327659Y-100892000D01*
X100634000Y-100892000D01*
X100565879Y-100871998D01*
X100519386Y-100818342D01*
X100508000Y-100766000D01*
X100508000Y-99788640D01*
X102086463Y-99788640D01*
X102104163Y-99969160D01*
X102161418Y-100141273D01*
X102165065Y-100147295D01*
X102165066Y-100147297D01*
X102175978Y-100165314D01*
X102255380Y-100296424D01*
X102381382Y-100426902D01*
X102533159Y-100526222D01*
X102539763Y-100528678D01*
X102539765Y-100528679D01*
X102696558Y-100586990D01*
X102696560Y-100586990D01*
X102703168Y-100589448D01*
X102786995Y-100600633D01*
X102875980Y-100612507D01*
X102875984Y-100612507D01*
X102882961Y-100613438D01*
X102889972Y-100612800D01*
X102889976Y-100612800D01*
X103032459Y-100599832D01*
X103063600Y-100596998D01*
X103070302Y-100594820D01*
X103070304Y-100594820D01*
X103229409Y-100543124D01*
X103229412Y-100543123D01*
X103236108Y-100540947D01*
X103391912Y-100448069D01*
X103523266Y-100322982D01*
X103623643Y-100171902D01*
X103688055Y-100002338D01*
X103689035Y-99995366D01*
X103712748Y-99826639D01*
X103712748Y-99826636D01*
X103713299Y-99822717D01*
X103713616Y-99800000D01*
X103693397Y-99619745D01*
X103691080Y-99613091D01*
X103636064Y-99455106D01*
X103636062Y-99455103D01*
X103633745Y-99448448D01*
X103537626Y-99294624D01*
X103523941Y-99280843D01*
X103414778Y-99170915D01*
X103414774Y-99170912D01*
X103409815Y-99165918D01*
X103398697Y-99158862D01*
X103350538Y-99128300D01*
X103256666Y-99068727D01*
X103227463Y-99058328D01*
X103092425Y-99010243D01*
X103092420Y-99010242D01*
X103085790Y-99007881D01*
X103078802Y-99007048D01*
X103078799Y-99007047D01*
X102955698Y-98992368D01*
X102905680Y-98986404D01*
X102898677Y-98987140D01*
X102898676Y-98987140D01*
X102732288Y-99004628D01*
X102732286Y-99004629D01*
X102725288Y-99005364D01*
X102553579Y-99063818D01*
X102547575Y-99067512D01*
X102405095Y-99155166D01*
X102405092Y-99155168D01*
X102399088Y-99158862D01*
X102394053Y-99163793D01*
X102394050Y-99163795D01*
X102274525Y-99280843D01*
X102269493Y-99285771D01*
X102171235Y-99438238D01*
X102168826Y-99444858D01*
X102168824Y-99444861D01*
X102111606Y-99602066D01*
X102109197Y-99608685D01*
X102086463Y-99788640D01*
X100508000Y-99788640D01*
X100508000Y-54034000D01*
X100528002Y-53965879D01*
X100581658Y-53919386D01*
X100634000Y-53908000D01*
X186166000Y-53908000D01*
X186234121Y-53928002D01*
G37*
G04 #@! TD.AperFunction*
M02*
