G04 #@! TF.GenerationSoftware,KiCad,Pcbnew,(6.0.0)*
G04 #@! TF.CreationDate,2022-12-26T15:53:49+03:00*
G04 #@! TF.ProjectId,mcu board,6d637520-626f-4617-9264-2e6b69636164,rev?*
G04 #@! TF.SameCoordinates,Original*
G04 #@! TF.FileFunction,Copper,L2,Bot*
G04 #@! TF.FilePolarity,Positive*
%FSLAX46Y46*%
G04 Gerber Fmt 4.6, Leading zero omitted, Abs format (unit mm)*
G04 Created by KiCad (PCBNEW (6.0.0)) date 2022-12-26 15:53:49*
%MOMM*%
%LPD*%
G01*
G04 APERTURE LIST*
G04 #@! TA.AperFunction,ComponentPad*
%ADD10O,0.900000X1.700000*%
G04 #@! TD*
G04 #@! TA.AperFunction,ComponentPad*
%ADD11O,0.900000X2.000000*%
G04 #@! TD*
G04 APERTURE END LIST*
D10*
X121404999Y-62104999D03*
X112764999Y-62104999D03*
D11*
X121404999Y-66274999D03*
X112764999Y-66274999D03*
G04 #@! TA.AperFunction,Conductor*
G36*
X97688121Y-60274002D02*
G01*
X97734614Y-60327658D01*
X97746000Y-60380000D01*
X97746000Y-61562575D01*
X97743579Y-61587153D01*
X97741024Y-61600000D01*
X97746000Y-61625017D01*
X97760737Y-61699106D01*
X97816876Y-61783124D01*
X97900894Y-61839263D01*
X98000000Y-61858976D01*
X98012847Y-61856421D01*
X98037425Y-61854000D01*
X109962575Y-61854000D01*
X109987153Y-61856421D01*
X110000000Y-61858976D01*
X110099106Y-61839263D01*
X110108653Y-61832884D01*
X112060999Y-61832884D01*
X112065474Y-61848123D01*
X112066864Y-61849328D01*
X112074547Y-61850999D01*
X112492884Y-61850999D01*
X112508123Y-61846524D01*
X112509328Y-61845134D01*
X112510999Y-61837451D01*
X112510999Y-61832884D01*
X113018999Y-61832884D01*
X113023474Y-61848123D01*
X113024864Y-61849328D01*
X113032547Y-61850999D01*
X113450884Y-61850999D01*
X113466123Y-61846524D01*
X113467328Y-61845134D01*
X113468999Y-61837451D01*
X113468999Y-61832884D01*
X120700999Y-61832884D01*
X120705474Y-61848123D01*
X120706864Y-61849328D01*
X120714547Y-61850999D01*
X121132884Y-61850999D01*
X121148123Y-61846524D01*
X121149328Y-61845134D01*
X121150999Y-61837451D01*
X121150999Y-61832884D01*
X121658999Y-61832884D01*
X121663474Y-61848123D01*
X121664864Y-61849328D01*
X121672547Y-61850999D01*
X122090884Y-61850999D01*
X122106123Y-61846524D01*
X122107328Y-61845134D01*
X122108999Y-61837451D01*
X122108999Y-61666058D01*
X122108543Y-61658504D01*
X122094611Y-61543378D01*
X122091015Y-61528735D01*
X122036153Y-61383546D01*
X122029168Y-61370185D01*
X121941258Y-61242275D01*
X121931285Y-61230963D01*
X121815404Y-61127717D01*
X121803023Y-61119111D01*
X121668029Y-61047636D01*
X121662484Y-61047861D01*
X121658999Y-61056393D01*
X121658999Y-61832884D01*
X121150999Y-61832884D01*
X121150999Y-61061932D01*
X121147026Y-61048401D01*
X121143842Y-61047944D01*
X121141637Y-61048649D01*
X121013134Y-61114974D01*
X121000662Y-61123450D01*
X120883707Y-61225477D01*
X120873615Y-61236685D01*
X120784373Y-61363663D01*
X120777244Y-61376960D01*
X120720868Y-61521555D01*
X120717116Y-61536169D01*
X120701537Y-61654504D01*
X120700999Y-61662713D01*
X120700999Y-61832884D01*
X113468999Y-61832884D01*
X113468999Y-61666058D01*
X113468543Y-61658504D01*
X113454611Y-61543378D01*
X113451015Y-61528735D01*
X113396153Y-61383546D01*
X113389168Y-61370185D01*
X113301258Y-61242275D01*
X113291285Y-61230963D01*
X113175404Y-61127717D01*
X113163023Y-61119111D01*
X113028029Y-61047636D01*
X113022484Y-61047861D01*
X113018999Y-61056393D01*
X113018999Y-61832884D01*
X112510999Y-61832884D01*
X112510999Y-61061932D01*
X112507026Y-61048401D01*
X112503842Y-61047944D01*
X112501637Y-61048649D01*
X112373134Y-61114974D01*
X112360662Y-61123450D01*
X112243707Y-61225477D01*
X112233615Y-61236685D01*
X112144373Y-61363663D01*
X112137244Y-61376960D01*
X112080868Y-61521555D01*
X112077116Y-61536169D01*
X112061537Y-61654504D01*
X112060999Y-61662713D01*
X112060999Y-61832884D01*
X110108653Y-61832884D01*
X110183124Y-61783124D01*
X110239263Y-61699106D01*
X110254000Y-61625017D01*
X110258976Y-61600000D01*
X110256421Y-61587153D01*
X110254000Y-61562575D01*
X110254000Y-60380000D01*
X110274002Y-60311879D01*
X110327658Y-60265386D01*
X110380000Y-60254000D01*
X179620000Y-60254000D01*
X179688121Y-60274002D01*
X179734614Y-60327658D01*
X179746000Y-60380000D01*
X179746000Y-61562575D01*
X179743579Y-61587153D01*
X179741024Y-61600000D01*
X179746000Y-61625017D01*
X179760737Y-61699106D01*
X179816876Y-61783124D01*
X179900894Y-61839263D01*
X180000000Y-61858976D01*
X180012847Y-61856421D01*
X180037425Y-61854000D01*
X194962575Y-61854000D01*
X194987153Y-61856421D01*
X195000000Y-61858976D01*
X195099106Y-61839263D01*
X195183124Y-61783124D01*
X195239263Y-61699106D01*
X195254000Y-61625017D01*
X195258976Y-61600000D01*
X195256421Y-61587153D01*
X195254000Y-61562575D01*
X195254000Y-60380000D01*
X195274002Y-60311879D01*
X195327658Y-60265386D01*
X195380000Y-60254000D01*
X197620000Y-60254000D01*
X197688121Y-60274002D01*
X197734614Y-60327658D01*
X197746000Y-60380000D01*
X197746000Y-67620000D01*
X197725998Y-67688121D01*
X197672342Y-67734614D01*
X197620000Y-67746000D01*
X196437425Y-67746000D01*
X196412847Y-67743579D01*
X196400000Y-67741024D01*
X196387828Y-67743445D01*
X196374983Y-67746000D01*
X196300894Y-67760737D01*
X196290577Y-67767631D01*
X196290576Y-67767631D01*
X196281959Y-67773389D01*
X196216876Y-67816876D01*
X196160737Y-67900894D01*
X196141024Y-68000000D01*
X196143445Y-68012170D01*
X196143579Y-68012844D01*
X196146000Y-68037425D01*
X196146000Y-75962575D01*
X196143579Y-75987153D01*
X196141024Y-76000000D01*
X196146000Y-76025017D01*
X196160737Y-76099106D01*
X196216876Y-76183124D01*
X196300894Y-76239263D01*
X196400000Y-76258976D01*
X196412847Y-76256421D01*
X196437425Y-76254000D01*
X197620000Y-76254000D01*
X197688121Y-76274002D01*
X197734614Y-76327658D01*
X197746000Y-76380000D01*
X197746000Y-129620000D01*
X197725998Y-129688121D01*
X197672342Y-129734614D01*
X197620000Y-129746000D01*
X196437425Y-129746000D01*
X196412847Y-129743579D01*
X196400000Y-129741024D01*
X196387828Y-129743445D01*
X196374983Y-129746000D01*
X196300894Y-129760737D01*
X196216876Y-129816876D01*
X196160737Y-129900894D01*
X196141024Y-130000000D01*
X196143445Y-130012170D01*
X196143579Y-130012844D01*
X196146000Y-130037425D01*
X196146000Y-137962575D01*
X196143579Y-137987153D01*
X196141024Y-138000000D01*
X196146000Y-138025017D01*
X196160737Y-138099106D01*
X196216876Y-138183124D01*
X196300894Y-138239263D01*
X196400000Y-138258976D01*
X196412847Y-138256421D01*
X196437425Y-138254000D01*
X197620000Y-138254000D01*
X197688121Y-138274002D01*
X197734614Y-138327658D01*
X197746000Y-138380000D01*
X197746000Y-149620000D01*
X197725998Y-149688121D01*
X197672342Y-149734614D01*
X197620000Y-149746000D01*
X195380000Y-149746000D01*
X195311879Y-149725998D01*
X195265386Y-149672342D01*
X195254000Y-149620000D01*
X195254000Y-148437425D01*
X195256421Y-148412844D01*
X195256555Y-148412170D01*
X195258976Y-148400000D01*
X195239263Y-148300894D01*
X195183124Y-148216876D01*
X195099106Y-148160737D01*
X195025017Y-148146000D01*
X195012172Y-148143445D01*
X195000000Y-148141024D01*
X194987153Y-148143579D01*
X194962575Y-148146000D01*
X180037425Y-148146000D01*
X180012847Y-148143579D01*
X180000000Y-148141024D01*
X179987828Y-148143445D01*
X179974983Y-148146000D01*
X179900894Y-148160737D01*
X179816876Y-148216876D01*
X179760737Y-148300894D01*
X179741024Y-148400000D01*
X179743445Y-148412170D01*
X179743579Y-148412844D01*
X179746000Y-148437425D01*
X179746000Y-149620000D01*
X179725998Y-149688121D01*
X179672342Y-149734614D01*
X179620000Y-149746000D01*
X110380000Y-149746000D01*
X110311879Y-149725998D01*
X110265386Y-149672342D01*
X110254000Y-149620000D01*
X110254000Y-148437425D01*
X110256421Y-148412844D01*
X110256555Y-148412170D01*
X110258976Y-148400000D01*
X110239263Y-148300894D01*
X110183124Y-148216876D01*
X110099106Y-148160737D01*
X110025017Y-148146000D01*
X110012172Y-148143445D01*
X110000000Y-148141024D01*
X109987153Y-148143579D01*
X109962575Y-148146000D01*
X98037425Y-148146000D01*
X98012847Y-148143579D01*
X98000000Y-148141024D01*
X97987828Y-148143445D01*
X97974983Y-148146000D01*
X97900894Y-148160737D01*
X97816876Y-148216876D01*
X97760737Y-148300894D01*
X97741024Y-148400000D01*
X97743445Y-148412170D01*
X97743579Y-148412844D01*
X97746000Y-148437425D01*
X97746000Y-149620000D01*
X97725998Y-149688121D01*
X97672342Y-149734614D01*
X97620000Y-149746000D01*
X95380000Y-149746000D01*
X95311879Y-149725998D01*
X95265386Y-149672342D01*
X95254000Y-149620000D01*
X95254000Y-138380000D01*
X95274002Y-138311879D01*
X95327658Y-138265386D01*
X95380000Y-138254000D01*
X96562575Y-138254000D01*
X96587153Y-138256421D01*
X96600000Y-138258976D01*
X96699106Y-138239263D01*
X96783124Y-138183124D01*
X96839263Y-138099106D01*
X96854000Y-138025017D01*
X96858976Y-138000000D01*
X96856421Y-137987153D01*
X96854000Y-137962575D01*
X96854000Y-130037425D01*
X96856421Y-130012844D01*
X96856555Y-130012170D01*
X96858976Y-130000000D01*
X118141024Y-130000000D01*
X118146000Y-130025017D01*
X118160737Y-130099106D01*
X118216876Y-130183124D01*
X118300894Y-130239263D01*
X118400000Y-130258976D01*
X118412847Y-130256421D01*
X118437425Y-130254000D01*
X123362575Y-130254000D01*
X123387153Y-130256421D01*
X123400000Y-130258976D01*
X123499106Y-130239263D01*
X123583124Y-130183124D01*
X123639263Y-130099106D01*
X123654000Y-130025017D01*
X123658976Y-130000000D01*
X145141024Y-130000000D01*
X145146000Y-130025017D01*
X145160737Y-130099106D01*
X145216876Y-130183124D01*
X145300894Y-130239263D01*
X145400000Y-130258976D01*
X145412847Y-130256421D01*
X145437425Y-130254000D01*
X150362575Y-130254000D01*
X150387153Y-130256421D01*
X150400000Y-130258976D01*
X150499106Y-130239263D01*
X150583124Y-130183124D01*
X150639263Y-130099106D01*
X150654000Y-130025017D01*
X150658976Y-130000000D01*
X172141024Y-130000000D01*
X172146000Y-130025017D01*
X172160737Y-130099106D01*
X172216876Y-130183124D01*
X172300894Y-130239263D01*
X172400000Y-130258976D01*
X172412847Y-130256421D01*
X172437425Y-130254000D01*
X177362575Y-130254000D01*
X177387153Y-130256421D01*
X177400000Y-130258976D01*
X177499106Y-130239263D01*
X177583124Y-130183124D01*
X177639263Y-130099106D01*
X177654000Y-130025017D01*
X177658976Y-130000000D01*
X177656421Y-129987153D01*
X177654000Y-129962575D01*
X177654000Y-128437425D01*
X177656421Y-128412844D01*
X177656555Y-128412170D01*
X177658976Y-128400000D01*
X177639263Y-128300894D01*
X177583124Y-128216876D01*
X177499106Y-128160737D01*
X177425017Y-128146000D01*
X177412172Y-128143445D01*
X177400000Y-128141024D01*
X177387153Y-128143579D01*
X177362575Y-128146000D01*
X172437425Y-128146000D01*
X172412847Y-128143579D01*
X172400000Y-128141024D01*
X172387828Y-128143445D01*
X172374983Y-128146000D01*
X172300894Y-128160737D01*
X172216876Y-128216876D01*
X172160737Y-128300894D01*
X172141024Y-128400000D01*
X172143445Y-128412170D01*
X172143579Y-128412844D01*
X172146000Y-128437425D01*
X172146000Y-129962575D01*
X172143579Y-129987153D01*
X172141024Y-130000000D01*
X150658976Y-130000000D01*
X150656421Y-129987153D01*
X150654000Y-129962575D01*
X150654000Y-128437425D01*
X150656421Y-128412844D01*
X150656555Y-128412170D01*
X150658976Y-128400000D01*
X150639263Y-128300894D01*
X150583124Y-128216876D01*
X150499106Y-128160737D01*
X150425017Y-128146000D01*
X150412172Y-128143445D01*
X150400000Y-128141024D01*
X150387153Y-128143579D01*
X150362575Y-128146000D01*
X145437425Y-128146000D01*
X145412847Y-128143579D01*
X145400000Y-128141024D01*
X145387828Y-128143445D01*
X145374983Y-128146000D01*
X145300894Y-128160737D01*
X145216876Y-128216876D01*
X145160737Y-128300894D01*
X145141024Y-128400000D01*
X145143445Y-128412170D01*
X145143579Y-128412844D01*
X145146000Y-128437425D01*
X145146000Y-129962575D01*
X145143579Y-129987153D01*
X145141024Y-130000000D01*
X123658976Y-130000000D01*
X123656421Y-129987153D01*
X123654000Y-129962575D01*
X123654000Y-128437425D01*
X123656421Y-128412844D01*
X123656555Y-128412170D01*
X123658976Y-128400000D01*
X123639263Y-128300894D01*
X123583124Y-128216876D01*
X123499106Y-128160737D01*
X123425017Y-128146000D01*
X123412172Y-128143445D01*
X123400000Y-128141024D01*
X123387153Y-128143579D01*
X123362575Y-128146000D01*
X118437425Y-128146000D01*
X118412847Y-128143579D01*
X118400000Y-128141024D01*
X118387828Y-128143445D01*
X118374983Y-128146000D01*
X118300894Y-128160737D01*
X118216876Y-128216876D01*
X118160737Y-128300894D01*
X118141024Y-128400000D01*
X118143445Y-128412170D01*
X118143579Y-128412844D01*
X118146000Y-128437425D01*
X118146000Y-129962575D01*
X118143579Y-129987153D01*
X118141024Y-130000000D01*
X96858976Y-130000000D01*
X96839263Y-129900894D01*
X96783124Y-129816876D01*
X96699106Y-129760737D01*
X96625017Y-129746000D01*
X96612172Y-129743445D01*
X96600000Y-129741024D01*
X96587153Y-129743579D01*
X96562575Y-129746000D01*
X95380000Y-129746000D01*
X95311879Y-129725998D01*
X95265386Y-129672342D01*
X95254000Y-129620000D01*
X95254000Y-121042186D01*
X101141018Y-121042186D01*
X101166579Y-121310100D01*
X101230547Y-121571518D01*
X101331583Y-121820963D01*
X101467569Y-122053210D01*
X101635658Y-122263395D01*
X101832327Y-122447113D01*
X102053457Y-122600516D01*
X102294416Y-122720391D01*
X102298750Y-122721812D01*
X102298753Y-122721813D01*
X102545823Y-122802807D01*
X102545829Y-122802808D01*
X102550156Y-122804227D01*
X102554647Y-122805007D01*
X102554648Y-122805007D01*
X102811538Y-122849611D01*
X102811546Y-122849612D01*
X102815319Y-122850267D01*
X102819156Y-122850458D01*
X102898777Y-122854422D01*
X102898785Y-122854422D01*
X102900348Y-122854500D01*
X103068374Y-122854500D01*
X103070642Y-122854335D01*
X103070654Y-122854335D01*
X103201457Y-122844844D01*
X103268425Y-122839985D01*
X103272880Y-122839001D01*
X103272883Y-122839001D01*
X103526770Y-122782947D01*
X103526772Y-122782946D01*
X103531226Y-122781963D01*
X103782900Y-122686613D01*
X104018172Y-122555931D01*
X104164842Y-122443996D01*
X104228491Y-122395421D01*
X104228495Y-122395417D01*
X104232116Y-122392654D01*
X104420249Y-122200203D01*
X104527242Y-122053210D01*
X104575942Y-121986304D01*
X104575947Y-121986297D01*
X104578630Y-121982610D01*
X104703941Y-121744433D01*
X104793557Y-121490662D01*
X104818688Y-121363156D01*
X104844720Y-121231083D01*
X104844721Y-121231077D01*
X104845601Y-121226611D01*
X104854782Y-121042186D01*
X188141018Y-121042186D01*
X188166579Y-121310100D01*
X188230547Y-121571518D01*
X188331583Y-121820963D01*
X188467569Y-122053210D01*
X188635658Y-122263395D01*
X188832327Y-122447113D01*
X189053457Y-122600516D01*
X189294416Y-122720391D01*
X189298750Y-122721812D01*
X189298753Y-122721813D01*
X189545823Y-122802807D01*
X189545829Y-122802808D01*
X189550156Y-122804227D01*
X189554647Y-122805007D01*
X189554648Y-122805007D01*
X189811538Y-122849611D01*
X189811546Y-122849612D01*
X189815319Y-122850267D01*
X189819156Y-122850458D01*
X189898777Y-122854422D01*
X189898785Y-122854422D01*
X189900348Y-122854500D01*
X190068374Y-122854500D01*
X190070642Y-122854335D01*
X190070654Y-122854335D01*
X190201457Y-122844844D01*
X190268425Y-122839985D01*
X190272880Y-122839001D01*
X190272883Y-122839001D01*
X190526770Y-122782947D01*
X190526772Y-122782946D01*
X190531226Y-122781963D01*
X190782900Y-122686613D01*
X191018172Y-122555931D01*
X191164842Y-122443996D01*
X191228491Y-122395421D01*
X191228495Y-122395417D01*
X191232116Y-122392654D01*
X191420249Y-122200203D01*
X191527242Y-122053210D01*
X191575942Y-121986304D01*
X191575947Y-121986297D01*
X191578630Y-121982610D01*
X191703941Y-121744433D01*
X191793557Y-121490662D01*
X191818688Y-121363156D01*
X191844720Y-121231083D01*
X191844721Y-121231077D01*
X191845601Y-121226611D01*
X191854782Y-121042186D01*
X191858755Y-120962383D01*
X191858755Y-120962377D01*
X191858982Y-120957814D01*
X191833421Y-120689900D01*
X191769453Y-120428482D01*
X191668417Y-120179037D01*
X191532431Y-119946790D01*
X191364342Y-119736605D01*
X191167673Y-119552887D01*
X190946543Y-119399484D01*
X190705584Y-119279609D01*
X190701250Y-119278188D01*
X190701247Y-119278187D01*
X190454177Y-119197193D01*
X190454171Y-119197192D01*
X190449844Y-119195773D01*
X190445352Y-119194993D01*
X190188462Y-119150389D01*
X190188454Y-119150388D01*
X190184681Y-119149733D01*
X190174718Y-119149237D01*
X190101223Y-119145578D01*
X190101215Y-119145578D01*
X190099652Y-119145500D01*
X189931626Y-119145500D01*
X189929358Y-119145665D01*
X189929346Y-119145665D01*
X189798543Y-119155156D01*
X189731575Y-119160015D01*
X189727120Y-119160999D01*
X189727117Y-119160999D01*
X189473230Y-119217053D01*
X189473228Y-119217054D01*
X189468774Y-119218037D01*
X189217100Y-119313387D01*
X188981828Y-119444069D01*
X188978196Y-119446841D01*
X188771509Y-119604579D01*
X188771505Y-119604583D01*
X188767884Y-119607346D01*
X188579751Y-119799797D01*
X188577066Y-119803486D01*
X188424058Y-120013696D01*
X188424053Y-120013703D01*
X188421370Y-120017390D01*
X188296059Y-120255567D01*
X188206443Y-120509338D01*
X188205560Y-120513820D01*
X188170855Y-120689900D01*
X188154399Y-120773389D01*
X188154172Y-120777942D01*
X188154172Y-120777945D01*
X188144991Y-120962383D01*
X188141018Y-121042186D01*
X104854782Y-121042186D01*
X104858755Y-120962383D01*
X104858755Y-120962377D01*
X104858982Y-120957814D01*
X104833421Y-120689900D01*
X104769453Y-120428482D01*
X104668417Y-120179037D01*
X104532431Y-119946790D01*
X104364342Y-119736605D01*
X104167673Y-119552887D01*
X103946543Y-119399484D01*
X103705584Y-119279609D01*
X103701250Y-119278188D01*
X103701247Y-119278187D01*
X103454177Y-119197193D01*
X103454171Y-119197192D01*
X103449844Y-119195773D01*
X103445352Y-119194993D01*
X103188462Y-119150389D01*
X103188454Y-119150388D01*
X103184681Y-119149733D01*
X103174718Y-119149237D01*
X103101223Y-119145578D01*
X103101215Y-119145578D01*
X103099652Y-119145500D01*
X102931626Y-119145500D01*
X102929358Y-119145665D01*
X102929346Y-119145665D01*
X102798543Y-119155156D01*
X102731575Y-119160015D01*
X102727120Y-119160999D01*
X102727117Y-119160999D01*
X102473230Y-119217053D01*
X102473228Y-119217054D01*
X102468774Y-119218037D01*
X102217100Y-119313387D01*
X101981828Y-119444069D01*
X101978196Y-119446841D01*
X101771509Y-119604579D01*
X101771505Y-119604583D01*
X101767884Y-119607346D01*
X101579751Y-119799797D01*
X101577066Y-119803486D01*
X101424058Y-120013696D01*
X101424053Y-120013703D01*
X101421370Y-120017390D01*
X101296059Y-120255567D01*
X101206443Y-120509338D01*
X101205560Y-120513820D01*
X101170855Y-120689900D01*
X101154399Y-120773389D01*
X101154172Y-120777942D01*
X101154172Y-120777945D01*
X101144991Y-120962383D01*
X101141018Y-121042186D01*
X95254000Y-121042186D01*
X95254000Y-76380000D01*
X95274002Y-76311879D01*
X95327658Y-76265386D01*
X95380000Y-76254000D01*
X96562575Y-76254000D01*
X96587153Y-76256421D01*
X96600000Y-76258976D01*
X96699106Y-76239263D01*
X96783124Y-76183124D01*
X96839263Y-76099106D01*
X96854000Y-76025017D01*
X96858976Y-76000000D01*
X96856421Y-75987153D01*
X96854000Y-75962575D01*
X96854000Y-68042186D01*
X101141018Y-68042186D01*
X101166579Y-68310100D01*
X101230547Y-68571518D01*
X101331583Y-68820963D01*
X101467569Y-69053210D01*
X101635658Y-69263395D01*
X101832327Y-69447113D01*
X102053457Y-69600516D01*
X102294416Y-69720391D01*
X102298750Y-69721812D01*
X102298753Y-69721813D01*
X102545823Y-69802807D01*
X102545829Y-69802808D01*
X102550156Y-69804227D01*
X102554647Y-69805007D01*
X102554648Y-69805007D01*
X102811538Y-69849611D01*
X102811546Y-69849612D01*
X102815319Y-69850267D01*
X102819156Y-69850458D01*
X102898777Y-69854422D01*
X102898785Y-69854422D01*
X102900348Y-69854500D01*
X103068374Y-69854500D01*
X103070642Y-69854335D01*
X103070654Y-69854335D01*
X103201457Y-69844844D01*
X103268425Y-69839985D01*
X103272880Y-69839001D01*
X103272883Y-69839001D01*
X103526770Y-69782947D01*
X103526772Y-69782946D01*
X103531226Y-69781963D01*
X103782900Y-69686613D01*
X104018172Y-69555931D01*
X104164842Y-69443996D01*
X104228491Y-69395421D01*
X104228495Y-69395417D01*
X104232116Y-69392654D01*
X104420249Y-69200203D01*
X104527242Y-69053210D01*
X104575942Y-68986304D01*
X104575947Y-68986297D01*
X104578630Y-68982610D01*
X104703941Y-68744433D01*
X104793557Y-68490662D01*
X104818688Y-68363156D01*
X104844720Y-68231083D01*
X104844721Y-68231077D01*
X104845601Y-68226611D01*
X104847766Y-68183124D01*
X104854782Y-68042186D01*
X188141018Y-68042186D01*
X188166579Y-68310100D01*
X188230547Y-68571518D01*
X188331583Y-68820963D01*
X188467569Y-69053210D01*
X188635658Y-69263395D01*
X188832327Y-69447113D01*
X189053457Y-69600516D01*
X189294416Y-69720391D01*
X189298750Y-69721812D01*
X189298753Y-69721813D01*
X189545823Y-69802807D01*
X189545829Y-69802808D01*
X189550156Y-69804227D01*
X189554647Y-69805007D01*
X189554648Y-69805007D01*
X189811538Y-69849611D01*
X189811546Y-69849612D01*
X189815319Y-69850267D01*
X189819156Y-69850458D01*
X189898777Y-69854422D01*
X189898785Y-69854422D01*
X189900348Y-69854500D01*
X190068374Y-69854500D01*
X190070642Y-69854335D01*
X190070654Y-69854335D01*
X190201457Y-69844844D01*
X190268425Y-69839985D01*
X190272880Y-69839001D01*
X190272883Y-69839001D01*
X190526770Y-69782947D01*
X190526772Y-69782946D01*
X190531226Y-69781963D01*
X190782900Y-69686613D01*
X191018172Y-69555931D01*
X191164842Y-69443996D01*
X191228491Y-69395421D01*
X191228495Y-69395417D01*
X191232116Y-69392654D01*
X191420249Y-69200203D01*
X191527242Y-69053210D01*
X191575942Y-68986304D01*
X191575947Y-68986297D01*
X191578630Y-68982610D01*
X191703941Y-68744433D01*
X191793557Y-68490662D01*
X191818688Y-68363156D01*
X191844720Y-68231083D01*
X191844721Y-68231077D01*
X191845601Y-68226611D01*
X191847766Y-68183124D01*
X191858755Y-67962383D01*
X191858755Y-67962377D01*
X191858982Y-67957814D01*
X191833421Y-67689900D01*
X191780495Y-67473605D01*
X191770539Y-67432920D01*
X191769453Y-67428482D01*
X191668417Y-67179037D01*
X191532431Y-66946790D01*
X191364342Y-66736605D01*
X191167673Y-66552887D01*
X190946543Y-66399484D01*
X190705584Y-66279609D01*
X190701250Y-66278188D01*
X190701247Y-66278187D01*
X190454177Y-66197193D01*
X190454171Y-66197192D01*
X190449844Y-66195773D01*
X190445352Y-66194993D01*
X190188462Y-66150389D01*
X190188454Y-66150388D01*
X190184681Y-66149733D01*
X190174718Y-66149237D01*
X190101223Y-66145578D01*
X190101215Y-66145578D01*
X190099652Y-66145500D01*
X189931626Y-66145500D01*
X189929358Y-66145665D01*
X189929346Y-66145665D01*
X189798543Y-66155156D01*
X189731575Y-66160015D01*
X189727120Y-66160999D01*
X189727117Y-66160999D01*
X189473230Y-66217053D01*
X189473228Y-66217054D01*
X189468774Y-66218037D01*
X189217100Y-66313387D01*
X189213114Y-66315601D01*
X189213112Y-66315602D01*
X189152392Y-66349329D01*
X188981828Y-66444069D01*
X188978196Y-66446841D01*
X188771509Y-66604579D01*
X188771505Y-66604583D01*
X188767884Y-66607346D01*
X188579751Y-66799797D01*
X188577066Y-66803486D01*
X188424058Y-67013696D01*
X188424053Y-67013703D01*
X188421370Y-67017390D01*
X188296059Y-67255567D01*
X188206443Y-67509338D01*
X188205560Y-67513820D01*
X188155534Y-67767632D01*
X188154399Y-67773389D01*
X188154172Y-67777942D01*
X188154172Y-67777945D01*
X188141873Y-68025017D01*
X188141018Y-68042186D01*
X104854782Y-68042186D01*
X104858755Y-67962383D01*
X104858755Y-67962377D01*
X104858982Y-67957814D01*
X104833421Y-67689900D01*
X104780495Y-67473605D01*
X104770539Y-67432920D01*
X104769453Y-67428482D01*
X104668417Y-67179037D01*
X104532431Y-66946790D01*
X104466174Y-66863940D01*
X112060999Y-66863940D01*
X112061455Y-66871494D01*
X112075387Y-66986620D01*
X112078983Y-67001263D01*
X112133845Y-67146452D01*
X112140830Y-67159813D01*
X112228740Y-67287723D01*
X112238713Y-67299035D01*
X112354591Y-67402279D01*
X112366975Y-67410887D01*
X112501969Y-67482362D01*
X112507514Y-67482137D01*
X112510999Y-67473605D01*
X112510999Y-67468066D01*
X113018999Y-67468066D01*
X113022972Y-67481597D01*
X113026156Y-67482054D01*
X113028361Y-67481349D01*
X113156864Y-67415024D01*
X113169336Y-67406548D01*
X113286291Y-67304521D01*
X113296383Y-67293313D01*
X113385625Y-67166335D01*
X113392754Y-67153038D01*
X113449130Y-67008443D01*
X113452882Y-66993829D01*
X113468461Y-66875494D01*
X113468999Y-66867285D01*
X113468999Y-66863940D01*
X120700999Y-66863940D01*
X120701455Y-66871494D01*
X120715387Y-66986620D01*
X120718983Y-67001263D01*
X120773845Y-67146452D01*
X120780830Y-67159813D01*
X120868740Y-67287723D01*
X120878713Y-67299035D01*
X120994591Y-67402279D01*
X121006975Y-67410887D01*
X121141969Y-67482362D01*
X121147514Y-67482137D01*
X121150999Y-67473605D01*
X121150999Y-67468066D01*
X121658999Y-67468066D01*
X121662972Y-67481597D01*
X121666156Y-67482054D01*
X121668361Y-67481349D01*
X121796864Y-67415024D01*
X121809336Y-67406548D01*
X121926291Y-67304521D01*
X121936383Y-67293313D01*
X122025625Y-67166335D01*
X122032754Y-67153038D01*
X122089130Y-67008443D01*
X122092882Y-66993829D01*
X122108461Y-66875494D01*
X122108999Y-66867285D01*
X122108999Y-66547114D01*
X122104524Y-66531875D01*
X122103134Y-66530670D01*
X122095451Y-66528999D01*
X121677114Y-66528999D01*
X121661875Y-66533474D01*
X121660670Y-66534864D01*
X121658999Y-66542547D01*
X121658999Y-67468066D01*
X121150999Y-67468066D01*
X121150999Y-66547114D01*
X121146524Y-66531875D01*
X121145134Y-66530670D01*
X121137451Y-66528999D01*
X120719114Y-66528999D01*
X120703875Y-66533474D01*
X120702670Y-66534864D01*
X120700999Y-66542547D01*
X120700999Y-66863940D01*
X113468999Y-66863940D01*
X113468999Y-66547114D01*
X113464524Y-66531875D01*
X113463134Y-66530670D01*
X113455451Y-66528999D01*
X113037114Y-66528999D01*
X113021875Y-66533474D01*
X113020670Y-66534864D01*
X113018999Y-66542547D01*
X113018999Y-67468066D01*
X112510999Y-67468066D01*
X112510999Y-66547114D01*
X112506524Y-66531875D01*
X112505134Y-66530670D01*
X112497451Y-66528999D01*
X112079114Y-66528999D01*
X112063875Y-66533474D01*
X112062670Y-66534864D01*
X112060999Y-66542547D01*
X112060999Y-66863940D01*
X104466174Y-66863940D01*
X104364342Y-66736605D01*
X104167673Y-66552887D01*
X103946543Y-66399484D01*
X103705584Y-66279609D01*
X103701250Y-66278188D01*
X103701247Y-66278187D01*
X103454177Y-66197193D01*
X103454171Y-66197192D01*
X103449844Y-66195773D01*
X103445352Y-66194993D01*
X103188462Y-66150389D01*
X103188454Y-66150388D01*
X103184681Y-66149733D01*
X103174718Y-66149237D01*
X103101223Y-66145578D01*
X103101215Y-66145578D01*
X103099652Y-66145500D01*
X102931626Y-66145500D01*
X102929358Y-66145665D01*
X102929346Y-66145665D01*
X102798543Y-66155156D01*
X102731575Y-66160015D01*
X102727120Y-66160999D01*
X102727117Y-66160999D01*
X102473230Y-66217053D01*
X102473228Y-66217054D01*
X102468774Y-66218037D01*
X102217100Y-66313387D01*
X102213114Y-66315601D01*
X102213112Y-66315602D01*
X102152392Y-66349329D01*
X101981828Y-66444069D01*
X101978196Y-66446841D01*
X101771509Y-66604579D01*
X101771505Y-66604583D01*
X101767884Y-66607346D01*
X101579751Y-66799797D01*
X101577066Y-66803486D01*
X101424058Y-67013696D01*
X101424053Y-67013703D01*
X101421370Y-67017390D01*
X101296059Y-67255567D01*
X101206443Y-67509338D01*
X101205560Y-67513820D01*
X101155534Y-67767632D01*
X101154399Y-67773389D01*
X101154172Y-67777942D01*
X101154172Y-67777945D01*
X101141873Y-68025017D01*
X101141018Y-68042186D01*
X96854000Y-68042186D01*
X96854000Y-68037425D01*
X96856421Y-68012844D01*
X96856555Y-68012170D01*
X96858976Y-68000000D01*
X96839263Y-67900894D01*
X96783124Y-67816876D01*
X96699106Y-67760737D01*
X96625017Y-67746000D01*
X96612172Y-67743445D01*
X96600000Y-67741024D01*
X96587153Y-67743579D01*
X96562575Y-67746000D01*
X95380000Y-67746000D01*
X95311879Y-67725998D01*
X95265386Y-67672342D01*
X95254000Y-67620000D01*
X95254000Y-66002884D01*
X112060999Y-66002884D01*
X112065474Y-66018123D01*
X112066864Y-66019328D01*
X112074547Y-66020999D01*
X112492884Y-66020999D01*
X112508123Y-66016524D01*
X112509328Y-66015134D01*
X112510999Y-66007451D01*
X112510999Y-66002884D01*
X113018999Y-66002884D01*
X113023474Y-66018123D01*
X113024864Y-66019328D01*
X113032547Y-66020999D01*
X113450884Y-66020999D01*
X113466123Y-66016524D01*
X113481729Y-65998514D01*
X113541454Y-65960129D01*
X113612451Y-65960128D01*
X113672177Y-65998511D01*
X113689221Y-66023822D01*
X113700638Y-66046229D01*
X113735391Y-66114435D01*
X113741204Y-66120756D01*
X113741205Y-66120758D01*
X113829754Y-66217053D01*
X113838225Y-66226265D01*
X113845520Y-66230788D01*
X113845521Y-66230789D01*
X113927540Y-66281643D01*
X113967343Y-66306322D01*
X114113234Y-66348708D01*
X114124006Y-66349499D01*
X114233056Y-66349499D01*
X114237302Y-66348917D01*
X114237308Y-66348917D01*
X114316053Y-66338130D01*
X114345517Y-66334094D01*
X114393368Y-66313387D01*
X114477063Y-66277168D01*
X114477064Y-66277168D01*
X114484945Y-66273757D01*
X114532908Y-66234918D01*
X114596338Y-66183554D01*
X114596340Y-66183552D01*
X114603012Y-66178149D01*
X114615900Y-66160015D01*
X114686043Y-66061314D01*
X114686043Y-66061313D01*
X114691019Y-66054312D01*
X114742481Y-65911370D01*
X114748446Y-65830144D01*
X119416390Y-65830144D01*
X119446419Y-65979070D01*
X119450319Y-65986724D01*
X119511491Y-66106782D01*
X119511493Y-66106785D01*
X119515391Y-66114435D01*
X119521204Y-66120756D01*
X119521205Y-66120758D01*
X119609754Y-66217053D01*
X119618225Y-66226265D01*
X119625520Y-66230788D01*
X119625521Y-66230789D01*
X119707540Y-66281643D01*
X119747343Y-66306322D01*
X119893234Y-66348708D01*
X119904006Y-66349499D01*
X120013056Y-66349499D01*
X120017302Y-66348917D01*
X120017308Y-66348917D01*
X120096053Y-66338130D01*
X120125517Y-66334094D01*
X120173368Y-66313387D01*
X120257063Y-66277168D01*
X120257064Y-66277168D01*
X120264945Y-66273757D01*
X120312908Y-66234918D01*
X120376338Y-66183554D01*
X120376340Y-66183552D01*
X120383012Y-66178149D01*
X120395900Y-66160015D01*
X120466043Y-66061314D01*
X120466043Y-66061313D01*
X120471019Y-66054312D01*
X120473929Y-66046229D01*
X120473931Y-66046226D01*
X120475286Y-66042462D01*
X120477436Y-66039520D01*
X120477908Y-66038618D01*
X120478044Y-66038689D01*
X120517183Y-65985146D01*
X120583416Y-65959580D01*
X120652958Y-65973880D01*
X120675642Y-65996054D01*
X120677513Y-65993895D01*
X120706864Y-66019328D01*
X120714547Y-66020999D01*
X121132884Y-66020999D01*
X121148123Y-66016524D01*
X121149328Y-66015134D01*
X121150999Y-66007451D01*
X121150999Y-66002884D01*
X121658999Y-66002884D01*
X121663474Y-66018123D01*
X121664864Y-66019328D01*
X121672547Y-66020999D01*
X122090884Y-66020999D01*
X122106123Y-66016524D01*
X122107328Y-66015134D01*
X122108999Y-66007451D01*
X122108999Y-65686058D01*
X122108543Y-65678504D01*
X122094611Y-65563378D01*
X122091015Y-65548735D01*
X122036153Y-65403546D01*
X122029168Y-65390185D01*
X121941258Y-65262275D01*
X121931285Y-65250963D01*
X121815404Y-65147717D01*
X121803023Y-65139111D01*
X121668029Y-65067636D01*
X121662484Y-65067861D01*
X121658999Y-65076393D01*
X121658999Y-66002884D01*
X121150999Y-66002884D01*
X121150999Y-65081932D01*
X121147026Y-65068401D01*
X121143842Y-65067944D01*
X121141637Y-65068649D01*
X121013134Y-65134974D01*
X121000662Y-65143450D01*
X120883707Y-65245477D01*
X120873615Y-65256685D01*
X120784373Y-65383663D01*
X120777244Y-65396960D01*
X120720867Y-65541558D01*
X120719144Y-65548270D01*
X120682831Y-65609277D01*
X120619299Y-65640967D01*
X120548720Y-65633279D01*
X120493502Y-65588653D01*
X120484835Y-65574141D01*
X120438507Y-65483216D01*
X120438505Y-65483213D01*
X120434607Y-65475563D01*
X120382456Y-65418849D01*
X120337583Y-65370051D01*
X120337582Y-65370050D01*
X120331773Y-65363733D01*
X120263893Y-65321645D01*
X120209955Y-65288202D01*
X120209954Y-65288201D01*
X120202655Y-65283676D01*
X120056764Y-65241290D01*
X120045992Y-65240499D01*
X119936942Y-65240499D01*
X119932696Y-65241081D01*
X119932690Y-65241081D01*
X119853945Y-65251868D01*
X119824481Y-65255904D01*
X119816597Y-65259316D01*
X119816596Y-65259316D01*
X119760305Y-65283676D01*
X119685053Y-65316241D01*
X119678380Y-65321645D01*
X119573660Y-65406444D01*
X119573658Y-65406446D01*
X119566986Y-65411849D01*
X119478979Y-65535686D01*
X119427517Y-65678628D01*
X119416390Y-65830144D01*
X114748446Y-65830144D01*
X114753608Y-65759854D01*
X114723579Y-65610928D01*
X114711876Y-65587959D01*
X114658507Y-65483216D01*
X114658505Y-65483213D01*
X114654607Y-65475563D01*
X114602456Y-65418849D01*
X114557583Y-65370051D01*
X114557582Y-65370050D01*
X114551773Y-65363733D01*
X114483893Y-65321645D01*
X114429955Y-65288202D01*
X114429954Y-65288201D01*
X114422655Y-65283676D01*
X114276764Y-65241290D01*
X114265992Y-65240499D01*
X114156942Y-65240499D01*
X114152696Y-65241081D01*
X114152690Y-65241081D01*
X114073945Y-65251868D01*
X114044481Y-65255904D01*
X114036597Y-65259316D01*
X114036596Y-65259316D01*
X113980305Y-65283676D01*
X113905053Y-65316241D01*
X113898380Y-65321645D01*
X113793660Y-65406444D01*
X113793658Y-65406446D01*
X113786986Y-65411849D01*
X113698979Y-65535686D01*
X113696069Y-65543769D01*
X113691039Y-65557740D01*
X113649144Y-65615058D01*
X113582912Y-65640627D01*
X113513370Y-65626329D01*
X113462597Y-65576703D01*
X113454274Y-65555621D01*
X113453699Y-65555838D01*
X113396153Y-65403546D01*
X113389168Y-65390185D01*
X113301258Y-65262275D01*
X113291285Y-65250963D01*
X113175404Y-65147717D01*
X113163023Y-65139111D01*
X113028029Y-65067636D01*
X113022484Y-65067861D01*
X113018999Y-65076393D01*
X113018999Y-66002884D01*
X112510999Y-66002884D01*
X112510999Y-65081932D01*
X112507026Y-65068401D01*
X112503842Y-65067944D01*
X112501637Y-65068649D01*
X112373134Y-65134974D01*
X112360662Y-65143450D01*
X112243707Y-65245477D01*
X112233615Y-65256685D01*
X112144373Y-65383663D01*
X112137244Y-65396960D01*
X112080868Y-65541555D01*
X112077116Y-65556169D01*
X112061537Y-65674504D01*
X112060999Y-65682713D01*
X112060999Y-66002884D01*
X95254000Y-66002884D01*
X95254000Y-62543940D01*
X112060999Y-62543940D01*
X112061455Y-62551494D01*
X112075387Y-62666620D01*
X112078983Y-62681263D01*
X112133845Y-62826452D01*
X112140830Y-62839813D01*
X112228740Y-62967723D01*
X112238713Y-62979035D01*
X112354591Y-63082279D01*
X112366975Y-63090887D01*
X112501969Y-63162362D01*
X112507514Y-63162137D01*
X112510999Y-63153605D01*
X112510999Y-63148066D01*
X113018999Y-63148066D01*
X113022972Y-63161597D01*
X113026156Y-63162054D01*
X113028361Y-63161349D01*
X113156864Y-63095024D01*
X113169336Y-63086548D01*
X113286291Y-62984521D01*
X113296383Y-62973313D01*
X113385625Y-62846335D01*
X113392754Y-62833038D01*
X113449130Y-62688443D01*
X113452882Y-62673829D01*
X113468461Y-62555494D01*
X113468999Y-62547285D01*
X113468999Y-62543940D01*
X120700999Y-62543940D01*
X120701455Y-62551494D01*
X120715387Y-62666620D01*
X120718983Y-62681263D01*
X120773845Y-62826452D01*
X120780830Y-62839813D01*
X120868740Y-62967723D01*
X120878713Y-62979035D01*
X120994591Y-63082279D01*
X121006975Y-63090887D01*
X121141969Y-63162362D01*
X121147514Y-63162137D01*
X121150999Y-63153605D01*
X121150999Y-63148066D01*
X121658999Y-63148066D01*
X121662972Y-63161597D01*
X121666156Y-63162054D01*
X121668361Y-63161349D01*
X121796864Y-63095024D01*
X121809336Y-63086548D01*
X121926291Y-62984521D01*
X121936383Y-62973313D01*
X122025625Y-62846335D01*
X122032754Y-62833038D01*
X122089130Y-62688443D01*
X122092882Y-62673829D01*
X122108461Y-62555494D01*
X122108999Y-62547285D01*
X122108999Y-62377114D01*
X122104524Y-62361875D01*
X122103134Y-62360670D01*
X122095451Y-62358999D01*
X121677114Y-62358999D01*
X121661875Y-62363474D01*
X121660670Y-62364864D01*
X121658999Y-62372547D01*
X121658999Y-63148066D01*
X121150999Y-63148066D01*
X121150999Y-62377114D01*
X121146524Y-62361875D01*
X121145134Y-62360670D01*
X121137451Y-62358999D01*
X120719114Y-62358999D01*
X120703875Y-62363474D01*
X120702670Y-62364864D01*
X120700999Y-62372547D01*
X120700999Y-62543940D01*
X113468999Y-62543940D01*
X113468999Y-62377114D01*
X113464524Y-62361875D01*
X113463134Y-62360670D01*
X113455451Y-62358999D01*
X113037114Y-62358999D01*
X113021875Y-62363474D01*
X113020670Y-62364864D01*
X113018999Y-62372547D01*
X113018999Y-63148066D01*
X112510999Y-63148066D01*
X112510999Y-62377114D01*
X112506524Y-62361875D01*
X112505134Y-62360670D01*
X112497451Y-62358999D01*
X112079114Y-62358999D01*
X112063875Y-62363474D01*
X112062670Y-62364864D01*
X112060999Y-62372547D01*
X112060999Y-62543940D01*
X95254000Y-62543940D01*
X95254000Y-60380000D01*
X95274002Y-60311879D01*
X95327658Y-60265386D01*
X95380000Y-60254000D01*
X97620000Y-60254000D01*
X97688121Y-60274002D01*
G37*
G04 #@! TD.AperFunction*
M02*
