G04 #@! TF.GenerationSoftware,KiCad,Pcbnew,(6.0.0)*
G04 #@! TF.CreationDate,2022-12-26T15:53:49+03:00*
G04 #@! TF.ProjectId,mcu board,6d637520-626f-4617-9264-2e6b69636164,rev?*
G04 #@! TF.SameCoordinates,Original*
G04 #@! TF.FileFunction,Soldermask,Top*
G04 #@! TF.FilePolarity,Negative*
%FSLAX46Y46*%
G04 Gerber Fmt 4.6, Leading zero omitted, Abs format (unit mm)*
G04 Created by KiCad (PCBNEW (6.0.0)) date 2022-12-26 15:53:49*
%MOMM*%
%LPD*%
G01*
G04 APERTURE LIST*
%ADD10C,0.100000*%
%ADD11C,0.300000*%
%ADD12C,0.702000*%
%ADD13O,1.002000X1.802000*%
%ADD14O,1.002000X2.102000*%
%ADD15C,3.302000*%
G04 APERTURE END LIST*
D10*
X98000000Y-148400000D02*
X98000000Y-145400000D01*
X98000000Y-145400000D02*
X110000000Y-145400000D01*
X110000000Y-145400000D02*
X110000000Y-148400000D01*
X110000000Y-148400000D02*
X98000000Y-148400000D01*
G36*
X110000000Y-148400000D02*
G01*
X98000000Y-148400000D01*
X98000000Y-145400000D01*
X110000000Y-145400000D01*
X110000000Y-148400000D01*
G37*
X110000000Y-148400000D02*
X98000000Y-148400000D01*
X98000000Y-145400000D01*
X110000000Y-145400000D01*
X110000000Y-148400000D01*
D11*
X183000000Y-107000000D02*
X190000000Y-114000000D01*
D10*
X116800000Y-125400000D02*
X116800000Y-133000000D01*
X116800000Y-133000000D02*
X99600000Y-133000000D01*
X99600000Y-133000000D02*
X99600000Y-125400000D01*
X99600000Y-125400000D02*
X116800000Y-125400000D01*
G36*
X116800000Y-133000000D02*
G01*
X99600000Y-133000000D01*
X99600000Y-125400000D01*
X116800000Y-125400000D01*
X116800000Y-133000000D01*
G37*
X116800000Y-133000000D02*
X99600000Y-133000000D01*
X99600000Y-125400000D01*
X116800000Y-125400000D01*
X116800000Y-133000000D01*
D11*
X183000000Y-113000000D02*
X185760000Y-115800000D01*
X183000000Y-106000000D02*
X190000000Y-113000000D01*
X183000000Y-109000000D02*
X189720000Y-115750000D01*
X183000000Y-111000000D02*
X187750000Y-115770000D01*
D10*
X196400000Y-130000000D02*
X193400000Y-130000000D01*
X193400000Y-130000000D02*
X193400000Y-138000000D01*
X193400000Y-138000000D02*
X196400000Y-138000000D01*
X196400000Y-138000000D02*
X196400000Y-130000000D01*
G36*
X196400000Y-138000000D02*
G01*
X193400000Y-138000000D01*
X193400000Y-130000000D01*
X196400000Y-130000000D01*
X196400000Y-138000000D01*
G37*
X196400000Y-138000000D02*
X193400000Y-138000000D01*
X193400000Y-130000000D01*
X196400000Y-130000000D01*
X196400000Y-138000000D01*
X180000000Y-61600000D02*
X180000000Y-64600000D01*
X180000000Y-64600000D02*
X195000000Y-64600000D01*
X195000000Y-64600000D02*
X195000000Y-61600000D01*
X195000000Y-61600000D02*
X180000000Y-61600000D01*
G36*
X195000000Y-64600000D02*
G01*
X180000000Y-64600000D01*
X180000000Y-61600000D01*
X195000000Y-61600000D01*
X195000000Y-64600000D01*
G37*
X195000000Y-64600000D02*
X180000000Y-64600000D01*
X180000000Y-61600000D01*
X195000000Y-61600000D01*
X195000000Y-64600000D01*
D11*
X183000000Y-114000000D02*
X184750000Y-115800000D01*
D10*
X96600000Y-68000000D02*
X99600000Y-68000000D01*
X99600000Y-68000000D02*
X99600000Y-76000000D01*
X99600000Y-76000000D02*
X96600000Y-76000000D01*
X96600000Y-76000000D02*
X96600000Y-68000000D01*
G36*
X99600000Y-76000000D02*
G01*
X96600000Y-76000000D01*
X96600000Y-68000000D01*
X99600000Y-68000000D01*
X99600000Y-76000000D01*
G37*
X99600000Y-76000000D02*
X96600000Y-76000000D01*
X96600000Y-68000000D01*
X99600000Y-68000000D01*
X99600000Y-76000000D01*
D11*
X175000000Y-118000000D02*
X177000000Y-120000000D01*
X175000000Y-116000000D02*
X179000000Y-120000000D01*
D10*
X96600000Y-130000000D02*
X99600000Y-130000000D01*
X99600000Y-130000000D02*
X99600000Y-138000000D01*
X99600000Y-138000000D02*
X96600000Y-138000000D01*
X96600000Y-138000000D02*
X96600000Y-130000000D01*
G36*
X99600000Y-138000000D02*
G01*
X96600000Y-138000000D01*
X96600000Y-130000000D01*
X99600000Y-130000000D01*
X99600000Y-138000000D01*
G37*
X99600000Y-138000000D02*
X96600000Y-138000000D01*
X96600000Y-130000000D01*
X99600000Y-130000000D01*
X99600000Y-138000000D01*
D11*
X175000000Y-119000000D02*
X176000000Y-120000000D01*
D10*
X189000000Y-114000000D02*
X185250000Y-114000000D01*
X185250000Y-114000000D02*
X185250000Y-108500000D01*
X185250000Y-108500000D02*
X189000000Y-108500000D01*
X189000000Y-108500000D02*
X189000000Y-114000000D01*
G36*
X189000000Y-114000000D02*
G01*
X185250000Y-114000000D01*
X185250000Y-108500000D01*
X189000000Y-108500000D01*
X189000000Y-114000000D01*
G37*
X189000000Y-114000000D02*
X185250000Y-114000000D01*
X185250000Y-108500000D01*
X189000000Y-108500000D01*
X189000000Y-114000000D01*
D11*
X186000000Y-105000000D02*
X190000000Y-109000000D01*
X189000000Y-103000000D02*
X190000000Y-104000000D01*
X183000000Y-110000000D02*
X188710000Y-115750000D01*
X179000000Y-116000000D02*
X183000000Y-120000000D01*
D10*
X98000000Y-61600000D02*
X98000000Y-64600000D01*
X98000000Y-64600000D02*
X110000000Y-64600000D01*
X110000000Y-64600000D02*
X110000000Y-61600000D01*
X110000000Y-61600000D02*
X98000000Y-61600000D01*
G36*
X110000000Y-64600000D02*
G01*
X98000000Y-64600000D01*
X98000000Y-61600000D01*
X110000000Y-61600000D01*
X110000000Y-64600000D01*
G37*
X110000000Y-64600000D02*
X98000000Y-64600000D01*
X98000000Y-61600000D01*
X110000000Y-61600000D01*
X110000000Y-64600000D01*
D11*
X178000000Y-116000000D02*
X182000000Y-120000000D01*
X183020000Y-112020000D02*
X186740000Y-115770000D01*
X182000000Y-116000000D02*
X183800000Y-117810000D01*
X183000000Y-105000000D02*
X190000000Y-112000000D01*
X180000000Y-116000000D02*
X183800000Y-119830000D01*
X183000000Y-115000000D02*
X183855000Y-115855000D01*
X176000000Y-116000000D02*
X180000000Y-120000000D01*
X175000000Y-117000000D02*
X178000000Y-120000000D01*
X181000000Y-116000000D02*
X183790000Y-118810000D01*
X187000000Y-103000000D02*
X190000000Y-106000000D01*
X182990000Y-115990000D02*
X183810000Y-116810000D01*
X184000000Y-105000000D02*
X190000000Y-111000000D01*
D10*
X196400000Y-68000000D02*
X193400000Y-68000000D01*
X193400000Y-68000000D02*
X193400000Y-76000000D01*
X193400000Y-76000000D02*
X196400000Y-76000000D01*
X196400000Y-76000000D02*
X196400000Y-68000000D01*
G36*
X196400000Y-76000000D02*
G01*
X193400000Y-76000000D01*
X193400000Y-68000000D01*
X196400000Y-68000000D01*
X196400000Y-76000000D01*
G37*
X196400000Y-76000000D02*
X193400000Y-76000000D01*
X193400000Y-68000000D01*
X196400000Y-68000000D01*
X196400000Y-76000000D01*
D11*
X183000000Y-108000000D02*
X190000000Y-115000000D01*
D10*
X177400000Y-125400000D02*
X177400000Y-133000000D01*
X177400000Y-133000000D02*
X193400000Y-133000000D01*
X193400000Y-133000000D02*
X193400000Y-125400000D01*
X193400000Y-125400000D02*
X177400000Y-125400000D01*
G36*
X193400000Y-133000000D02*
G01*
X177400000Y-133000000D01*
X177400000Y-125400000D01*
X193400000Y-125400000D01*
X193400000Y-133000000D01*
G37*
X193400000Y-133000000D02*
X177400000Y-133000000D01*
X177400000Y-125400000D01*
X193400000Y-125400000D01*
X193400000Y-133000000D01*
X180000000Y-148400000D02*
X180000000Y-145400000D01*
X180000000Y-145400000D02*
X195000000Y-145400000D01*
X195000000Y-145400000D02*
X195000000Y-148400000D01*
X195000000Y-148400000D02*
X180000000Y-148400000D01*
G36*
X195000000Y-148400000D02*
G01*
X180000000Y-148400000D01*
X180000000Y-145400000D01*
X195000000Y-145400000D01*
X195000000Y-148400000D01*
G37*
X195000000Y-148400000D02*
X180000000Y-148400000D01*
X180000000Y-145400000D01*
X195000000Y-145400000D01*
X195000000Y-148400000D01*
D11*
X185000000Y-105000000D02*
X190000000Y-110000000D01*
X188000000Y-105000000D02*
X190000000Y-107000000D01*
X177000000Y-116000000D02*
X181000000Y-120000000D01*
X187000000Y-105000000D02*
X190000000Y-108000000D01*
X188000000Y-103000000D02*
X190000000Y-105000000D01*
D10*
X98000000Y-148400000D02*
X98000000Y-145400000D01*
X98000000Y-145400000D02*
X110000000Y-145400000D01*
X110000000Y-145400000D02*
X110000000Y-148400000D01*
X110000000Y-148400000D02*
X98000000Y-148400000D01*
G36*
X110000000Y-148400000D02*
G01*
X98000000Y-148400000D01*
X98000000Y-145400000D01*
X110000000Y-145400000D01*
X110000000Y-148400000D01*
G37*
X110000000Y-148400000D02*
X98000000Y-148400000D01*
X98000000Y-145400000D01*
X110000000Y-145400000D01*
X110000000Y-148400000D01*
D11*
X183000000Y-107000000D02*
X190000000Y-114000000D01*
D10*
X116800000Y-125400000D02*
X116800000Y-133000000D01*
X116800000Y-133000000D02*
X99600000Y-133000000D01*
X99600000Y-133000000D02*
X99600000Y-125400000D01*
X99600000Y-125400000D02*
X116800000Y-125400000D01*
G36*
X116800000Y-133000000D02*
G01*
X99600000Y-133000000D01*
X99600000Y-125400000D01*
X116800000Y-125400000D01*
X116800000Y-133000000D01*
G37*
X116800000Y-133000000D02*
X99600000Y-133000000D01*
X99600000Y-125400000D01*
X116800000Y-125400000D01*
X116800000Y-133000000D01*
D11*
X183000000Y-113000000D02*
X185760000Y-115800000D01*
X183000000Y-106000000D02*
X190000000Y-113000000D01*
X183000000Y-109000000D02*
X189720000Y-115750000D01*
X183000000Y-111000000D02*
X187750000Y-115770000D01*
D10*
X196400000Y-130000000D02*
X193400000Y-130000000D01*
X193400000Y-130000000D02*
X193400000Y-138000000D01*
X193400000Y-138000000D02*
X196400000Y-138000000D01*
X196400000Y-138000000D02*
X196400000Y-130000000D01*
G36*
X196400000Y-138000000D02*
G01*
X193400000Y-138000000D01*
X193400000Y-130000000D01*
X196400000Y-130000000D01*
X196400000Y-138000000D01*
G37*
X196400000Y-138000000D02*
X193400000Y-138000000D01*
X193400000Y-130000000D01*
X196400000Y-130000000D01*
X196400000Y-138000000D01*
X180000000Y-61600000D02*
X180000000Y-64600000D01*
X180000000Y-64600000D02*
X195000000Y-64600000D01*
X195000000Y-64600000D02*
X195000000Y-61600000D01*
X195000000Y-61600000D02*
X180000000Y-61600000D01*
G36*
X195000000Y-64600000D02*
G01*
X180000000Y-64600000D01*
X180000000Y-61600000D01*
X195000000Y-61600000D01*
X195000000Y-64600000D01*
G37*
X195000000Y-64600000D02*
X180000000Y-64600000D01*
X180000000Y-61600000D01*
X195000000Y-61600000D01*
X195000000Y-64600000D01*
D11*
X183000000Y-114000000D02*
X184750000Y-115800000D01*
D10*
X96600000Y-68000000D02*
X99600000Y-68000000D01*
X99600000Y-68000000D02*
X99600000Y-76000000D01*
X99600000Y-76000000D02*
X96600000Y-76000000D01*
X96600000Y-76000000D02*
X96600000Y-68000000D01*
G36*
X99600000Y-76000000D02*
G01*
X96600000Y-76000000D01*
X96600000Y-68000000D01*
X99600000Y-68000000D01*
X99600000Y-76000000D01*
G37*
X99600000Y-76000000D02*
X96600000Y-76000000D01*
X96600000Y-68000000D01*
X99600000Y-68000000D01*
X99600000Y-76000000D01*
D11*
X175000000Y-118000000D02*
X177000000Y-120000000D01*
X175000000Y-116000000D02*
X179000000Y-120000000D01*
D10*
X96600000Y-130000000D02*
X99600000Y-130000000D01*
X99600000Y-130000000D02*
X99600000Y-138000000D01*
X99600000Y-138000000D02*
X96600000Y-138000000D01*
X96600000Y-138000000D02*
X96600000Y-130000000D01*
G36*
X99600000Y-138000000D02*
G01*
X96600000Y-138000000D01*
X96600000Y-130000000D01*
X99600000Y-130000000D01*
X99600000Y-138000000D01*
G37*
X99600000Y-138000000D02*
X96600000Y-138000000D01*
X96600000Y-130000000D01*
X99600000Y-130000000D01*
X99600000Y-138000000D01*
D11*
X175000000Y-119000000D02*
X176000000Y-120000000D01*
D10*
X189000000Y-114000000D02*
X185250000Y-114000000D01*
X185250000Y-114000000D02*
X185250000Y-108500000D01*
X185250000Y-108500000D02*
X189000000Y-108500000D01*
X189000000Y-108500000D02*
X189000000Y-114000000D01*
G36*
X189000000Y-114000000D02*
G01*
X185250000Y-114000000D01*
X185250000Y-108500000D01*
X189000000Y-108500000D01*
X189000000Y-114000000D01*
G37*
X189000000Y-114000000D02*
X185250000Y-114000000D01*
X185250000Y-108500000D01*
X189000000Y-108500000D01*
X189000000Y-114000000D01*
D11*
X186000000Y-105000000D02*
X190000000Y-109000000D01*
X189000000Y-103000000D02*
X190000000Y-104000000D01*
X183000000Y-110000000D02*
X188710000Y-115750000D01*
X179000000Y-116000000D02*
X183000000Y-120000000D01*
D10*
X98000000Y-61600000D02*
X98000000Y-64600000D01*
X98000000Y-64600000D02*
X110000000Y-64600000D01*
X110000000Y-64600000D02*
X110000000Y-61600000D01*
X110000000Y-61600000D02*
X98000000Y-61600000D01*
G36*
X110000000Y-64600000D02*
G01*
X98000000Y-64600000D01*
X98000000Y-61600000D01*
X110000000Y-61600000D01*
X110000000Y-64600000D01*
G37*
X110000000Y-64600000D02*
X98000000Y-64600000D01*
X98000000Y-61600000D01*
X110000000Y-61600000D01*
X110000000Y-64600000D01*
D11*
X178000000Y-116000000D02*
X182000000Y-120000000D01*
X183020000Y-112020000D02*
X186740000Y-115770000D01*
X182000000Y-116000000D02*
X183800000Y-117810000D01*
X183000000Y-105000000D02*
X190000000Y-112000000D01*
X180000000Y-116000000D02*
X183800000Y-119830000D01*
X183000000Y-115000000D02*
X183855000Y-115855000D01*
X176000000Y-116000000D02*
X180000000Y-120000000D01*
X175000000Y-117000000D02*
X178000000Y-120000000D01*
X181000000Y-116000000D02*
X183790000Y-118810000D01*
X187000000Y-103000000D02*
X190000000Y-106000000D01*
X182990000Y-115990000D02*
X183810000Y-116810000D01*
X184000000Y-105000000D02*
X190000000Y-111000000D01*
D10*
X196400000Y-68000000D02*
X193400000Y-68000000D01*
X193400000Y-68000000D02*
X193400000Y-76000000D01*
X193400000Y-76000000D02*
X196400000Y-76000000D01*
X196400000Y-76000000D02*
X196400000Y-68000000D01*
G36*
X196400000Y-76000000D02*
G01*
X193400000Y-76000000D01*
X193400000Y-68000000D01*
X196400000Y-68000000D01*
X196400000Y-76000000D01*
G37*
X196400000Y-76000000D02*
X193400000Y-76000000D01*
X193400000Y-68000000D01*
X196400000Y-68000000D01*
X196400000Y-76000000D01*
D11*
X183000000Y-108000000D02*
X190000000Y-115000000D01*
D10*
X177400000Y-125400000D02*
X177400000Y-133000000D01*
X177400000Y-133000000D02*
X193400000Y-133000000D01*
X193400000Y-133000000D02*
X193400000Y-125400000D01*
X193400000Y-125400000D02*
X177400000Y-125400000D01*
G36*
X193400000Y-133000000D02*
G01*
X177400000Y-133000000D01*
X177400000Y-125400000D01*
X193400000Y-125400000D01*
X193400000Y-133000000D01*
G37*
X193400000Y-133000000D02*
X177400000Y-133000000D01*
X177400000Y-125400000D01*
X193400000Y-125400000D01*
X193400000Y-133000000D01*
X180000000Y-148400000D02*
X180000000Y-145400000D01*
X180000000Y-145400000D02*
X195000000Y-145400000D01*
X195000000Y-145400000D02*
X195000000Y-148400000D01*
X195000000Y-148400000D02*
X180000000Y-148400000D01*
G36*
X195000000Y-148400000D02*
G01*
X180000000Y-148400000D01*
X180000000Y-145400000D01*
X195000000Y-145400000D01*
X195000000Y-148400000D01*
G37*
X195000000Y-148400000D02*
X180000000Y-148400000D01*
X180000000Y-145400000D01*
X195000000Y-145400000D01*
X195000000Y-148400000D01*
D11*
X185000000Y-105000000D02*
X190000000Y-110000000D01*
X188000000Y-105000000D02*
X190000000Y-107000000D01*
X177000000Y-116000000D02*
X181000000Y-120000000D01*
X187000000Y-105000000D02*
X190000000Y-108000000D01*
X188000000Y-103000000D02*
X190000000Y-105000000D01*
G36*
G01*
X120740000Y-93969000D02*
X122740000Y-93969000D01*
G75*
G02*
X122791000Y-94020000I0J-51000D01*
G01*
X122791000Y-98520000D01*
G75*
G02*
X122740000Y-98571000I-51000J0D01*
G01*
X120740000Y-98571000D01*
G75*
G02*
X120689000Y-98520000I0J51000D01*
G01*
X120689000Y-94020000D01*
G75*
G02*
X120740000Y-93969000I51000J0D01*
G01*
G37*
G36*
G01*
X120740000Y-102469000D02*
X122740000Y-102469000D01*
G75*
G02*
X122791000Y-102520000I0J-51000D01*
G01*
X122791000Y-107020000D01*
G75*
G02*
X122740000Y-107071000I-51000J0D01*
G01*
X120740000Y-107071000D01*
G75*
G02*
X120689000Y-107020000I0J51000D01*
G01*
X120689000Y-102520000D01*
G75*
G02*
X120740000Y-102469000I51000J0D01*
G01*
G37*
G36*
G01*
X126050000Y-93994000D02*
X127850000Y-93994000D01*
G75*
G02*
X127901000Y-94045000I0J-51000D01*
G01*
X127901000Y-95795000D01*
G75*
G02*
X127850000Y-95846000I-51000J0D01*
G01*
X126050000Y-95846000D01*
G75*
G02*
X125999000Y-95795000I0J51000D01*
G01*
X125999000Y-94045000D01*
G75*
G02*
X126050000Y-93994000I51000J0D01*
G01*
G37*
G36*
G01*
X126050000Y-97244000D02*
X127850000Y-97244000D01*
G75*
G02*
X127901000Y-97295000I0J-51000D01*
G01*
X127901000Y-99045000D01*
G75*
G02*
X127850000Y-99096000I-51000J0D01*
G01*
X126050000Y-99096000D01*
G75*
G02*
X125999000Y-99045000I0J51000D01*
G01*
X125999000Y-97295000D01*
G75*
G02*
X126050000Y-97244000I51000J0D01*
G01*
G37*
G36*
G01*
X118090000Y-99628500D02*
X116790000Y-99628500D01*
G75*
G02*
X116489000Y-99327500I0J301000D01*
G01*
X116489000Y-98502500D01*
G75*
G02*
X116790000Y-98201500I301000J0D01*
G01*
X118090000Y-98201500D01*
G75*
G02*
X118391000Y-98502500I0J-301000D01*
G01*
X118391000Y-99327500D01*
G75*
G02*
X118090000Y-99628500I-301000J0D01*
G01*
G37*
G36*
G01*
X118090000Y-96503500D02*
X116790000Y-96503500D01*
G75*
G02*
X116489000Y-96202500I0J301000D01*
G01*
X116489000Y-95377500D01*
G75*
G02*
X116790000Y-95076500I301000J0D01*
G01*
X118090000Y-95076500D01*
G75*
G02*
X118391000Y-95377500I0J-301000D01*
G01*
X118391000Y-96202500D01*
G75*
G02*
X118090000Y-96503500I-301000J0D01*
G01*
G37*
G36*
G01*
X116770000Y-100594000D02*
X118070000Y-100594000D01*
G75*
G02*
X118371000Y-100895000I0J-301000D01*
G01*
X118371000Y-101720000D01*
G75*
G02*
X118070000Y-102021000I-301000J0D01*
G01*
X116770000Y-102021000D01*
G75*
G02*
X116469000Y-101720000I0J301000D01*
G01*
X116469000Y-100895000D01*
G75*
G02*
X116770000Y-100594000I301000J0D01*
G01*
G37*
G36*
G01*
X116770000Y-103719000D02*
X118070000Y-103719000D01*
G75*
G02*
X118371000Y-104020000I0J-301000D01*
G01*
X118371000Y-104845000D01*
G75*
G02*
X118070000Y-105146000I-301000J0D01*
G01*
X116770000Y-105146000D01*
G75*
G02*
X116469000Y-104845000I0J301000D01*
G01*
X116469000Y-104020000D01*
G75*
G02*
X116770000Y-103719000I301000J0D01*
G01*
G37*
G36*
G01*
X127550000Y-93338500D02*
X126250000Y-93338500D01*
G75*
G02*
X125949000Y-93037500I0J301000D01*
G01*
X125949000Y-92212500D01*
G75*
G02*
X126250000Y-91911500I301000J0D01*
G01*
X127550000Y-91911500D01*
G75*
G02*
X127851000Y-92212500I0J-301000D01*
G01*
X127851000Y-93037500D01*
G75*
G02*
X127550000Y-93338500I-301000J0D01*
G01*
G37*
G36*
G01*
X127550000Y-90213500D02*
X126250000Y-90213500D01*
G75*
G02*
X125949000Y-89912500I0J301000D01*
G01*
X125949000Y-89087500D01*
G75*
G02*
X126250000Y-88786500I301000J0D01*
G01*
X127550000Y-88786500D01*
G75*
G02*
X127851000Y-89087500I0J-301000D01*
G01*
X127851000Y-89912500D01*
G75*
G02*
X127550000Y-90213500I-301000J0D01*
G01*
G37*
G36*
G01*
X125090000Y-93373500D02*
X123790000Y-93373500D01*
G75*
G02*
X123489000Y-93072500I0J301000D01*
G01*
X123489000Y-92247500D01*
G75*
G02*
X123790000Y-91946500I301000J0D01*
G01*
X125090000Y-91946500D01*
G75*
G02*
X125391000Y-92247500I0J-301000D01*
G01*
X125391000Y-93072500D01*
G75*
G02*
X125090000Y-93373500I-301000J0D01*
G01*
G37*
G36*
G01*
X125090000Y-90248500D02*
X123790000Y-90248500D01*
G75*
G02*
X123489000Y-89947500I0J301000D01*
G01*
X123489000Y-89122500D01*
G75*
G02*
X123790000Y-88821500I301000J0D01*
G01*
X125090000Y-88821500D01*
G75*
G02*
X125391000Y-89122500I0J-301000D01*
G01*
X125391000Y-89947500D01*
G75*
G02*
X125090000Y-90248500I-301000J0D01*
G01*
G37*
G36*
G01*
X115418500Y-82610000D02*
X115418500Y-83910000D01*
G75*
G02*
X115117500Y-84211000I-301000J0D01*
G01*
X114292500Y-84211000D01*
G75*
G02*
X113991500Y-83910000I0J301000D01*
G01*
X113991500Y-82610000D01*
G75*
G02*
X114292500Y-82309000I301000J0D01*
G01*
X115117500Y-82309000D01*
G75*
G02*
X115418500Y-82610000I0J-301000D01*
G01*
G37*
G36*
G01*
X112293500Y-82610000D02*
X112293500Y-83910000D01*
G75*
G02*
X111992500Y-84211000I-301000J0D01*
G01*
X111167500Y-84211000D01*
G75*
G02*
X110866500Y-83910000I0J301000D01*
G01*
X110866500Y-82610000D01*
G75*
G02*
X111167500Y-82309000I301000J0D01*
G01*
X111992500Y-82309000D01*
G75*
G02*
X112293500Y-82610000I0J-301000D01*
G01*
G37*
G36*
G01*
X160650000Y-93788500D02*
X159350000Y-93788500D01*
G75*
G02*
X159049000Y-93487500I0J301000D01*
G01*
X159049000Y-92662500D01*
G75*
G02*
X159350000Y-92361500I301000J0D01*
G01*
X160650000Y-92361500D01*
G75*
G02*
X160951000Y-92662500I0J-301000D01*
G01*
X160951000Y-93487500D01*
G75*
G02*
X160650000Y-93788500I-301000J0D01*
G01*
G37*
G36*
G01*
X160650000Y-90663500D02*
X159350000Y-90663500D01*
G75*
G02*
X159049000Y-90362500I0J301000D01*
G01*
X159049000Y-89537500D01*
G75*
G02*
X159350000Y-89236500I301000J0D01*
G01*
X160650000Y-89236500D01*
G75*
G02*
X160951000Y-89537500I0J-301000D01*
G01*
X160951000Y-90362500D01*
G75*
G02*
X160650000Y-90663500I-301000J0D01*
G01*
G37*
G36*
G01*
X134018500Y-93230000D02*
X134018500Y-94530000D01*
G75*
G02*
X133717500Y-94831000I-301000J0D01*
G01*
X132892500Y-94831000D01*
G75*
G02*
X132591500Y-94530000I0J301000D01*
G01*
X132591500Y-93230000D01*
G75*
G02*
X132892500Y-92929000I301000J0D01*
G01*
X133717500Y-92929000D01*
G75*
G02*
X134018500Y-93230000I0J-301000D01*
G01*
G37*
G36*
G01*
X130893500Y-93230000D02*
X130893500Y-94530000D01*
G75*
G02*
X130592500Y-94831000I-301000J0D01*
G01*
X129767500Y-94831000D01*
G75*
G02*
X129466500Y-94530000I0J301000D01*
G01*
X129466500Y-93230000D01*
G75*
G02*
X129767500Y-92929000I301000J0D01*
G01*
X130592500Y-92929000D01*
G75*
G02*
X130893500Y-93230000I0J-301000D01*
G01*
G37*
G36*
G01*
X135563500Y-90380000D02*
X135563500Y-91680000D01*
G75*
G02*
X135262500Y-91981000I-301000J0D01*
G01*
X134437500Y-91981000D01*
G75*
G02*
X134136500Y-91680000I0J301000D01*
G01*
X134136500Y-90380000D01*
G75*
G02*
X134437500Y-90079000I301000J0D01*
G01*
X135262500Y-90079000D01*
G75*
G02*
X135563500Y-90380000I0J-301000D01*
G01*
G37*
G36*
G01*
X132438500Y-90380000D02*
X132438500Y-91680000D01*
G75*
G02*
X132137500Y-91981000I-301000J0D01*
G01*
X131312500Y-91981000D01*
G75*
G02*
X131011500Y-91680000I0J301000D01*
G01*
X131011500Y-90380000D01*
G75*
G02*
X131312500Y-90079000I301000J0D01*
G01*
X132137500Y-90079000D01*
G75*
G02*
X132438500Y-90380000I0J-301000D01*
G01*
G37*
G36*
G01*
X113800000Y-95194000D02*
X115100000Y-95194000D01*
G75*
G02*
X115151000Y-95245000I0J-51000D01*
G01*
X115151000Y-96795000D01*
G75*
G02*
X115100000Y-96846000I-51000J0D01*
G01*
X113800000Y-96846000D01*
G75*
G02*
X113749000Y-96795000I0J51000D01*
G01*
X113749000Y-95245000D01*
G75*
G02*
X113800000Y-95194000I51000J0D01*
G01*
G37*
G36*
G01*
X113800000Y-103144000D02*
X115100000Y-103144000D01*
G75*
G02*
X115151000Y-103195000I0J-51000D01*
G01*
X115151000Y-104745000D01*
G75*
G02*
X115100000Y-104796000I-51000J0D01*
G01*
X113800000Y-104796000D01*
G75*
G02*
X113749000Y-104745000I0J51000D01*
G01*
X113749000Y-103195000D01*
G75*
G02*
X113800000Y-103144000I51000J0D01*
G01*
G37*
G36*
G01*
X109300000Y-95194000D02*
X110600000Y-95194000D01*
G75*
G02*
X110651000Y-95245000I0J-51000D01*
G01*
X110651000Y-96795000D01*
G75*
G02*
X110600000Y-96846000I-51000J0D01*
G01*
X109300000Y-96846000D01*
G75*
G02*
X109249000Y-96795000I0J51000D01*
G01*
X109249000Y-95245000D01*
G75*
G02*
X109300000Y-95194000I51000J0D01*
G01*
G37*
G36*
G01*
X109300000Y-103144000D02*
X110600000Y-103144000D01*
G75*
G02*
X110651000Y-103195000I0J-51000D01*
G01*
X110651000Y-104745000D01*
G75*
G02*
X110600000Y-104796000I-51000J0D01*
G01*
X109300000Y-104796000D01*
G75*
G02*
X109249000Y-104745000I0J51000D01*
G01*
X109249000Y-103195000D01*
G75*
G02*
X109300000Y-103144000I51000J0D01*
G01*
G37*
G36*
G01*
X145720000Y-107458500D02*
X144420000Y-107458500D01*
G75*
G02*
X144119000Y-107157500I0J301000D01*
G01*
X144119000Y-106332500D01*
G75*
G02*
X144420000Y-106031500I301000J0D01*
G01*
X145720000Y-106031500D01*
G75*
G02*
X146021000Y-106332500I0J-301000D01*
G01*
X146021000Y-107157500D01*
G75*
G02*
X145720000Y-107458500I-301000J0D01*
G01*
G37*
G36*
G01*
X145720000Y-104333500D02*
X144420000Y-104333500D01*
G75*
G02*
X144119000Y-104032500I0J301000D01*
G01*
X144119000Y-103207500D01*
G75*
G02*
X144420000Y-102906500I301000J0D01*
G01*
X145720000Y-102906500D01*
G75*
G02*
X146021000Y-103207500I0J-301000D01*
G01*
X146021000Y-104032500D01*
G75*
G02*
X145720000Y-104333500I-301000J0D01*
G01*
G37*
G36*
G01*
X143140000Y-93986500D02*
X144440000Y-93986500D01*
G75*
G02*
X144741000Y-94287500I0J-301000D01*
G01*
X144741000Y-95112500D01*
G75*
G02*
X144440000Y-95413500I-301000J0D01*
G01*
X143140000Y-95413500D01*
G75*
G02*
X142839000Y-95112500I0J301000D01*
G01*
X142839000Y-94287500D01*
G75*
G02*
X143140000Y-93986500I301000J0D01*
G01*
G37*
G36*
G01*
X143140000Y-97111500D02*
X144440000Y-97111500D01*
G75*
G02*
X144741000Y-97412500I0J-301000D01*
G01*
X144741000Y-98237500D01*
G75*
G02*
X144440000Y-98538500I-301000J0D01*
G01*
X143140000Y-98538500D01*
G75*
G02*
X142839000Y-98237500I0J301000D01*
G01*
X142839000Y-97412500D01*
G75*
G02*
X143140000Y-97111500I301000J0D01*
G01*
G37*
G36*
G01*
X126280000Y-101666500D02*
X127580000Y-101666500D01*
G75*
G02*
X127881000Y-101967500I0J-301000D01*
G01*
X127881000Y-102792500D01*
G75*
G02*
X127580000Y-103093500I-301000J0D01*
G01*
X126280000Y-103093500D01*
G75*
G02*
X125979000Y-102792500I0J301000D01*
G01*
X125979000Y-101967500D01*
G75*
G02*
X126280000Y-101666500I301000J0D01*
G01*
G37*
G36*
G01*
X126280000Y-104791500D02*
X127580000Y-104791500D01*
G75*
G02*
X127881000Y-105092500I0J-301000D01*
G01*
X127881000Y-105917500D01*
G75*
G02*
X127580000Y-106218500I-301000J0D01*
G01*
X126280000Y-106218500D01*
G75*
G02*
X125979000Y-105917500I0J301000D01*
G01*
X125979000Y-105092500D01*
G75*
G02*
X126280000Y-104791500I301000J0D01*
G01*
G37*
G36*
G01*
X177920000Y-85841000D02*
X175920000Y-85841000D01*
G75*
G02*
X175619000Y-85540000I0J301000D01*
G01*
X175619000Y-82540000D01*
G75*
G02*
X175920000Y-82239000I301000J0D01*
G01*
X177920000Y-82239000D01*
G75*
G02*
X178221000Y-82540000I0J-301000D01*
G01*
X178221000Y-85540000D01*
G75*
G02*
X177920000Y-85841000I-301000J0D01*
G01*
G37*
G36*
G01*
X177920000Y-79341000D02*
X175920000Y-79341000D01*
G75*
G02*
X175619000Y-79040000I0J301000D01*
G01*
X175619000Y-76040000D01*
G75*
G02*
X175920000Y-75739000I301000J0D01*
G01*
X177920000Y-75739000D01*
G75*
G02*
X178221000Y-76040000I0J-301000D01*
G01*
X178221000Y-79040000D01*
G75*
G02*
X177920000Y-79341000I-301000J0D01*
G01*
G37*
G36*
G01*
X135010000Y-117536000D02*
X134010000Y-117536000D01*
G75*
G02*
X133959000Y-117485000I0J51000D01*
G01*
X133959000Y-114335000D01*
G75*
G02*
X134010000Y-114284000I51000J0D01*
G01*
X135010000Y-114284000D01*
G75*
G02*
X135061000Y-114335000I0J-51000D01*
G01*
X135061000Y-117485000D01*
G75*
G02*
X135010000Y-117536000I-51000J0D01*
G01*
G37*
G36*
G01*
X135010000Y-112486000D02*
X134010000Y-112486000D01*
G75*
G02*
X133959000Y-112435000I0J51000D01*
G01*
X133959000Y-109285000D01*
G75*
G02*
X134010000Y-109234000I51000J0D01*
G01*
X135010000Y-109234000D01*
G75*
G02*
X135061000Y-109285000I0J-51000D01*
G01*
X135061000Y-112435000D01*
G75*
G02*
X135010000Y-112486000I-51000J0D01*
G01*
G37*
G36*
G01*
X137550000Y-117536000D02*
X136550000Y-117536000D01*
G75*
G02*
X136499000Y-117485000I0J51000D01*
G01*
X136499000Y-114335000D01*
G75*
G02*
X136550000Y-114284000I51000J0D01*
G01*
X137550000Y-114284000D01*
G75*
G02*
X137601000Y-114335000I0J-51000D01*
G01*
X137601000Y-117485000D01*
G75*
G02*
X137550000Y-117536000I-51000J0D01*
G01*
G37*
G36*
G01*
X137550000Y-112486000D02*
X136550000Y-112486000D01*
G75*
G02*
X136499000Y-112435000I0J51000D01*
G01*
X136499000Y-109285000D01*
G75*
G02*
X136550000Y-109234000I51000J0D01*
G01*
X137550000Y-109234000D01*
G75*
G02*
X137601000Y-109285000I0J-51000D01*
G01*
X137601000Y-112435000D01*
G75*
G02*
X137550000Y-112486000I-51000J0D01*
G01*
G37*
G36*
G01*
X140090000Y-117536000D02*
X139090000Y-117536000D01*
G75*
G02*
X139039000Y-117485000I0J51000D01*
G01*
X139039000Y-114335000D01*
G75*
G02*
X139090000Y-114284000I51000J0D01*
G01*
X140090000Y-114284000D01*
G75*
G02*
X140141000Y-114335000I0J-51000D01*
G01*
X140141000Y-117485000D01*
G75*
G02*
X140090000Y-117536000I-51000J0D01*
G01*
G37*
G36*
G01*
X140090000Y-112486000D02*
X139090000Y-112486000D01*
G75*
G02*
X139039000Y-112435000I0J51000D01*
G01*
X139039000Y-109285000D01*
G75*
G02*
X139090000Y-109234000I51000J0D01*
G01*
X140090000Y-109234000D01*
G75*
G02*
X140141000Y-109285000I0J-51000D01*
G01*
X140141000Y-112435000D01*
G75*
G02*
X140090000Y-112486000I-51000J0D01*
G01*
G37*
G36*
G01*
X142630000Y-117536000D02*
X141630000Y-117536000D01*
G75*
G02*
X141579000Y-117485000I0J51000D01*
G01*
X141579000Y-114335000D01*
G75*
G02*
X141630000Y-114284000I51000J0D01*
G01*
X142630000Y-114284000D01*
G75*
G02*
X142681000Y-114335000I0J-51000D01*
G01*
X142681000Y-117485000D01*
G75*
G02*
X142630000Y-117536000I-51000J0D01*
G01*
G37*
G36*
G01*
X142630000Y-112486000D02*
X141630000Y-112486000D01*
G75*
G02*
X141579000Y-112435000I0J51000D01*
G01*
X141579000Y-109285000D01*
G75*
G02*
X141630000Y-109234000I51000J0D01*
G01*
X142630000Y-109234000D01*
G75*
G02*
X142681000Y-109285000I0J-51000D01*
G01*
X142681000Y-112435000D01*
G75*
G02*
X142630000Y-112486000I-51000J0D01*
G01*
G37*
G36*
G01*
X145170000Y-117536000D02*
X144170000Y-117536000D01*
G75*
G02*
X144119000Y-117485000I0J51000D01*
G01*
X144119000Y-114335000D01*
G75*
G02*
X144170000Y-114284000I51000J0D01*
G01*
X145170000Y-114284000D01*
G75*
G02*
X145221000Y-114335000I0J-51000D01*
G01*
X145221000Y-117485000D01*
G75*
G02*
X145170000Y-117536000I-51000J0D01*
G01*
G37*
G36*
G01*
X145170000Y-112486000D02*
X144170000Y-112486000D01*
G75*
G02*
X144119000Y-112435000I0J51000D01*
G01*
X144119000Y-109285000D01*
G75*
G02*
X144170000Y-109234000I51000J0D01*
G01*
X145170000Y-109234000D01*
G75*
G02*
X145221000Y-109285000I0J-51000D01*
G01*
X145221000Y-112435000D01*
G75*
G02*
X145170000Y-112486000I-51000J0D01*
G01*
G37*
G36*
G01*
X127936000Y-82620000D02*
X127936000Y-83620000D01*
G75*
G02*
X127885000Y-83671000I-51000J0D01*
G01*
X124735000Y-83671000D01*
G75*
G02*
X124684000Y-83620000I0J51000D01*
G01*
X124684000Y-82620000D01*
G75*
G02*
X124735000Y-82569000I51000J0D01*
G01*
X127885000Y-82569000D01*
G75*
G02*
X127936000Y-82620000I0J-51000D01*
G01*
G37*
G36*
G01*
X122886000Y-82620000D02*
X122886000Y-83620000D01*
G75*
G02*
X122835000Y-83671000I-51000J0D01*
G01*
X119685000Y-83671000D01*
G75*
G02*
X119634000Y-83620000I0J51000D01*
G01*
X119634000Y-82620000D01*
G75*
G02*
X119685000Y-82569000I51000J0D01*
G01*
X122835000Y-82569000D01*
G75*
G02*
X122886000Y-82620000I0J-51000D01*
G01*
G37*
G36*
G01*
X127936000Y-80080000D02*
X127936000Y-81080000D01*
G75*
G02*
X127885000Y-81131000I-51000J0D01*
G01*
X124735000Y-81131000D01*
G75*
G02*
X124684000Y-81080000I0J51000D01*
G01*
X124684000Y-80080000D01*
G75*
G02*
X124735000Y-80029000I51000J0D01*
G01*
X127885000Y-80029000D01*
G75*
G02*
X127936000Y-80080000I0J-51000D01*
G01*
G37*
G36*
G01*
X122886000Y-80080000D02*
X122886000Y-81080000D01*
G75*
G02*
X122835000Y-81131000I-51000J0D01*
G01*
X119685000Y-81131000D01*
G75*
G02*
X119634000Y-81080000I0J51000D01*
G01*
X119634000Y-80080000D01*
G75*
G02*
X119685000Y-80029000I51000J0D01*
G01*
X122835000Y-80029000D01*
G75*
G02*
X122886000Y-80080000I0J-51000D01*
G01*
G37*
G36*
G01*
X127936000Y-77540000D02*
X127936000Y-78540000D01*
G75*
G02*
X127885000Y-78591000I-51000J0D01*
G01*
X124735000Y-78591000D01*
G75*
G02*
X124684000Y-78540000I0J51000D01*
G01*
X124684000Y-77540000D01*
G75*
G02*
X124735000Y-77489000I51000J0D01*
G01*
X127885000Y-77489000D01*
G75*
G02*
X127936000Y-77540000I0J-51000D01*
G01*
G37*
G36*
G01*
X122886000Y-77540000D02*
X122886000Y-78540000D01*
G75*
G02*
X122835000Y-78591000I-51000J0D01*
G01*
X119685000Y-78591000D01*
G75*
G02*
X119634000Y-78540000I0J51000D01*
G01*
X119634000Y-77540000D01*
G75*
G02*
X119685000Y-77489000I51000J0D01*
G01*
X122835000Y-77489000D01*
G75*
G02*
X122886000Y-77540000I0J-51000D01*
G01*
G37*
G36*
G01*
X126546000Y-115730000D02*
X126546000Y-116730000D01*
G75*
G02*
X126495000Y-116781000I-51000J0D01*
G01*
X123345000Y-116781000D01*
G75*
G02*
X123294000Y-116730000I0J51000D01*
G01*
X123294000Y-115730000D01*
G75*
G02*
X123345000Y-115679000I51000J0D01*
G01*
X126495000Y-115679000D01*
G75*
G02*
X126546000Y-115730000I0J-51000D01*
G01*
G37*
G36*
G01*
X121496000Y-115730000D02*
X121496000Y-116730000D01*
G75*
G02*
X121445000Y-116781000I-51000J0D01*
G01*
X118295000Y-116781000D01*
G75*
G02*
X118244000Y-116730000I0J51000D01*
G01*
X118244000Y-115730000D01*
G75*
G02*
X118295000Y-115679000I51000J0D01*
G01*
X121445000Y-115679000D01*
G75*
G02*
X121496000Y-115730000I0J-51000D01*
G01*
G37*
G36*
G01*
X126546000Y-113190000D02*
X126546000Y-114190000D01*
G75*
G02*
X126495000Y-114241000I-51000J0D01*
G01*
X123345000Y-114241000D01*
G75*
G02*
X123294000Y-114190000I0J51000D01*
G01*
X123294000Y-113190000D01*
G75*
G02*
X123345000Y-113139000I51000J0D01*
G01*
X126495000Y-113139000D01*
G75*
G02*
X126546000Y-113190000I0J-51000D01*
G01*
G37*
G36*
G01*
X121496000Y-113190000D02*
X121496000Y-114190000D01*
G75*
G02*
X121445000Y-114241000I-51000J0D01*
G01*
X118295000Y-114241000D01*
G75*
G02*
X118244000Y-114190000I0J51000D01*
G01*
X118244000Y-113190000D01*
G75*
G02*
X118295000Y-113139000I51000J0D01*
G01*
X121445000Y-113139000D01*
G75*
G02*
X121496000Y-113190000I0J-51000D01*
G01*
G37*
G36*
G01*
X126546000Y-110650000D02*
X126546000Y-111650000D01*
G75*
G02*
X126495000Y-111701000I-51000J0D01*
G01*
X123345000Y-111701000D01*
G75*
G02*
X123294000Y-111650000I0J51000D01*
G01*
X123294000Y-110650000D01*
G75*
G02*
X123345000Y-110599000I51000J0D01*
G01*
X126495000Y-110599000D01*
G75*
G02*
X126546000Y-110650000I0J-51000D01*
G01*
G37*
G36*
G01*
X121496000Y-110650000D02*
X121496000Y-111650000D01*
G75*
G02*
X121445000Y-111701000I-51000J0D01*
G01*
X118295000Y-111701000D01*
G75*
G02*
X118244000Y-111650000I0J51000D01*
G01*
X118244000Y-110650000D01*
G75*
G02*
X118295000Y-110599000I51000J0D01*
G01*
X121445000Y-110599000D01*
G75*
G02*
X121496000Y-110650000I0J-51000D01*
G01*
G37*
G36*
G01*
X155386000Y-99790000D02*
X155386000Y-100790000D01*
G75*
G02*
X155335000Y-100841000I-51000J0D01*
G01*
X152185000Y-100841000D01*
G75*
G02*
X152134000Y-100790000I0J51000D01*
G01*
X152134000Y-99790000D01*
G75*
G02*
X152185000Y-99739000I51000J0D01*
G01*
X155335000Y-99739000D01*
G75*
G02*
X155386000Y-99790000I0J-51000D01*
G01*
G37*
G36*
G01*
X150336000Y-99790000D02*
X150336000Y-100790000D01*
G75*
G02*
X150285000Y-100841000I-51000J0D01*
G01*
X147135000Y-100841000D01*
G75*
G02*
X147084000Y-100790000I0J51000D01*
G01*
X147084000Y-99790000D01*
G75*
G02*
X147135000Y-99739000I51000J0D01*
G01*
X150285000Y-99739000D01*
G75*
G02*
X150336000Y-99790000I0J-51000D01*
G01*
G37*
G36*
G01*
X155386000Y-97250000D02*
X155386000Y-98250000D01*
G75*
G02*
X155335000Y-98301000I-51000J0D01*
G01*
X152185000Y-98301000D01*
G75*
G02*
X152134000Y-98250000I0J51000D01*
G01*
X152134000Y-97250000D01*
G75*
G02*
X152185000Y-97199000I51000J0D01*
G01*
X155335000Y-97199000D01*
G75*
G02*
X155386000Y-97250000I0J-51000D01*
G01*
G37*
G36*
G01*
X150336000Y-97250000D02*
X150336000Y-98250000D01*
G75*
G02*
X150285000Y-98301000I-51000J0D01*
G01*
X147135000Y-98301000D01*
G75*
G02*
X147084000Y-98250000I0J51000D01*
G01*
X147084000Y-97250000D01*
G75*
G02*
X147135000Y-97199000I51000J0D01*
G01*
X150285000Y-97199000D01*
G75*
G02*
X150336000Y-97250000I0J-51000D01*
G01*
G37*
G36*
G01*
X155386000Y-94710000D02*
X155386000Y-95710000D01*
G75*
G02*
X155335000Y-95761000I-51000J0D01*
G01*
X152185000Y-95761000D01*
G75*
G02*
X152134000Y-95710000I0J51000D01*
G01*
X152134000Y-94710000D01*
G75*
G02*
X152185000Y-94659000I51000J0D01*
G01*
X155335000Y-94659000D01*
G75*
G02*
X155386000Y-94710000I0J-51000D01*
G01*
G37*
G36*
G01*
X150336000Y-94710000D02*
X150336000Y-95710000D01*
G75*
G02*
X150285000Y-95761000I-51000J0D01*
G01*
X147135000Y-95761000D01*
G75*
G02*
X147084000Y-95710000I0J51000D01*
G01*
X147084000Y-94710000D01*
G75*
G02*
X147135000Y-94659000I51000J0D01*
G01*
X150285000Y-94659000D01*
G75*
G02*
X150336000Y-94710000I0J-51000D01*
G01*
G37*
G36*
G01*
X170256000Y-82160000D02*
X170256000Y-83160000D01*
G75*
G02*
X170205000Y-83211000I-51000J0D01*
G01*
X167055000Y-83211000D01*
G75*
G02*
X167004000Y-83160000I0J51000D01*
G01*
X167004000Y-82160000D01*
G75*
G02*
X167055000Y-82109000I51000J0D01*
G01*
X170205000Y-82109000D01*
G75*
G02*
X170256000Y-82160000I0J-51000D01*
G01*
G37*
G36*
G01*
X165206000Y-82160000D02*
X165206000Y-83160000D01*
G75*
G02*
X165155000Y-83211000I-51000J0D01*
G01*
X162005000Y-83211000D01*
G75*
G02*
X161954000Y-83160000I0J51000D01*
G01*
X161954000Y-82160000D01*
G75*
G02*
X162005000Y-82109000I51000J0D01*
G01*
X165155000Y-82109000D01*
G75*
G02*
X165206000Y-82160000I0J-51000D01*
G01*
G37*
G36*
G01*
X170256000Y-79620000D02*
X170256000Y-80620000D01*
G75*
G02*
X170205000Y-80671000I-51000J0D01*
G01*
X167055000Y-80671000D01*
G75*
G02*
X167004000Y-80620000I0J51000D01*
G01*
X167004000Y-79620000D01*
G75*
G02*
X167055000Y-79569000I51000J0D01*
G01*
X170205000Y-79569000D01*
G75*
G02*
X170256000Y-79620000I0J-51000D01*
G01*
G37*
G36*
G01*
X165206000Y-79620000D02*
X165206000Y-80620000D01*
G75*
G02*
X165155000Y-80671000I-51000J0D01*
G01*
X162005000Y-80671000D01*
G75*
G02*
X161954000Y-80620000I0J51000D01*
G01*
X161954000Y-79620000D01*
G75*
G02*
X162005000Y-79569000I51000J0D01*
G01*
X165155000Y-79569000D01*
G75*
G02*
X165206000Y-79620000I0J-51000D01*
G01*
G37*
G36*
G01*
X170256000Y-77080000D02*
X170256000Y-78080000D01*
G75*
G02*
X170205000Y-78131000I-51000J0D01*
G01*
X167055000Y-78131000D01*
G75*
G02*
X167004000Y-78080000I0J51000D01*
G01*
X167004000Y-77080000D01*
G75*
G02*
X167055000Y-77029000I51000J0D01*
G01*
X170205000Y-77029000D01*
G75*
G02*
X170256000Y-77080000I0J-51000D01*
G01*
G37*
G36*
G01*
X165206000Y-77080000D02*
X165206000Y-78080000D01*
G75*
G02*
X165155000Y-78131000I-51000J0D01*
G01*
X162005000Y-78131000D01*
G75*
G02*
X161954000Y-78080000I0J51000D01*
G01*
X161954000Y-77080000D01*
G75*
G02*
X162005000Y-77029000I51000J0D01*
G01*
X165155000Y-77029000D01*
G75*
G02*
X165206000Y-77080000I0J-51000D01*
G01*
G37*
D12*
X119974999Y-65794999D03*
X114194999Y-65794999D03*
G36*
G01*
X120635999Y-66274999D02*
X120635999Y-67434999D01*
G75*
G02*
X120584999Y-67485999I-51000J0D01*
G01*
X119984999Y-67485999D01*
G75*
G02*
X119933999Y-67434999I0J51000D01*
G01*
X119933999Y-66274999D01*
G75*
G02*
X119984999Y-66223999I51000J0D01*
G01*
X120584999Y-66223999D01*
G75*
G02*
X120635999Y-66274999I0J-51000D01*
G01*
G37*
G36*
G01*
X119835999Y-66274999D02*
X119835999Y-67434999D01*
G75*
G02*
X119784999Y-67485999I-51000J0D01*
G01*
X119184999Y-67485999D01*
G75*
G02*
X119133999Y-67434999I0J51000D01*
G01*
X119133999Y-66274999D01*
G75*
G02*
X119184999Y-66223999I51000J0D01*
G01*
X119784999Y-66223999D01*
G75*
G02*
X119835999Y-66274999I0J-51000D01*
G01*
G37*
G36*
G01*
X118133999Y-67434999D02*
X118133999Y-66274999D01*
G75*
G02*
X118184999Y-66223999I51000J0D01*
G01*
X118484999Y-66223999D01*
G75*
G02*
X118535999Y-66274999I0J-51000D01*
G01*
X118535999Y-67434999D01*
G75*
G02*
X118484999Y-67485999I-51000J0D01*
G01*
X118184999Y-67485999D01*
G75*
G02*
X118133999Y-67434999I0J51000D01*
G01*
G37*
G36*
G01*
X117133999Y-67434999D02*
X117133999Y-66274999D01*
G75*
G02*
X117184999Y-66223999I51000J0D01*
G01*
X117484999Y-66223999D01*
G75*
G02*
X117535999Y-66274999I0J-51000D01*
G01*
X117535999Y-67434999D01*
G75*
G02*
X117484999Y-67485999I-51000J0D01*
G01*
X117184999Y-67485999D01*
G75*
G02*
X117133999Y-67434999I0J51000D01*
G01*
G37*
G36*
G01*
X116633999Y-67434999D02*
X116633999Y-66274999D01*
G75*
G02*
X116684999Y-66223999I51000J0D01*
G01*
X116984999Y-66223999D01*
G75*
G02*
X117035999Y-66274999I0J-51000D01*
G01*
X117035999Y-67434999D01*
G75*
G02*
X116984999Y-67485999I-51000J0D01*
G01*
X116684999Y-67485999D01*
G75*
G02*
X116633999Y-67434999I0J51000D01*
G01*
G37*
G36*
G01*
X115633999Y-67434999D02*
X115633999Y-66274999D01*
G75*
G02*
X115684999Y-66223999I51000J0D01*
G01*
X115984999Y-66223999D01*
G75*
G02*
X116035999Y-66274999I0J-51000D01*
G01*
X116035999Y-67434999D01*
G75*
G02*
X115984999Y-67485999I-51000J0D01*
G01*
X115684999Y-67485999D01*
G75*
G02*
X115633999Y-67434999I0J51000D01*
G01*
G37*
G36*
G01*
X115035999Y-66274999D02*
X115035999Y-67434999D01*
G75*
G02*
X114984999Y-67485999I-51000J0D01*
G01*
X114384999Y-67485999D01*
G75*
G02*
X114333999Y-67434999I0J51000D01*
G01*
X114333999Y-66274999D01*
G75*
G02*
X114384999Y-66223999I51000J0D01*
G01*
X114984999Y-66223999D01*
G75*
G02*
X115035999Y-66274999I0J-51000D01*
G01*
G37*
G36*
G01*
X114235999Y-66274999D02*
X114235999Y-67434999D01*
G75*
G02*
X114184999Y-67485999I-51000J0D01*
G01*
X113584999Y-67485999D01*
G75*
G02*
X113533999Y-67434999I0J51000D01*
G01*
X113533999Y-66274999D01*
G75*
G02*
X113584999Y-66223999I51000J0D01*
G01*
X114184999Y-66223999D01*
G75*
G02*
X114235999Y-66274999I0J-51000D01*
G01*
G37*
G36*
G01*
X114235999Y-66274999D02*
X114235999Y-67434999D01*
G75*
G02*
X114184999Y-67485999I-51000J0D01*
G01*
X113584999Y-67485999D01*
G75*
G02*
X113533999Y-67434999I0J51000D01*
G01*
X113533999Y-66274999D01*
G75*
G02*
X113584999Y-66223999I51000J0D01*
G01*
X114184999Y-66223999D01*
G75*
G02*
X114235999Y-66274999I0J-51000D01*
G01*
G37*
G36*
G01*
X115035999Y-66274999D02*
X115035999Y-67434999D01*
G75*
G02*
X114984999Y-67485999I-51000J0D01*
G01*
X114384999Y-67485999D01*
G75*
G02*
X114333999Y-67434999I0J51000D01*
G01*
X114333999Y-66274999D01*
G75*
G02*
X114384999Y-66223999I51000J0D01*
G01*
X114984999Y-66223999D01*
G75*
G02*
X115035999Y-66274999I0J-51000D01*
G01*
G37*
G36*
G01*
X115133999Y-67434999D02*
X115133999Y-66274999D01*
G75*
G02*
X115184999Y-66223999I51000J0D01*
G01*
X115484999Y-66223999D01*
G75*
G02*
X115535999Y-66274999I0J-51000D01*
G01*
X115535999Y-67434999D01*
G75*
G02*
X115484999Y-67485999I-51000J0D01*
G01*
X115184999Y-67485999D01*
G75*
G02*
X115133999Y-67434999I0J51000D01*
G01*
G37*
G36*
G01*
X116133999Y-67434999D02*
X116133999Y-66274999D01*
G75*
G02*
X116184999Y-66223999I51000J0D01*
G01*
X116484999Y-66223999D01*
G75*
G02*
X116535999Y-66274999I0J-51000D01*
G01*
X116535999Y-67434999D01*
G75*
G02*
X116484999Y-67485999I-51000J0D01*
G01*
X116184999Y-67485999D01*
G75*
G02*
X116133999Y-67434999I0J51000D01*
G01*
G37*
G36*
G01*
X117633999Y-67434999D02*
X117633999Y-66274999D01*
G75*
G02*
X117684999Y-66223999I51000J0D01*
G01*
X117984999Y-66223999D01*
G75*
G02*
X118035999Y-66274999I0J-51000D01*
G01*
X118035999Y-67434999D01*
G75*
G02*
X117984999Y-67485999I-51000J0D01*
G01*
X117684999Y-67485999D01*
G75*
G02*
X117633999Y-67434999I0J51000D01*
G01*
G37*
G36*
G01*
X118633999Y-67434999D02*
X118633999Y-66274999D01*
G75*
G02*
X118684999Y-66223999I51000J0D01*
G01*
X118984999Y-66223999D01*
G75*
G02*
X119035999Y-66274999I0J-51000D01*
G01*
X119035999Y-67434999D01*
G75*
G02*
X118984999Y-67485999I-51000J0D01*
G01*
X118684999Y-67485999D01*
G75*
G02*
X118633999Y-67434999I0J51000D01*
G01*
G37*
G36*
G01*
X119835999Y-66274999D02*
X119835999Y-67434999D01*
G75*
G02*
X119784999Y-67485999I-51000J0D01*
G01*
X119184999Y-67485999D01*
G75*
G02*
X119133999Y-67434999I0J51000D01*
G01*
X119133999Y-66274999D01*
G75*
G02*
X119184999Y-66223999I51000J0D01*
G01*
X119784999Y-66223999D01*
G75*
G02*
X119835999Y-66274999I0J-51000D01*
G01*
G37*
G36*
G01*
X120635999Y-66274999D02*
X120635999Y-67434999D01*
G75*
G02*
X120584999Y-67485999I-51000J0D01*
G01*
X119984999Y-67485999D01*
G75*
G02*
X119933999Y-67434999I0J51000D01*
G01*
X119933999Y-66274999D01*
G75*
G02*
X119984999Y-66223999I51000J0D01*
G01*
X120584999Y-66223999D01*
G75*
G02*
X120635999Y-66274999I0J-51000D01*
G01*
G37*
D13*
X121404999Y-62104999D03*
X112764999Y-62104999D03*
D14*
X121404999Y-66274999D03*
X112764999Y-66274999D03*
G36*
G01*
X177140000Y-89319000D02*
X182540000Y-89319000D01*
G75*
G02*
X182591000Y-89370000I0J-51000D01*
G01*
X182591000Y-94270000D01*
G75*
G02*
X182540000Y-94321000I-51000J0D01*
G01*
X177140000Y-94321000D01*
G75*
G02*
X177089000Y-94270000I0J51000D01*
G01*
X177089000Y-89370000D01*
G75*
G02*
X177140000Y-89319000I51000J0D01*
G01*
G37*
G36*
G01*
X177140000Y-101119000D02*
X182540000Y-101119000D01*
G75*
G02*
X182591000Y-101170000I0J-51000D01*
G01*
X182591000Y-106070000D01*
G75*
G02*
X182540000Y-106121000I-51000J0D01*
G01*
X177140000Y-106121000D01*
G75*
G02*
X177089000Y-106070000I0J51000D01*
G01*
X177089000Y-101170000D01*
G75*
G02*
X177140000Y-101119000I51000J0D01*
G01*
G37*
G36*
G01*
X171399000Y-109610000D02*
X171399000Y-108410000D01*
G75*
G02*
X171450000Y-108359000I51000J0D01*
G01*
X173650000Y-108359000D01*
G75*
G02*
X173701000Y-108410000I0J-51000D01*
G01*
X173701000Y-109610000D01*
G75*
G02*
X173650000Y-109661000I-51000J0D01*
G01*
X171450000Y-109661000D01*
G75*
G02*
X171399000Y-109610000I0J51000D01*
G01*
G37*
G36*
G01*
X175599000Y-114190000D02*
X175599000Y-108390000D01*
G75*
G02*
X175650000Y-108339000I51000J0D01*
G01*
X182050000Y-108339000D01*
G75*
G02*
X182101000Y-108390000I0J-51000D01*
G01*
X182101000Y-114190000D01*
G75*
G02*
X182050000Y-114241000I-51000J0D01*
G01*
X175650000Y-114241000D01*
G75*
G02*
X175599000Y-114190000I0J51000D01*
G01*
G37*
G36*
G01*
X171399000Y-114170000D02*
X171399000Y-112970000D01*
G75*
G02*
X171450000Y-112919000I51000J0D01*
G01*
X173650000Y-112919000D01*
G75*
G02*
X173701000Y-112970000I0J-51000D01*
G01*
X173701000Y-114170000D01*
G75*
G02*
X173650000Y-114221000I-51000J0D01*
G01*
X171450000Y-114221000D01*
G75*
G02*
X171399000Y-114170000I0J51000D01*
G01*
G37*
G36*
G01*
X134916500Y-94465000D02*
X134916500Y-93215000D01*
G75*
G02*
X135217500Y-92914000I301000J0D01*
G01*
X136017500Y-92914000D01*
G75*
G02*
X136318500Y-93215000I0J-301000D01*
G01*
X136318500Y-94465000D01*
G75*
G02*
X136017500Y-94766000I-301000J0D01*
G01*
X135217500Y-94766000D01*
G75*
G02*
X134916500Y-94465000I0J301000D01*
G01*
G37*
G36*
G01*
X138016500Y-94465000D02*
X138016500Y-93215000D01*
G75*
G02*
X138317500Y-92914000I301000J0D01*
G01*
X139117500Y-92914000D01*
G75*
G02*
X139418500Y-93215000I0J-301000D01*
G01*
X139418500Y-94465000D01*
G75*
G02*
X139117500Y-94766000I-301000J0D01*
G01*
X138317500Y-94766000D01*
G75*
G02*
X138016500Y-94465000I0J301000D01*
G01*
G37*
G36*
G01*
X115281000Y-105695000D02*
X115281000Y-106945000D01*
G75*
G02*
X114980000Y-107246000I-301000J0D01*
G01*
X114180000Y-107246000D01*
G75*
G02*
X113879000Y-106945000I0J301000D01*
G01*
X113879000Y-105695000D01*
G75*
G02*
X114180000Y-105394000I301000J0D01*
G01*
X114980000Y-105394000D01*
G75*
G02*
X115281000Y-105695000I0J-301000D01*
G01*
G37*
G36*
G01*
X112181000Y-105695000D02*
X112181000Y-106945000D01*
G75*
G02*
X111880000Y-107246000I-301000J0D01*
G01*
X111080000Y-107246000D01*
G75*
G02*
X110779000Y-106945000I0J301000D01*
G01*
X110779000Y-105695000D01*
G75*
G02*
X111080000Y-105394000I301000J0D01*
G01*
X111880000Y-105394000D01*
G75*
G02*
X112181000Y-105695000I0J-301000D01*
G01*
G37*
G36*
G01*
X130025000Y-89521000D02*
X128775000Y-89521000D01*
G75*
G02*
X128474000Y-89220000I0J301000D01*
G01*
X128474000Y-88420000D01*
G75*
G02*
X128775000Y-88119000I301000J0D01*
G01*
X130025000Y-88119000D01*
G75*
G02*
X130326000Y-88420000I0J-301000D01*
G01*
X130326000Y-89220000D01*
G75*
G02*
X130025000Y-89521000I-301000J0D01*
G01*
G37*
G36*
G01*
X130025000Y-86421000D02*
X128775000Y-86421000D01*
G75*
G02*
X128474000Y-86120000I0J301000D01*
G01*
X128474000Y-85320000D01*
G75*
G02*
X128775000Y-85019000I301000J0D01*
G01*
X130025000Y-85019000D01*
G75*
G02*
X130326000Y-85320000I0J-301000D01*
G01*
X130326000Y-86120000D01*
G75*
G02*
X130025000Y-86421000I-301000J0D01*
G01*
G37*
G36*
G01*
X117566500Y-70655000D02*
X117566500Y-69405000D01*
G75*
G02*
X117867500Y-69104000I301000J0D01*
G01*
X118667500Y-69104000D01*
G75*
G02*
X118968500Y-69405000I0J-301000D01*
G01*
X118968500Y-70655000D01*
G75*
G02*
X118667500Y-70956000I-301000J0D01*
G01*
X117867500Y-70956000D01*
G75*
G02*
X117566500Y-70655000I0J301000D01*
G01*
G37*
G36*
G01*
X120666500Y-70655000D02*
X120666500Y-69405000D01*
G75*
G02*
X120967500Y-69104000I301000J0D01*
G01*
X121767500Y-69104000D01*
G75*
G02*
X122068500Y-69405000I0J-301000D01*
G01*
X122068500Y-70655000D01*
G75*
G02*
X121767500Y-70956000I-301000J0D01*
G01*
X120967500Y-70956000D01*
G75*
G02*
X120666500Y-70655000I0J301000D01*
G01*
G37*
G36*
G01*
X116103500Y-69405000D02*
X116103500Y-70655000D01*
G75*
G02*
X115802500Y-70956000I-301000J0D01*
G01*
X115002500Y-70956000D01*
G75*
G02*
X114701500Y-70655000I0J301000D01*
G01*
X114701500Y-69405000D01*
G75*
G02*
X115002500Y-69104000I301000J0D01*
G01*
X115802500Y-69104000D01*
G75*
G02*
X116103500Y-69405000I0J-301000D01*
G01*
G37*
G36*
G01*
X113003500Y-69405000D02*
X113003500Y-70655000D01*
G75*
G02*
X112702500Y-70956000I-301000J0D01*
G01*
X111902500Y-70956000D01*
G75*
G02*
X111601500Y-70655000I0J301000D01*
G01*
X111601500Y-69405000D01*
G75*
G02*
X111902500Y-69104000I301000J0D01*
G01*
X112702500Y-69104000D01*
G75*
G02*
X113003500Y-69405000I0J-301000D01*
G01*
G37*
G36*
G01*
X167643500Y-109155000D02*
X167643500Y-110405000D01*
G75*
G02*
X167342500Y-110706000I-301000J0D01*
G01*
X166542500Y-110706000D01*
G75*
G02*
X166241500Y-110405000I0J301000D01*
G01*
X166241500Y-109155000D01*
G75*
G02*
X166542500Y-108854000I301000J0D01*
G01*
X167342500Y-108854000D01*
G75*
G02*
X167643500Y-109155000I0J-301000D01*
G01*
G37*
G36*
G01*
X164543500Y-109155000D02*
X164543500Y-110405000D01*
G75*
G02*
X164242500Y-110706000I-301000J0D01*
G01*
X163442500Y-110706000D01*
G75*
G02*
X163141500Y-110405000I0J301000D01*
G01*
X163141500Y-109155000D01*
G75*
G02*
X163442500Y-108854000I301000J0D01*
G01*
X164242500Y-108854000D01*
G75*
G02*
X164543500Y-109155000I0J-301000D01*
G01*
G37*
G36*
G01*
X168625000Y-109031500D02*
X169875000Y-109031500D01*
G75*
G02*
X170176000Y-109332500I0J-301000D01*
G01*
X170176000Y-110132500D01*
G75*
G02*
X169875000Y-110433500I-301000J0D01*
G01*
X168625000Y-110433500D01*
G75*
G02*
X168324000Y-110132500I0J301000D01*
G01*
X168324000Y-109332500D01*
G75*
G02*
X168625000Y-109031500I301000J0D01*
G01*
G37*
G36*
G01*
X168625000Y-112131500D02*
X169875000Y-112131500D01*
G75*
G02*
X170176000Y-112432500I0J-301000D01*
G01*
X170176000Y-113232500D01*
G75*
G02*
X169875000Y-113533500I-301000J0D01*
G01*
X168625000Y-113533500D01*
G75*
G02*
X168324000Y-113232500I0J301000D01*
G01*
X168324000Y-112432500D01*
G75*
G02*
X168625000Y-112131500I301000J0D01*
G01*
G37*
G36*
G01*
X188661500Y-91325000D02*
X188661500Y-90075000D01*
G75*
G02*
X188962500Y-89774000I301000J0D01*
G01*
X189762500Y-89774000D01*
G75*
G02*
X190063500Y-90075000I0J-301000D01*
G01*
X190063500Y-91325000D01*
G75*
G02*
X189762500Y-91626000I-301000J0D01*
G01*
X188962500Y-91626000D01*
G75*
G02*
X188661500Y-91325000I0J301000D01*
G01*
G37*
G36*
G01*
X191761500Y-91325000D02*
X191761500Y-90075000D01*
G75*
G02*
X192062500Y-89774000I301000J0D01*
G01*
X192862500Y-89774000D01*
G75*
G02*
X193163500Y-90075000I0J-301000D01*
G01*
X193163500Y-91325000D01*
G75*
G02*
X192862500Y-91626000I-301000J0D01*
G01*
X192062500Y-91626000D01*
G75*
G02*
X191761500Y-91325000I0J301000D01*
G01*
G37*
G36*
G01*
X114630000Y-85089000D02*
X116130000Y-85089000D01*
G75*
G02*
X116181000Y-85140000I0J-51000D01*
G01*
X116181000Y-87140000D01*
G75*
G02*
X116130000Y-87191000I-51000J0D01*
G01*
X114630000Y-87191000D01*
G75*
G02*
X114579000Y-87140000I0J51000D01*
G01*
X114579000Y-85140000D01*
G75*
G02*
X114630000Y-85089000I51000J0D01*
G01*
G37*
G36*
G01*
X112330000Y-85089000D02*
X113830000Y-85089000D01*
G75*
G02*
X113881000Y-85140000I0J-51000D01*
G01*
X113881000Y-87140000D01*
G75*
G02*
X113830000Y-87191000I-51000J0D01*
G01*
X112330000Y-87191000D01*
G75*
G02*
X112279000Y-87140000I0J51000D01*
G01*
X112279000Y-85140000D01*
G75*
G02*
X112330000Y-85089000I51000J0D01*
G01*
G37*
G36*
G01*
X111180000Y-91389000D02*
X114980000Y-91389000D01*
G75*
G02*
X115031000Y-91440000I0J-51000D01*
G01*
X115031000Y-93440000D01*
G75*
G02*
X114980000Y-93491000I-51000J0D01*
G01*
X111180000Y-93491000D01*
G75*
G02*
X111129000Y-93440000I0J51000D01*
G01*
X111129000Y-91440000D01*
G75*
G02*
X111180000Y-91389000I51000J0D01*
G01*
G37*
G36*
G01*
X110030000Y-85089000D02*
X111530000Y-85089000D01*
G75*
G02*
X111581000Y-85140000I0J-51000D01*
G01*
X111581000Y-87140000D01*
G75*
G02*
X111530000Y-87191000I-51000J0D01*
G01*
X110030000Y-87191000D01*
G75*
G02*
X109979000Y-87140000I0J51000D01*
G01*
X109979000Y-85140000D01*
G75*
G02*
X110030000Y-85089000I51000J0D01*
G01*
G37*
G36*
G01*
X132099000Y-98362500D02*
X132099000Y-98212500D01*
G75*
G02*
X132225000Y-98086500I126000J0D01*
G01*
X133550000Y-98086500D01*
G75*
G02*
X133676000Y-98212500I0J-126000D01*
G01*
X133676000Y-98362500D01*
G75*
G02*
X133550000Y-98488500I-126000J0D01*
G01*
X132225000Y-98488500D01*
G75*
G02*
X132099000Y-98362500I0J126000D01*
G01*
G37*
G36*
G01*
X132099000Y-98862500D02*
X132099000Y-98712500D01*
G75*
G02*
X132225000Y-98586500I126000J0D01*
G01*
X133550000Y-98586500D01*
G75*
G02*
X133676000Y-98712500I0J-126000D01*
G01*
X133676000Y-98862500D01*
G75*
G02*
X133550000Y-98988500I-126000J0D01*
G01*
X132225000Y-98988500D01*
G75*
G02*
X132099000Y-98862500I0J126000D01*
G01*
G37*
G36*
G01*
X132099000Y-99362500D02*
X132099000Y-99212500D01*
G75*
G02*
X132225000Y-99086500I126000J0D01*
G01*
X133550000Y-99086500D01*
G75*
G02*
X133676000Y-99212500I0J-126000D01*
G01*
X133676000Y-99362500D01*
G75*
G02*
X133550000Y-99488500I-126000J0D01*
G01*
X132225000Y-99488500D01*
G75*
G02*
X132099000Y-99362500I0J126000D01*
G01*
G37*
G36*
G01*
X132099000Y-99862500D02*
X132099000Y-99712500D01*
G75*
G02*
X132225000Y-99586500I126000J0D01*
G01*
X133550000Y-99586500D01*
G75*
G02*
X133676000Y-99712500I0J-126000D01*
G01*
X133676000Y-99862500D01*
G75*
G02*
X133550000Y-99988500I-126000J0D01*
G01*
X132225000Y-99988500D01*
G75*
G02*
X132099000Y-99862500I0J126000D01*
G01*
G37*
G36*
G01*
X132099000Y-100362500D02*
X132099000Y-100212500D01*
G75*
G02*
X132225000Y-100086500I126000J0D01*
G01*
X133550000Y-100086500D01*
G75*
G02*
X133676000Y-100212500I0J-126000D01*
G01*
X133676000Y-100362500D01*
G75*
G02*
X133550000Y-100488500I-126000J0D01*
G01*
X132225000Y-100488500D01*
G75*
G02*
X132099000Y-100362500I0J126000D01*
G01*
G37*
G36*
G01*
X132099000Y-100862500D02*
X132099000Y-100712500D01*
G75*
G02*
X132225000Y-100586500I126000J0D01*
G01*
X133550000Y-100586500D01*
G75*
G02*
X133676000Y-100712500I0J-126000D01*
G01*
X133676000Y-100862500D01*
G75*
G02*
X133550000Y-100988500I-126000J0D01*
G01*
X132225000Y-100988500D01*
G75*
G02*
X132099000Y-100862500I0J126000D01*
G01*
G37*
G36*
G01*
X132099000Y-101362500D02*
X132099000Y-101212500D01*
G75*
G02*
X132225000Y-101086500I126000J0D01*
G01*
X133550000Y-101086500D01*
G75*
G02*
X133676000Y-101212500I0J-126000D01*
G01*
X133676000Y-101362500D01*
G75*
G02*
X133550000Y-101488500I-126000J0D01*
G01*
X132225000Y-101488500D01*
G75*
G02*
X132099000Y-101362500I0J126000D01*
G01*
G37*
G36*
G01*
X132099000Y-101862500D02*
X132099000Y-101712500D01*
G75*
G02*
X132225000Y-101586500I126000J0D01*
G01*
X133550000Y-101586500D01*
G75*
G02*
X133676000Y-101712500I0J-126000D01*
G01*
X133676000Y-101862500D01*
G75*
G02*
X133550000Y-101988500I-126000J0D01*
G01*
X132225000Y-101988500D01*
G75*
G02*
X132099000Y-101862500I0J126000D01*
G01*
G37*
G36*
G01*
X132099000Y-102362500D02*
X132099000Y-102212500D01*
G75*
G02*
X132225000Y-102086500I126000J0D01*
G01*
X133550000Y-102086500D01*
G75*
G02*
X133676000Y-102212500I0J-126000D01*
G01*
X133676000Y-102362500D01*
G75*
G02*
X133550000Y-102488500I-126000J0D01*
G01*
X132225000Y-102488500D01*
G75*
G02*
X132099000Y-102362500I0J126000D01*
G01*
G37*
G36*
G01*
X132099000Y-102862500D02*
X132099000Y-102712500D01*
G75*
G02*
X132225000Y-102586500I126000J0D01*
G01*
X133550000Y-102586500D01*
G75*
G02*
X133676000Y-102712500I0J-126000D01*
G01*
X133676000Y-102862500D01*
G75*
G02*
X133550000Y-102988500I-126000J0D01*
G01*
X132225000Y-102988500D01*
G75*
G02*
X132099000Y-102862500I0J126000D01*
G01*
G37*
G36*
G01*
X132099000Y-103362500D02*
X132099000Y-103212500D01*
G75*
G02*
X132225000Y-103086500I126000J0D01*
G01*
X133550000Y-103086500D01*
G75*
G02*
X133676000Y-103212500I0J-126000D01*
G01*
X133676000Y-103362500D01*
G75*
G02*
X133550000Y-103488500I-126000J0D01*
G01*
X132225000Y-103488500D01*
G75*
G02*
X132099000Y-103362500I0J126000D01*
G01*
G37*
G36*
G01*
X132099000Y-103862500D02*
X132099000Y-103712500D01*
G75*
G02*
X132225000Y-103586500I126000J0D01*
G01*
X133550000Y-103586500D01*
G75*
G02*
X133676000Y-103712500I0J-126000D01*
G01*
X133676000Y-103862500D01*
G75*
G02*
X133550000Y-103988500I-126000J0D01*
G01*
X132225000Y-103988500D01*
G75*
G02*
X132099000Y-103862500I0J126000D01*
G01*
G37*
G36*
G01*
X134099000Y-105862500D02*
X134099000Y-104537500D01*
G75*
G02*
X134225000Y-104411500I126000J0D01*
G01*
X134375000Y-104411500D01*
G75*
G02*
X134501000Y-104537500I0J-126000D01*
G01*
X134501000Y-105862500D01*
G75*
G02*
X134375000Y-105988500I-126000J0D01*
G01*
X134225000Y-105988500D01*
G75*
G02*
X134099000Y-105862500I0J126000D01*
G01*
G37*
G36*
G01*
X134599000Y-105862500D02*
X134599000Y-104537500D01*
G75*
G02*
X134725000Y-104411500I126000J0D01*
G01*
X134875000Y-104411500D01*
G75*
G02*
X135001000Y-104537500I0J-126000D01*
G01*
X135001000Y-105862500D01*
G75*
G02*
X134875000Y-105988500I-126000J0D01*
G01*
X134725000Y-105988500D01*
G75*
G02*
X134599000Y-105862500I0J126000D01*
G01*
G37*
G36*
G01*
X135099000Y-105862500D02*
X135099000Y-104537500D01*
G75*
G02*
X135225000Y-104411500I126000J0D01*
G01*
X135375000Y-104411500D01*
G75*
G02*
X135501000Y-104537500I0J-126000D01*
G01*
X135501000Y-105862500D01*
G75*
G02*
X135375000Y-105988500I-126000J0D01*
G01*
X135225000Y-105988500D01*
G75*
G02*
X135099000Y-105862500I0J126000D01*
G01*
G37*
G36*
G01*
X135599000Y-105862500D02*
X135599000Y-104537500D01*
G75*
G02*
X135725000Y-104411500I126000J0D01*
G01*
X135875000Y-104411500D01*
G75*
G02*
X136001000Y-104537500I0J-126000D01*
G01*
X136001000Y-105862500D01*
G75*
G02*
X135875000Y-105988500I-126000J0D01*
G01*
X135725000Y-105988500D01*
G75*
G02*
X135599000Y-105862500I0J126000D01*
G01*
G37*
G36*
G01*
X136099000Y-105862500D02*
X136099000Y-104537500D01*
G75*
G02*
X136225000Y-104411500I126000J0D01*
G01*
X136375000Y-104411500D01*
G75*
G02*
X136501000Y-104537500I0J-126000D01*
G01*
X136501000Y-105862500D01*
G75*
G02*
X136375000Y-105988500I-126000J0D01*
G01*
X136225000Y-105988500D01*
G75*
G02*
X136099000Y-105862500I0J126000D01*
G01*
G37*
G36*
G01*
X136599000Y-105862500D02*
X136599000Y-104537500D01*
G75*
G02*
X136725000Y-104411500I126000J0D01*
G01*
X136875000Y-104411500D01*
G75*
G02*
X137001000Y-104537500I0J-126000D01*
G01*
X137001000Y-105862500D01*
G75*
G02*
X136875000Y-105988500I-126000J0D01*
G01*
X136725000Y-105988500D01*
G75*
G02*
X136599000Y-105862500I0J126000D01*
G01*
G37*
G36*
G01*
X137099000Y-105862500D02*
X137099000Y-104537500D01*
G75*
G02*
X137225000Y-104411500I126000J0D01*
G01*
X137375000Y-104411500D01*
G75*
G02*
X137501000Y-104537500I0J-126000D01*
G01*
X137501000Y-105862500D01*
G75*
G02*
X137375000Y-105988500I-126000J0D01*
G01*
X137225000Y-105988500D01*
G75*
G02*
X137099000Y-105862500I0J126000D01*
G01*
G37*
G36*
G01*
X137599000Y-105862500D02*
X137599000Y-104537500D01*
G75*
G02*
X137725000Y-104411500I126000J0D01*
G01*
X137875000Y-104411500D01*
G75*
G02*
X138001000Y-104537500I0J-126000D01*
G01*
X138001000Y-105862500D01*
G75*
G02*
X137875000Y-105988500I-126000J0D01*
G01*
X137725000Y-105988500D01*
G75*
G02*
X137599000Y-105862500I0J126000D01*
G01*
G37*
G36*
G01*
X138099000Y-105862500D02*
X138099000Y-104537500D01*
G75*
G02*
X138225000Y-104411500I126000J0D01*
G01*
X138375000Y-104411500D01*
G75*
G02*
X138501000Y-104537500I0J-126000D01*
G01*
X138501000Y-105862500D01*
G75*
G02*
X138375000Y-105988500I-126000J0D01*
G01*
X138225000Y-105988500D01*
G75*
G02*
X138099000Y-105862500I0J126000D01*
G01*
G37*
G36*
G01*
X138599000Y-105862500D02*
X138599000Y-104537500D01*
G75*
G02*
X138725000Y-104411500I126000J0D01*
G01*
X138875000Y-104411500D01*
G75*
G02*
X139001000Y-104537500I0J-126000D01*
G01*
X139001000Y-105862500D01*
G75*
G02*
X138875000Y-105988500I-126000J0D01*
G01*
X138725000Y-105988500D01*
G75*
G02*
X138599000Y-105862500I0J126000D01*
G01*
G37*
G36*
G01*
X139099000Y-105862500D02*
X139099000Y-104537500D01*
G75*
G02*
X139225000Y-104411500I126000J0D01*
G01*
X139375000Y-104411500D01*
G75*
G02*
X139501000Y-104537500I0J-126000D01*
G01*
X139501000Y-105862500D01*
G75*
G02*
X139375000Y-105988500I-126000J0D01*
G01*
X139225000Y-105988500D01*
G75*
G02*
X139099000Y-105862500I0J126000D01*
G01*
G37*
G36*
G01*
X139599000Y-105862500D02*
X139599000Y-104537500D01*
G75*
G02*
X139725000Y-104411500I126000J0D01*
G01*
X139875000Y-104411500D01*
G75*
G02*
X140001000Y-104537500I0J-126000D01*
G01*
X140001000Y-105862500D01*
G75*
G02*
X139875000Y-105988500I-126000J0D01*
G01*
X139725000Y-105988500D01*
G75*
G02*
X139599000Y-105862500I0J126000D01*
G01*
G37*
G36*
G01*
X140424000Y-103862500D02*
X140424000Y-103712500D01*
G75*
G02*
X140550000Y-103586500I126000J0D01*
G01*
X141875000Y-103586500D01*
G75*
G02*
X142001000Y-103712500I0J-126000D01*
G01*
X142001000Y-103862500D01*
G75*
G02*
X141875000Y-103988500I-126000J0D01*
G01*
X140550000Y-103988500D01*
G75*
G02*
X140424000Y-103862500I0J126000D01*
G01*
G37*
G36*
G01*
X140424000Y-103362500D02*
X140424000Y-103212500D01*
G75*
G02*
X140550000Y-103086500I126000J0D01*
G01*
X141875000Y-103086500D01*
G75*
G02*
X142001000Y-103212500I0J-126000D01*
G01*
X142001000Y-103362500D01*
G75*
G02*
X141875000Y-103488500I-126000J0D01*
G01*
X140550000Y-103488500D01*
G75*
G02*
X140424000Y-103362500I0J126000D01*
G01*
G37*
G36*
G01*
X140424000Y-102862500D02*
X140424000Y-102712500D01*
G75*
G02*
X140550000Y-102586500I126000J0D01*
G01*
X141875000Y-102586500D01*
G75*
G02*
X142001000Y-102712500I0J-126000D01*
G01*
X142001000Y-102862500D01*
G75*
G02*
X141875000Y-102988500I-126000J0D01*
G01*
X140550000Y-102988500D01*
G75*
G02*
X140424000Y-102862500I0J126000D01*
G01*
G37*
G36*
G01*
X140424000Y-102362500D02*
X140424000Y-102212500D01*
G75*
G02*
X140550000Y-102086500I126000J0D01*
G01*
X141875000Y-102086500D01*
G75*
G02*
X142001000Y-102212500I0J-126000D01*
G01*
X142001000Y-102362500D01*
G75*
G02*
X141875000Y-102488500I-126000J0D01*
G01*
X140550000Y-102488500D01*
G75*
G02*
X140424000Y-102362500I0J126000D01*
G01*
G37*
G36*
G01*
X140424000Y-101862500D02*
X140424000Y-101712500D01*
G75*
G02*
X140550000Y-101586500I126000J0D01*
G01*
X141875000Y-101586500D01*
G75*
G02*
X142001000Y-101712500I0J-126000D01*
G01*
X142001000Y-101862500D01*
G75*
G02*
X141875000Y-101988500I-126000J0D01*
G01*
X140550000Y-101988500D01*
G75*
G02*
X140424000Y-101862500I0J126000D01*
G01*
G37*
G36*
G01*
X140424000Y-101362500D02*
X140424000Y-101212500D01*
G75*
G02*
X140550000Y-101086500I126000J0D01*
G01*
X141875000Y-101086500D01*
G75*
G02*
X142001000Y-101212500I0J-126000D01*
G01*
X142001000Y-101362500D01*
G75*
G02*
X141875000Y-101488500I-126000J0D01*
G01*
X140550000Y-101488500D01*
G75*
G02*
X140424000Y-101362500I0J126000D01*
G01*
G37*
G36*
G01*
X140424000Y-100862500D02*
X140424000Y-100712500D01*
G75*
G02*
X140550000Y-100586500I126000J0D01*
G01*
X141875000Y-100586500D01*
G75*
G02*
X142001000Y-100712500I0J-126000D01*
G01*
X142001000Y-100862500D01*
G75*
G02*
X141875000Y-100988500I-126000J0D01*
G01*
X140550000Y-100988500D01*
G75*
G02*
X140424000Y-100862500I0J126000D01*
G01*
G37*
G36*
G01*
X140424000Y-100362500D02*
X140424000Y-100212500D01*
G75*
G02*
X140550000Y-100086500I126000J0D01*
G01*
X141875000Y-100086500D01*
G75*
G02*
X142001000Y-100212500I0J-126000D01*
G01*
X142001000Y-100362500D01*
G75*
G02*
X141875000Y-100488500I-126000J0D01*
G01*
X140550000Y-100488500D01*
G75*
G02*
X140424000Y-100362500I0J126000D01*
G01*
G37*
G36*
G01*
X140424000Y-99862500D02*
X140424000Y-99712500D01*
G75*
G02*
X140550000Y-99586500I126000J0D01*
G01*
X141875000Y-99586500D01*
G75*
G02*
X142001000Y-99712500I0J-126000D01*
G01*
X142001000Y-99862500D01*
G75*
G02*
X141875000Y-99988500I-126000J0D01*
G01*
X140550000Y-99988500D01*
G75*
G02*
X140424000Y-99862500I0J126000D01*
G01*
G37*
G36*
G01*
X140424000Y-99362500D02*
X140424000Y-99212500D01*
G75*
G02*
X140550000Y-99086500I126000J0D01*
G01*
X141875000Y-99086500D01*
G75*
G02*
X142001000Y-99212500I0J-126000D01*
G01*
X142001000Y-99362500D01*
G75*
G02*
X141875000Y-99488500I-126000J0D01*
G01*
X140550000Y-99488500D01*
G75*
G02*
X140424000Y-99362500I0J126000D01*
G01*
G37*
G36*
G01*
X140424000Y-98862500D02*
X140424000Y-98712500D01*
G75*
G02*
X140550000Y-98586500I126000J0D01*
G01*
X141875000Y-98586500D01*
G75*
G02*
X142001000Y-98712500I0J-126000D01*
G01*
X142001000Y-98862500D01*
G75*
G02*
X141875000Y-98988500I-126000J0D01*
G01*
X140550000Y-98988500D01*
G75*
G02*
X140424000Y-98862500I0J126000D01*
G01*
G37*
G36*
G01*
X140424000Y-98362500D02*
X140424000Y-98212500D01*
G75*
G02*
X140550000Y-98086500I126000J0D01*
G01*
X141875000Y-98086500D01*
G75*
G02*
X142001000Y-98212500I0J-126000D01*
G01*
X142001000Y-98362500D01*
G75*
G02*
X141875000Y-98488500I-126000J0D01*
G01*
X140550000Y-98488500D01*
G75*
G02*
X140424000Y-98362500I0J126000D01*
G01*
G37*
G36*
G01*
X139599000Y-97537500D02*
X139599000Y-96212500D01*
G75*
G02*
X139725000Y-96086500I126000J0D01*
G01*
X139875000Y-96086500D01*
G75*
G02*
X140001000Y-96212500I0J-126000D01*
G01*
X140001000Y-97537500D01*
G75*
G02*
X139875000Y-97663500I-126000J0D01*
G01*
X139725000Y-97663500D01*
G75*
G02*
X139599000Y-97537500I0J126000D01*
G01*
G37*
G36*
G01*
X139099000Y-97537500D02*
X139099000Y-96212500D01*
G75*
G02*
X139225000Y-96086500I126000J0D01*
G01*
X139375000Y-96086500D01*
G75*
G02*
X139501000Y-96212500I0J-126000D01*
G01*
X139501000Y-97537500D01*
G75*
G02*
X139375000Y-97663500I-126000J0D01*
G01*
X139225000Y-97663500D01*
G75*
G02*
X139099000Y-97537500I0J126000D01*
G01*
G37*
G36*
G01*
X138599000Y-97537500D02*
X138599000Y-96212500D01*
G75*
G02*
X138725000Y-96086500I126000J0D01*
G01*
X138875000Y-96086500D01*
G75*
G02*
X139001000Y-96212500I0J-126000D01*
G01*
X139001000Y-97537500D01*
G75*
G02*
X138875000Y-97663500I-126000J0D01*
G01*
X138725000Y-97663500D01*
G75*
G02*
X138599000Y-97537500I0J126000D01*
G01*
G37*
G36*
G01*
X138099000Y-97537500D02*
X138099000Y-96212500D01*
G75*
G02*
X138225000Y-96086500I126000J0D01*
G01*
X138375000Y-96086500D01*
G75*
G02*
X138501000Y-96212500I0J-126000D01*
G01*
X138501000Y-97537500D01*
G75*
G02*
X138375000Y-97663500I-126000J0D01*
G01*
X138225000Y-97663500D01*
G75*
G02*
X138099000Y-97537500I0J126000D01*
G01*
G37*
G36*
G01*
X137599000Y-97537500D02*
X137599000Y-96212500D01*
G75*
G02*
X137725000Y-96086500I126000J0D01*
G01*
X137875000Y-96086500D01*
G75*
G02*
X138001000Y-96212500I0J-126000D01*
G01*
X138001000Y-97537500D01*
G75*
G02*
X137875000Y-97663500I-126000J0D01*
G01*
X137725000Y-97663500D01*
G75*
G02*
X137599000Y-97537500I0J126000D01*
G01*
G37*
G36*
G01*
X137099000Y-97537500D02*
X137099000Y-96212500D01*
G75*
G02*
X137225000Y-96086500I126000J0D01*
G01*
X137375000Y-96086500D01*
G75*
G02*
X137501000Y-96212500I0J-126000D01*
G01*
X137501000Y-97537500D01*
G75*
G02*
X137375000Y-97663500I-126000J0D01*
G01*
X137225000Y-97663500D01*
G75*
G02*
X137099000Y-97537500I0J126000D01*
G01*
G37*
G36*
G01*
X136599000Y-97537500D02*
X136599000Y-96212500D01*
G75*
G02*
X136725000Y-96086500I126000J0D01*
G01*
X136875000Y-96086500D01*
G75*
G02*
X137001000Y-96212500I0J-126000D01*
G01*
X137001000Y-97537500D01*
G75*
G02*
X136875000Y-97663500I-126000J0D01*
G01*
X136725000Y-97663500D01*
G75*
G02*
X136599000Y-97537500I0J126000D01*
G01*
G37*
G36*
G01*
X136099000Y-97537500D02*
X136099000Y-96212500D01*
G75*
G02*
X136225000Y-96086500I126000J0D01*
G01*
X136375000Y-96086500D01*
G75*
G02*
X136501000Y-96212500I0J-126000D01*
G01*
X136501000Y-97537500D01*
G75*
G02*
X136375000Y-97663500I-126000J0D01*
G01*
X136225000Y-97663500D01*
G75*
G02*
X136099000Y-97537500I0J126000D01*
G01*
G37*
G36*
G01*
X135599000Y-97537500D02*
X135599000Y-96212500D01*
G75*
G02*
X135725000Y-96086500I126000J0D01*
G01*
X135875000Y-96086500D01*
G75*
G02*
X136001000Y-96212500I0J-126000D01*
G01*
X136001000Y-97537500D01*
G75*
G02*
X135875000Y-97663500I-126000J0D01*
G01*
X135725000Y-97663500D01*
G75*
G02*
X135599000Y-97537500I0J126000D01*
G01*
G37*
G36*
G01*
X135099000Y-97537500D02*
X135099000Y-96212500D01*
G75*
G02*
X135225000Y-96086500I126000J0D01*
G01*
X135375000Y-96086500D01*
G75*
G02*
X135501000Y-96212500I0J-126000D01*
G01*
X135501000Y-97537500D01*
G75*
G02*
X135375000Y-97663500I-126000J0D01*
G01*
X135225000Y-97663500D01*
G75*
G02*
X135099000Y-97537500I0J126000D01*
G01*
G37*
G36*
G01*
X134599000Y-97537500D02*
X134599000Y-96212500D01*
G75*
G02*
X134725000Y-96086500I126000J0D01*
G01*
X134875000Y-96086500D01*
G75*
G02*
X135001000Y-96212500I0J-126000D01*
G01*
X135001000Y-97537500D01*
G75*
G02*
X134875000Y-97663500I-126000J0D01*
G01*
X134725000Y-97663500D01*
G75*
G02*
X134599000Y-97537500I0J126000D01*
G01*
G37*
G36*
G01*
X134099000Y-97537500D02*
X134099000Y-96212500D01*
G75*
G02*
X134225000Y-96086500I126000J0D01*
G01*
X134375000Y-96086500D01*
G75*
G02*
X134501000Y-96212500I0J-126000D01*
G01*
X134501000Y-97537500D01*
G75*
G02*
X134375000Y-97663500I-126000J0D01*
G01*
X134225000Y-97663500D01*
G75*
G02*
X134099000Y-97537500I0J126000D01*
G01*
G37*
G36*
G01*
X188020000Y-93369000D02*
X189820000Y-93369000D01*
G75*
G02*
X189871000Y-93420000I0J-51000D01*
G01*
X189871000Y-96920000D01*
G75*
G02*
X189820000Y-96971000I-51000J0D01*
G01*
X188020000Y-96971000D01*
G75*
G02*
X187969000Y-96920000I0J51000D01*
G01*
X187969000Y-93420000D01*
G75*
G02*
X188020000Y-93369000I51000J0D01*
G01*
G37*
G36*
G01*
X188020000Y-98369000D02*
X189820000Y-98369000D01*
G75*
G02*
X189871000Y-98420000I0J-51000D01*
G01*
X189871000Y-101920000D01*
G75*
G02*
X189820000Y-101971000I-51000J0D01*
G01*
X188020000Y-101971000D01*
G75*
G02*
X187969000Y-101920000I0J51000D01*
G01*
X187969000Y-98420000D01*
G75*
G02*
X188020000Y-98369000I51000J0D01*
G01*
G37*
G36*
G01*
X187400000Y-85851000D02*
X185400000Y-85851000D01*
G75*
G02*
X185099000Y-85550000I0J301000D01*
G01*
X185099000Y-82550000D01*
G75*
G02*
X185400000Y-82249000I301000J0D01*
G01*
X187400000Y-82249000D01*
G75*
G02*
X187701000Y-82550000I0J-301000D01*
G01*
X187701000Y-85550000D01*
G75*
G02*
X187400000Y-85851000I-301000J0D01*
G01*
G37*
G36*
G01*
X187400000Y-79351000D02*
X185400000Y-79351000D01*
G75*
G02*
X185099000Y-79050000I0J301000D01*
G01*
X185099000Y-76050000D01*
G75*
G02*
X185400000Y-75749000I301000J0D01*
G01*
X187400000Y-75749000D01*
G75*
G02*
X187701000Y-76050000I0J-301000D01*
G01*
X187701000Y-79050000D01*
G75*
G02*
X187400000Y-79351000I-301000J0D01*
G01*
G37*
D15*
X103000000Y-68000000D03*
X190000000Y-68000000D03*
X190000000Y-121000000D03*
X103000000Y-121000000D03*
G36*
G01*
X130626000Y-63550000D02*
X130626000Y-66450000D01*
G75*
G02*
X130325000Y-66751000I-301000J0D01*
G01*
X129525000Y-66751000D01*
G75*
G02*
X129224000Y-66450000I0J301000D01*
G01*
X129224000Y-63550000D01*
G75*
G02*
X129525000Y-63249000I301000J0D01*
G01*
X130325000Y-63249000D01*
G75*
G02*
X130626000Y-63550000I0J-301000D01*
G01*
G37*
G36*
G01*
X126176000Y-63550000D02*
X126176000Y-66450000D01*
G75*
G02*
X125875000Y-66751000I-301000J0D01*
G01*
X125075000Y-66751000D01*
G75*
G02*
X124774000Y-66450000I0J301000D01*
G01*
X124774000Y-63550000D01*
G75*
G02*
X125075000Y-63249000I301000J0D01*
G01*
X125875000Y-63249000D01*
G75*
G02*
X126176000Y-63550000I0J-301000D01*
G01*
G37*
G36*
G01*
X150265000Y-108601000D02*
X149015000Y-108601000D01*
G75*
G02*
X148714000Y-108300000I0J301000D01*
G01*
X148714000Y-107500000D01*
G75*
G02*
X149015000Y-107199000I301000J0D01*
G01*
X150265000Y-107199000D01*
G75*
G02*
X150566000Y-107500000I0J-301000D01*
G01*
X150566000Y-108300000D01*
G75*
G02*
X150265000Y-108601000I-301000J0D01*
G01*
G37*
G36*
G01*
X150265000Y-105501000D02*
X149015000Y-105501000D01*
G75*
G02*
X148714000Y-105200000I0J301000D01*
G01*
X148714000Y-104400000D01*
G75*
G02*
X149015000Y-104099000I301000J0D01*
G01*
X150265000Y-104099000D01*
G75*
G02*
X150566000Y-104400000I0J-301000D01*
G01*
X150566000Y-105200000D01*
G75*
G02*
X150265000Y-105501000I-301000J0D01*
G01*
G37*
G36*
G01*
X170040000Y-98331000D02*
X169040000Y-98331000D01*
G75*
G02*
X168989000Y-98280000I0J51000D01*
G01*
X168989000Y-97280000D01*
G75*
G02*
X169040000Y-97229000I51000J0D01*
G01*
X170040000Y-97229000D01*
G75*
G02*
X170091000Y-97280000I0J-51000D01*
G01*
X170091000Y-98280000D01*
G75*
G02*
X170040000Y-98331000I-51000J0D01*
G01*
G37*
G36*
G01*
X170040000Y-95831000D02*
X169040000Y-95831000D01*
G75*
G02*
X168989000Y-95780000I0J51000D01*
G01*
X168989000Y-94780000D01*
G75*
G02*
X169040000Y-94729000I51000J0D01*
G01*
X170040000Y-94729000D01*
G75*
G02*
X170091000Y-94780000I0J-51000D01*
G01*
X170091000Y-95780000D01*
G75*
G02*
X170040000Y-95831000I-51000J0D01*
G01*
G37*
G36*
G01*
X160724000Y-96310000D02*
X160724000Y-96010000D01*
G75*
G02*
X160925000Y-95809000I201000J0D01*
G01*
X162575000Y-95809000D01*
G75*
G02*
X162776000Y-96010000I0J-201000D01*
G01*
X162776000Y-96310000D01*
G75*
G02*
X162575000Y-96511000I-201000J0D01*
G01*
X160925000Y-96511000D01*
G75*
G02*
X160724000Y-96310000I0J201000D01*
G01*
G37*
G36*
G01*
X160724000Y-97580000D02*
X160724000Y-97280000D01*
G75*
G02*
X160925000Y-97079000I201000J0D01*
G01*
X162575000Y-97079000D01*
G75*
G02*
X162776000Y-97280000I0J-201000D01*
G01*
X162776000Y-97580000D01*
G75*
G02*
X162575000Y-97781000I-201000J0D01*
G01*
X160925000Y-97781000D01*
G75*
G02*
X160724000Y-97580000I0J201000D01*
G01*
G37*
G36*
G01*
X160724000Y-98850000D02*
X160724000Y-98550000D01*
G75*
G02*
X160925000Y-98349000I201000J0D01*
G01*
X162575000Y-98349000D01*
G75*
G02*
X162776000Y-98550000I0J-201000D01*
G01*
X162776000Y-98850000D01*
G75*
G02*
X162575000Y-99051000I-201000J0D01*
G01*
X160925000Y-99051000D01*
G75*
G02*
X160724000Y-98850000I0J201000D01*
G01*
G37*
G36*
G01*
X160724000Y-100120000D02*
X160724000Y-99820000D01*
G75*
G02*
X160925000Y-99619000I201000J0D01*
G01*
X162575000Y-99619000D01*
G75*
G02*
X162776000Y-99820000I0J-201000D01*
G01*
X162776000Y-100120000D01*
G75*
G02*
X162575000Y-100321000I-201000J0D01*
G01*
X160925000Y-100321000D01*
G75*
G02*
X160724000Y-100120000I0J201000D01*
G01*
G37*
G36*
G01*
X165674000Y-100120000D02*
X165674000Y-99820000D01*
G75*
G02*
X165875000Y-99619000I201000J0D01*
G01*
X167525000Y-99619000D01*
G75*
G02*
X167726000Y-99820000I0J-201000D01*
G01*
X167726000Y-100120000D01*
G75*
G02*
X167525000Y-100321000I-201000J0D01*
G01*
X165875000Y-100321000D01*
G75*
G02*
X165674000Y-100120000I0J201000D01*
G01*
G37*
G36*
G01*
X165674000Y-98850000D02*
X165674000Y-98550000D01*
G75*
G02*
X165875000Y-98349000I201000J0D01*
G01*
X167525000Y-98349000D01*
G75*
G02*
X167726000Y-98550000I0J-201000D01*
G01*
X167726000Y-98850000D01*
G75*
G02*
X167525000Y-99051000I-201000J0D01*
G01*
X165875000Y-99051000D01*
G75*
G02*
X165674000Y-98850000I0J201000D01*
G01*
G37*
G36*
G01*
X165674000Y-97580000D02*
X165674000Y-97280000D01*
G75*
G02*
X165875000Y-97079000I201000J0D01*
G01*
X167525000Y-97079000D01*
G75*
G02*
X167726000Y-97280000I0J-201000D01*
G01*
X167726000Y-97580000D01*
G75*
G02*
X167525000Y-97781000I-201000J0D01*
G01*
X165875000Y-97781000D01*
G75*
G02*
X165674000Y-97580000I0J201000D01*
G01*
G37*
G36*
G01*
X165674000Y-96310000D02*
X165674000Y-96010000D01*
G75*
G02*
X165875000Y-95809000I201000J0D01*
G01*
X167525000Y-95809000D01*
G75*
G02*
X167726000Y-96010000I0J-201000D01*
G01*
X167726000Y-96310000D01*
G75*
G02*
X167525000Y-96511000I-201000J0D01*
G01*
X165875000Y-96511000D01*
G75*
G02*
X165674000Y-96310000I0J201000D01*
G01*
G37*
G36*
G01*
X166758500Y-93140000D02*
X166758500Y-94440000D01*
G75*
G02*
X166457500Y-94741000I-301000J0D01*
G01*
X165632500Y-94741000D01*
G75*
G02*
X165331500Y-94440000I0J301000D01*
G01*
X165331500Y-93140000D01*
G75*
G02*
X165632500Y-92839000I301000J0D01*
G01*
X166457500Y-92839000D01*
G75*
G02*
X166758500Y-93140000I0J-301000D01*
G01*
G37*
G36*
G01*
X163633500Y-93140000D02*
X163633500Y-94440000D01*
G75*
G02*
X163332500Y-94741000I-301000J0D01*
G01*
X162507500Y-94741000D01*
G75*
G02*
X162206500Y-94440000I0J301000D01*
G01*
X162206500Y-93140000D01*
G75*
G02*
X162507500Y-92839000I301000J0D01*
G01*
X163332500Y-92839000D01*
G75*
G02*
X163633500Y-93140000I0J-301000D01*
G01*
G37*
G36*
G01*
X154869000Y-108755000D02*
X154869000Y-108455000D01*
G75*
G02*
X155070000Y-108254000I201000J0D01*
G01*
X156720000Y-108254000D01*
G75*
G02*
X156921000Y-108455000I0J-201000D01*
G01*
X156921000Y-108755000D01*
G75*
G02*
X156720000Y-108956000I-201000J0D01*
G01*
X155070000Y-108956000D01*
G75*
G02*
X154869000Y-108755000I0J201000D01*
G01*
G37*
G36*
G01*
X154869000Y-110025000D02*
X154869000Y-109725000D01*
G75*
G02*
X155070000Y-109524000I201000J0D01*
G01*
X156720000Y-109524000D01*
G75*
G02*
X156921000Y-109725000I0J-201000D01*
G01*
X156921000Y-110025000D01*
G75*
G02*
X156720000Y-110226000I-201000J0D01*
G01*
X155070000Y-110226000D01*
G75*
G02*
X154869000Y-110025000I0J201000D01*
G01*
G37*
G36*
G01*
X154869000Y-111295000D02*
X154869000Y-110995000D01*
G75*
G02*
X155070000Y-110794000I201000J0D01*
G01*
X156720000Y-110794000D01*
G75*
G02*
X156921000Y-110995000I0J-201000D01*
G01*
X156921000Y-111295000D01*
G75*
G02*
X156720000Y-111496000I-201000J0D01*
G01*
X155070000Y-111496000D01*
G75*
G02*
X154869000Y-111295000I0J201000D01*
G01*
G37*
G36*
G01*
X154869000Y-112565000D02*
X154869000Y-112265000D01*
G75*
G02*
X155070000Y-112064000I201000J0D01*
G01*
X156720000Y-112064000D01*
G75*
G02*
X156921000Y-112265000I0J-201000D01*
G01*
X156921000Y-112565000D01*
G75*
G02*
X156720000Y-112766000I-201000J0D01*
G01*
X155070000Y-112766000D01*
G75*
G02*
X154869000Y-112565000I0J201000D01*
G01*
G37*
G36*
G01*
X159819000Y-112565000D02*
X159819000Y-112265000D01*
G75*
G02*
X160020000Y-112064000I201000J0D01*
G01*
X161670000Y-112064000D01*
G75*
G02*
X161871000Y-112265000I0J-201000D01*
G01*
X161871000Y-112565000D01*
G75*
G02*
X161670000Y-112766000I-201000J0D01*
G01*
X160020000Y-112766000D01*
G75*
G02*
X159819000Y-112565000I0J201000D01*
G01*
G37*
G36*
G01*
X159819000Y-111295000D02*
X159819000Y-110995000D01*
G75*
G02*
X160020000Y-110794000I201000J0D01*
G01*
X161670000Y-110794000D01*
G75*
G02*
X161871000Y-110995000I0J-201000D01*
G01*
X161871000Y-111295000D01*
G75*
G02*
X161670000Y-111496000I-201000J0D01*
G01*
X160020000Y-111496000D01*
G75*
G02*
X159819000Y-111295000I0J201000D01*
G01*
G37*
G36*
G01*
X159819000Y-110025000D02*
X159819000Y-109725000D01*
G75*
G02*
X160020000Y-109524000I201000J0D01*
G01*
X161670000Y-109524000D01*
G75*
G02*
X161871000Y-109725000I0J-201000D01*
G01*
X161871000Y-110025000D01*
G75*
G02*
X161670000Y-110226000I-201000J0D01*
G01*
X160020000Y-110226000D01*
G75*
G02*
X159819000Y-110025000I0J201000D01*
G01*
G37*
G36*
G01*
X159819000Y-108755000D02*
X159819000Y-108455000D01*
G75*
G02*
X160020000Y-108254000I201000J0D01*
G01*
X161670000Y-108254000D01*
G75*
G02*
X161871000Y-108455000I0J-201000D01*
G01*
X161871000Y-108755000D01*
G75*
G02*
X161670000Y-108956000I-201000J0D01*
G01*
X160020000Y-108956000D01*
G75*
G02*
X159819000Y-108755000I0J201000D01*
G01*
G37*
G36*
G01*
X160000000Y-101438500D02*
X158700000Y-101438500D01*
G75*
G02*
X158399000Y-101137500I0J301000D01*
G01*
X158399000Y-100312500D01*
G75*
G02*
X158700000Y-100011500I301000J0D01*
G01*
X160000000Y-100011500D01*
G75*
G02*
X160301000Y-100312500I0J-301000D01*
G01*
X160301000Y-101137500D01*
G75*
G02*
X160000000Y-101438500I-301000J0D01*
G01*
G37*
G36*
G01*
X160000000Y-98313500D02*
X158700000Y-98313500D01*
G75*
G02*
X158399000Y-98012500I0J301000D01*
G01*
X158399000Y-97187500D01*
G75*
G02*
X158700000Y-96886500I301000J0D01*
G01*
X160000000Y-96886500D01*
G75*
G02*
X160301000Y-97187500I0J-301000D01*
G01*
X160301000Y-98012500D01*
G75*
G02*
X160000000Y-98313500I-301000J0D01*
G01*
G37*
G36*
G01*
X153895000Y-108591000D02*
X152645000Y-108591000D01*
G75*
G02*
X152344000Y-108290000I0J301000D01*
G01*
X152344000Y-107490000D01*
G75*
G02*
X152645000Y-107189000I301000J0D01*
G01*
X153895000Y-107189000D01*
G75*
G02*
X154196000Y-107490000I0J-301000D01*
G01*
X154196000Y-108290000D01*
G75*
G02*
X153895000Y-108591000I-301000J0D01*
G01*
G37*
G36*
G01*
X153895000Y-105491000D02*
X152645000Y-105491000D01*
G75*
G02*
X152344000Y-105190000I0J301000D01*
G01*
X152344000Y-104390000D01*
G75*
G02*
X152645000Y-104089000I301000J0D01*
G01*
X153895000Y-104089000D01*
G75*
G02*
X154196000Y-104390000I0J-301000D01*
G01*
X154196000Y-105190000D01*
G75*
G02*
X153895000Y-105491000I-301000J0D01*
G01*
G37*
G36*
G01*
X134729000Y-72450000D02*
X134729000Y-70450000D01*
G75*
G02*
X135030000Y-70149000I301000J0D01*
G01*
X138030000Y-70149000D01*
G75*
G02*
X138331000Y-70450000I0J-301000D01*
G01*
X138331000Y-72450000D01*
G75*
G02*
X138030000Y-72751000I-301000J0D01*
G01*
X135030000Y-72751000D01*
G75*
G02*
X134729000Y-72450000I0J301000D01*
G01*
G37*
G36*
G01*
X141229000Y-72450000D02*
X141229000Y-70450000D01*
G75*
G02*
X141530000Y-70149000I301000J0D01*
G01*
X144530000Y-70149000D01*
G75*
G02*
X144831000Y-70450000I0J-301000D01*
G01*
X144831000Y-72450000D01*
G75*
G02*
X144530000Y-72751000I-301000J0D01*
G01*
X141530000Y-72751000D01*
G75*
G02*
X141229000Y-72450000I0J301000D01*
G01*
G37*
G36*
G01*
X166278500Y-101630000D02*
X166278500Y-102930000D01*
G75*
G02*
X165977500Y-103231000I-301000J0D01*
G01*
X165152500Y-103231000D01*
G75*
G02*
X164851500Y-102930000I0J301000D01*
G01*
X164851500Y-101630000D01*
G75*
G02*
X165152500Y-101329000I301000J0D01*
G01*
X165977500Y-101329000D01*
G75*
G02*
X166278500Y-101630000I0J-301000D01*
G01*
G37*
G36*
G01*
X163153500Y-101630000D02*
X163153500Y-102930000D01*
G75*
G02*
X162852500Y-103231000I-301000J0D01*
G01*
X162027500Y-103231000D01*
G75*
G02*
X161726500Y-102930000I0J301000D01*
G01*
X161726500Y-101630000D01*
G75*
G02*
X162027500Y-101329000I301000J0D01*
G01*
X162852500Y-101329000D01*
G75*
G02*
X163153500Y-101630000I0J-301000D01*
G01*
G37*
G36*
G01*
X170030000Y-102781000D02*
X169030000Y-102781000D01*
G75*
G02*
X168979000Y-102730000I0J51000D01*
G01*
X168979000Y-101730000D01*
G75*
G02*
X169030000Y-101679000I51000J0D01*
G01*
X170030000Y-101679000D01*
G75*
G02*
X170081000Y-101730000I0J-51000D01*
G01*
X170081000Y-102730000D01*
G75*
G02*
X170030000Y-102781000I-51000J0D01*
G01*
G37*
G36*
G01*
X170030000Y-100281000D02*
X169030000Y-100281000D01*
G75*
G02*
X168979000Y-100230000I0J51000D01*
G01*
X168979000Y-99230000D01*
G75*
G02*
X169030000Y-99179000I51000J0D01*
G01*
X170030000Y-99179000D01*
G75*
G02*
X170081000Y-99230000I0J-51000D01*
G01*
X170081000Y-100230000D01*
G75*
G02*
X170030000Y-100281000I-51000J0D01*
G01*
G37*
G36*
X137468693Y-104451960D02*
G01*
X137481425Y-104460467D01*
X137547789Y-104481247D01*
X137618589Y-104460458D01*
X137631307Y-104451960D01*
X137633303Y-104451829D01*
X137634414Y-104453492D01*
X137634081Y-104454734D01*
X137610476Y-104490061D01*
X137601000Y-104537699D01*
X137601000Y-105862301D01*
X137610476Y-105909939D01*
X137634081Y-105945266D01*
X137634212Y-105947262D01*
X137632549Y-105948373D01*
X137631307Y-105948040D01*
X137618575Y-105939533D01*
X137552211Y-105918753D01*
X137481411Y-105939542D01*
X137468693Y-105948040D01*
X137466697Y-105948171D01*
X137465586Y-105946508D01*
X137465919Y-105945266D01*
X137489524Y-105909939D01*
X137499000Y-105862301D01*
X137499000Y-104537699D01*
X137489524Y-104490061D01*
X137465919Y-104454734D01*
X137465788Y-104452738D01*
X137467451Y-104451627D01*
X137468693Y-104451960D01*
G37*
G36*
X136968693Y-104451960D02*
G01*
X136981425Y-104460467D01*
X137047789Y-104481247D01*
X137118589Y-104460458D01*
X137131307Y-104451960D01*
X137133303Y-104451829D01*
X137134414Y-104453492D01*
X137134081Y-104454734D01*
X137110476Y-104490061D01*
X137101000Y-104537699D01*
X137101000Y-105862301D01*
X137110476Y-105909939D01*
X137134081Y-105945266D01*
X137134212Y-105947262D01*
X137132549Y-105948373D01*
X137131307Y-105948040D01*
X137118575Y-105939533D01*
X137052211Y-105918753D01*
X136981411Y-105939542D01*
X136968693Y-105948040D01*
X136966697Y-105948171D01*
X136965586Y-105946508D01*
X136965919Y-105945266D01*
X136989524Y-105909939D01*
X136999000Y-105862301D01*
X136999000Y-104537699D01*
X136989524Y-104490061D01*
X136965919Y-104454734D01*
X136965788Y-104452738D01*
X136967451Y-104451627D01*
X136968693Y-104451960D01*
G37*
G36*
X138468693Y-104451960D02*
G01*
X138481425Y-104460467D01*
X138547789Y-104481247D01*
X138618589Y-104460458D01*
X138631307Y-104451960D01*
X138633303Y-104451829D01*
X138634414Y-104453492D01*
X138634081Y-104454734D01*
X138610476Y-104490061D01*
X138601000Y-104537699D01*
X138601000Y-105862301D01*
X138610476Y-105909939D01*
X138634081Y-105945266D01*
X138634212Y-105947262D01*
X138632549Y-105948373D01*
X138631307Y-105948040D01*
X138618575Y-105939533D01*
X138552211Y-105918753D01*
X138481411Y-105939542D01*
X138468693Y-105948040D01*
X138466697Y-105948171D01*
X138465586Y-105946508D01*
X138465919Y-105945266D01*
X138489524Y-105909939D01*
X138499000Y-105862301D01*
X138499000Y-104537699D01*
X138489524Y-104490061D01*
X138465919Y-104454734D01*
X138465788Y-104452738D01*
X138467451Y-104451627D01*
X138468693Y-104451960D01*
G37*
G36*
X135968693Y-104451960D02*
G01*
X135981425Y-104460467D01*
X136047789Y-104481247D01*
X136118589Y-104460458D01*
X136131307Y-104451960D01*
X136133303Y-104451829D01*
X136134414Y-104453492D01*
X136134081Y-104454734D01*
X136110476Y-104490061D01*
X136101000Y-104537699D01*
X136101000Y-105862301D01*
X136110476Y-105909939D01*
X136134081Y-105945266D01*
X136134212Y-105947262D01*
X136132549Y-105948373D01*
X136131307Y-105948040D01*
X136118575Y-105939533D01*
X136052211Y-105918753D01*
X135981411Y-105939542D01*
X135968693Y-105948040D01*
X135966697Y-105948171D01*
X135965586Y-105946508D01*
X135965919Y-105945266D01*
X135989524Y-105909939D01*
X135999000Y-105862301D01*
X135999000Y-104537699D01*
X135989524Y-104490061D01*
X135965919Y-104454734D01*
X135965788Y-104452738D01*
X135967451Y-104451627D01*
X135968693Y-104451960D01*
G37*
G36*
X138968693Y-104451960D02*
G01*
X138981425Y-104460467D01*
X139047789Y-104481247D01*
X139118589Y-104460458D01*
X139131307Y-104451960D01*
X139133303Y-104451829D01*
X139134414Y-104453492D01*
X139134081Y-104454734D01*
X139110476Y-104490061D01*
X139101000Y-104537699D01*
X139101000Y-105862301D01*
X139110476Y-105909939D01*
X139134081Y-105945266D01*
X139134212Y-105947262D01*
X139132549Y-105948373D01*
X139131307Y-105948040D01*
X139118575Y-105939533D01*
X139052211Y-105918753D01*
X138981411Y-105939542D01*
X138968693Y-105948040D01*
X138966697Y-105948171D01*
X138965586Y-105946508D01*
X138965919Y-105945266D01*
X138989524Y-105909939D01*
X138999000Y-105862301D01*
X138999000Y-104537699D01*
X138989524Y-104490061D01*
X138965919Y-104454734D01*
X138965788Y-104452738D01*
X138967451Y-104451627D01*
X138968693Y-104451960D01*
G37*
G36*
X134468693Y-104451960D02*
G01*
X134481425Y-104460467D01*
X134547789Y-104481247D01*
X134618589Y-104460458D01*
X134631307Y-104451960D01*
X134633303Y-104451829D01*
X134634414Y-104453492D01*
X134634081Y-104454734D01*
X134610476Y-104490061D01*
X134601000Y-104537699D01*
X134601000Y-105862301D01*
X134610476Y-105909939D01*
X134634081Y-105945266D01*
X134634212Y-105947262D01*
X134632549Y-105948373D01*
X134631307Y-105948040D01*
X134618575Y-105939533D01*
X134552211Y-105918753D01*
X134481411Y-105939542D01*
X134468693Y-105948040D01*
X134466697Y-105948171D01*
X134465586Y-105946508D01*
X134465919Y-105945266D01*
X134489524Y-105909939D01*
X134499000Y-105862301D01*
X134499000Y-104537699D01*
X134489524Y-104490061D01*
X134465919Y-104454734D01*
X134465788Y-104452738D01*
X134467451Y-104451627D01*
X134468693Y-104451960D01*
G37*
G36*
X135468693Y-104451960D02*
G01*
X135481425Y-104460467D01*
X135547789Y-104481247D01*
X135618589Y-104460458D01*
X135631307Y-104451960D01*
X135633303Y-104451829D01*
X135634414Y-104453492D01*
X135634081Y-104454734D01*
X135610476Y-104490061D01*
X135601000Y-104537699D01*
X135601000Y-105862301D01*
X135610476Y-105909939D01*
X135634081Y-105945266D01*
X135634212Y-105947262D01*
X135632549Y-105948373D01*
X135631307Y-105948040D01*
X135618575Y-105939533D01*
X135552211Y-105918753D01*
X135481411Y-105939542D01*
X135468693Y-105948040D01*
X135466697Y-105948171D01*
X135465586Y-105946508D01*
X135465919Y-105945266D01*
X135489524Y-105909939D01*
X135499000Y-105862301D01*
X135499000Y-104537699D01*
X135489524Y-104490061D01*
X135465919Y-104454734D01*
X135465788Y-104452738D01*
X135467451Y-104451627D01*
X135468693Y-104451960D01*
G37*
G36*
X137968693Y-104451960D02*
G01*
X137981425Y-104460467D01*
X138047789Y-104481247D01*
X138118589Y-104460458D01*
X138131307Y-104451960D01*
X138133303Y-104451829D01*
X138134414Y-104453492D01*
X138134081Y-104454734D01*
X138110476Y-104490061D01*
X138101000Y-104537699D01*
X138101000Y-105862301D01*
X138110476Y-105909939D01*
X138134081Y-105945266D01*
X138134212Y-105947262D01*
X138132549Y-105948373D01*
X138131307Y-105948040D01*
X138118575Y-105939533D01*
X138052211Y-105918753D01*
X137981411Y-105939542D01*
X137968693Y-105948040D01*
X137966697Y-105948171D01*
X137965586Y-105946508D01*
X137965919Y-105945266D01*
X137989524Y-105909939D01*
X137999000Y-105862301D01*
X137999000Y-104537699D01*
X137989524Y-104490061D01*
X137965919Y-104454734D01*
X137965788Y-104452738D01*
X137967451Y-104451627D01*
X137968693Y-104451960D01*
G37*
G36*
X136468693Y-104451960D02*
G01*
X136481425Y-104460467D01*
X136547789Y-104481247D01*
X136618589Y-104460458D01*
X136631307Y-104451960D01*
X136633303Y-104451829D01*
X136634414Y-104453492D01*
X136634081Y-104454734D01*
X136610476Y-104490061D01*
X136601000Y-104537699D01*
X136601000Y-105862301D01*
X136610476Y-105909939D01*
X136634081Y-105945266D01*
X136634212Y-105947262D01*
X136632549Y-105948373D01*
X136631307Y-105948040D01*
X136618575Y-105939533D01*
X136552211Y-105918753D01*
X136481411Y-105939542D01*
X136468693Y-105948040D01*
X136466697Y-105948171D01*
X136465586Y-105946508D01*
X136465919Y-105945266D01*
X136489524Y-105909939D01*
X136499000Y-105862301D01*
X136499000Y-104537699D01*
X136489524Y-104490061D01*
X136465919Y-104454734D01*
X136465788Y-104452738D01*
X136467451Y-104451627D01*
X136468693Y-104451960D01*
G37*
G36*
X139468693Y-104451960D02*
G01*
X139481425Y-104460467D01*
X139547789Y-104481247D01*
X139618589Y-104460458D01*
X139631307Y-104451960D01*
X139633303Y-104451829D01*
X139634414Y-104453492D01*
X139634081Y-104454734D01*
X139610476Y-104490061D01*
X139601000Y-104537699D01*
X139601000Y-105862301D01*
X139610476Y-105909939D01*
X139634081Y-105945266D01*
X139634212Y-105947262D01*
X139632549Y-105948373D01*
X139631307Y-105948040D01*
X139618575Y-105939533D01*
X139552211Y-105918753D01*
X139481411Y-105939542D01*
X139468693Y-105948040D01*
X139466697Y-105948171D01*
X139465586Y-105946508D01*
X139465919Y-105945266D01*
X139489524Y-105909939D01*
X139499000Y-105862301D01*
X139499000Y-104537699D01*
X139489524Y-104490061D01*
X139465919Y-104454734D01*
X139465788Y-104452738D01*
X139467451Y-104451627D01*
X139468693Y-104451960D01*
G37*
G36*
X134968693Y-104451960D02*
G01*
X134981425Y-104460467D01*
X135047789Y-104481247D01*
X135118589Y-104460458D01*
X135131307Y-104451960D01*
X135133303Y-104451829D01*
X135134414Y-104453492D01*
X135134081Y-104454734D01*
X135110476Y-104490061D01*
X135101000Y-104537699D01*
X135101000Y-105862301D01*
X135110476Y-105909939D01*
X135134081Y-105945266D01*
X135134212Y-105947262D01*
X135132549Y-105948373D01*
X135131307Y-105948040D01*
X135118575Y-105939533D01*
X135052211Y-105918753D01*
X134981411Y-105939542D01*
X134968693Y-105948040D01*
X134966697Y-105948171D01*
X134965586Y-105946508D01*
X134965919Y-105945266D01*
X134989524Y-105909939D01*
X134999000Y-105862301D01*
X134999000Y-104537699D01*
X134989524Y-104490061D01*
X134965919Y-104454734D01*
X134965788Y-104452738D01*
X134967451Y-104451627D01*
X134968693Y-104451960D01*
G37*
G36*
X140467234Y-103453419D02*
G01*
X140502561Y-103477024D01*
X140550199Y-103486500D01*
X141874801Y-103486500D01*
X141922439Y-103477024D01*
X141957766Y-103453419D01*
X141959762Y-103453288D01*
X141960873Y-103454951D01*
X141960540Y-103456193D01*
X141952033Y-103468925D01*
X141931253Y-103535289D01*
X141952042Y-103606089D01*
X141960540Y-103618807D01*
X141960671Y-103620803D01*
X141959008Y-103621914D01*
X141957766Y-103621581D01*
X141922439Y-103597976D01*
X141874801Y-103588500D01*
X140550199Y-103588500D01*
X140502561Y-103597976D01*
X140467234Y-103621581D01*
X140465238Y-103621712D01*
X140464127Y-103620049D01*
X140464460Y-103618807D01*
X140472967Y-103606075D01*
X140493747Y-103539711D01*
X140472958Y-103468911D01*
X140464460Y-103456193D01*
X140464329Y-103454197D01*
X140465992Y-103453086D01*
X140467234Y-103453419D01*
G37*
G36*
X132142234Y-103453419D02*
G01*
X132177561Y-103477024D01*
X132225199Y-103486500D01*
X133549801Y-103486500D01*
X133597439Y-103477024D01*
X133632766Y-103453419D01*
X133634762Y-103453288D01*
X133635873Y-103454951D01*
X133635540Y-103456193D01*
X133627033Y-103468925D01*
X133606253Y-103535289D01*
X133627042Y-103606089D01*
X133635540Y-103618807D01*
X133635671Y-103620803D01*
X133634008Y-103621914D01*
X133632766Y-103621581D01*
X133597439Y-103597976D01*
X133549801Y-103588500D01*
X132225199Y-103588500D01*
X132177561Y-103597976D01*
X132142234Y-103621581D01*
X132140238Y-103621712D01*
X132139127Y-103620049D01*
X132139460Y-103618807D01*
X132147967Y-103606075D01*
X132168747Y-103539711D01*
X132147958Y-103468911D01*
X132139460Y-103456193D01*
X132139329Y-103454197D01*
X132140992Y-103453086D01*
X132142234Y-103453419D01*
G37*
G36*
X140467234Y-102953419D02*
G01*
X140502561Y-102977024D01*
X140550199Y-102986500D01*
X141874801Y-102986500D01*
X141922439Y-102977024D01*
X141957766Y-102953419D01*
X141959762Y-102953288D01*
X141960873Y-102954951D01*
X141960540Y-102956193D01*
X141952033Y-102968925D01*
X141931253Y-103035289D01*
X141952042Y-103106089D01*
X141960540Y-103118807D01*
X141960671Y-103120803D01*
X141959008Y-103121914D01*
X141957766Y-103121581D01*
X141922439Y-103097976D01*
X141874801Y-103088500D01*
X140550199Y-103088500D01*
X140502561Y-103097976D01*
X140467234Y-103121581D01*
X140465238Y-103121712D01*
X140464127Y-103120049D01*
X140464460Y-103118807D01*
X140472967Y-103106075D01*
X140493747Y-103039711D01*
X140472958Y-102968911D01*
X140464460Y-102956193D01*
X140464329Y-102954197D01*
X140465992Y-102953086D01*
X140467234Y-102953419D01*
G37*
G36*
X132142234Y-102953419D02*
G01*
X132177561Y-102977024D01*
X132225199Y-102986500D01*
X133549801Y-102986500D01*
X133597439Y-102977024D01*
X133632766Y-102953419D01*
X133634762Y-102953288D01*
X133635873Y-102954951D01*
X133635540Y-102956193D01*
X133627033Y-102968925D01*
X133606253Y-103035289D01*
X133627042Y-103106089D01*
X133635540Y-103118807D01*
X133635671Y-103120803D01*
X133634008Y-103121914D01*
X133632766Y-103121581D01*
X133597439Y-103097976D01*
X133549801Y-103088500D01*
X132225199Y-103088500D01*
X132177561Y-103097976D01*
X132142234Y-103121581D01*
X132140238Y-103121712D01*
X132139127Y-103120049D01*
X132139460Y-103118807D01*
X132147967Y-103106075D01*
X132168747Y-103039711D01*
X132147958Y-102968911D01*
X132139460Y-102956193D01*
X132139329Y-102954197D01*
X132140992Y-102953086D01*
X132142234Y-102953419D01*
G37*
G36*
X140467234Y-102453419D02*
G01*
X140502561Y-102477024D01*
X140550199Y-102486500D01*
X141874801Y-102486500D01*
X141922439Y-102477024D01*
X141957766Y-102453419D01*
X141959762Y-102453288D01*
X141960873Y-102454951D01*
X141960540Y-102456193D01*
X141952033Y-102468925D01*
X141931253Y-102535289D01*
X141952042Y-102606089D01*
X141960540Y-102618807D01*
X141960671Y-102620803D01*
X141959008Y-102621914D01*
X141957766Y-102621581D01*
X141922439Y-102597976D01*
X141874801Y-102588500D01*
X140550199Y-102588500D01*
X140502561Y-102597976D01*
X140467234Y-102621581D01*
X140465238Y-102621712D01*
X140464127Y-102620049D01*
X140464460Y-102618807D01*
X140472967Y-102606075D01*
X140493747Y-102539711D01*
X140472958Y-102468911D01*
X140464460Y-102456193D01*
X140464329Y-102454197D01*
X140465992Y-102453086D01*
X140467234Y-102453419D01*
G37*
G36*
X132142234Y-102453419D02*
G01*
X132177561Y-102477024D01*
X132225199Y-102486500D01*
X133549801Y-102486500D01*
X133597439Y-102477024D01*
X133632766Y-102453419D01*
X133634762Y-102453288D01*
X133635873Y-102454951D01*
X133635540Y-102456193D01*
X133627033Y-102468925D01*
X133606253Y-102535289D01*
X133627042Y-102606089D01*
X133635540Y-102618807D01*
X133635671Y-102620803D01*
X133634008Y-102621914D01*
X133632766Y-102621581D01*
X133597439Y-102597976D01*
X133549801Y-102588500D01*
X132225199Y-102588500D01*
X132177561Y-102597976D01*
X132142234Y-102621581D01*
X132140238Y-102621712D01*
X132139127Y-102620049D01*
X132139460Y-102618807D01*
X132147967Y-102606075D01*
X132168747Y-102539711D01*
X132147958Y-102468911D01*
X132139460Y-102456193D01*
X132139329Y-102454197D01*
X132140992Y-102453086D01*
X132142234Y-102453419D01*
G37*
G36*
X132142234Y-101953419D02*
G01*
X132177561Y-101977024D01*
X132225199Y-101986500D01*
X133549801Y-101986500D01*
X133597439Y-101977024D01*
X133632766Y-101953419D01*
X133634762Y-101953288D01*
X133635873Y-101954951D01*
X133635540Y-101956193D01*
X133627033Y-101968925D01*
X133606253Y-102035289D01*
X133627042Y-102106089D01*
X133635540Y-102118807D01*
X133635671Y-102120803D01*
X133634008Y-102121914D01*
X133632766Y-102121581D01*
X133597439Y-102097976D01*
X133549801Y-102088500D01*
X132225199Y-102088500D01*
X132177561Y-102097976D01*
X132142234Y-102121581D01*
X132140238Y-102121712D01*
X132139127Y-102120049D01*
X132139460Y-102118807D01*
X132147967Y-102106075D01*
X132168747Y-102039711D01*
X132147958Y-101968911D01*
X132139460Y-101956193D01*
X132139329Y-101954197D01*
X132140992Y-101953086D01*
X132142234Y-101953419D01*
G37*
G36*
X140467234Y-101953419D02*
G01*
X140502561Y-101977024D01*
X140550199Y-101986500D01*
X141874801Y-101986500D01*
X141922439Y-101977024D01*
X141957766Y-101953419D01*
X141959762Y-101953288D01*
X141960873Y-101954951D01*
X141960540Y-101956193D01*
X141952033Y-101968925D01*
X141931253Y-102035289D01*
X141952042Y-102106089D01*
X141960540Y-102118807D01*
X141960671Y-102120803D01*
X141959008Y-102121914D01*
X141957766Y-102121581D01*
X141922439Y-102097976D01*
X141874801Y-102088500D01*
X140550199Y-102088500D01*
X140502561Y-102097976D01*
X140467234Y-102121581D01*
X140465238Y-102121712D01*
X140464127Y-102120049D01*
X140464460Y-102118807D01*
X140472967Y-102106075D01*
X140493747Y-102039711D01*
X140472958Y-101968911D01*
X140464460Y-101956193D01*
X140464329Y-101954197D01*
X140465992Y-101953086D01*
X140467234Y-101953419D01*
G37*
G36*
X140467234Y-101453419D02*
G01*
X140502561Y-101477024D01*
X140550199Y-101486500D01*
X141874801Y-101486500D01*
X141922439Y-101477024D01*
X141957766Y-101453419D01*
X141959762Y-101453288D01*
X141960873Y-101454951D01*
X141960540Y-101456193D01*
X141952033Y-101468925D01*
X141931253Y-101535289D01*
X141952042Y-101606089D01*
X141960540Y-101618807D01*
X141960671Y-101620803D01*
X141959008Y-101621914D01*
X141957766Y-101621581D01*
X141922439Y-101597976D01*
X141874801Y-101588500D01*
X140550199Y-101588500D01*
X140502561Y-101597976D01*
X140467234Y-101621581D01*
X140465238Y-101621712D01*
X140464127Y-101620049D01*
X140464460Y-101618807D01*
X140472967Y-101606075D01*
X140493747Y-101539711D01*
X140472958Y-101468911D01*
X140464460Y-101456193D01*
X140464329Y-101454197D01*
X140465992Y-101453086D01*
X140467234Y-101453419D01*
G37*
G36*
X132142234Y-101453419D02*
G01*
X132177561Y-101477024D01*
X132225199Y-101486500D01*
X133549801Y-101486500D01*
X133597439Y-101477024D01*
X133632766Y-101453419D01*
X133634762Y-101453288D01*
X133635873Y-101454951D01*
X133635540Y-101456193D01*
X133627033Y-101468925D01*
X133606253Y-101535289D01*
X133627042Y-101606089D01*
X133635540Y-101618807D01*
X133635671Y-101620803D01*
X133634008Y-101621914D01*
X133632766Y-101621581D01*
X133597439Y-101597976D01*
X133549801Y-101588500D01*
X132225199Y-101588500D01*
X132177561Y-101597976D01*
X132142234Y-101621581D01*
X132140238Y-101621712D01*
X132139127Y-101620049D01*
X132139460Y-101618807D01*
X132147967Y-101606075D01*
X132168747Y-101539711D01*
X132147958Y-101468911D01*
X132139460Y-101456193D01*
X132139329Y-101454197D01*
X132140992Y-101453086D01*
X132142234Y-101453419D01*
G37*
G36*
X132142234Y-100953419D02*
G01*
X132177561Y-100977024D01*
X132225199Y-100986500D01*
X133549801Y-100986500D01*
X133597439Y-100977024D01*
X133632766Y-100953419D01*
X133634762Y-100953288D01*
X133635873Y-100954951D01*
X133635540Y-100956193D01*
X133627033Y-100968925D01*
X133606253Y-101035289D01*
X133627042Y-101106089D01*
X133635540Y-101118807D01*
X133635671Y-101120803D01*
X133634008Y-101121914D01*
X133632766Y-101121581D01*
X133597439Y-101097976D01*
X133549801Y-101088500D01*
X132225199Y-101088500D01*
X132177561Y-101097976D01*
X132142234Y-101121581D01*
X132140238Y-101121712D01*
X132139127Y-101120049D01*
X132139460Y-101118807D01*
X132147967Y-101106075D01*
X132168747Y-101039711D01*
X132147958Y-100968911D01*
X132139460Y-100956193D01*
X132139329Y-100954197D01*
X132140992Y-100953086D01*
X132142234Y-100953419D01*
G37*
G36*
X140467234Y-100953419D02*
G01*
X140502561Y-100977024D01*
X140550199Y-100986500D01*
X141874801Y-100986500D01*
X141922439Y-100977024D01*
X141957766Y-100953419D01*
X141959762Y-100953288D01*
X141960873Y-100954951D01*
X141960540Y-100956193D01*
X141952033Y-100968925D01*
X141931253Y-101035289D01*
X141952042Y-101106089D01*
X141960540Y-101118807D01*
X141960671Y-101120803D01*
X141959008Y-101121914D01*
X141957766Y-101121581D01*
X141922439Y-101097976D01*
X141874801Y-101088500D01*
X140550199Y-101088500D01*
X140502561Y-101097976D01*
X140467234Y-101121581D01*
X140465238Y-101121712D01*
X140464127Y-101120049D01*
X140464460Y-101118807D01*
X140472967Y-101106075D01*
X140493747Y-101039711D01*
X140472958Y-100968911D01*
X140464460Y-100956193D01*
X140464329Y-100954197D01*
X140465992Y-100953086D01*
X140467234Y-100953419D01*
G37*
G36*
X132142234Y-100453419D02*
G01*
X132177561Y-100477024D01*
X132225199Y-100486500D01*
X133549801Y-100486500D01*
X133597439Y-100477024D01*
X133632766Y-100453419D01*
X133634762Y-100453288D01*
X133635873Y-100454951D01*
X133635540Y-100456193D01*
X133627033Y-100468925D01*
X133606253Y-100535289D01*
X133627042Y-100606089D01*
X133635540Y-100618807D01*
X133635671Y-100620803D01*
X133634008Y-100621914D01*
X133632766Y-100621581D01*
X133597439Y-100597976D01*
X133549801Y-100588500D01*
X132225199Y-100588500D01*
X132177561Y-100597976D01*
X132142234Y-100621581D01*
X132140238Y-100621712D01*
X132139127Y-100620049D01*
X132139460Y-100618807D01*
X132147967Y-100606075D01*
X132168747Y-100539711D01*
X132147958Y-100468911D01*
X132139460Y-100456193D01*
X132139329Y-100454197D01*
X132140992Y-100453086D01*
X132142234Y-100453419D01*
G37*
G36*
X140467234Y-100453419D02*
G01*
X140502561Y-100477024D01*
X140550199Y-100486500D01*
X141874801Y-100486500D01*
X141922439Y-100477024D01*
X141957766Y-100453419D01*
X141959762Y-100453288D01*
X141960873Y-100454951D01*
X141960540Y-100456193D01*
X141952033Y-100468925D01*
X141931253Y-100535289D01*
X141952042Y-100606089D01*
X141960540Y-100618807D01*
X141960671Y-100620803D01*
X141959008Y-100621914D01*
X141957766Y-100621581D01*
X141922439Y-100597976D01*
X141874801Y-100588500D01*
X140550199Y-100588500D01*
X140502561Y-100597976D01*
X140467234Y-100621581D01*
X140465238Y-100621712D01*
X140464127Y-100620049D01*
X140464460Y-100618807D01*
X140472967Y-100606075D01*
X140493747Y-100539711D01*
X140472958Y-100468911D01*
X140464460Y-100456193D01*
X140464329Y-100454197D01*
X140465992Y-100453086D01*
X140467234Y-100453419D01*
G37*
G36*
X132142234Y-99953419D02*
G01*
X132177561Y-99977024D01*
X132225199Y-99986500D01*
X133549801Y-99986500D01*
X133597439Y-99977024D01*
X133632766Y-99953419D01*
X133634762Y-99953288D01*
X133635873Y-99954951D01*
X133635540Y-99956193D01*
X133627033Y-99968925D01*
X133606253Y-100035289D01*
X133627042Y-100106089D01*
X133635540Y-100118807D01*
X133635671Y-100120803D01*
X133634008Y-100121914D01*
X133632766Y-100121581D01*
X133597439Y-100097976D01*
X133549801Y-100088500D01*
X132225199Y-100088500D01*
X132177561Y-100097976D01*
X132142234Y-100121581D01*
X132140238Y-100121712D01*
X132139127Y-100120049D01*
X132139460Y-100118807D01*
X132147967Y-100106075D01*
X132168747Y-100039711D01*
X132147958Y-99968911D01*
X132139460Y-99956193D01*
X132139329Y-99954197D01*
X132140992Y-99953086D01*
X132142234Y-99953419D01*
G37*
G36*
X140467234Y-99953419D02*
G01*
X140502561Y-99977024D01*
X140550199Y-99986500D01*
X141874801Y-99986500D01*
X141922439Y-99977024D01*
X141957766Y-99953419D01*
X141959762Y-99953288D01*
X141960873Y-99954951D01*
X141960540Y-99956193D01*
X141952033Y-99968925D01*
X141931253Y-100035289D01*
X141952042Y-100106089D01*
X141960540Y-100118807D01*
X141960671Y-100120803D01*
X141959008Y-100121914D01*
X141957766Y-100121581D01*
X141922439Y-100097976D01*
X141874801Y-100088500D01*
X140550199Y-100088500D01*
X140502561Y-100097976D01*
X140467234Y-100121581D01*
X140465238Y-100121712D01*
X140464127Y-100120049D01*
X140464460Y-100118807D01*
X140472967Y-100106075D01*
X140493747Y-100039711D01*
X140472958Y-99968911D01*
X140464460Y-99956193D01*
X140464329Y-99954197D01*
X140465992Y-99953086D01*
X140467234Y-99953419D01*
G37*
G36*
X140467234Y-99453419D02*
G01*
X140502561Y-99477024D01*
X140550199Y-99486500D01*
X141874801Y-99486500D01*
X141922439Y-99477024D01*
X141957766Y-99453419D01*
X141959762Y-99453288D01*
X141960873Y-99454951D01*
X141960540Y-99456193D01*
X141952033Y-99468925D01*
X141931253Y-99535289D01*
X141952042Y-99606089D01*
X141960540Y-99618807D01*
X141960671Y-99620803D01*
X141959008Y-99621914D01*
X141957766Y-99621581D01*
X141922439Y-99597976D01*
X141874801Y-99588500D01*
X140550199Y-99588500D01*
X140502561Y-99597976D01*
X140467234Y-99621581D01*
X140465238Y-99621712D01*
X140464127Y-99620049D01*
X140464460Y-99618807D01*
X140472967Y-99606075D01*
X140493747Y-99539711D01*
X140472958Y-99468911D01*
X140464460Y-99456193D01*
X140464329Y-99454197D01*
X140465992Y-99453086D01*
X140467234Y-99453419D01*
G37*
G36*
X132142234Y-99453419D02*
G01*
X132177561Y-99477024D01*
X132225199Y-99486500D01*
X133549801Y-99486500D01*
X133597439Y-99477024D01*
X133632766Y-99453419D01*
X133634762Y-99453288D01*
X133635873Y-99454951D01*
X133635540Y-99456193D01*
X133627033Y-99468925D01*
X133606253Y-99535289D01*
X133627042Y-99606089D01*
X133635540Y-99618807D01*
X133635671Y-99620803D01*
X133634008Y-99621914D01*
X133632766Y-99621581D01*
X133597439Y-99597976D01*
X133549801Y-99588500D01*
X132225199Y-99588500D01*
X132177561Y-99597976D01*
X132142234Y-99621581D01*
X132140238Y-99621712D01*
X132139127Y-99620049D01*
X132139460Y-99618807D01*
X132147967Y-99606075D01*
X132168747Y-99539711D01*
X132147958Y-99468911D01*
X132139460Y-99456193D01*
X132139329Y-99454197D01*
X132140992Y-99453086D01*
X132142234Y-99453419D01*
G37*
G36*
X132142234Y-98953419D02*
G01*
X132177561Y-98977024D01*
X132225199Y-98986500D01*
X133549801Y-98986500D01*
X133597439Y-98977024D01*
X133632766Y-98953419D01*
X133634762Y-98953288D01*
X133635873Y-98954951D01*
X133635540Y-98956193D01*
X133627033Y-98968925D01*
X133606253Y-99035289D01*
X133627042Y-99106089D01*
X133635540Y-99118807D01*
X133635671Y-99120803D01*
X133634008Y-99121914D01*
X133632766Y-99121581D01*
X133597439Y-99097976D01*
X133549801Y-99088500D01*
X132225199Y-99088500D01*
X132177561Y-99097976D01*
X132142234Y-99121581D01*
X132140238Y-99121712D01*
X132139127Y-99120049D01*
X132139460Y-99118807D01*
X132147967Y-99106075D01*
X132168747Y-99039711D01*
X132147958Y-98968911D01*
X132139460Y-98956193D01*
X132139329Y-98954197D01*
X132140992Y-98953086D01*
X132142234Y-98953419D01*
G37*
G36*
X140467234Y-98953419D02*
G01*
X140502561Y-98977024D01*
X140550199Y-98986500D01*
X141874801Y-98986500D01*
X141922439Y-98977024D01*
X141957766Y-98953419D01*
X141959762Y-98953288D01*
X141960873Y-98954951D01*
X141960540Y-98956193D01*
X141952033Y-98968925D01*
X141931253Y-99035289D01*
X141952042Y-99106089D01*
X141960540Y-99118807D01*
X141960671Y-99120803D01*
X141959008Y-99121914D01*
X141957766Y-99121581D01*
X141922439Y-99097976D01*
X141874801Y-99088500D01*
X140550199Y-99088500D01*
X140502561Y-99097976D01*
X140467234Y-99121581D01*
X140465238Y-99121712D01*
X140464127Y-99120049D01*
X140464460Y-99118807D01*
X140472967Y-99106075D01*
X140493747Y-99039711D01*
X140472958Y-98968911D01*
X140464460Y-98956193D01*
X140464329Y-98954197D01*
X140465992Y-98953086D01*
X140467234Y-98953419D01*
G37*
G36*
X140467234Y-98453419D02*
G01*
X140502561Y-98477024D01*
X140550199Y-98486500D01*
X141874801Y-98486500D01*
X141922439Y-98477024D01*
X141957766Y-98453419D01*
X141959762Y-98453288D01*
X141960873Y-98454951D01*
X141960540Y-98456193D01*
X141952033Y-98468925D01*
X141931253Y-98535289D01*
X141952042Y-98606089D01*
X141960540Y-98618807D01*
X141960671Y-98620803D01*
X141959008Y-98621914D01*
X141957766Y-98621581D01*
X141922439Y-98597976D01*
X141874801Y-98588500D01*
X140550199Y-98588500D01*
X140502561Y-98597976D01*
X140467234Y-98621581D01*
X140465238Y-98621712D01*
X140464127Y-98620049D01*
X140464460Y-98618807D01*
X140472967Y-98606075D01*
X140493747Y-98539711D01*
X140472958Y-98468911D01*
X140464460Y-98456193D01*
X140464329Y-98454197D01*
X140465992Y-98453086D01*
X140467234Y-98453419D01*
G37*
G36*
X132142234Y-98453419D02*
G01*
X132177561Y-98477024D01*
X132225199Y-98486500D01*
X133549801Y-98486500D01*
X133597439Y-98477024D01*
X133632766Y-98453419D01*
X133634762Y-98453288D01*
X133635873Y-98454951D01*
X133635540Y-98456193D01*
X133627033Y-98468925D01*
X133606253Y-98535289D01*
X133627042Y-98606089D01*
X133635540Y-98618807D01*
X133635671Y-98620803D01*
X133634008Y-98621914D01*
X133632766Y-98621581D01*
X133597439Y-98597976D01*
X133549801Y-98588500D01*
X132225199Y-98588500D01*
X132177561Y-98597976D01*
X132142234Y-98621581D01*
X132140238Y-98621712D01*
X132139127Y-98620049D01*
X132139460Y-98618807D01*
X132147967Y-98606075D01*
X132168747Y-98539711D01*
X132147958Y-98468911D01*
X132139460Y-98456193D01*
X132139329Y-98454197D01*
X132140992Y-98453086D01*
X132142234Y-98453419D01*
G37*
G36*
X138968693Y-96126960D02*
G01*
X138981425Y-96135467D01*
X139047789Y-96156247D01*
X139118589Y-96135458D01*
X139131307Y-96126960D01*
X139133303Y-96126829D01*
X139134414Y-96128492D01*
X139134081Y-96129734D01*
X139110476Y-96165061D01*
X139101000Y-96212699D01*
X139101000Y-97537301D01*
X139110476Y-97584939D01*
X139134081Y-97620266D01*
X139134212Y-97622262D01*
X139132549Y-97623373D01*
X139131307Y-97623040D01*
X139118575Y-97614533D01*
X139052211Y-97593753D01*
X138981411Y-97614542D01*
X138968693Y-97623040D01*
X138966697Y-97623171D01*
X138965586Y-97621508D01*
X138965919Y-97620266D01*
X138989524Y-97584939D01*
X138999000Y-97537301D01*
X138999000Y-96212699D01*
X138989524Y-96165061D01*
X138965919Y-96129734D01*
X138965788Y-96127738D01*
X138967451Y-96126627D01*
X138968693Y-96126960D01*
G37*
G36*
X135968693Y-96126960D02*
G01*
X135981425Y-96135467D01*
X136047789Y-96156247D01*
X136118589Y-96135458D01*
X136131307Y-96126960D01*
X136133303Y-96126829D01*
X136134414Y-96128492D01*
X136134081Y-96129734D01*
X136110476Y-96165061D01*
X136101000Y-96212699D01*
X136101000Y-97537301D01*
X136110476Y-97584939D01*
X136134081Y-97620266D01*
X136134212Y-97622262D01*
X136132549Y-97623373D01*
X136131307Y-97623040D01*
X136118575Y-97614533D01*
X136052211Y-97593753D01*
X135981411Y-97614542D01*
X135968693Y-97623040D01*
X135966697Y-97623171D01*
X135965586Y-97621508D01*
X135965919Y-97620266D01*
X135989524Y-97584939D01*
X135999000Y-97537301D01*
X135999000Y-96212699D01*
X135989524Y-96165061D01*
X135965919Y-96129734D01*
X135965788Y-96127738D01*
X135967451Y-96126627D01*
X135968693Y-96126960D01*
G37*
G36*
X137968693Y-96126960D02*
G01*
X137981425Y-96135467D01*
X138047789Y-96156247D01*
X138118589Y-96135458D01*
X138131307Y-96126960D01*
X138133303Y-96126829D01*
X138134414Y-96128492D01*
X138134081Y-96129734D01*
X138110476Y-96165061D01*
X138101000Y-96212699D01*
X138101000Y-97537301D01*
X138110476Y-97584939D01*
X138134081Y-97620266D01*
X138134212Y-97622262D01*
X138132549Y-97623373D01*
X138131307Y-97623040D01*
X138118575Y-97614533D01*
X138052211Y-97593753D01*
X137981411Y-97614542D01*
X137968693Y-97623040D01*
X137966697Y-97623171D01*
X137965586Y-97621508D01*
X137965919Y-97620266D01*
X137989524Y-97584939D01*
X137999000Y-97537301D01*
X137999000Y-96212699D01*
X137989524Y-96165061D01*
X137965919Y-96129734D01*
X137965788Y-96127738D01*
X137967451Y-96126627D01*
X137968693Y-96126960D01*
G37*
G36*
X134468693Y-96126960D02*
G01*
X134481425Y-96135467D01*
X134547789Y-96156247D01*
X134618589Y-96135458D01*
X134631307Y-96126960D01*
X134633303Y-96126829D01*
X134634414Y-96128492D01*
X134634081Y-96129734D01*
X134610476Y-96165061D01*
X134601000Y-96212699D01*
X134601000Y-97537301D01*
X134610476Y-97584939D01*
X134634081Y-97620266D01*
X134634212Y-97622262D01*
X134632549Y-97623373D01*
X134631307Y-97623040D01*
X134618575Y-97614533D01*
X134552211Y-97593753D01*
X134481411Y-97614542D01*
X134468693Y-97623040D01*
X134466697Y-97623171D01*
X134465586Y-97621508D01*
X134465919Y-97620266D01*
X134489524Y-97584939D01*
X134499000Y-97537301D01*
X134499000Y-96212699D01*
X134489524Y-96165061D01*
X134465919Y-96129734D01*
X134465788Y-96127738D01*
X134467451Y-96126627D01*
X134468693Y-96126960D01*
G37*
G36*
X136968693Y-96126960D02*
G01*
X136981425Y-96135467D01*
X137047789Y-96156247D01*
X137118589Y-96135458D01*
X137131307Y-96126960D01*
X137133303Y-96126829D01*
X137134414Y-96128492D01*
X137134081Y-96129734D01*
X137110476Y-96165061D01*
X137101000Y-96212699D01*
X137101000Y-97537301D01*
X137110476Y-97584939D01*
X137134081Y-97620266D01*
X137134212Y-97622262D01*
X137132549Y-97623373D01*
X137131307Y-97623040D01*
X137118575Y-97614533D01*
X137052211Y-97593753D01*
X136981411Y-97614542D01*
X136968693Y-97623040D01*
X136966697Y-97623171D01*
X136965586Y-97621508D01*
X136965919Y-97620266D01*
X136989524Y-97584939D01*
X136999000Y-97537301D01*
X136999000Y-96212699D01*
X136989524Y-96165061D01*
X136965919Y-96129734D01*
X136965788Y-96127738D01*
X136967451Y-96126627D01*
X136968693Y-96126960D01*
G37*
G36*
X134968693Y-96126960D02*
G01*
X134981425Y-96135467D01*
X135047789Y-96156247D01*
X135118589Y-96135458D01*
X135131307Y-96126960D01*
X135133303Y-96126829D01*
X135134414Y-96128492D01*
X135134081Y-96129734D01*
X135110476Y-96165061D01*
X135101000Y-96212699D01*
X135101000Y-97537301D01*
X135110476Y-97584939D01*
X135134081Y-97620266D01*
X135134212Y-97622262D01*
X135132549Y-97623373D01*
X135131307Y-97623040D01*
X135118575Y-97614533D01*
X135052211Y-97593753D01*
X134981411Y-97614542D01*
X134968693Y-97623040D01*
X134966697Y-97623171D01*
X134965586Y-97621508D01*
X134965919Y-97620266D01*
X134989524Y-97584939D01*
X134999000Y-97537301D01*
X134999000Y-96212699D01*
X134989524Y-96165061D01*
X134965919Y-96129734D01*
X134965788Y-96127738D01*
X134967451Y-96126627D01*
X134968693Y-96126960D01*
G37*
G36*
X137468693Y-96126960D02*
G01*
X137481425Y-96135467D01*
X137547789Y-96156247D01*
X137618589Y-96135458D01*
X137631307Y-96126960D01*
X137633303Y-96126829D01*
X137634414Y-96128492D01*
X137634081Y-96129734D01*
X137610476Y-96165061D01*
X137601000Y-96212699D01*
X137601000Y-97537301D01*
X137610476Y-97584939D01*
X137634081Y-97620266D01*
X137634212Y-97622262D01*
X137632549Y-97623373D01*
X137631307Y-97623040D01*
X137618575Y-97614533D01*
X137552211Y-97593753D01*
X137481411Y-97614542D01*
X137468693Y-97623040D01*
X137466697Y-97623171D01*
X137465586Y-97621508D01*
X137465919Y-97620266D01*
X137489524Y-97584939D01*
X137499000Y-97537301D01*
X137499000Y-96212699D01*
X137489524Y-96165061D01*
X137465919Y-96129734D01*
X137465788Y-96127738D01*
X137467451Y-96126627D01*
X137468693Y-96126960D01*
G37*
G36*
X138468693Y-96126960D02*
G01*
X138481425Y-96135467D01*
X138547789Y-96156247D01*
X138618589Y-96135458D01*
X138631307Y-96126960D01*
X138633303Y-96126829D01*
X138634414Y-96128492D01*
X138634081Y-96129734D01*
X138610476Y-96165061D01*
X138601000Y-96212699D01*
X138601000Y-97537301D01*
X138610476Y-97584939D01*
X138634081Y-97620266D01*
X138634212Y-97622262D01*
X138632549Y-97623373D01*
X138631307Y-97623040D01*
X138618575Y-97614533D01*
X138552211Y-97593753D01*
X138481411Y-97614542D01*
X138468693Y-97623040D01*
X138466697Y-97623171D01*
X138465586Y-97621508D01*
X138465919Y-97620266D01*
X138489524Y-97584939D01*
X138499000Y-97537301D01*
X138499000Y-96212699D01*
X138489524Y-96165061D01*
X138465919Y-96129734D01*
X138465788Y-96127738D01*
X138467451Y-96126627D01*
X138468693Y-96126960D01*
G37*
G36*
X139468693Y-96126960D02*
G01*
X139481425Y-96135467D01*
X139547789Y-96156247D01*
X139618589Y-96135458D01*
X139631307Y-96126960D01*
X139633303Y-96126829D01*
X139634414Y-96128492D01*
X139634081Y-96129734D01*
X139610476Y-96165061D01*
X139601000Y-96212699D01*
X139601000Y-97537301D01*
X139610476Y-97584939D01*
X139634081Y-97620266D01*
X139634212Y-97622262D01*
X139632549Y-97623373D01*
X139631307Y-97623040D01*
X139618575Y-97614533D01*
X139552211Y-97593753D01*
X139481411Y-97614542D01*
X139468693Y-97623040D01*
X139466697Y-97623171D01*
X139465586Y-97621508D01*
X139465919Y-97620266D01*
X139489524Y-97584939D01*
X139499000Y-97537301D01*
X139499000Y-96212699D01*
X139489524Y-96165061D01*
X139465919Y-96129734D01*
X139465788Y-96127738D01*
X139467451Y-96126627D01*
X139468693Y-96126960D01*
G37*
G36*
X135468693Y-96126960D02*
G01*
X135481425Y-96135467D01*
X135547789Y-96156247D01*
X135618589Y-96135458D01*
X135631307Y-96126960D01*
X135633303Y-96126829D01*
X135634414Y-96128492D01*
X135634081Y-96129734D01*
X135610476Y-96165061D01*
X135601000Y-96212699D01*
X135601000Y-97537301D01*
X135610476Y-97584939D01*
X135634081Y-97620266D01*
X135634212Y-97622262D01*
X135632549Y-97623373D01*
X135631307Y-97623040D01*
X135618575Y-97614533D01*
X135552211Y-97593753D01*
X135481411Y-97614542D01*
X135468693Y-97623040D01*
X135466697Y-97623171D01*
X135465586Y-97621508D01*
X135465919Y-97620266D01*
X135489524Y-97584939D01*
X135499000Y-97537301D01*
X135499000Y-96212699D01*
X135489524Y-96165061D01*
X135465919Y-96129734D01*
X135465788Y-96127738D01*
X135467451Y-96126627D01*
X135468693Y-96126960D01*
G37*
G36*
X136468693Y-96126960D02*
G01*
X136481425Y-96135467D01*
X136547789Y-96156247D01*
X136618589Y-96135458D01*
X136631307Y-96126960D01*
X136633303Y-96126829D01*
X136634414Y-96128492D01*
X136634081Y-96129734D01*
X136610476Y-96165061D01*
X136601000Y-96212699D01*
X136601000Y-97537301D01*
X136610476Y-97584939D01*
X136634081Y-97620266D01*
X136634212Y-97622262D01*
X136632549Y-97623373D01*
X136631307Y-97623040D01*
X136618575Y-97614533D01*
X136552211Y-97593753D01*
X136481411Y-97614542D01*
X136468693Y-97623040D01*
X136466697Y-97623171D01*
X136465586Y-97621508D01*
X136465919Y-97620266D01*
X136489524Y-97584939D01*
X136499000Y-97537301D01*
X136499000Y-96212699D01*
X136489524Y-96165061D01*
X136465919Y-96129734D01*
X136465788Y-96127738D01*
X136467451Y-96126627D01*
X136468693Y-96126960D01*
G37*
G36*
X115649632Y-66238516D02*
G01*
X115650196Y-66240435D01*
X115649915Y-66241074D01*
X115639766Y-66256262D01*
X115635999Y-66275198D01*
X115635999Y-67434800D01*
X115639766Y-67453737D01*
X115649813Y-67468772D01*
X115649944Y-67470767D01*
X115648281Y-67471879D01*
X115647552Y-67471792D01*
X115587211Y-67452897D01*
X115522309Y-67471954D01*
X115520366Y-67471482D01*
X115519802Y-67469563D01*
X115520083Y-67468924D01*
X115530232Y-67453736D01*
X115533999Y-67434800D01*
X115533999Y-66275198D01*
X115530232Y-66256261D01*
X115520185Y-66241226D01*
X115520054Y-66239231D01*
X115521717Y-66238119D01*
X115522446Y-66238206D01*
X115582787Y-66257101D01*
X115647689Y-66238044D01*
X115649632Y-66238516D01*
G37*
G36*
X117149632Y-66238516D02*
G01*
X117150196Y-66240435D01*
X117149915Y-66241074D01*
X117139766Y-66256262D01*
X117135999Y-66275198D01*
X117135999Y-67434800D01*
X117139766Y-67453737D01*
X117149813Y-67468772D01*
X117149944Y-67470767D01*
X117148281Y-67471879D01*
X117147552Y-67471792D01*
X117087211Y-67452897D01*
X117022309Y-67471954D01*
X117020366Y-67471482D01*
X117019802Y-67469563D01*
X117020083Y-67468924D01*
X117030232Y-67453736D01*
X117033999Y-67434800D01*
X117033999Y-66275198D01*
X117030232Y-66256261D01*
X117020185Y-66241226D01*
X117020054Y-66239231D01*
X117021717Y-66238119D01*
X117022446Y-66238206D01*
X117082787Y-66257101D01*
X117147689Y-66238044D01*
X117149632Y-66238516D01*
G37*
G36*
X118649632Y-66238516D02*
G01*
X118650196Y-66240435D01*
X118649915Y-66241074D01*
X118639766Y-66256262D01*
X118635999Y-66275198D01*
X118635999Y-67434800D01*
X118639766Y-67453737D01*
X118649813Y-67468772D01*
X118649944Y-67470767D01*
X118648281Y-67471879D01*
X118647552Y-67471792D01*
X118587211Y-67452897D01*
X118522309Y-67471954D01*
X118520366Y-67471482D01*
X118519802Y-67469563D01*
X118520083Y-67468924D01*
X118530232Y-67453736D01*
X118533999Y-67434800D01*
X118533999Y-66275198D01*
X118530232Y-66256261D01*
X118520185Y-66241226D01*
X118520054Y-66239231D01*
X118521717Y-66238119D01*
X118522446Y-66238206D01*
X118582787Y-66257101D01*
X118647689Y-66238044D01*
X118649632Y-66238516D01*
G37*
G36*
X114462350Y-66019340D02*
G01*
X114462219Y-66020728D01*
X114434124Y-66078879D01*
X114442494Y-66147627D01*
X114486698Y-66200931D01*
X114555962Y-66222086D01*
X114557327Y-66223549D01*
X114556742Y-66225461D01*
X114555378Y-66225999D01*
X114385198Y-66225999D01*
X114366261Y-66229766D01*
X114350379Y-66240379D01*
X114339766Y-66256261D01*
X114335999Y-66275198D01*
X114335999Y-67434800D01*
X114339766Y-67453737D01*
X114349813Y-67468772D01*
X114349944Y-67470767D01*
X114348281Y-67471879D01*
X114347552Y-67471792D01*
X114287211Y-67452897D01*
X114222309Y-67471954D01*
X114220366Y-67471482D01*
X114219802Y-67469563D01*
X114220083Y-67468924D01*
X114230232Y-67453736D01*
X114233999Y-67434800D01*
X114233999Y-66275198D01*
X114230232Y-66256261D01*
X114219619Y-66240379D01*
X114203737Y-66229766D01*
X114184800Y-66225999D01*
X113834994Y-66225999D01*
X113833262Y-66224999D01*
X113833262Y-66222999D01*
X113834431Y-66222080D01*
X113901443Y-66202404D01*
X113946798Y-66150061D01*
X113956656Y-66081499D01*
X113930783Y-66023703D01*
X113930988Y-66021714D01*
X113932813Y-66020897D01*
X113934022Y-66021472D01*
X113989875Y-66077325D01*
X114087161Y-66126895D01*
X114194999Y-66143974D01*
X114302837Y-66126895D01*
X114400123Y-66077325D01*
X114459004Y-66018444D01*
X114460936Y-66017926D01*
X114462350Y-66019340D01*
G37*
G36*
X116149632Y-66238516D02*
G01*
X116150196Y-66240435D01*
X116149915Y-66241074D01*
X116139766Y-66256262D01*
X116135999Y-66275198D01*
X116135999Y-67434800D01*
X116139766Y-67453737D01*
X116149813Y-67468772D01*
X116149944Y-67470767D01*
X116148281Y-67471879D01*
X116147552Y-67471792D01*
X116087211Y-67452897D01*
X116022309Y-67471954D01*
X116020366Y-67471482D01*
X116019802Y-67469563D01*
X116020083Y-67468924D01*
X116030232Y-67453736D01*
X116033999Y-67434800D01*
X116033999Y-66275198D01*
X116030232Y-66256261D01*
X116020185Y-66241226D01*
X116020054Y-66239231D01*
X116021717Y-66238119D01*
X116022446Y-66238206D01*
X116082787Y-66257101D01*
X116147689Y-66238044D01*
X116149632Y-66238516D01*
G37*
G36*
X115149632Y-66238516D02*
G01*
X115150196Y-66240435D01*
X115149915Y-66241074D01*
X115139766Y-66256262D01*
X115135999Y-66275198D01*
X115135999Y-67434800D01*
X115139766Y-67453737D01*
X115149813Y-67468772D01*
X115149944Y-67470767D01*
X115148281Y-67471879D01*
X115147552Y-67471792D01*
X115087211Y-67452897D01*
X115022309Y-67471954D01*
X115020366Y-67471482D01*
X115019802Y-67469563D01*
X115020083Y-67468924D01*
X115030232Y-67453736D01*
X115033999Y-67434800D01*
X115033999Y-66275198D01*
X115030232Y-66256261D01*
X115020185Y-66241226D01*
X115020054Y-66239231D01*
X115021717Y-66238119D01*
X115022446Y-66238206D01*
X115082787Y-66257101D01*
X115147689Y-66238044D01*
X115149632Y-66238516D01*
G37*
G36*
X117649632Y-66238516D02*
G01*
X117650196Y-66240435D01*
X117649915Y-66241074D01*
X117639766Y-66256262D01*
X117635999Y-66275198D01*
X117635999Y-67434800D01*
X117639766Y-67453737D01*
X117649813Y-67468772D01*
X117649944Y-67470767D01*
X117648281Y-67471879D01*
X117647552Y-67471792D01*
X117587211Y-67452897D01*
X117522309Y-67471954D01*
X117520366Y-67471482D01*
X117519802Y-67469563D01*
X117520083Y-67468924D01*
X117530232Y-67453736D01*
X117533999Y-67434800D01*
X117533999Y-66275198D01*
X117530232Y-66256261D01*
X117520185Y-66241226D01*
X117520054Y-66239231D01*
X117521717Y-66238119D01*
X117522446Y-66238206D01*
X117582787Y-66257101D01*
X117647689Y-66238044D01*
X117649632Y-66238516D01*
G37*
G36*
X120242350Y-66019340D02*
G01*
X120242219Y-66020728D01*
X120214125Y-66078876D01*
X120222494Y-66147625D01*
X120266697Y-66200929D01*
X120335965Y-66222086D01*
X120337330Y-66223549D01*
X120336745Y-66225461D01*
X120335381Y-66225999D01*
X119985198Y-66225999D01*
X119966261Y-66229766D01*
X119950379Y-66240379D01*
X119939766Y-66256261D01*
X119935999Y-66275198D01*
X119935999Y-67434800D01*
X119939766Y-67453737D01*
X119949813Y-67468772D01*
X119949944Y-67470767D01*
X119948281Y-67471879D01*
X119947552Y-67471792D01*
X119887211Y-67452897D01*
X119822309Y-67471954D01*
X119820366Y-67471482D01*
X119819802Y-67469563D01*
X119820083Y-67468924D01*
X119830232Y-67453736D01*
X119833999Y-67434800D01*
X119833999Y-66275198D01*
X119830232Y-66256261D01*
X119819619Y-66240379D01*
X119803737Y-66229766D01*
X119784800Y-66225999D01*
X119614991Y-66225999D01*
X119613259Y-66224999D01*
X119613259Y-66222999D01*
X119614428Y-66222080D01*
X119681443Y-66202403D01*
X119726798Y-66150060D01*
X119736656Y-66081497D01*
X119710783Y-66023703D01*
X119710988Y-66021714D01*
X119712813Y-66020897D01*
X119714022Y-66021472D01*
X119769875Y-66077325D01*
X119867161Y-66126895D01*
X119974999Y-66143974D01*
X120082837Y-66126895D01*
X120180123Y-66077325D01*
X120239004Y-66018444D01*
X120240936Y-66017926D01*
X120242350Y-66019340D01*
G37*
G36*
X118149632Y-66238516D02*
G01*
X118150196Y-66240435D01*
X118149915Y-66241074D01*
X118139766Y-66256262D01*
X118135999Y-66275198D01*
X118135999Y-67434800D01*
X118139766Y-67453737D01*
X118149813Y-67468772D01*
X118149944Y-67470767D01*
X118148281Y-67471879D01*
X118147552Y-67471792D01*
X118087211Y-67452897D01*
X118022309Y-67471954D01*
X118020366Y-67471482D01*
X118019802Y-67469563D01*
X118020083Y-67468924D01*
X118030232Y-67453736D01*
X118033999Y-67434800D01*
X118033999Y-66275198D01*
X118030232Y-66256261D01*
X118020185Y-66241226D01*
X118020054Y-66239231D01*
X118021717Y-66238119D01*
X118022446Y-66238206D01*
X118082787Y-66257101D01*
X118147689Y-66238044D01*
X118149632Y-66238516D01*
G37*
G36*
X119149632Y-66238516D02*
G01*
X119150196Y-66240435D01*
X119149915Y-66241074D01*
X119139766Y-66256262D01*
X119135999Y-66275198D01*
X119135999Y-67434800D01*
X119139766Y-67453737D01*
X119149813Y-67468772D01*
X119149944Y-67470767D01*
X119148281Y-67471879D01*
X119147552Y-67471792D01*
X119087211Y-67452897D01*
X119022309Y-67471954D01*
X119020366Y-67471482D01*
X119019802Y-67469563D01*
X119020083Y-67468924D01*
X119030232Y-67453736D01*
X119033999Y-67434800D01*
X119033999Y-66275198D01*
X119030232Y-66256261D01*
X119020185Y-66241226D01*
X119020054Y-66239231D01*
X119021717Y-66238119D01*
X119022446Y-66238206D01*
X119082787Y-66257101D01*
X119147689Y-66238044D01*
X119149632Y-66238516D01*
G37*
G36*
X116649632Y-66238516D02*
G01*
X116650196Y-66240435D01*
X116649915Y-66241074D01*
X116639766Y-66256262D01*
X116635999Y-66275198D01*
X116635999Y-67434800D01*
X116639766Y-67453737D01*
X116649813Y-67468772D01*
X116649944Y-67470767D01*
X116648281Y-67471879D01*
X116647552Y-67471792D01*
X116587211Y-67452897D01*
X116522309Y-67471954D01*
X116520366Y-67471482D01*
X116519802Y-67469563D01*
X116520083Y-67468924D01*
X116530232Y-67453736D01*
X116533999Y-67434800D01*
X116533999Y-66275198D01*
X116530232Y-66256261D01*
X116520185Y-66241226D01*
X116520054Y-66239231D01*
X116521717Y-66238119D01*
X116522446Y-66238206D01*
X116582787Y-66257101D01*
X116647689Y-66238044D01*
X116649632Y-66238516D01*
G37*
M02*
