G04 #@! TF.GenerationSoftware,KiCad,Pcbnew,(6.0.0)*
G04 #@! TF.CreationDate,2022-12-26T15:53:50+03:00*
G04 #@! TF.ProjectId,mcu board,6d637520-626f-4617-9264-2e6b69636164,rev?*
G04 #@! TF.SameCoordinates,Original*
G04 #@! TF.FileFunction,Profile,NP*
%FSLAX46Y46*%
G04 Gerber Fmt 4.6, Leading zero omitted, Abs format (unit mm)*
G04 Created by KiCad (PCBNEW (6.0.0)) date 2022-12-26 15:53:50*
%MOMM*%
%LPD*%
G01*
G04 APERTURE LIST*
G04 #@! TA.AperFunction,Profile*
%ADD10C,0.050000*%
G04 #@! TD*
G04 APERTURE END LIST*
D10*
X95000000Y-60000000D02*
X95000000Y-68000000D01*
X180000000Y-60000000D02*
X110000000Y-60000000D01*
X98000000Y-60000000D02*
X95000000Y-60000000D01*
X110000000Y-150000000D02*
X180000000Y-150000000D01*
X195000000Y-150000000D02*
X198000000Y-150000000D01*
X123400000Y-130000000D02*
X118400000Y-130000000D01*
X150400000Y-130000000D02*
X145400000Y-130000000D01*
X177400000Y-130000000D02*
X172400000Y-130000000D01*
X95000000Y-138000000D02*
X95000000Y-150000000D01*
X198000000Y-130000000D02*
X198000000Y-76000000D01*
X95000000Y-76000000D02*
X95000000Y-130000000D01*
X198000000Y-76000000D02*
X198000000Y-76000000D01*
X198000000Y-68000000D02*
X198000000Y-60000000D01*
X177400000Y-128400000D02*
X177400000Y-130000000D01*
X95000000Y-138000000D02*
X96600000Y-138000000D01*
X145400000Y-128400000D02*
X150400000Y-128400000D01*
X96600000Y-138000000D02*
X96600000Y-130000000D01*
X118400000Y-128400000D02*
X123400000Y-128400000D01*
X96600000Y-76000000D02*
X95000000Y-76000000D01*
X195000000Y-148400000D02*
X195000000Y-150000000D01*
X98000000Y-61600000D02*
X98000000Y-60000000D01*
X123400000Y-129800000D02*
X123400000Y-130000000D01*
X198000000Y-68000000D02*
X196400000Y-68000000D01*
X150400000Y-128400000D02*
X150400000Y-129800000D01*
X95000000Y-68000000D02*
X96600000Y-68000000D01*
X96600000Y-68000000D02*
X96600000Y-76000000D01*
X98000000Y-150000000D02*
X98000000Y-148400000D01*
X96600000Y-130000000D02*
X95000000Y-130000000D01*
X196400000Y-138000000D02*
X196400000Y-130000000D01*
X110000000Y-61600000D02*
X98000000Y-61600000D01*
X180000000Y-61600000D02*
X180000000Y-60000000D01*
X196400000Y-130000000D02*
X198000000Y-130000000D01*
X198000000Y-60000000D02*
X195000000Y-60000000D01*
X198000000Y-150000000D02*
X198000000Y-138000000D01*
X195000000Y-61600000D02*
X180000000Y-61600000D01*
X110000000Y-60000000D02*
X110000000Y-61600000D01*
X145400000Y-130000000D02*
X145400000Y-128400000D01*
X195000000Y-60000000D02*
X195000000Y-61600000D01*
X172400000Y-130000000D02*
X172400000Y-128400000D01*
X118400000Y-130000000D02*
X118400000Y-128400000D01*
X123400000Y-128400000D02*
X123400000Y-129800000D01*
X180000000Y-148400000D02*
X195000000Y-148400000D01*
X95000000Y-150000000D02*
X98000000Y-150000000D01*
X196400000Y-76000000D02*
X198000000Y-76000000D01*
X198000000Y-138000000D02*
X196400000Y-138000000D01*
X172400000Y-128400000D02*
X177400000Y-128400000D01*
X98000000Y-148400000D02*
X110000000Y-148400000D01*
X180000000Y-150000000D02*
X180000000Y-148400000D01*
X110000000Y-148400000D02*
X110000000Y-150000000D01*
X196400000Y-68000000D02*
X196400000Y-76000000D01*
X150400000Y-129800000D02*
X150400000Y-130000000D01*
M02*
