G04 #@! TF.GenerationSoftware,KiCad,Pcbnew,(6.0.0)*
G04 #@! TF.CreationDate,2022-12-26T15:53:49+03:00*
G04 #@! TF.ProjectId,mcu board,6d637520-626f-4617-9264-2e6b69636164,rev?*
G04 #@! TF.SameCoordinates,Original*
G04 #@! TF.FileFunction,Legend,Top*
G04 #@! TF.FilePolarity,Positive*
%FSLAX46Y46*%
G04 Gerber Fmt 4.6, Leading zero omitted, Abs format (unit mm)*
G04 Created by KiCad (PCBNEW (6.0.0)) date 2022-12-26 15:53:49*
%MOMM*%
%LPD*%
G01*
G04 APERTURE LIST*
%ADD10C,0.150000*%
%ADD11C,0.120000*%
G04 APERTURE END LIST*
D10*
X108372380Y-101450952D02*
X107372380Y-101450952D01*
X107372380Y-101212857D01*
X107420000Y-101070000D01*
X107515238Y-100974761D01*
X107610476Y-100927142D01*
X107800952Y-100879523D01*
X107943809Y-100879523D01*
X108134285Y-100927142D01*
X108229523Y-100974761D01*
X108324761Y-101070000D01*
X108372380Y-101212857D01*
X108372380Y-101450952D01*
X108324761Y-100070000D02*
X108372380Y-100165238D01*
X108372380Y-100355714D01*
X108324761Y-100450952D01*
X108229523Y-100498571D01*
X107848571Y-100498571D01*
X107753333Y-100450952D01*
X107705714Y-100355714D01*
X107705714Y-100165238D01*
X107753333Y-100070000D01*
X107848571Y-100022380D01*
X107943809Y-100022380D01*
X108039047Y-100498571D01*
X108324761Y-99641428D02*
X108372380Y-99546190D01*
X108372380Y-99355714D01*
X108324761Y-99260476D01*
X108229523Y-99212857D01*
X108181904Y-99212857D01*
X108086666Y-99260476D01*
X108039047Y-99355714D01*
X108039047Y-99498571D01*
X107991428Y-99593809D01*
X107896190Y-99641428D01*
X107848571Y-99641428D01*
X107753333Y-99593809D01*
X107705714Y-99498571D01*
X107705714Y-99355714D01*
X107753333Y-99260476D01*
X108372380Y-98784285D02*
X107705714Y-98784285D01*
X107372380Y-98784285D02*
X107420000Y-98831904D01*
X107467619Y-98784285D01*
X107420000Y-98736666D01*
X107372380Y-98784285D01*
X107467619Y-98784285D01*
X107705714Y-97879523D02*
X108515238Y-97879523D01*
X108610476Y-97927142D01*
X108658095Y-97974761D01*
X108705714Y-98070000D01*
X108705714Y-98212857D01*
X108658095Y-98308095D01*
X108324761Y-97879523D02*
X108372380Y-97974761D01*
X108372380Y-98165238D01*
X108324761Y-98260476D01*
X108277142Y-98308095D01*
X108181904Y-98355714D01*
X107896190Y-98355714D01*
X107800952Y-98308095D01*
X107753333Y-98260476D01*
X107705714Y-98165238D01*
X107705714Y-97974761D01*
X107753333Y-97879523D01*
X107705714Y-97403333D02*
X108372380Y-97403333D01*
X107800952Y-97403333D02*
X107753333Y-97355714D01*
X107705714Y-97260476D01*
X107705714Y-97117619D01*
X107753333Y-97022380D01*
X107848571Y-96974761D01*
X108372380Y-96974761D01*
X108324761Y-96117619D02*
X108372380Y-96212857D01*
X108372380Y-96403333D01*
X108324761Y-96498571D01*
X108229523Y-96546190D01*
X107848571Y-96546190D01*
X107753333Y-96498571D01*
X107705714Y-96403333D01*
X107705714Y-96212857D01*
X107753333Y-96117619D01*
X107848571Y-96070000D01*
X107943809Y-96070000D01*
X108039047Y-96546190D01*
X108372380Y-95212857D02*
X107372380Y-95212857D01*
X108324761Y-95212857D02*
X108372380Y-95308095D01*
X108372380Y-95498571D01*
X108324761Y-95593809D01*
X108277142Y-95641428D01*
X108181904Y-95689047D01*
X107896190Y-95689047D01*
X107800952Y-95641428D01*
X107753333Y-95593809D01*
X107705714Y-95498571D01*
X107705714Y-95308095D01*
X107753333Y-95212857D01*
X108372380Y-93974761D02*
X107372380Y-93974761D01*
X107753333Y-93974761D02*
X107705714Y-93879523D01*
X107705714Y-93689047D01*
X107753333Y-93593809D01*
X107800952Y-93546190D01*
X107896190Y-93498571D01*
X108181904Y-93498571D01*
X108277142Y-93546190D01*
X108324761Y-93593809D01*
X108372380Y-93689047D01*
X108372380Y-93879523D01*
X108324761Y-93974761D01*
X107705714Y-93165238D02*
X108372380Y-92927142D01*
X107705714Y-92689047D02*
X108372380Y-92927142D01*
X108610476Y-93022380D01*
X108658095Y-93070000D01*
X108705714Y-93165238D01*
X108372380Y-91546190D02*
X107372380Y-91546190D01*
X108372380Y-90974761D02*
X107800952Y-91403333D01*
X107372380Y-90974761D02*
X107943809Y-91546190D01*
X108372380Y-90403333D02*
X108324761Y-90498571D01*
X108277142Y-90546190D01*
X108181904Y-90593809D01*
X107896190Y-90593809D01*
X107800952Y-90546190D01*
X107753333Y-90498571D01*
X107705714Y-90403333D01*
X107705714Y-90260476D01*
X107753333Y-90165238D01*
X107800952Y-90117619D01*
X107896190Y-90070000D01*
X108181904Y-90070000D01*
X108277142Y-90117619D01*
X108324761Y-90165238D01*
X108372380Y-90260476D01*
X108372380Y-90403333D01*
X107705714Y-89641428D02*
X108372380Y-89641428D01*
X107800952Y-89641428D02*
X107753333Y-89593809D01*
X107705714Y-89498571D01*
X107705714Y-89355714D01*
X107753333Y-89260476D01*
X107848571Y-89212857D01*
X108372380Y-89212857D01*
X108372380Y-88593809D02*
X108324761Y-88689047D01*
X108277142Y-88736666D01*
X108181904Y-88784285D01*
X107896190Y-88784285D01*
X107800952Y-88736666D01*
X107753333Y-88689047D01*
X107705714Y-88593809D01*
X107705714Y-88450952D01*
X107753333Y-88355714D01*
X107800952Y-88308095D01*
X107896190Y-88260476D01*
X108181904Y-88260476D01*
X108277142Y-88308095D01*
X108324761Y-88355714D01*
X108372380Y-88450952D01*
X108372380Y-88593809D01*
X107705714Y-87831904D02*
X108372380Y-87831904D01*
X107800952Y-87831904D02*
X107753333Y-87784285D01*
X107705714Y-87689047D01*
X107705714Y-87546190D01*
X107753333Y-87450952D01*
X107848571Y-87403333D01*
X108372380Y-87403333D01*
X108324761Y-86546190D02*
X108372380Y-86641428D01*
X108372380Y-86831904D01*
X108324761Y-86927142D01*
X108229523Y-86974761D01*
X107848571Y-86974761D01*
X107753333Y-86927142D01*
X107705714Y-86831904D01*
X107705714Y-86641428D01*
X107753333Y-86546190D01*
X107848571Y-86498571D01*
X107943809Y-86498571D01*
X108039047Y-86974761D01*
X107705714Y-86070000D02*
X108372380Y-86070000D01*
X107800952Y-86070000D02*
X107753333Y-86022380D01*
X107705714Y-85927142D01*
X107705714Y-85784285D01*
X107753333Y-85689047D01*
X107848571Y-85641428D01*
X108372380Y-85641428D01*
X108372380Y-85165238D02*
X107372380Y-85165238D01*
X107991428Y-85070000D02*
X108372380Y-84784285D01*
X107705714Y-84784285D02*
X108086666Y-85165238D01*
X108372380Y-84212857D02*
X108324761Y-84308095D01*
X108277142Y-84355714D01*
X108181904Y-84403333D01*
X107896190Y-84403333D01*
X107800952Y-84355714D01*
X107753333Y-84308095D01*
X107705714Y-84212857D01*
X107705714Y-84070000D01*
X107753333Y-83974761D01*
X107800952Y-83927142D01*
X107896190Y-83879523D01*
X108181904Y-83879523D01*
X108277142Y-83927142D01*
X108324761Y-83974761D01*
X108372380Y-84070000D01*
X108372380Y-84212857D01*
X108372380Y-82689047D02*
X107372380Y-82689047D01*
X108372380Y-82117619D02*
X107800952Y-82546190D01*
X107372380Y-82117619D02*
X107943809Y-82689047D01*
X108277142Y-81689047D02*
X108324761Y-81641428D01*
X108372380Y-81689047D01*
X108324761Y-81736666D01*
X108277142Y-81689047D01*
X108372380Y-81689047D01*
X126833333Y-116832380D02*
X126833333Y-115832380D01*
X127214285Y-115832380D01*
X127309523Y-115880000D01*
X127357142Y-115927619D01*
X127404761Y-116022857D01*
X127404761Y-116165714D01*
X127357142Y-116260952D01*
X127309523Y-116308571D01*
X127214285Y-116356190D01*
X126833333Y-116356190D01*
X127785714Y-116546666D02*
X128261904Y-116546666D01*
X127690476Y-116832380D02*
X128023809Y-115832380D01*
X128357142Y-116832380D01*
X128880952Y-115832380D02*
X128976190Y-115832380D01*
X129071428Y-115880000D01*
X129119047Y-115927619D01*
X129166666Y-116022857D01*
X129214285Y-116213333D01*
X129214285Y-116451428D01*
X129166666Y-116641904D01*
X129119047Y-116737142D01*
X129071428Y-116784761D01*
X128976190Y-116832380D01*
X128880952Y-116832380D01*
X128785714Y-116784761D01*
X128738095Y-116737142D01*
X128690476Y-116641904D01*
X128642857Y-116451428D01*
X128642857Y-116213333D01*
X128690476Y-116022857D01*
X128738095Y-115927619D01*
X128785714Y-115880000D01*
X128880952Y-115832380D01*
X117278095Y-80130000D02*
X117182857Y-80082380D01*
X117040000Y-80082380D01*
X116897142Y-80130000D01*
X116801904Y-80225238D01*
X116754285Y-80320476D01*
X116706666Y-80510952D01*
X116706666Y-80653809D01*
X116754285Y-80844285D01*
X116801904Y-80939523D01*
X116897142Y-81034761D01*
X117040000Y-81082380D01*
X117135238Y-81082380D01*
X117278095Y-81034761D01*
X117325714Y-80987142D01*
X117325714Y-80653809D01*
X117135238Y-80653809D01*
X117754285Y-81082380D02*
X117754285Y-80082380D01*
X118325714Y-81082380D01*
X118325714Y-80082380D01*
X118801904Y-81082380D02*
X118801904Y-80082380D01*
X119040000Y-80082380D01*
X119182857Y-80130000D01*
X119278095Y-80225238D01*
X119325714Y-80320476D01*
X119373333Y-80510952D01*
X119373333Y-80653809D01*
X119325714Y-80844285D01*
X119278095Y-80939523D01*
X119182857Y-81034761D01*
X119040000Y-81082380D01*
X118801904Y-81082380D01*
X116694285Y-83291428D02*
X117456190Y-83291428D01*
X117075238Y-83672380D02*
X117075238Y-82910476D01*
X118408571Y-82672380D02*
X117932380Y-82672380D01*
X117884761Y-83148571D01*
X117932380Y-83100952D01*
X118027619Y-83053333D01*
X118265714Y-83053333D01*
X118360952Y-83100952D01*
X118408571Y-83148571D01*
X118456190Y-83243809D01*
X118456190Y-83481904D01*
X118408571Y-83577142D01*
X118360952Y-83624761D01*
X118265714Y-83672380D01*
X118027619Y-83672380D01*
X117932380Y-83624761D01*
X117884761Y-83577142D01*
X118741904Y-82672380D02*
X119075238Y-83672380D01*
X119408571Y-82672380D01*
X135072380Y-108976666D02*
X134072380Y-108976666D01*
X134072380Y-108595714D01*
X134120000Y-108500476D01*
X134167619Y-108452857D01*
X134262857Y-108405238D01*
X134405714Y-108405238D01*
X134500952Y-108452857D01*
X134548571Y-108500476D01*
X134596190Y-108595714D01*
X134596190Y-108976666D01*
X134786666Y-108024285D02*
X134786666Y-107548095D01*
X135072380Y-108119523D02*
X134072380Y-107786190D01*
X135072380Y-107452857D01*
X134072380Y-106643333D02*
X134072380Y-107119523D01*
X134548571Y-107167142D01*
X134500952Y-107119523D01*
X134453333Y-107024285D01*
X134453333Y-106786190D01*
X134500952Y-106690952D01*
X134548571Y-106643333D01*
X134643809Y-106595714D01*
X134881904Y-106595714D01*
X134977142Y-106643333D01*
X135024761Y-106690952D01*
X135072380Y-106786190D01*
X135072380Y-107024285D01*
X135024761Y-107119523D01*
X134977142Y-107167142D01*
X144230000Y-119781904D02*
X144182380Y-119877142D01*
X144182380Y-120020000D01*
X144230000Y-120162857D01*
X144325238Y-120258095D01*
X144420476Y-120305714D01*
X144610952Y-120353333D01*
X144753809Y-120353333D01*
X144944285Y-120305714D01*
X145039523Y-120258095D01*
X145134761Y-120162857D01*
X145182380Y-120020000D01*
X145182380Y-119924761D01*
X145134761Y-119781904D01*
X145087142Y-119734285D01*
X144753809Y-119734285D01*
X144753809Y-119924761D01*
X145182380Y-119305714D02*
X144182380Y-119305714D01*
X145182380Y-118734285D01*
X144182380Y-118734285D01*
X145182380Y-118258095D02*
X144182380Y-118258095D01*
X144182380Y-118020000D01*
X144230000Y-117877142D01*
X144325238Y-117781904D01*
X144420476Y-117734285D01*
X144610952Y-117686666D01*
X144753809Y-117686666D01*
X144944285Y-117734285D01*
X145039523Y-117781904D01*
X145134761Y-117877142D01*
X145182380Y-118020000D01*
X145182380Y-118258095D01*
X134962380Y-120226666D02*
X133962380Y-120226666D01*
X133962380Y-119845714D01*
X134010000Y-119750476D01*
X134057619Y-119702857D01*
X134152857Y-119655238D01*
X134295714Y-119655238D01*
X134390952Y-119702857D01*
X134438571Y-119750476D01*
X134486190Y-119845714D01*
X134486190Y-120226666D01*
X134676666Y-119274285D02*
X134676666Y-118798095D01*
X134962380Y-119369523D02*
X133962380Y-119036190D01*
X134962380Y-118702857D01*
X134295714Y-117940952D02*
X134962380Y-117940952D01*
X133914761Y-118179047D02*
X134629047Y-118417142D01*
X134629047Y-117798095D01*
X116234285Y-114232380D02*
X116234285Y-113232380D01*
X116805714Y-114232380D01*
X116805714Y-113232380D01*
X117853333Y-114137142D02*
X117805714Y-114184761D01*
X117662857Y-114232380D01*
X117567619Y-114232380D01*
X117424761Y-114184761D01*
X117329523Y-114089523D01*
X117281904Y-113994285D01*
X117234285Y-113803809D01*
X117234285Y-113660952D01*
X117281904Y-113470476D01*
X117329523Y-113375238D01*
X117424761Y-113280000D01*
X117567619Y-113232380D01*
X117662857Y-113232380D01*
X117805714Y-113280000D01*
X117853333Y-113327619D01*
X128738095Y-77510000D02*
X128642857Y-77462380D01*
X128500000Y-77462380D01*
X128357142Y-77510000D01*
X128261904Y-77605238D01*
X128214285Y-77700476D01*
X128166666Y-77890952D01*
X128166666Y-78033809D01*
X128214285Y-78224285D01*
X128261904Y-78319523D01*
X128357142Y-78414761D01*
X128500000Y-78462380D01*
X128595238Y-78462380D01*
X128738095Y-78414761D01*
X128785714Y-78367142D01*
X128785714Y-78033809D01*
X128595238Y-78033809D01*
X129214285Y-78462380D02*
X129214285Y-77462380D01*
X129785714Y-78462380D01*
X129785714Y-77462380D01*
X130261904Y-78462380D02*
X130261904Y-77462380D01*
X130500000Y-77462380D01*
X130642857Y-77510000D01*
X130738095Y-77605238D01*
X130785714Y-77700476D01*
X130833333Y-77890952D01*
X130833333Y-78033809D01*
X130785714Y-78224285D01*
X130738095Y-78319523D01*
X130642857Y-78414761D01*
X130500000Y-78462380D01*
X130261904Y-78462380D01*
X137572380Y-108976666D02*
X136572380Y-108976666D01*
X136572380Y-108595714D01*
X136620000Y-108500476D01*
X136667619Y-108452857D01*
X136762857Y-108405238D01*
X136905714Y-108405238D01*
X137000952Y-108452857D01*
X137048571Y-108500476D01*
X137096190Y-108595714D01*
X137096190Y-108976666D01*
X137286666Y-108024285D02*
X137286666Y-107548095D01*
X137572380Y-108119523D02*
X136572380Y-107786190D01*
X137572380Y-107452857D01*
X136572380Y-107214761D02*
X136572380Y-106548095D01*
X137572380Y-106976666D01*
X143988095Y-107690000D02*
X143892857Y-107642380D01*
X143750000Y-107642380D01*
X143607142Y-107690000D01*
X143511904Y-107785238D01*
X143464285Y-107880476D01*
X143416666Y-108070952D01*
X143416666Y-108213809D01*
X143464285Y-108404285D01*
X143511904Y-108499523D01*
X143607142Y-108594761D01*
X143750000Y-108642380D01*
X143845238Y-108642380D01*
X143988095Y-108594761D01*
X144035714Y-108547142D01*
X144035714Y-108213809D01*
X143845238Y-108213809D01*
X144464285Y-108642380D02*
X144464285Y-107642380D01*
X145035714Y-108642380D01*
X145035714Y-107642380D01*
X145511904Y-108642380D02*
X145511904Y-107642380D01*
X145750000Y-107642380D01*
X145892857Y-107690000D01*
X145988095Y-107785238D01*
X146035714Y-107880476D01*
X146083333Y-108070952D01*
X146083333Y-108213809D01*
X146035714Y-108404285D01*
X145988095Y-108499523D01*
X145892857Y-108594761D01*
X145750000Y-108642380D01*
X145511904Y-108642380D01*
X140132380Y-120298095D02*
X139132380Y-120298095D01*
X139132380Y-119917142D01*
X139180000Y-119821904D01*
X139227619Y-119774285D01*
X139322857Y-119726666D01*
X139465714Y-119726666D01*
X139560952Y-119774285D01*
X139608571Y-119821904D01*
X139656190Y-119917142D01*
X139656190Y-120298095D01*
X139608571Y-118964761D02*
X139656190Y-118821904D01*
X139703809Y-118774285D01*
X139799047Y-118726666D01*
X139941904Y-118726666D01*
X140037142Y-118774285D01*
X140084761Y-118821904D01*
X140132380Y-118917142D01*
X140132380Y-119298095D01*
X139132380Y-119298095D01*
X139132380Y-118964761D01*
X139180000Y-118869523D01*
X139227619Y-118821904D01*
X139322857Y-118774285D01*
X139418095Y-118774285D01*
X139513333Y-118821904D01*
X139560952Y-118869523D01*
X139608571Y-118964761D01*
X139608571Y-119298095D01*
X139132380Y-118107619D02*
X139132380Y-118012380D01*
X139180000Y-117917142D01*
X139227619Y-117869523D01*
X139322857Y-117821904D01*
X139513333Y-117774285D01*
X139751428Y-117774285D01*
X139941904Y-117821904D01*
X140037142Y-117869523D01*
X140084761Y-117917142D01*
X140132380Y-118012380D01*
X140132380Y-118107619D01*
X140084761Y-118202857D01*
X140037142Y-118250476D01*
X139941904Y-118298095D01*
X139751428Y-118345714D01*
X139513333Y-118345714D01*
X139322857Y-118298095D01*
X139227619Y-118250476D01*
X139180000Y-118202857D01*
X139132380Y-118107619D01*
X128157142Y-82642380D02*
X128490476Y-83642380D01*
X128823809Y-82642380D01*
X129490476Y-83118571D02*
X129633333Y-83166190D01*
X129680952Y-83213809D01*
X129728571Y-83309047D01*
X129728571Y-83451904D01*
X129680952Y-83547142D01*
X129633333Y-83594761D01*
X129538095Y-83642380D01*
X129157142Y-83642380D01*
X129157142Y-82642380D01*
X129490476Y-82642380D01*
X129585714Y-82690000D01*
X129633333Y-82737619D01*
X129680952Y-82832857D01*
X129680952Y-82928095D01*
X129633333Y-83023333D01*
X129585714Y-83070952D01*
X129490476Y-83118571D01*
X129157142Y-83118571D01*
X130109523Y-83356666D02*
X130585714Y-83356666D01*
X130014285Y-83642380D02*
X130347619Y-82642380D01*
X130680952Y-83642380D01*
X130871428Y-82642380D02*
X131442857Y-82642380D01*
X131157142Y-83642380D02*
X131157142Y-82642380D01*
X155738095Y-99752380D02*
X156309523Y-99752380D01*
X156023809Y-100752380D02*
X156023809Y-99752380D01*
X156547619Y-99752380D02*
X157214285Y-100752380D01*
X157214285Y-99752380D02*
X156547619Y-100752380D01*
X144533333Y-101352380D02*
X144200000Y-100876190D01*
X143961904Y-101352380D02*
X143961904Y-100352380D01*
X144342857Y-100352380D01*
X144438095Y-100400000D01*
X144485714Y-100447619D01*
X144533333Y-100542857D01*
X144533333Y-100685714D01*
X144485714Y-100780952D01*
X144438095Y-100828571D01*
X144342857Y-100876190D01*
X143961904Y-100876190D01*
X144866666Y-100352380D02*
X145533333Y-101352380D01*
X145533333Y-100352380D02*
X144866666Y-101352380D01*
X128738095Y-80130000D02*
X128642857Y-80082380D01*
X128500000Y-80082380D01*
X128357142Y-80130000D01*
X128261904Y-80225238D01*
X128214285Y-80320476D01*
X128166666Y-80510952D01*
X128166666Y-80653809D01*
X128214285Y-80844285D01*
X128261904Y-80939523D01*
X128357142Y-81034761D01*
X128500000Y-81082380D01*
X128595238Y-81082380D01*
X128738095Y-81034761D01*
X128785714Y-80987142D01*
X128785714Y-80653809D01*
X128595238Y-80653809D01*
X129214285Y-81082380D02*
X129214285Y-80082380D01*
X129785714Y-81082380D01*
X129785714Y-80082380D01*
X130261904Y-81082380D02*
X130261904Y-80082380D01*
X130500000Y-80082380D01*
X130642857Y-80130000D01*
X130738095Y-80225238D01*
X130785714Y-80320476D01*
X130833333Y-80510952D01*
X130833333Y-80653809D01*
X130785714Y-80844285D01*
X130738095Y-80939523D01*
X130642857Y-81034761D01*
X130500000Y-81082380D01*
X130261904Y-81082380D01*
X115898095Y-110760000D02*
X115802857Y-110712380D01*
X115660000Y-110712380D01*
X115517142Y-110760000D01*
X115421904Y-110855238D01*
X115374285Y-110950476D01*
X115326666Y-111140952D01*
X115326666Y-111283809D01*
X115374285Y-111474285D01*
X115421904Y-111569523D01*
X115517142Y-111664761D01*
X115660000Y-111712380D01*
X115755238Y-111712380D01*
X115898095Y-111664761D01*
X115945714Y-111617142D01*
X115945714Y-111283809D01*
X115755238Y-111283809D01*
X116374285Y-111712380D02*
X116374285Y-110712380D01*
X116945714Y-111712380D01*
X116945714Y-110712380D01*
X117421904Y-111712380D02*
X117421904Y-110712380D01*
X117660000Y-110712380D01*
X117802857Y-110760000D01*
X117898095Y-110855238D01*
X117945714Y-110950476D01*
X117993333Y-111140952D01*
X117993333Y-111283809D01*
X117945714Y-111474285D01*
X117898095Y-111569523D01*
X117802857Y-111664761D01*
X117660000Y-111712380D01*
X117421904Y-111712380D01*
X144104761Y-99657142D02*
X144057142Y-99704761D01*
X143914285Y-99752380D01*
X143819047Y-99752380D01*
X143676190Y-99704761D01*
X143580952Y-99609523D01*
X143533333Y-99514285D01*
X143485714Y-99323809D01*
X143485714Y-99180952D01*
X143533333Y-98990476D01*
X143580952Y-98895238D01*
X143676190Y-98800000D01*
X143819047Y-98752380D01*
X143914285Y-98752380D01*
X144057142Y-98800000D01*
X144104761Y-98847619D01*
X145009523Y-99752380D02*
X144533333Y-99752380D01*
X144533333Y-98752380D01*
X145342857Y-99752380D02*
X145342857Y-98752380D01*
X145914285Y-99752380D02*
X145485714Y-99180952D01*
X145914285Y-98752380D02*
X145342857Y-99323809D01*
X117258095Y-77550000D02*
X117162857Y-77502380D01*
X117020000Y-77502380D01*
X116877142Y-77550000D01*
X116781904Y-77645238D01*
X116734285Y-77740476D01*
X116686666Y-77930952D01*
X116686666Y-78073809D01*
X116734285Y-78264285D01*
X116781904Y-78359523D01*
X116877142Y-78454761D01*
X117020000Y-78502380D01*
X117115238Y-78502380D01*
X117258095Y-78454761D01*
X117305714Y-78407142D01*
X117305714Y-78073809D01*
X117115238Y-78073809D01*
X117734285Y-78502380D02*
X117734285Y-77502380D01*
X118305714Y-78502380D01*
X118305714Y-77502380D01*
X118781904Y-78502380D02*
X118781904Y-77502380D01*
X119020000Y-77502380D01*
X119162857Y-77550000D01*
X119258095Y-77645238D01*
X119305714Y-77740476D01*
X119353333Y-77930952D01*
X119353333Y-78073809D01*
X119305714Y-78264285D01*
X119258095Y-78359523D01*
X119162857Y-78454761D01*
X119020000Y-78502380D01*
X118781904Y-78502380D01*
X156428571Y-92638095D02*
X156428571Y-93400000D01*
X156047619Y-93019047D02*
X156809523Y-93019047D01*
X157047619Y-93780952D02*
X157047619Y-94400000D01*
X156666666Y-94066666D01*
X156666666Y-94209523D01*
X156619047Y-94304761D01*
X156571428Y-94352380D01*
X156476190Y-94400000D01*
X156238095Y-94400000D01*
X156142857Y-94352380D01*
X156095238Y-94304761D01*
X156047619Y-94209523D01*
X156047619Y-93923809D01*
X156095238Y-93828571D01*
X156142857Y-93780952D01*
X157047619Y-94685714D02*
X156047619Y-95019047D01*
X157047619Y-95352380D01*
X157047619Y-95590476D02*
X157047619Y-96209523D01*
X156666666Y-95876190D01*
X156666666Y-96019047D01*
X156619047Y-96114285D01*
X156571428Y-96161904D01*
X156476190Y-96209523D01*
X156238095Y-96209523D01*
X156142857Y-96161904D01*
X156095238Y-96114285D01*
X156047619Y-96019047D01*
X156047619Y-95733333D01*
X156095238Y-95638095D01*
X156142857Y-95590476D01*
X137582380Y-120316666D02*
X136582380Y-120316666D01*
X136582380Y-119935714D01*
X136630000Y-119840476D01*
X136677619Y-119792857D01*
X136772857Y-119745238D01*
X136915714Y-119745238D01*
X137010952Y-119792857D01*
X137058571Y-119840476D01*
X137106190Y-119935714D01*
X137106190Y-120316666D01*
X137296666Y-119364285D02*
X137296666Y-118888095D01*
X137582380Y-119459523D02*
X136582380Y-119126190D01*
X137582380Y-118792857D01*
X136582380Y-118554761D02*
X136582380Y-117935714D01*
X136963333Y-118269047D01*
X136963333Y-118126190D01*
X137010952Y-118030952D01*
X137058571Y-117983333D01*
X137153809Y-117935714D01*
X137391904Y-117935714D01*
X137487142Y-117983333D01*
X137534761Y-118030952D01*
X137582380Y-118126190D01*
X137582380Y-118411904D01*
X137534761Y-118507142D01*
X137487142Y-118554761D01*
X115613333Y-116752380D02*
X115613333Y-115752380D01*
X115994285Y-115752380D01*
X116089523Y-115800000D01*
X116137142Y-115847619D01*
X116184761Y-115942857D01*
X116184761Y-116085714D01*
X116137142Y-116180952D01*
X116089523Y-116228571D01*
X115994285Y-116276190D01*
X115613333Y-116276190D01*
X116565714Y-116466666D02*
X117041904Y-116466666D01*
X116470476Y-116752380D02*
X116803809Y-115752380D01*
X117137142Y-116752380D01*
X117994285Y-116752380D02*
X117422857Y-116752380D01*
X117708571Y-116752380D02*
X117708571Y-115752380D01*
X117613333Y-115895238D01*
X117518095Y-115990476D01*
X117422857Y-116038095D01*
X142642380Y-120328095D02*
X141642380Y-120328095D01*
X141642380Y-119947142D01*
X141690000Y-119851904D01*
X141737619Y-119804285D01*
X141832857Y-119756666D01*
X141975714Y-119756666D01*
X142070952Y-119804285D01*
X142118571Y-119851904D01*
X142166190Y-119947142D01*
X142166190Y-120328095D01*
X142118571Y-118994761D02*
X142166190Y-118851904D01*
X142213809Y-118804285D01*
X142309047Y-118756666D01*
X142451904Y-118756666D01*
X142547142Y-118804285D01*
X142594761Y-118851904D01*
X142642380Y-118947142D01*
X142642380Y-119328095D01*
X141642380Y-119328095D01*
X141642380Y-118994761D01*
X141690000Y-118899523D01*
X141737619Y-118851904D01*
X141832857Y-118804285D01*
X141928095Y-118804285D01*
X142023333Y-118851904D01*
X142070952Y-118899523D01*
X142118571Y-118994761D01*
X142118571Y-119328095D01*
X141737619Y-118375714D02*
X141690000Y-118328095D01*
X141642380Y-118232857D01*
X141642380Y-117994761D01*
X141690000Y-117899523D01*
X141737619Y-117851904D01*
X141832857Y-117804285D01*
X141928095Y-117804285D01*
X142070952Y-117851904D01*
X142642380Y-118423333D01*
X142642380Y-117804285D01*
X127408095Y-110750000D02*
X127312857Y-110702380D01*
X127170000Y-110702380D01*
X127027142Y-110750000D01*
X126931904Y-110845238D01*
X126884285Y-110940476D01*
X126836666Y-111130952D01*
X126836666Y-111273809D01*
X126884285Y-111464285D01*
X126931904Y-111559523D01*
X127027142Y-111654761D01*
X127170000Y-111702380D01*
X127265238Y-111702380D01*
X127408095Y-111654761D01*
X127455714Y-111607142D01*
X127455714Y-111273809D01*
X127265238Y-111273809D01*
X127884285Y-111702380D02*
X127884285Y-110702380D01*
X128455714Y-111702380D01*
X128455714Y-110702380D01*
X128931904Y-111702380D02*
X128931904Y-110702380D01*
X129170000Y-110702380D01*
X129312857Y-110750000D01*
X129408095Y-110845238D01*
X129455714Y-110940476D01*
X129503333Y-111130952D01*
X129503333Y-111273809D01*
X129455714Y-111464285D01*
X129408095Y-111559523D01*
X129312857Y-111654761D01*
X129170000Y-111702380D01*
X128931904Y-111702380D01*
X146038095Y-92900000D02*
X145942857Y-92852380D01*
X145800000Y-92852380D01*
X145657142Y-92900000D01*
X145561904Y-92995238D01*
X145514285Y-93090476D01*
X145466666Y-93280952D01*
X145466666Y-93423809D01*
X145514285Y-93614285D01*
X145561904Y-93709523D01*
X145657142Y-93804761D01*
X145800000Y-93852380D01*
X145895238Y-93852380D01*
X146038095Y-93804761D01*
X146085714Y-93757142D01*
X146085714Y-93423809D01*
X145895238Y-93423809D01*
X146514285Y-93852380D02*
X146514285Y-92852380D01*
X147085714Y-93852380D01*
X147085714Y-92852380D01*
X147561904Y-93852380D02*
X147561904Y-92852380D01*
X147800000Y-92852380D01*
X147942857Y-92900000D01*
X148038095Y-92995238D01*
X148085714Y-93090476D01*
X148133333Y-93280952D01*
X148133333Y-93423809D01*
X148085714Y-93614285D01*
X148038095Y-93709523D01*
X147942857Y-93804761D01*
X147800000Y-93852380D01*
X147561904Y-93852380D01*
X142662380Y-108994285D02*
X141662380Y-108994285D01*
X141662380Y-108613333D01*
X141710000Y-108518095D01*
X141757619Y-108470476D01*
X141852857Y-108422857D01*
X141995714Y-108422857D01*
X142090952Y-108470476D01*
X142138571Y-108518095D01*
X142186190Y-108613333D01*
X142186190Y-108994285D01*
X142138571Y-107660952D02*
X142186190Y-107518095D01*
X142233809Y-107470476D01*
X142329047Y-107422857D01*
X142471904Y-107422857D01*
X142567142Y-107470476D01*
X142614761Y-107518095D01*
X142662380Y-107613333D01*
X142662380Y-107994285D01*
X141662380Y-107994285D01*
X141662380Y-107660952D01*
X141710000Y-107565714D01*
X141757619Y-107518095D01*
X141852857Y-107470476D01*
X141948095Y-107470476D01*
X142043333Y-107518095D01*
X142090952Y-107565714D01*
X142138571Y-107660952D01*
X142138571Y-107994285D01*
X142662380Y-106470476D02*
X142662380Y-107041904D01*
X142662380Y-106756190D02*
X141662380Y-106756190D01*
X141805238Y-106851428D01*
X141900476Y-106946666D01*
X141948095Y-107041904D01*
X141662380Y-105851428D02*
X141662380Y-105756190D01*
X141710000Y-105660952D01*
X141757619Y-105613333D01*
X141852857Y-105565714D01*
X142043333Y-105518095D01*
X142281428Y-105518095D01*
X142471904Y-105565714D01*
X142567142Y-105613333D01*
X142614761Y-105660952D01*
X142662380Y-105756190D01*
X142662380Y-105851428D01*
X142614761Y-105946666D01*
X142567142Y-105994285D01*
X142471904Y-106041904D01*
X142281428Y-106089523D01*
X142043333Y-106089523D01*
X141852857Y-106041904D01*
X141757619Y-105994285D01*
X141710000Y-105946666D01*
X141662380Y-105851428D01*
X126874285Y-114182380D02*
X126874285Y-113182380D01*
X127445714Y-114182380D01*
X127445714Y-113182380D01*
X128493333Y-114087142D02*
X128445714Y-114134761D01*
X128302857Y-114182380D01*
X128207619Y-114182380D01*
X128064761Y-114134761D01*
X127969523Y-114039523D01*
X127921904Y-113944285D01*
X127874285Y-113753809D01*
X127874285Y-113610952D01*
X127921904Y-113420476D01*
X127969523Y-113325238D01*
X128064761Y-113230000D01*
X128207619Y-113182380D01*
X128302857Y-113182380D01*
X128445714Y-113230000D01*
X128493333Y-113277619D01*
X158436666Y-83132380D02*
X158436666Y-82132380D01*
X158436666Y-82608571D02*
X159008095Y-82608571D01*
X159008095Y-83132380D02*
X159008095Y-82132380D01*
X159341428Y-82132380D02*
X159674761Y-83132380D01*
X160008095Y-82132380D01*
X160341428Y-82751428D02*
X161103333Y-82751428D01*
X160722380Y-83132380D02*
X160722380Y-82370476D01*
X140072380Y-109028095D02*
X139072380Y-109028095D01*
X139072380Y-108647142D01*
X139120000Y-108551904D01*
X139167619Y-108504285D01*
X139262857Y-108456666D01*
X139405714Y-108456666D01*
X139500952Y-108504285D01*
X139548571Y-108551904D01*
X139596190Y-108647142D01*
X139596190Y-109028095D01*
X139548571Y-107694761D02*
X139596190Y-107551904D01*
X139643809Y-107504285D01*
X139739047Y-107456666D01*
X139881904Y-107456666D01*
X139977142Y-107504285D01*
X140024761Y-107551904D01*
X140072380Y-107647142D01*
X140072380Y-108028095D01*
X139072380Y-108028095D01*
X139072380Y-107694761D01*
X139120000Y-107599523D01*
X139167619Y-107551904D01*
X139262857Y-107504285D01*
X139358095Y-107504285D01*
X139453333Y-107551904D01*
X139500952Y-107599523D01*
X139548571Y-107694761D01*
X139548571Y-108028095D01*
X140072380Y-106504285D02*
X140072380Y-107075714D01*
X140072380Y-106790000D02*
X139072380Y-106790000D01*
X139215238Y-106885238D01*
X139310476Y-106980476D01*
X139358095Y-107075714D01*
X158818095Y-77130000D02*
X158722857Y-77082380D01*
X158580000Y-77082380D01*
X158437142Y-77130000D01*
X158341904Y-77225238D01*
X158294285Y-77320476D01*
X158246666Y-77510952D01*
X158246666Y-77653809D01*
X158294285Y-77844285D01*
X158341904Y-77939523D01*
X158437142Y-78034761D01*
X158580000Y-78082380D01*
X158675238Y-78082380D01*
X158818095Y-78034761D01*
X158865714Y-77987142D01*
X158865714Y-77653809D01*
X158675238Y-77653809D01*
X159294285Y-78082380D02*
X159294285Y-77082380D01*
X159865714Y-78082380D01*
X159865714Y-77082380D01*
X160341904Y-78082380D02*
X160341904Y-77082380D01*
X160580000Y-77082380D01*
X160722857Y-77130000D01*
X160818095Y-77225238D01*
X160865714Y-77320476D01*
X160913333Y-77510952D01*
X160913333Y-77653809D01*
X160865714Y-77844285D01*
X160818095Y-77939523D01*
X160722857Y-78034761D01*
X160580000Y-78082380D01*
X160341904Y-78082380D01*
X155976190Y-98152380D02*
X155976190Y-97152380D01*
X156642857Y-97152380D02*
X156833333Y-97152380D01*
X156928571Y-97200000D01*
X157023809Y-97295238D01*
X157071428Y-97485714D01*
X157071428Y-97819047D01*
X157023809Y-98009523D01*
X156928571Y-98104761D01*
X156833333Y-98152380D01*
X156642857Y-98152380D01*
X156547619Y-98104761D01*
X156452380Y-98009523D01*
X156404761Y-97819047D01*
X156404761Y-97485714D01*
X156452380Y-97295238D01*
X156547619Y-97200000D01*
X156642857Y-97152380D01*
X125266190Y-100996190D02*
X125742380Y-100996190D01*
X124742380Y-101329523D02*
X125266190Y-100996190D01*
X124742380Y-100662857D01*
X125742380Y-99805714D02*
X125742380Y-100377142D01*
X125742380Y-100091428D02*
X124742380Y-100091428D01*
X124885238Y-100186666D01*
X124980476Y-100281904D01*
X125028095Y-100377142D01*
X128876190Y-97021190D02*
X129352380Y-97021190D01*
X128352380Y-97354523D02*
X128876190Y-97021190D01*
X128352380Y-96687857D01*
X128447619Y-96402142D02*
X128400000Y-96354523D01*
X128352380Y-96259285D01*
X128352380Y-96021190D01*
X128400000Y-95925952D01*
X128447619Y-95878333D01*
X128542857Y-95830714D01*
X128638095Y-95830714D01*
X128780952Y-95878333D01*
X129352380Y-96449761D01*
X129352380Y-95830714D01*
X115947142Y-97519166D02*
X115994761Y-97566785D01*
X116042380Y-97709642D01*
X116042380Y-97804880D01*
X115994761Y-97947738D01*
X115899523Y-98042976D01*
X115804285Y-98090595D01*
X115613809Y-98138214D01*
X115470952Y-98138214D01*
X115280476Y-98090595D01*
X115185238Y-98042976D01*
X115090000Y-97947738D01*
X115042380Y-97804880D01*
X115042380Y-97709642D01*
X115090000Y-97566785D01*
X115137619Y-97519166D01*
X116042380Y-96566785D02*
X116042380Y-97138214D01*
X116042380Y-96852500D02*
X115042380Y-96852500D01*
X115185238Y-96947738D01*
X115280476Y-97042976D01*
X115328095Y-97138214D01*
X119627142Y-103036666D02*
X119674761Y-103084285D01*
X119722380Y-103227142D01*
X119722380Y-103322380D01*
X119674761Y-103465238D01*
X119579523Y-103560476D01*
X119484285Y-103608095D01*
X119293809Y-103655714D01*
X119150952Y-103655714D01*
X118960476Y-103608095D01*
X118865238Y-103560476D01*
X118770000Y-103465238D01*
X118722380Y-103322380D01*
X118722380Y-103227142D01*
X118770000Y-103084285D01*
X118817619Y-103036666D01*
X118817619Y-102655714D02*
X118770000Y-102608095D01*
X118722380Y-102512857D01*
X118722380Y-102274761D01*
X118770000Y-102179523D01*
X118817619Y-102131904D01*
X118912857Y-102084285D01*
X119008095Y-102084285D01*
X119150952Y-102131904D01*
X119722380Y-102703333D01*
X119722380Y-102084285D01*
X125407142Y-91229166D02*
X125454761Y-91276785D01*
X125502380Y-91419642D01*
X125502380Y-91514880D01*
X125454761Y-91657738D01*
X125359523Y-91752976D01*
X125264285Y-91800595D01*
X125073809Y-91848214D01*
X124930952Y-91848214D01*
X124740476Y-91800595D01*
X124645238Y-91752976D01*
X124550000Y-91657738D01*
X124502380Y-91514880D01*
X124502380Y-91419642D01*
X124550000Y-91276785D01*
X124597619Y-91229166D01*
X124502380Y-90895833D02*
X124502380Y-90276785D01*
X124883333Y-90610119D01*
X124883333Y-90467261D01*
X124930952Y-90372023D01*
X124978571Y-90324404D01*
X125073809Y-90276785D01*
X125311904Y-90276785D01*
X125407142Y-90324404D01*
X125454761Y-90372023D01*
X125502380Y-90467261D01*
X125502380Y-90752976D01*
X125454761Y-90848214D01*
X125407142Y-90895833D01*
X122947142Y-91264166D02*
X122994761Y-91311785D01*
X123042380Y-91454642D01*
X123042380Y-91549880D01*
X122994761Y-91692738D01*
X122899523Y-91787976D01*
X122804285Y-91835595D01*
X122613809Y-91883214D01*
X122470952Y-91883214D01*
X122280476Y-91835595D01*
X122185238Y-91787976D01*
X122090000Y-91692738D01*
X122042380Y-91549880D01*
X122042380Y-91454642D01*
X122090000Y-91311785D01*
X122137619Y-91264166D01*
X122375714Y-90407023D02*
X123042380Y-90407023D01*
X121994761Y-90645119D02*
X122709047Y-90883214D01*
X122709047Y-90264166D01*
X112975833Y-85467142D02*
X112928214Y-85514761D01*
X112785357Y-85562380D01*
X112690119Y-85562380D01*
X112547261Y-85514761D01*
X112452023Y-85419523D01*
X112404404Y-85324285D01*
X112356785Y-85133809D01*
X112356785Y-84990952D01*
X112404404Y-84800476D01*
X112452023Y-84705238D01*
X112547261Y-84610000D01*
X112690119Y-84562380D01*
X112785357Y-84562380D01*
X112928214Y-84610000D01*
X112975833Y-84657619D01*
X113880595Y-84562380D02*
X113404404Y-84562380D01*
X113356785Y-85038571D01*
X113404404Y-84990952D01*
X113499642Y-84943333D01*
X113737738Y-84943333D01*
X113832976Y-84990952D01*
X113880595Y-85038571D01*
X113928214Y-85133809D01*
X113928214Y-85371904D01*
X113880595Y-85467142D01*
X113832976Y-85514761D01*
X113737738Y-85562380D01*
X113499642Y-85562380D01*
X113404404Y-85514761D01*
X113356785Y-85467142D01*
X158507142Y-91679166D02*
X158554761Y-91726785D01*
X158602380Y-91869642D01*
X158602380Y-91964880D01*
X158554761Y-92107738D01*
X158459523Y-92202976D01*
X158364285Y-92250595D01*
X158173809Y-92298214D01*
X158030952Y-92298214D01*
X157840476Y-92250595D01*
X157745238Y-92202976D01*
X157650000Y-92107738D01*
X157602380Y-91964880D01*
X157602380Y-91869642D01*
X157650000Y-91726785D01*
X157697619Y-91679166D01*
X157602380Y-90822023D02*
X157602380Y-91012500D01*
X157650000Y-91107738D01*
X157697619Y-91155357D01*
X157840476Y-91250595D01*
X158030952Y-91298214D01*
X158411904Y-91298214D01*
X158507142Y-91250595D01*
X158554761Y-91202976D01*
X158602380Y-91107738D01*
X158602380Y-90917261D01*
X158554761Y-90822023D01*
X158507142Y-90774404D01*
X158411904Y-90726785D01*
X158173809Y-90726785D01*
X158078571Y-90774404D01*
X158030952Y-90822023D01*
X157983333Y-90917261D01*
X157983333Y-91107738D01*
X158030952Y-91202976D01*
X158078571Y-91250595D01*
X158173809Y-91298214D01*
X131575833Y-96087142D02*
X131528214Y-96134761D01*
X131385357Y-96182380D01*
X131290119Y-96182380D01*
X131147261Y-96134761D01*
X131052023Y-96039523D01*
X131004404Y-95944285D01*
X130956785Y-95753809D01*
X130956785Y-95610952D01*
X131004404Y-95420476D01*
X131052023Y-95325238D01*
X131147261Y-95230000D01*
X131290119Y-95182380D01*
X131385357Y-95182380D01*
X131528214Y-95230000D01*
X131575833Y-95277619D01*
X131909166Y-95182380D02*
X132575833Y-95182380D01*
X132147261Y-96182380D01*
X133120833Y-93237142D02*
X133073214Y-93284761D01*
X132930357Y-93332380D01*
X132835119Y-93332380D01*
X132692261Y-93284761D01*
X132597023Y-93189523D01*
X132549404Y-93094285D01*
X132501785Y-92903809D01*
X132501785Y-92760952D01*
X132549404Y-92570476D01*
X132597023Y-92475238D01*
X132692261Y-92380000D01*
X132835119Y-92332380D01*
X132930357Y-92332380D01*
X133073214Y-92380000D01*
X133120833Y-92427619D01*
X133692261Y-92760952D02*
X133597023Y-92713333D01*
X133549404Y-92665714D01*
X133501785Y-92570476D01*
X133501785Y-92522857D01*
X133549404Y-92427619D01*
X133597023Y-92380000D01*
X133692261Y-92332380D01*
X133882738Y-92332380D01*
X133977976Y-92380000D01*
X134025595Y-92427619D01*
X134073214Y-92522857D01*
X134073214Y-92570476D01*
X134025595Y-92665714D01*
X133977976Y-92713333D01*
X133882738Y-92760952D01*
X133692261Y-92760952D01*
X133597023Y-92808571D01*
X133549404Y-92856190D01*
X133501785Y-92951428D01*
X133501785Y-93141904D01*
X133549404Y-93237142D01*
X133597023Y-93284761D01*
X133692261Y-93332380D01*
X133882738Y-93332380D01*
X133977976Y-93284761D01*
X134025595Y-93237142D01*
X134073214Y-93141904D01*
X134073214Y-92951428D01*
X134025595Y-92856190D01*
X133977976Y-92808571D01*
X133882738Y-92760952D01*
X108604761Y-105533333D02*
X108652380Y-105390476D01*
X108652380Y-105152380D01*
X108604761Y-105057142D01*
X108557142Y-105009523D01*
X108461904Y-104961904D01*
X108366666Y-104961904D01*
X108271428Y-105009523D01*
X108223809Y-105057142D01*
X108176190Y-105152380D01*
X108128571Y-105342857D01*
X108080952Y-105438095D01*
X108033333Y-105485714D01*
X107938095Y-105533333D01*
X107842857Y-105533333D01*
X107747619Y-105485714D01*
X107700000Y-105438095D01*
X107652380Y-105342857D01*
X107652380Y-105104761D01*
X107700000Y-104961904D01*
X107652380Y-104628571D02*
X108652380Y-104390476D01*
X107938095Y-104200000D01*
X108652380Y-104009523D01*
X107652380Y-103771428D01*
X108652380Y-102866666D02*
X108652380Y-103438095D01*
X108652380Y-103152380D02*
X107652380Y-103152380D01*
X107795238Y-103247619D01*
X107890476Y-103342857D01*
X107938095Y-103438095D01*
X143577142Y-105349166D02*
X143624761Y-105396785D01*
X143672380Y-105539642D01*
X143672380Y-105634880D01*
X143624761Y-105777738D01*
X143529523Y-105872976D01*
X143434285Y-105920595D01*
X143243809Y-105968214D01*
X143100952Y-105968214D01*
X142910476Y-105920595D01*
X142815238Y-105872976D01*
X142720000Y-105777738D01*
X142672380Y-105634880D01*
X142672380Y-105539642D01*
X142720000Y-105396785D01*
X142767619Y-105349166D01*
X143672380Y-104872976D02*
X143672380Y-104682500D01*
X143624761Y-104587261D01*
X143577142Y-104539642D01*
X143434285Y-104444404D01*
X143243809Y-104396785D01*
X142862857Y-104396785D01*
X142767619Y-104444404D01*
X142720000Y-104492023D01*
X142672380Y-104587261D01*
X142672380Y-104777738D01*
X142720000Y-104872976D01*
X142767619Y-104920595D01*
X142862857Y-104968214D01*
X143100952Y-104968214D01*
X143196190Y-104920595D01*
X143243809Y-104872976D01*
X143291428Y-104777738D01*
X143291428Y-104587261D01*
X143243809Y-104492023D01*
X143196190Y-104444404D01*
X143100952Y-104396785D01*
X145997142Y-96905357D02*
X146044761Y-96952976D01*
X146092380Y-97095833D01*
X146092380Y-97191071D01*
X146044761Y-97333928D01*
X145949523Y-97429166D01*
X145854285Y-97476785D01*
X145663809Y-97524404D01*
X145520952Y-97524404D01*
X145330476Y-97476785D01*
X145235238Y-97429166D01*
X145140000Y-97333928D01*
X145092380Y-97191071D01*
X145092380Y-97095833D01*
X145140000Y-96952976D01*
X145187619Y-96905357D01*
X146092380Y-95952976D02*
X146092380Y-96524404D01*
X146092380Y-96238690D02*
X145092380Y-96238690D01*
X145235238Y-96333928D01*
X145330476Y-96429166D01*
X145378095Y-96524404D01*
X145092380Y-95333928D02*
X145092380Y-95238690D01*
X145140000Y-95143452D01*
X145187619Y-95095833D01*
X145282857Y-95048214D01*
X145473333Y-95000595D01*
X145711428Y-95000595D01*
X145901904Y-95048214D01*
X145997142Y-95095833D01*
X146044761Y-95143452D01*
X146092380Y-95238690D01*
X146092380Y-95333928D01*
X146044761Y-95429166D01*
X145997142Y-95476785D01*
X145901904Y-95524404D01*
X145711428Y-95572023D01*
X145473333Y-95572023D01*
X145282857Y-95524404D01*
X145187619Y-95476785D01*
X145140000Y-95429166D01*
X145092380Y-95333928D01*
X129137142Y-104585357D02*
X129184761Y-104632976D01*
X129232380Y-104775833D01*
X129232380Y-104871071D01*
X129184761Y-105013928D01*
X129089523Y-105109166D01*
X128994285Y-105156785D01*
X128803809Y-105204404D01*
X128660952Y-105204404D01*
X128470476Y-105156785D01*
X128375238Y-105109166D01*
X128280000Y-105013928D01*
X128232380Y-104871071D01*
X128232380Y-104775833D01*
X128280000Y-104632976D01*
X128327619Y-104585357D01*
X129232380Y-103632976D02*
X129232380Y-104204404D01*
X129232380Y-103918690D02*
X128232380Y-103918690D01*
X128375238Y-104013928D01*
X128470476Y-104109166D01*
X128518095Y-104204404D01*
X129232380Y-102680595D02*
X129232380Y-103252023D01*
X129232380Y-102966309D02*
X128232380Y-102966309D01*
X128375238Y-103061547D01*
X128470476Y-103156785D01*
X128518095Y-103252023D01*
X181607142Y-87042857D02*
X181654761Y-87090476D01*
X181702380Y-87233333D01*
X181702380Y-87328571D01*
X181654761Y-87471428D01*
X181559523Y-87566666D01*
X181464285Y-87614285D01*
X181273809Y-87661904D01*
X181130952Y-87661904D01*
X180940476Y-87614285D01*
X180845238Y-87566666D01*
X180750000Y-87471428D01*
X180702380Y-87328571D01*
X180702380Y-87233333D01*
X180750000Y-87090476D01*
X180797619Y-87042857D01*
X181702380Y-86090476D02*
X181702380Y-86661904D01*
X181702380Y-86376190D02*
X180702380Y-86376190D01*
X180845238Y-86471428D01*
X180940476Y-86566666D01*
X180988095Y-86661904D01*
X180797619Y-85709523D02*
X180750000Y-85661904D01*
X180702380Y-85566666D01*
X180702380Y-85328571D01*
X180750000Y-85233333D01*
X180797619Y-85185714D01*
X180892857Y-85138095D01*
X180988095Y-85138095D01*
X181130952Y-85185714D01*
X181702380Y-85757142D01*
X181702380Y-85138095D01*
X131632380Y-113718333D02*
X132346666Y-113718333D01*
X132489523Y-113765952D01*
X132584761Y-113861190D01*
X132632380Y-114004047D01*
X132632380Y-114099285D01*
X132632380Y-112718333D02*
X132632380Y-113289761D01*
X132632380Y-113004047D02*
X131632380Y-113004047D01*
X131775238Y-113099285D01*
X131870476Y-113194523D01*
X131918095Y-113289761D01*
X123451666Y-84902380D02*
X123451666Y-85616666D01*
X123404047Y-85759523D01*
X123308809Y-85854761D01*
X123165952Y-85902380D01*
X123070714Y-85902380D01*
X123880238Y-84997619D02*
X123927857Y-84950000D01*
X124023095Y-84902380D01*
X124261190Y-84902380D01*
X124356428Y-84950000D01*
X124404047Y-84997619D01*
X124451666Y-85092857D01*
X124451666Y-85188095D01*
X124404047Y-85330952D01*
X123832619Y-85902380D01*
X124451666Y-85902380D01*
X122061666Y-118012380D02*
X122061666Y-118726666D01*
X122014047Y-118869523D01*
X121918809Y-118964761D01*
X121775952Y-119012380D01*
X121680714Y-119012380D01*
X122442619Y-118012380D02*
X123061666Y-118012380D01*
X122728333Y-118393333D01*
X122871190Y-118393333D01*
X122966428Y-118440952D01*
X123014047Y-118488571D01*
X123061666Y-118583809D01*
X123061666Y-118821904D01*
X123014047Y-118917142D01*
X122966428Y-118964761D01*
X122871190Y-119012380D01*
X122585476Y-119012380D01*
X122490238Y-118964761D01*
X122442619Y-118917142D01*
X150901666Y-102072380D02*
X150901666Y-102786666D01*
X150854047Y-102929523D01*
X150758809Y-103024761D01*
X150615952Y-103072380D01*
X150520714Y-103072380D01*
X151806428Y-102405714D02*
X151806428Y-103072380D01*
X151568333Y-102024761D02*
X151330238Y-102739047D01*
X151949285Y-102739047D01*
X165771666Y-84442380D02*
X165771666Y-85156666D01*
X165724047Y-85299523D01*
X165628809Y-85394761D01*
X165485952Y-85442380D01*
X165390714Y-85442380D01*
X166676428Y-84442380D02*
X166485952Y-84442380D01*
X166390714Y-84490000D01*
X166343095Y-84537619D01*
X166247857Y-84680476D01*
X166200238Y-84870952D01*
X166200238Y-85251904D01*
X166247857Y-85347142D01*
X166295476Y-85394761D01*
X166390714Y-85442380D01*
X166581190Y-85442380D01*
X166676428Y-85394761D01*
X166724047Y-85347142D01*
X166771666Y-85251904D01*
X166771666Y-85013809D01*
X166724047Y-84918571D01*
X166676428Y-84870952D01*
X166581190Y-84823333D01*
X166390714Y-84823333D01*
X166295476Y-84870952D01*
X166247857Y-84918571D01*
X166200238Y-85013809D01*
X116751665Y-67852380D02*
X116751665Y-68566666D01*
X116704046Y-68709523D01*
X116608808Y-68804761D01*
X116465951Y-68852380D01*
X116370713Y-68852380D01*
X117704046Y-67852380D02*
X117227856Y-67852380D01*
X117180237Y-68328571D01*
X117227856Y-68280952D01*
X117323094Y-68233333D01*
X117561189Y-68233333D01*
X117656427Y-68280952D01*
X117704046Y-68328571D01*
X117751665Y-68423809D01*
X117751665Y-68661904D01*
X117704046Y-68757142D01*
X117656427Y-68804761D01*
X117561189Y-68852380D01*
X117323094Y-68852380D01*
X117227856Y-68804761D01*
X117180237Y-68757142D01*
X186102380Y-90366666D02*
X186102380Y-90842857D01*
X185102380Y-90842857D01*
X186102380Y-89509523D02*
X186102380Y-90080952D01*
X186102380Y-89795238D02*
X185102380Y-89795238D01*
X185245238Y-89890476D01*
X185340476Y-89985714D01*
X185388095Y-90080952D01*
X176654761Y-107337619D02*
X176559523Y-107290000D01*
X176464285Y-107194761D01*
X176321428Y-107051904D01*
X176226190Y-107004285D01*
X176130952Y-107004285D01*
X176178571Y-107242380D02*
X176083333Y-107194761D01*
X175988095Y-107099523D01*
X175940476Y-106909047D01*
X175940476Y-106575714D01*
X175988095Y-106385238D01*
X176083333Y-106290000D01*
X176178571Y-106242380D01*
X176369047Y-106242380D01*
X176464285Y-106290000D01*
X176559523Y-106385238D01*
X176607142Y-106575714D01*
X176607142Y-106909047D01*
X176559523Y-107099523D01*
X176464285Y-107194761D01*
X176369047Y-107242380D01*
X176178571Y-107242380D01*
X177559523Y-107242380D02*
X176988095Y-107242380D01*
X177273809Y-107242380D02*
X177273809Y-106242380D01*
X177178571Y-106385238D01*
X177083333Y-106480476D01*
X176988095Y-106528095D01*
X137000833Y-92472380D02*
X136667500Y-91996190D01*
X136429404Y-92472380D02*
X136429404Y-91472380D01*
X136810357Y-91472380D01*
X136905595Y-91520000D01*
X136953214Y-91567619D01*
X137000833Y-91662857D01*
X137000833Y-91805714D01*
X136953214Y-91900952D01*
X136905595Y-91948571D01*
X136810357Y-91996190D01*
X136429404Y-91996190D01*
X137953214Y-92472380D02*
X137381785Y-92472380D01*
X137667500Y-92472380D02*
X137667500Y-91472380D01*
X137572261Y-91615238D01*
X137477023Y-91710476D01*
X137381785Y-91758095D01*
X112863333Y-108592380D02*
X112530000Y-108116190D01*
X112291904Y-108592380D02*
X112291904Y-107592380D01*
X112672857Y-107592380D01*
X112768095Y-107640000D01*
X112815714Y-107687619D01*
X112863333Y-107782857D01*
X112863333Y-107925714D01*
X112815714Y-108020952D01*
X112768095Y-108068571D01*
X112672857Y-108116190D01*
X112291904Y-108116190D01*
X113244285Y-107687619D02*
X113291904Y-107640000D01*
X113387142Y-107592380D01*
X113625238Y-107592380D01*
X113720476Y-107640000D01*
X113768095Y-107687619D01*
X113815714Y-107782857D01*
X113815714Y-107878095D01*
X113768095Y-108020952D01*
X113196666Y-108592380D01*
X113815714Y-108592380D01*
X128032380Y-87436666D02*
X127556190Y-87770000D01*
X128032380Y-88008095D02*
X127032380Y-88008095D01*
X127032380Y-87627142D01*
X127080000Y-87531904D01*
X127127619Y-87484285D01*
X127222857Y-87436666D01*
X127365714Y-87436666D01*
X127460952Y-87484285D01*
X127508571Y-87531904D01*
X127556190Y-87627142D01*
X127556190Y-88008095D01*
X127032380Y-87103333D02*
X127032380Y-86484285D01*
X127413333Y-86817619D01*
X127413333Y-86674761D01*
X127460952Y-86579523D01*
X127508571Y-86531904D01*
X127603809Y-86484285D01*
X127841904Y-86484285D01*
X127937142Y-86531904D01*
X127984761Y-86579523D01*
X128032380Y-86674761D01*
X128032380Y-86960476D01*
X127984761Y-87055714D01*
X127937142Y-87103333D01*
X119650833Y-68662380D02*
X119317500Y-68186190D01*
X119079404Y-68662380D02*
X119079404Y-67662380D01*
X119460357Y-67662380D01*
X119555595Y-67710000D01*
X119603214Y-67757619D01*
X119650833Y-67852857D01*
X119650833Y-67995714D01*
X119603214Y-68090952D01*
X119555595Y-68138571D01*
X119460357Y-68186190D01*
X119079404Y-68186190D01*
X120507976Y-67995714D02*
X120507976Y-68662380D01*
X120269880Y-67614761D02*
X120031785Y-68329047D01*
X120650833Y-68329047D01*
X113685833Y-72302380D02*
X113352500Y-71826190D01*
X113114404Y-72302380D02*
X113114404Y-71302380D01*
X113495357Y-71302380D01*
X113590595Y-71350000D01*
X113638214Y-71397619D01*
X113685833Y-71492857D01*
X113685833Y-71635714D01*
X113638214Y-71730952D01*
X113590595Y-71778571D01*
X113495357Y-71826190D01*
X113114404Y-71826190D01*
X114590595Y-71302380D02*
X114114404Y-71302380D01*
X114066785Y-71778571D01*
X114114404Y-71730952D01*
X114209642Y-71683333D01*
X114447738Y-71683333D01*
X114542976Y-71730952D01*
X114590595Y-71778571D01*
X114638214Y-71873809D01*
X114638214Y-72111904D01*
X114590595Y-72207142D01*
X114542976Y-72254761D01*
X114447738Y-72302380D01*
X114209642Y-72302380D01*
X114114404Y-72254761D01*
X114066785Y-72207142D01*
X165225833Y-112052380D02*
X164892500Y-111576190D01*
X164654404Y-112052380D02*
X164654404Y-111052380D01*
X165035357Y-111052380D01*
X165130595Y-111100000D01*
X165178214Y-111147619D01*
X165225833Y-111242857D01*
X165225833Y-111385714D01*
X165178214Y-111480952D01*
X165130595Y-111528571D01*
X165035357Y-111576190D01*
X164654404Y-111576190D01*
X166082976Y-111052380D02*
X165892500Y-111052380D01*
X165797261Y-111100000D01*
X165749642Y-111147619D01*
X165654404Y-111290476D01*
X165606785Y-111480952D01*
X165606785Y-111861904D01*
X165654404Y-111957142D01*
X165702023Y-112004761D01*
X165797261Y-112052380D01*
X165987738Y-112052380D01*
X166082976Y-112004761D01*
X166130595Y-111957142D01*
X166178214Y-111861904D01*
X166178214Y-111623809D01*
X166130595Y-111528571D01*
X166082976Y-111480952D01*
X165987738Y-111433333D01*
X165797261Y-111433333D01*
X165702023Y-111480952D01*
X165654404Y-111528571D01*
X165606785Y-111623809D01*
X171522380Y-111449166D02*
X171046190Y-111782500D01*
X171522380Y-112020595D02*
X170522380Y-112020595D01*
X170522380Y-111639642D01*
X170570000Y-111544404D01*
X170617619Y-111496785D01*
X170712857Y-111449166D01*
X170855714Y-111449166D01*
X170950952Y-111496785D01*
X170998571Y-111544404D01*
X171046190Y-111639642D01*
X171046190Y-112020595D01*
X170522380Y-111115833D02*
X170522380Y-110449166D01*
X171522380Y-110877738D01*
X190745833Y-89332380D02*
X190412500Y-88856190D01*
X190174404Y-89332380D02*
X190174404Y-88332380D01*
X190555357Y-88332380D01*
X190650595Y-88380000D01*
X190698214Y-88427619D01*
X190745833Y-88522857D01*
X190745833Y-88665714D01*
X190698214Y-88760952D01*
X190650595Y-88808571D01*
X190555357Y-88856190D01*
X190174404Y-88856190D01*
X191317261Y-88760952D02*
X191222023Y-88713333D01*
X191174404Y-88665714D01*
X191126785Y-88570476D01*
X191126785Y-88522857D01*
X191174404Y-88427619D01*
X191222023Y-88380000D01*
X191317261Y-88332380D01*
X191507738Y-88332380D01*
X191602976Y-88380000D01*
X191650595Y-88427619D01*
X191698214Y-88522857D01*
X191698214Y-88570476D01*
X191650595Y-88665714D01*
X191602976Y-88713333D01*
X191507738Y-88760952D01*
X191317261Y-88760952D01*
X191222023Y-88808571D01*
X191174404Y-88856190D01*
X191126785Y-88951428D01*
X191126785Y-89141904D01*
X191174404Y-89237142D01*
X191222023Y-89284761D01*
X191317261Y-89332380D01*
X191507738Y-89332380D01*
X191602976Y-89284761D01*
X191650595Y-89237142D01*
X191698214Y-89141904D01*
X191698214Y-88951428D01*
X191650595Y-88856190D01*
X191602976Y-88808571D01*
X191507738Y-88760952D01*
X117032380Y-90051904D02*
X117841904Y-90051904D01*
X117937142Y-90004285D01*
X117984761Y-89956666D01*
X118032380Y-89861428D01*
X118032380Y-89670952D01*
X117984761Y-89575714D01*
X117937142Y-89528095D01*
X117841904Y-89480476D01*
X117032380Y-89480476D01*
X118032380Y-88480476D02*
X118032380Y-89051904D01*
X118032380Y-88766190D02*
X117032380Y-88766190D01*
X117175238Y-88861428D01*
X117270476Y-88956666D01*
X117318095Y-89051904D01*
X131638095Y-96452380D02*
X131638095Y-97261904D01*
X131685714Y-97357142D01*
X131733333Y-97404761D01*
X131828571Y-97452380D01*
X132019047Y-97452380D01*
X132114285Y-97404761D01*
X132161904Y-97357142D01*
X132209523Y-97261904D01*
X132209523Y-96452380D01*
X132638095Y-96547619D02*
X132685714Y-96500000D01*
X132780952Y-96452380D01*
X133019047Y-96452380D01*
X133114285Y-96500000D01*
X133161904Y-96547619D01*
X133209523Y-96642857D01*
X133209523Y-96738095D01*
X133161904Y-96880952D01*
X132590476Y-97452380D01*
X133209523Y-97452380D01*
X190902380Y-103938095D02*
X189902380Y-103938095D01*
X189902380Y-103700000D01*
X189950000Y-103557142D01*
X190045238Y-103461904D01*
X190140476Y-103414285D01*
X190330952Y-103366666D01*
X190473809Y-103366666D01*
X190664285Y-103414285D01*
X190759523Y-103461904D01*
X190854761Y-103557142D01*
X190902380Y-103700000D01*
X190902380Y-103938095D01*
X190902380Y-102414285D02*
X190902380Y-102985714D01*
X190902380Y-102700000D02*
X189902380Y-102700000D01*
X190045238Y-102795238D01*
X190140476Y-102890476D01*
X190188095Y-102985714D01*
X191007142Y-87042857D02*
X191054761Y-87090476D01*
X191102380Y-87233333D01*
X191102380Y-87328571D01*
X191054761Y-87471428D01*
X190959523Y-87566666D01*
X190864285Y-87614285D01*
X190673809Y-87661904D01*
X190530952Y-87661904D01*
X190340476Y-87614285D01*
X190245238Y-87566666D01*
X190150000Y-87471428D01*
X190102380Y-87328571D01*
X190102380Y-87233333D01*
X190150000Y-87090476D01*
X190197619Y-87042857D01*
X191102380Y-86090476D02*
X191102380Y-86661904D01*
X191102380Y-86376190D02*
X190102380Y-86376190D01*
X190245238Y-86471428D01*
X190340476Y-86566666D01*
X190388095Y-86661904D01*
X190102380Y-85757142D02*
X190102380Y-85138095D01*
X190483333Y-85471428D01*
X190483333Y-85328571D01*
X190530952Y-85233333D01*
X190578571Y-85185714D01*
X190673809Y-85138095D01*
X190911904Y-85138095D01*
X191007142Y-85185714D01*
X191054761Y-85233333D01*
X191102380Y-85328571D01*
X191102380Y-85614285D01*
X191054761Y-85709523D01*
X191007142Y-85757142D01*
X127366666Y-67578571D02*
X127033333Y-67578571D01*
X127033333Y-68102380D02*
X127033333Y-67102380D01*
X127509523Y-67102380D01*
X128414285Y-68102380D02*
X127842857Y-68102380D01*
X128128571Y-68102380D02*
X128128571Y-67102380D01*
X128033333Y-67245238D01*
X127938095Y-67340476D01*
X127842857Y-67388095D01*
X148272380Y-106516666D02*
X147796190Y-106850000D01*
X148272380Y-107088095D02*
X147272380Y-107088095D01*
X147272380Y-106707142D01*
X147320000Y-106611904D01*
X147367619Y-106564285D01*
X147462857Y-106516666D01*
X147605714Y-106516666D01*
X147700952Y-106564285D01*
X147748571Y-106611904D01*
X147796190Y-106707142D01*
X147796190Y-107088095D01*
X148272380Y-106040476D02*
X148272380Y-105850000D01*
X148224761Y-105754761D01*
X148177142Y-105707142D01*
X148034285Y-105611904D01*
X147843809Y-105564285D01*
X147462857Y-105564285D01*
X147367619Y-105611904D01*
X147320000Y-105659523D01*
X147272380Y-105754761D01*
X147272380Y-105945238D01*
X147320000Y-106040476D01*
X147367619Y-106088095D01*
X147462857Y-106135714D01*
X147700952Y-106135714D01*
X147796190Y-106088095D01*
X147843809Y-106040476D01*
X147891428Y-105945238D01*
X147891428Y-105754761D01*
X147843809Y-105659523D01*
X147796190Y-105611904D01*
X147700952Y-105564285D01*
X171762380Y-97258095D02*
X170762380Y-97258095D01*
X170762380Y-97020000D01*
X170810000Y-96877142D01*
X170905238Y-96781904D01*
X171000476Y-96734285D01*
X171190952Y-96686666D01*
X171333809Y-96686666D01*
X171524285Y-96734285D01*
X171619523Y-96781904D01*
X171714761Y-96877142D01*
X171762380Y-97020000D01*
X171762380Y-97258095D01*
X170857619Y-96305714D02*
X170810000Y-96258095D01*
X170762380Y-96162857D01*
X170762380Y-95924761D01*
X170810000Y-95829523D01*
X170857619Y-95781904D01*
X170952857Y-95734285D01*
X171048095Y-95734285D01*
X171190952Y-95781904D01*
X171762380Y-96353333D01*
X171762380Y-95734285D01*
X160118095Y-94212380D02*
X160118095Y-95021904D01*
X160165714Y-95117142D01*
X160213333Y-95164761D01*
X160308571Y-95212380D01*
X160499047Y-95212380D01*
X160594285Y-95164761D01*
X160641904Y-95117142D01*
X160689523Y-95021904D01*
X160689523Y-94212380D01*
X161594285Y-94545714D02*
X161594285Y-95212380D01*
X161356190Y-94164761D02*
X161118095Y-94879047D01*
X161737142Y-94879047D01*
X163827142Y-92177142D02*
X163779523Y-92224761D01*
X163636666Y-92272380D01*
X163541428Y-92272380D01*
X163398571Y-92224761D01*
X163303333Y-92129523D01*
X163255714Y-92034285D01*
X163208095Y-91843809D01*
X163208095Y-91700952D01*
X163255714Y-91510476D01*
X163303333Y-91415238D01*
X163398571Y-91320000D01*
X163541428Y-91272380D01*
X163636666Y-91272380D01*
X163779523Y-91320000D01*
X163827142Y-91367619D01*
X164779523Y-92272380D02*
X164208095Y-92272380D01*
X164493809Y-92272380D02*
X164493809Y-91272380D01*
X164398571Y-91415238D01*
X164303333Y-91510476D01*
X164208095Y-91558095D01*
X165636666Y-91605714D02*
X165636666Y-92272380D01*
X165398571Y-91224761D02*
X165160476Y-91939047D01*
X165779523Y-91939047D01*
X157608095Y-106562380D02*
X157608095Y-107371904D01*
X157655714Y-107467142D01*
X157703333Y-107514761D01*
X157798571Y-107562380D01*
X157989047Y-107562380D01*
X158084285Y-107514761D01*
X158131904Y-107467142D01*
X158179523Y-107371904D01*
X158179523Y-106562380D01*
X158560476Y-106562380D02*
X159179523Y-106562380D01*
X158846190Y-106943333D01*
X158989047Y-106943333D01*
X159084285Y-106990952D01*
X159131904Y-107038571D01*
X159179523Y-107133809D01*
X159179523Y-107371904D01*
X159131904Y-107467142D01*
X159084285Y-107514761D01*
X158989047Y-107562380D01*
X158703333Y-107562380D01*
X158608095Y-107514761D01*
X158560476Y-107467142D01*
X159727142Y-103752857D02*
X159774761Y-103800476D01*
X159822380Y-103943333D01*
X159822380Y-104038571D01*
X159774761Y-104181428D01*
X159679523Y-104276666D01*
X159584285Y-104324285D01*
X159393809Y-104371904D01*
X159250952Y-104371904D01*
X159060476Y-104324285D01*
X158965238Y-104276666D01*
X158870000Y-104181428D01*
X158822380Y-104038571D01*
X158822380Y-103943333D01*
X158870000Y-103800476D01*
X158917619Y-103752857D01*
X159822380Y-102800476D02*
X159822380Y-103371904D01*
X159822380Y-103086190D02*
X158822380Y-103086190D01*
X158965238Y-103181428D01*
X159060476Y-103276666D01*
X159108095Y-103371904D01*
X158822380Y-101895714D02*
X158822380Y-102371904D01*
X159298571Y-102419523D01*
X159250952Y-102371904D01*
X159203333Y-102276666D01*
X159203333Y-102038571D01*
X159250952Y-101943333D01*
X159298571Y-101895714D01*
X159393809Y-101848095D01*
X159631904Y-101848095D01*
X159727142Y-101895714D01*
X159774761Y-101943333D01*
X159822380Y-102038571D01*
X159822380Y-102276666D01*
X159774761Y-102371904D01*
X159727142Y-102419523D01*
X151902380Y-106982857D02*
X151426190Y-107316190D01*
X151902380Y-107554285D02*
X150902380Y-107554285D01*
X150902380Y-107173333D01*
X150950000Y-107078095D01*
X150997619Y-107030476D01*
X151092857Y-106982857D01*
X151235714Y-106982857D01*
X151330952Y-107030476D01*
X151378571Y-107078095D01*
X151426190Y-107173333D01*
X151426190Y-107554285D01*
X151902380Y-106030476D02*
X151902380Y-106601904D01*
X151902380Y-106316190D02*
X150902380Y-106316190D01*
X151045238Y-106411428D01*
X151140476Y-106506666D01*
X151188095Y-106601904D01*
X150902380Y-105411428D02*
X150902380Y-105316190D01*
X150950000Y-105220952D01*
X150997619Y-105173333D01*
X151092857Y-105125714D01*
X151283333Y-105078095D01*
X151521428Y-105078095D01*
X151711904Y-105125714D01*
X151807142Y-105173333D01*
X151854761Y-105220952D01*
X151902380Y-105316190D01*
X151902380Y-105411428D01*
X151854761Y-105506666D01*
X151807142Y-105554285D01*
X151711904Y-105601904D01*
X151521428Y-105649523D01*
X151283333Y-105649523D01*
X151092857Y-105601904D01*
X150997619Y-105554285D01*
X150950000Y-105506666D01*
X150902380Y-105411428D01*
X139137142Y-66607142D02*
X139089523Y-66654761D01*
X138946666Y-66702380D01*
X138851428Y-66702380D01*
X138708571Y-66654761D01*
X138613333Y-66559523D01*
X138565714Y-66464285D01*
X138518095Y-66273809D01*
X138518095Y-66130952D01*
X138565714Y-65940476D01*
X138613333Y-65845238D01*
X138708571Y-65750000D01*
X138851428Y-65702380D01*
X138946666Y-65702380D01*
X139089523Y-65750000D01*
X139137142Y-65797619D01*
X140089523Y-66702380D02*
X139518095Y-66702380D01*
X139803809Y-66702380D02*
X139803809Y-65702380D01*
X139708571Y-65845238D01*
X139613333Y-65940476D01*
X139518095Y-65988095D01*
X140422857Y-65702380D02*
X141089523Y-65702380D01*
X140660952Y-66702380D01*
X163359642Y-104487142D02*
X163312023Y-104534761D01*
X163169166Y-104582380D01*
X163073928Y-104582380D01*
X162931071Y-104534761D01*
X162835833Y-104439523D01*
X162788214Y-104344285D01*
X162740595Y-104153809D01*
X162740595Y-104010952D01*
X162788214Y-103820476D01*
X162835833Y-103725238D01*
X162931071Y-103630000D01*
X163073928Y-103582380D01*
X163169166Y-103582380D01*
X163312023Y-103630000D01*
X163359642Y-103677619D01*
X164312023Y-104582380D02*
X163740595Y-104582380D01*
X164026309Y-104582380D02*
X164026309Y-103582380D01*
X163931071Y-103725238D01*
X163835833Y-103820476D01*
X163740595Y-103868095D01*
X165169166Y-103582380D02*
X164978690Y-103582380D01*
X164883452Y-103630000D01*
X164835833Y-103677619D01*
X164740595Y-103820476D01*
X164692976Y-104010952D01*
X164692976Y-104391904D01*
X164740595Y-104487142D01*
X164788214Y-104534761D01*
X164883452Y-104582380D01*
X165073928Y-104582380D01*
X165169166Y-104534761D01*
X165216785Y-104487142D01*
X165264404Y-104391904D01*
X165264404Y-104153809D01*
X165216785Y-104058571D01*
X165169166Y-104010952D01*
X165073928Y-103963333D01*
X164883452Y-103963333D01*
X164788214Y-104010952D01*
X164740595Y-104058571D01*
X164692976Y-104153809D01*
X171852380Y-101718095D02*
X170852380Y-101718095D01*
X170852380Y-101480000D01*
X170900000Y-101337142D01*
X170995238Y-101241904D01*
X171090476Y-101194285D01*
X171280952Y-101146666D01*
X171423809Y-101146666D01*
X171614285Y-101194285D01*
X171709523Y-101241904D01*
X171804761Y-101337142D01*
X171852380Y-101480000D01*
X171852380Y-101718095D01*
X170852380Y-100813333D02*
X170852380Y-100194285D01*
X171233333Y-100527619D01*
X171233333Y-100384761D01*
X171280952Y-100289523D01*
X171328571Y-100241904D01*
X171423809Y-100194285D01*
X171661904Y-100194285D01*
X171757142Y-100241904D01*
X171804761Y-100289523D01*
X171852380Y-100384761D01*
X171852380Y-100670476D01*
X171804761Y-100765714D01*
X171757142Y-100813333D01*
D11*
X124290000Y-106420000D02*
X124290000Y-93820000D01*
X119190000Y-93820000D02*
X119190000Y-106420000D01*
X124290000Y-93820000D02*
X119190000Y-93820000D01*
X127850000Y-93845000D02*
X126050000Y-93845000D01*
X126000000Y-95995000D02*
X126000000Y-97095000D01*
X127900000Y-95995000D02*
X127900000Y-97095000D01*
X118350000Y-98063752D02*
X118350000Y-96641248D01*
X116530000Y-98063752D02*
X116530000Y-96641248D01*
X118330000Y-102158748D02*
X118330000Y-103581252D01*
X116510000Y-102158748D02*
X116510000Y-103581252D01*
X125990000Y-91773752D02*
X125990000Y-90351248D01*
X127810000Y-91773752D02*
X127810000Y-90351248D01*
X125350000Y-91808752D02*
X125350000Y-90386248D01*
X123530000Y-91808752D02*
X123530000Y-90386248D01*
X113853752Y-84170000D02*
X112431248Y-84170000D01*
X113853752Y-82350000D02*
X112431248Y-82350000D01*
X159090000Y-92223752D02*
X159090000Y-90801248D01*
X160910000Y-92223752D02*
X160910000Y-90801248D01*
X132453752Y-94790000D02*
X131031248Y-94790000D01*
X132453752Y-92970000D02*
X131031248Y-92970000D01*
X133998752Y-90120000D02*
X132576248Y-90120000D01*
X133998752Y-91940000D02*
X132576248Y-91940000D01*
X115430000Y-96765000D02*
X115430000Y-103225000D01*
X115430000Y-103225000D02*
X115400000Y-103225000D01*
X108970000Y-103225000D02*
X109000000Y-103225000D01*
X113500000Y-103225000D02*
X110900000Y-103225000D01*
X108970000Y-96765000D02*
X109000000Y-96765000D01*
X115400000Y-96765000D02*
X115430000Y-96765000D01*
X108970000Y-96765000D02*
X108970000Y-103225000D01*
X113500000Y-96765000D02*
X110900000Y-96765000D01*
X144160000Y-105893752D02*
X144160000Y-104471248D01*
X145980000Y-105893752D02*
X145980000Y-104471248D01*
X144700000Y-95551248D02*
X144700000Y-96973752D01*
X142880000Y-95551248D02*
X142880000Y-96973752D01*
X127840000Y-103231248D02*
X127840000Y-104653752D01*
X126020000Y-103231248D02*
X126020000Y-104653752D01*
X181180000Y-76530000D02*
X178430000Y-76530000D01*
X172660000Y-76530000D02*
X175410000Y-76530000D01*
X172660000Y-83985563D02*
X172660000Y-76530000D01*
X174410000Y-86290000D02*
X174410000Y-85290000D01*
X173724437Y-85050000D02*
X172660000Y-83985563D01*
X181180000Y-83985563D02*
X181180000Y-76530000D01*
X180115563Y-85050000D02*
X181180000Y-83985563D01*
X173724437Y-85050000D02*
X175410000Y-85050000D01*
X180115563Y-85050000D02*
X178430000Y-85050000D01*
X173910000Y-85790000D02*
X174910000Y-85790000D01*
X133180000Y-110785000D02*
X133750000Y-110785000D01*
X142890000Y-115985000D02*
X143910000Y-115985000D01*
X146000000Y-115985000D02*
X146000000Y-110785000D01*
X133180000Y-115985000D02*
X133180000Y-110785000D01*
X135270000Y-115985000D02*
X136290000Y-115985000D01*
X133750000Y-117425000D02*
X133750000Y-115985000D01*
X145430000Y-115985000D02*
X146000000Y-115985000D01*
X137810000Y-115985000D02*
X138830000Y-115985000D01*
X137810000Y-110785000D02*
X138830000Y-110785000D01*
X133180000Y-115985000D02*
X133750000Y-115985000D01*
X142890000Y-110785000D02*
X143910000Y-110785000D01*
X145430000Y-110785000D02*
X146000000Y-110785000D01*
X140350000Y-115985000D02*
X141370000Y-115985000D01*
X135270000Y-110785000D02*
X136290000Y-110785000D01*
X140350000Y-110785000D02*
X141370000Y-110785000D01*
X121185000Y-82360000D02*
X121185000Y-81340000D01*
X126385000Y-79820000D02*
X126385000Y-78800000D01*
X121185000Y-84450000D02*
X121185000Y-83880000D01*
X121185000Y-77280000D02*
X121185000Y-76710000D01*
X126385000Y-76710000D02*
X121185000Y-76710000D01*
X126385000Y-77280000D02*
X126385000Y-76710000D01*
X126385000Y-82360000D02*
X126385000Y-81340000D01*
X126385000Y-84450000D02*
X126385000Y-83880000D01*
X127825000Y-83880000D02*
X126385000Y-83880000D01*
X126385000Y-84450000D02*
X121185000Y-84450000D01*
X121185000Y-79820000D02*
X121185000Y-78800000D01*
X124995000Y-110390000D02*
X124995000Y-109820000D01*
X119795000Y-115470000D02*
X119795000Y-114450000D01*
X124995000Y-109820000D02*
X119795000Y-109820000D01*
X124995000Y-117560000D02*
X119795000Y-117560000D01*
X119795000Y-112930000D02*
X119795000Y-111910000D01*
X126435000Y-116990000D02*
X124995000Y-116990000D01*
X119795000Y-117560000D02*
X119795000Y-116990000D01*
X124995000Y-112930000D02*
X124995000Y-111910000D01*
X124995000Y-117560000D02*
X124995000Y-116990000D01*
X119795000Y-110390000D02*
X119795000Y-109820000D01*
X124995000Y-115470000D02*
X124995000Y-114450000D01*
X148635000Y-96990000D02*
X148635000Y-95970000D01*
X148635000Y-99530000D02*
X148635000Y-98510000D01*
X153835000Y-99530000D02*
X153835000Y-98510000D01*
X153835000Y-101620000D02*
X153835000Y-101050000D01*
X155275000Y-101050000D02*
X153835000Y-101050000D01*
X153835000Y-101620000D02*
X148635000Y-101620000D01*
X153835000Y-94450000D02*
X153835000Y-93880000D01*
X153835000Y-93880000D02*
X148635000Y-93880000D01*
X148635000Y-94450000D02*
X148635000Y-93880000D01*
X153835000Y-96990000D02*
X153835000Y-95970000D01*
X148635000Y-101620000D02*
X148635000Y-101050000D01*
X168705000Y-83990000D02*
X163505000Y-83990000D01*
X168705000Y-83990000D02*
X168705000Y-83420000D01*
X163505000Y-79360000D02*
X163505000Y-78340000D01*
X170145000Y-83420000D02*
X168705000Y-83420000D01*
X168705000Y-76250000D02*
X163505000Y-76250000D01*
X168705000Y-81900000D02*
X168705000Y-80880000D01*
X168705000Y-79360000D02*
X168705000Y-78340000D01*
X168705000Y-76820000D02*
X168705000Y-76250000D01*
X163505000Y-76820000D02*
X163505000Y-76250000D01*
X163505000Y-81900000D02*
X163505000Y-80880000D01*
X163505000Y-83990000D02*
X163505000Y-83420000D01*
X112614999Y-59504999D02*
X121554999Y-59504999D01*
X121554999Y-65014999D02*
X121554999Y-63214999D01*
X121554999Y-59504999D02*
X121554999Y-60964999D01*
X112614999Y-59504999D02*
X112614999Y-60964999D01*
X112614999Y-65014999D02*
X112614999Y-63214999D01*
X186140000Y-91420000D02*
X186140000Y-104020000D01*
X173540000Y-104020000D02*
X173540000Y-91420000D01*
X176540000Y-104020000D02*
X173540000Y-104020000D01*
X173540000Y-91420000D02*
X176540000Y-91420000D01*
X183140000Y-91420000D02*
X186140000Y-91420000D01*
X186140000Y-104020000D02*
X183140000Y-104020000D01*
X174280000Y-114740000D02*
X174280000Y-114470000D01*
X174280000Y-107840000D02*
X174280000Y-108110000D01*
X174280000Y-108110000D02*
X171450000Y-108110000D01*
X174280000Y-114470000D02*
X173180000Y-114470000D01*
X175780000Y-107840000D02*
X174280000Y-107840000D01*
X175780000Y-114740000D02*
X174280000Y-114740000D01*
X136440436Y-92930000D02*
X137894564Y-92930000D01*
X136440436Y-94750000D02*
X137894564Y-94750000D01*
X113757064Y-105410000D02*
X112302936Y-105410000D01*
X113757064Y-107230000D02*
X112302936Y-107230000D01*
X130310000Y-87997064D02*
X130310000Y-86542936D01*
X128490000Y-87997064D02*
X128490000Y-86542936D01*
X119090436Y-69120000D02*
X120544564Y-69120000D01*
X119090436Y-70940000D02*
X120544564Y-70940000D01*
X114579564Y-69120000D02*
X113125436Y-69120000D01*
X114579564Y-70940000D02*
X113125436Y-70940000D01*
X166119564Y-110690000D02*
X164665436Y-110690000D01*
X166119564Y-108870000D02*
X164665436Y-108870000D01*
X170160000Y-110555436D02*
X170160000Y-112009564D01*
X168340000Y-110555436D02*
X168340000Y-112009564D01*
X190185436Y-89790000D02*
X191639564Y-89790000D01*
X190185436Y-91610000D02*
X191639564Y-91610000D01*
X109670000Y-87440000D02*
X109670000Y-91200000D01*
X116490000Y-85190000D02*
X116490000Y-91200000D01*
X116490000Y-91200000D02*
X115230000Y-91200000D01*
X109670000Y-91200000D02*
X110930000Y-91200000D01*
X140660000Y-97427500D02*
X140660000Y-97877500D01*
X133890000Y-104647500D02*
X133440000Y-104647500D01*
X133440000Y-97877500D02*
X132150000Y-97877500D01*
X133890000Y-97427500D02*
X133440000Y-97427500D01*
X140660000Y-104647500D02*
X140660000Y-104197500D01*
X133440000Y-97427500D02*
X133440000Y-97877500D01*
X140210000Y-104647500D02*
X140660000Y-104647500D01*
X140210000Y-97427500D02*
X140660000Y-97427500D01*
X133440000Y-104647500D02*
X133440000Y-104197500D01*
X187270000Y-93270000D02*
X187270000Y-100170000D01*
X190570000Y-93270000D02*
X190570000Y-100170000D01*
X190570000Y-93270000D02*
X187270000Y-93270000D01*
X190660000Y-83995563D02*
X190660000Y-76540000D01*
X189595563Y-85060000D02*
X190660000Y-83995563D01*
X183204437Y-85060000D02*
X184890000Y-85060000D01*
X190660000Y-76540000D02*
X187910000Y-76540000D01*
X182140000Y-83995563D02*
X182140000Y-76540000D01*
X183890000Y-86300000D02*
X183890000Y-85300000D01*
X183204437Y-85060000D02*
X182140000Y-83995563D01*
X183390000Y-85800000D02*
X184390000Y-85800000D01*
X189595563Y-85060000D02*
X187910000Y-85060000D01*
X182140000Y-76540000D02*
X184890000Y-76540000D01*
X129086252Y-63290000D02*
X126313748Y-63290000D01*
X129086252Y-66710000D02*
X126313748Y-66710000D01*
X150550000Y-107077064D02*
X150550000Y-105622936D01*
X148730000Y-107077064D02*
X148730000Y-105622936D01*
X168690000Y-98430000D02*
X168690000Y-95280000D01*
X170390000Y-98430000D02*
X170390000Y-95280000D01*
X168690000Y-98430000D02*
X170390000Y-98430000D01*
X164225000Y-95505000D02*
X166175000Y-95505000D01*
X164225000Y-95505000D02*
X160775000Y-95505000D01*
X164225000Y-100625000D02*
X166175000Y-100625000D01*
X164225000Y-100625000D02*
X162275000Y-100625000D01*
X165193752Y-94700000D02*
X163771248Y-94700000D01*
X165193752Y-92880000D02*
X163771248Y-92880000D01*
X158370000Y-113070000D02*
X156420000Y-113070000D01*
X158370000Y-113070000D02*
X160320000Y-113070000D01*
X158370000Y-107950000D02*
X160320000Y-107950000D01*
X158370000Y-107950000D02*
X154920000Y-107950000D01*
X160260000Y-99873752D02*
X160260000Y-98451248D01*
X158440000Y-99873752D02*
X158440000Y-98451248D01*
X154180000Y-107067064D02*
X154180000Y-105612936D01*
X152360000Y-107067064D02*
X152360000Y-105612936D01*
X144040000Y-67190000D02*
X144040000Y-69940000D01*
X135520000Y-74645563D02*
X135520000Y-72960000D01*
X135520000Y-68254437D02*
X136584437Y-67190000D01*
X136584437Y-75710000D02*
X144040000Y-75710000D01*
X135520000Y-68254437D02*
X135520000Y-69940000D01*
X136584437Y-67190000D02*
X144040000Y-67190000D01*
X134780000Y-68440000D02*
X134780000Y-69440000D01*
X144040000Y-75710000D02*
X144040000Y-72960000D01*
X134280000Y-68940000D02*
X135280000Y-68940000D01*
X135520000Y-74645563D02*
X136584437Y-75710000D01*
X164713752Y-101370000D02*
X163291248Y-101370000D01*
X164713752Y-103190000D02*
X163291248Y-103190000D01*
X168680000Y-102880000D02*
X170380000Y-102880000D01*
X168680000Y-102880000D02*
X168680000Y-99730000D01*
X170380000Y-102880000D02*
X170380000Y-99730000D01*
M02*
