G04 #@! TF.GenerationSoftware,KiCad,Pcbnew,(6.0.0)*
G04 #@! TF.CreationDate,2022-12-26T00:40:54+03:00*
G04 #@! TF.ProjectId,front panel,66726f6e-7420-4706-916e-656c2e6b6963,rev?*
G04 #@! TF.SameCoordinates,Original*
G04 #@! TF.FileFunction,Soldermask,Bot*
G04 #@! TF.FilePolarity,Negative*
%FSLAX46Y46*%
G04 Gerber Fmt 4.6, Leading zero omitted, Abs format (unit mm)*
G04 Created by KiCad (PCBNEW (6.0.0)) date 2022-12-26 00:40:54*
%MOMM*%
%LPD*%
G01*
G04 APERTURE LIST*
G04 APERTURE END LIST*
G36*
X208942121Y-96020002D02*
G01*
X208988614Y-96073658D01*
X209000000Y-96126000D01*
X209000000Y-99874000D01*
X208979998Y-99942121D01*
X208926342Y-99988614D01*
X208874000Y-100000000D01*
X208618115Y-100000000D01*
X208602876Y-100004475D01*
X208601671Y-100005865D01*
X208600000Y-100013548D01*
X208600000Y-101474000D01*
X208579998Y-101542121D01*
X208526342Y-101588614D01*
X208474000Y-101600000D01*
X193726000Y-101600000D01*
X193657879Y-101579998D01*
X193611386Y-101526342D01*
X193600000Y-101474000D01*
X193600000Y-100018115D01*
X193595525Y-100002876D01*
X193594135Y-100001671D01*
X193586452Y-100000000D01*
X193126000Y-100000000D01*
X193057879Y-99979998D01*
X193011386Y-99926342D01*
X193000000Y-99874000D01*
X193000000Y-96126000D01*
X193020002Y-96057879D01*
X193073658Y-96011386D01*
X193126000Y-96000000D01*
X208874000Y-96000000D01*
X208942121Y-96020002D01*
G37*
G36*
X123942121Y-96020002D02*
G01*
X123988614Y-96073658D01*
X124000000Y-96126000D01*
X124000000Y-99874000D01*
X123979998Y-99942121D01*
X123926342Y-99988614D01*
X123874000Y-100000000D01*
X123618115Y-100000000D01*
X123602876Y-100004475D01*
X123601671Y-100005865D01*
X123600000Y-100013548D01*
X123600000Y-101474000D01*
X123579998Y-101542121D01*
X123526342Y-101588614D01*
X123474000Y-101600000D01*
X111726000Y-101600000D01*
X111657879Y-101579998D01*
X111611386Y-101526342D01*
X111600000Y-101474000D01*
X111600000Y-100018115D01*
X111595525Y-100002876D01*
X111594135Y-100001671D01*
X111586452Y-100000000D01*
X111126000Y-100000000D01*
X111057879Y-99979998D01*
X111011386Y-99926342D01*
X111000000Y-99874000D01*
X111000000Y-96126000D01*
X111020002Y-96057879D01*
X111073658Y-96011386D01*
X111126000Y-96000000D01*
X123874000Y-96000000D01*
X123942121Y-96020002D01*
G37*
M02*
