G04 #@! TF.GenerationSoftware,KiCad,Pcbnew,(6.0.0)*
G04 #@! TF.CreationDate,2022-12-26T00:40:54+03:00*
G04 #@! TF.ProjectId,front panel,66726f6e-7420-4706-916e-656c2e6b6963,rev?*
G04 #@! TF.SameCoordinates,Original*
G04 #@! TF.FileFunction,Profile,NP*
%FSLAX46Y46*%
G04 Gerber Fmt 4.6, Leading zero omitted, Abs format (unit mm)*
G04 Created by KiCad (PCBNEW (6.0.0)) date 2022-12-26 00:40:54*
%MOMM*%
%LPD*%
G01*
G04 APERTURE LIST*
G04 #@! TA.AperFunction,Profile*
%ADD10C,0.050000*%
G04 #@! TD*
G04 APERTURE END LIST*
D10*
X108600000Y-100000000D02*
X108600000Y-52000000D01*
X135252718Y-65152927D02*
X135250000Y-87880000D01*
X156261248Y-87906533D02*
X156270000Y-65100000D01*
X135250001Y-87879999D02*
G75*
G03*
X156261248Y-87906533I10519999J11370001D01*
G01*
X156269999Y-65100001D02*
G75*
G03*
X135252718Y-65152927I-10480000J-11399999D01*
G01*
X187502718Y-65172927D02*
X187500000Y-87900000D01*
X208519999Y-65120001D02*
G75*
G03*
X187502718Y-65172927I-10480000J-11399999D01*
G01*
X208511248Y-87926533D02*
X208520000Y-65120000D01*
X187500001Y-87899999D02*
G75*
G03*
X208511248Y-87926533I10519999J11370001D01*
G01*
X163430000Y-71020000D02*
G75*
G03*
X163430000Y-71020000I-3000000J0D01*
G01*
X210000000Y-52000000D02*
X211600000Y-52000000D01*
X108600000Y-52000000D02*
X110200000Y-52000000D01*
X123600000Y-100000000D02*
X193600000Y-100000000D01*
X111752718Y-65172927D02*
X111750000Y-87900000D01*
X211600000Y-99000000D02*
X211600000Y-100000000D01*
X208600000Y-100000000D02*
X208600000Y-101600000D01*
X111750001Y-87899999D02*
G75*
G03*
X132761248Y-87926533I10519999J11370001D01*
G01*
X132769999Y-65120001D02*
G75*
G03*
X111752718Y-65172927I-10480000J-11399999D01*
G01*
X164490001Y-87899999D02*
G75*
G03*
X185501248Y-87926533I10519999J11370001D01*
G01*
X208600000Y-101600000D02*
X193600000Y-101600000D01*
X111600000Y-101600000D02*
X123600000Y-101600000D01*
X110200000Y-52000000D02*
X210000000Y-52000000D01*
X185501248Y-87926533D02*
X185510000Y-65120000D01*
X111600000Y-100000000D02*
X111600000Y-101600000D01*
X185509999Y-65120001D02*
G75*
G03*
X164492718Y-65172927I-10480000J-11399999D01*
G01*
X193600000Y-101600000D02*
X193600000Y-100000000D01*
X164492718Y-65172927D02*
X164490000Y-87900000D01*
X211600000Y-100000000D02*
X208600000Y-100000000D01*
X163420000Y-82020000D02*
G75*
G03*
X163420000Y-82020000I-3000000J0D01*
G01*
X108600000Y-100000000D02*
X111600000Y-100000000D01*
X123600000Y-101600000D02*
X123600000Y-100000000D01*
X211600000Y-52000000D02*
X211600000Y-99000000D01*
X132761248Y-87926533D02*
X132770000Y-65120000D01*
M02*
