G04 #@! TF.GenerationSoftware,KiCad,Pcbnew,(6.0.0)*
G04 #@! TF.CreationDate,2022-12-26T18:15:41+03:00*
G04 #@! TF.ProjectId,top,746f702e-6b69-4636-9164-5f7063625858,rev?*
G04 #@! TF.SameCoordinates,Original*
G04 #@! TF.FileFunction,Copper,L2,Bot*
G04 #@! TF.FilePolarity,Positive*
%FSLAX46Y46*%
G04 Gerber Fmt 4.6, Leading zero omitted, Abs format (unit mm)*
G04 Created by KiCad (PCBNEW (6.0.0)) date 2022-12-26 18:15:41*
%MOMM*%
%LPD*%
G01*
G04 APERTURE LIST*
G04 APERTURE END LIST*
G04 #@! TA.AperFunction,NonConductor*
G36*
X197688121Y-60274002D02*
G01*
X197734614Y-60327658D01*
X197746000Y-60380000D01*
X197746000Y-75962575D01*
X197743579Y-75987153D01*
X197741024Y-76000000D01*
X197743445Y-76012170D01*
X197743579Y-76012844D01*
X197746000Y-76037425D01*
X197746000Y-149620000D01*
X197725998Y-149688121D01*
X197672342Y-149734614D01*
X197620000Y-149746000D01*
X95380000Y-149746000D01*
X95311879Y-149725998D01*
X95265386Y-149672342D01*
X95254000Y-149620000D01*
X95254000Y-121042186D01*
X101141018Y-121042186D01*
X101166579Y-121310100D01*
X101230547Y-121571518D01*
X101331583Y-121820963D01*
X101467569Y-122053210D01*
X101635658Y-122263395D01*
X101832327Y-122447113D01*
X102053457Y-122600516D01*
X102294416Y-122720391D01*
X102298750Y-122721812D01*
X102298753Y-122721813D01*
X102545823Y-122802807D01*
X102545829Y-122802808D01*
X102550156Y-122804227D01*
X102554647Y-122805007D01*
X102554648Y-122805007D01*
X102811538Y-122849611D01*
X102811546Y-122849612D01*
X102815319Y-122850267D01*
X102819156Y-122850458D01*
X102898777Y-122854422D01*
X102898785Y-122854422D01*
X102900348Y-122854500D01*
X103068374Y-122854500D01*
X103070642Y-122854335D01*
X103070654Y-122854335D01*
X103201457Y-122844844D01*
X103268425Y-122839985D01*
X103272880Y-122839001D01*
X103272883Y-122839001D01*
X103526770Y-122782947D01*
X103526772Y-122782946D01*
X103531226Y-122781963D01*
X103782900Y-122686613D01*
X104018172Y-122555931D01*
X104164842Y-122443996D01*
X104228491Y-122395421D01*
X104228495Y-122395417D01*
X104232116Y-122392654D01*
X104420249Y-122200203D01*
X104527242Y-122053210D01*
X104575942Y-121986304D01*
X104575947Y-121986297D01*
X104578630Y-121982610D01*
X104703941Y-121744433D01*
X104793557Y-121490662D01*
X104818688Y-121363156D01*
X104844720Y-121231083D01*
X104844721Y-121231077D01*
X104845601Y-121226611D01*
X104854782Y-121042186D01*
X188141018Y-121042186D01*
X188166579Y-121310100D01*
X188230547Y-121571518D01*
X188331583Y-121820963D01*
X188467569Y-122053210D01*
X188635658Y-122263395D01*
X188832327Y-122447113D01*
X189053457Y-122600516D01*
X189294416Y-122720391D01*
X189298750Y-122721812D01*
X189298753Y-122721813D01*
X189545823Y-122802807D01*
X189545829Y-122802808D01*
X189550156Y-122804227D01*
X189554647Y-122805007D01*
X189554648Y-122805007D01*
X189811538Y-122849611D01*
X189811546Y-122849612D01*
X189815319Y-122850267D01*
X189819156Y-122850458D01*
X189898777Y-122854422D01*
X189898785Y-122854422D01*
X189900348Y-122854500D01*
X190068374Y-122854500D01*
X190070642Y-122854335D01*
X190070654Y-122854335D01*
X190201457Y-122844844D01*
X190268425Y-122839985D01*
X190272880Y-122839001D01*
X190272883Y-122839001D01*
X190526770Y-122782947D01*
X190526772Y-122782946D01*
X190531226Y-122781963D01*
X190782900Y-122686613D01*
X191018172Y-122555931D01*
X191164842Y-122443996D01*
X191228491Y-122395421D01*
X191228495Y-122395417D01*
X191232116Y-122392654D01*
X191420249Y-122200203D01*
X191527242Y-122053210D01*
X191575942Y-121986304D01*
X191575947Y-121986297D01*
X191578630Y-121982610D01*
X191703941Y-121744433D01*
X191793557Y-121490662D01*
X191818688Y-121363156D01*
X191844720Y-121231083D01*
X191844721Y-121231077D01*
X191845601Y-121226611D01*
X191854782Y-121042186D01*
X191858755Y-120962383D01*
X191858755Y-120962377D01*
X191858982Y-120957814D01*
X191833421Y-120689900D01*
X191769453Y-120428482D01*
X191668417Y-120179037D01*
X191532431Y-119946790D01*
X191364342Y-119736605D01*
X191167673Y-119552887D01*
X190946543Y-119399484D01*
X190705584Y-119279609D01*
X190701250Y-119278188D01*
X190701247Y-119278187D01*
X190454177Y-119197193D01*
X190454171Y-119197192D01*
X190449844Y-119195773D01*
X190445352Y-119194993D01*
X190188462Y-119150389D01*
X190188454Y-119150388D01*
X190184681Y-119149733D01*
X190174718Y-119149237D01*
X190101223Y-119145578D01*
X190101215Y-119145578D01*
X190099652Y-119145500D01*
X189931626Y-119145500D01*
X189929358Y-119145665D01*
X189929346Y-119145665D01*
X189798543Y-119155156D01*
X189731575Y-119160015D01*
X189727120Y-119160999D01*
X189727117Y-119160999D01*
X189473230Y-119217053D01*
X189473228Y-119217054D01*
X189468774Y-119218037D01*
X189217100Y-119313387D01*
X188981828Y-119444069D01*
X188978196Y-119446841D01*
X188771509Y-119604579D01*
X188771505Y-119604583D01*
X188767884Y-119607346D01*
X188579751Y-119799797D01*
X188577066Y-119803486D01*
X188424058Y-120013696D01*
X188424053Y-120013703D01*
X188421370Y-120017390D01*
X188296059Y-120255567D01*
X188206443Y-120509338D01*
X188205560Y-120513820D01*
X188170855Y-120689900D01*
X188154399Y-120773389D01*
X188154172Y-120777942D01*
X188154172Y-120777945D01*
X188144991Y-120962383D01*
X188141018Y-121042186D01*
X104854782Y-121042186D01*
X104858755Y-120962383D01*
X104858755Y-120962377D01*
X104858982Y-120957814D01*
X104833421Y-120689900D01*
X104769453Y-120428482D01*
X104668417Y-120179037D01*
X104532431Y-119946790D01*
X104364342Y-119736605D01*
X104167673Y-119552887D01*
X103946543Y-119399484D01*
X103705584Y-119279609D01*
X103701250Y-119278188D01*
X103701247Y-119278187D01*
X103454177Y-119197193D01*
X103454171Y-119197192D01*
X103449844Y-119195773D01*
X103445352Y-119194993D01*
X103188462Y-119150389D01*
X103188454Y-119150388D01*
X103184681Y-119149733D01*
X103174718Y-119149237D01*
X103101223Y-119145578D01*
X103101215Y-119145578D01*
X103099652Y-119145500D01*
X102931626Y-119145500D01*
X102929358Y-119145665D01*
X102929346Y-119145665D01*
X102798543Y-119155156D01*
X102731575Y-119160015D01*
X102727120Y-119160999D01*
X102727117Y-119160999D01*
X102473230Y-119217053D01*
X102473228Y-119217054D01*
X102468774Y-119218037D01*
X102217100Y-119313387D01*
X101981828Y-119444069D01*
X101978196Y-119446841D01*
X101771509Y-119604579D01*
X101771505Y-119604583D01*
X101767884Y-119607346D01*
X101579751Y-119799797D01*
X101577066Y-119803486D01*
X101424058Y-120013696D01*
X101424053Y-120013703D01*
X101421370Y-120017390D01*
X101296059Y-120255567D01*
X101206443Y-120509338D01*
X101205560Y-120513820D01*
X101170855Y-120689900D01*
X101154399Y-120773389D01*
X101154172Y-120777942D01*
X101154172Y-120777945D01*
X101144991Y-120962383D01*
X101141018Y-121042186D01*
X95254000Y-121042186D01*
X95254000Y-68042186D01*
X101141018Y-68042186D01*
X101166579Y-68310100D01*
X101230547Y-68571518D01*
X101331583Y-68820963D01*
X101467569Y-69053210D01*
X101635658Y-69263395D01*
X101832327Y-69447113D01*
X102053457Y-69600516D01*
X102294416Y-69720391D01*
X102298750Y-69721812D01*
X102298753Y-69721813D01*
X102545823Y-69802807D01*
X102545829Y-69802808D01*
X102550156Y-69804227D01*
X102554647Y-69805007D01*
X102554648Y-69805007D01*
X102811538Y-69849611D01*
X102811546Y-69849612D01*
X102815319Y-69850267D01*
X102819156Y-69850458D01*
X102898777Y-69854422D01*
X102898785Y-69854422D01*
X102900348Y-69854500D01*
X103068374Y-69854500D01*
X103070642Y-69854335D01*
X103070654Y-69854335D01*
X103201457Y-69844844D01*
X103268425Y-69839985D01*
X103272880Y-69839001D01*
X103272883Y-69839001D01*
X103526770Y-69782947D01*
X103526772Y-69782946D01*
X103531226Y-69781963D01*
X103782900Y-69686613D01*
X104018172Y-69555931D01*
X104164842Y-69443996D01*
X104228491Y-69395421D01*
X104228495Y-69395417D01*
X104232116Y-69392654D01*
X104420249Y-69200203D01*
X104527242Y-69053210D01*
X104575942Y-68986304D01*
X104575947Y-68986297D01*
X104578630Y-68982610D01*
X104703941Y-68744433D01*
X104793557Y-68490662D01*
X104818688Y-68363156D01*
X104844720Y-68231083D01*
X104844721Y-68231077D01*
X104845601Y-68226611D01*
X104854782Y-68042186D01*
X188141018Y-68042186D01*
X188166579Y-68310100D01*
X188230547Y-68571518D01*
X188331583Y-68820963D01*
X188467569Y-69053210D01*
X188635658Y-69263395D01*
X188832327Y-69447113D01*
X189053457Y-69600516D01*
X189294416Y-69720391D01*
X189298750Y-69721812D01*
X189298753Y-69721813D01*
X189545823Y-69802807D01*
X189545829Y-69802808D01*
X189550156Y-69804227D01*
X189554647Y-69805007D01*
X189554648Y-69805007D01*
X189811538Y-69849611D01*
X189811546Y-69849612D01*
X189815319Y-69850267D01*
X189819156Y-69850458D01*
X189898777Y-69854422D01*
X189898785Y-69854422D01*
X189900348Y-69854500D01*
X190068374Y-69854500D01*
X190070642Y-69854335D01*
X190070654Y-69854335D01*
X190201457Y-69844844D01*
X190268425Y-69839985D01*
X190272880Y-69839001D01*
X190272883Y-69839001D01*
X190526770Y-69782947D01*
X190526772Y-69782946D01*
X190531226Y-69781963D01*
X190782900Y-69686613D01*
X191018172Y-69555931D01*
X191164842Y-69443996D01*
X191228491Y-69395421D01*
X191228495Y-69395417D01*
X191232116Y-69392654D01*
X191420249Y-69200203D01*
X191527242Y-69053210D01*
X191575942Y-68986304D01*
X191575947Y-68986297D01*
X191578630Y-68982610D01*
X191703941Y-68744433D01*
X191793557Y-68490662D01*
X191818688Y-68363156D01*
X191844720Y-68231083D01*
X191844721Y-68231077D01*
X191845601Y-68226611D01*
X191854782Y-68042186D01*
X191858755Y-67962383D01*
X191858755Y-67962377D01*
X191858982Y-67957814D01*
X191833421Y-67689900D01*
X191769453Y-67428482D01*
X191668417Y-67179037D01*
X191532431Y-66946790D01*
X191364342Y-66736605D01*
X191167673Y-66552887D01*
X190946543Y-66399484D01*
X190705584Y-66279609D01*
X190701250Y-66278188D01*
X190701247Y-66278187D01*
X190454177Y-66197193D01*
X190454171Y-66197192D01*
X190449844Y-66195773D01*
X190445352Y-66194993D01*
X190188462Y-66150389D01*
X190188454Y-66150388D01*
X190184681Y-66149733D01*
X190174718Y-66149237D01*
X190101223Y-66145578D01*
X190101215Y-66145578D01*
X190099652Y-66145500D01*
X189931626Y-66145500D01*
X189929358Y-66145665D01*
X189929346Y-66145665D01*
X189798543Y-66155156D01*
X189731575Y-66160015D01*
X189727120Y-66160999D01*
X189727117Y-66160999D01*
X189473230Y-66217053D01*
X189473228Y-66217054D01*
X189468774Y-66218037D01*
X189217100Y-66313387D01*
X188981828Y-66444069D01*
X188978196Y-66446841D01*
X188771509Y-66604579D01*
X188771505Y-66604583D01*
X188767884Y-66607346D01*
X188579751Y-66799797D01*
X188577066Y-66803486D01*
X188424058Y-67013696D01*
X188424053Y-67013703D01*
X188421370Y-67017390D01*
X188296059Y-67255567D01*
X188206443Y-67509338D01*
X188205560Y-67513820D01*
X188170855Y-67689900D01*
X188154399Y-67773389D01*
X188154172Y-67777942D01*
X188154172Y-67777945D01*
X188144991Y-67962383D01*
X188141018Y-68042186D01*
X104854782Y-68042186D01*
X104858755Y-67962383D01*
X104858755Y-67962377D01*
X104858982Y-67957814D01*
X104833421Y-67689900D01*
X104769453Y-67428482D01*
X104668417Y-67179037D01*
X104532431Y-66946790D01*
X104364342Y-66736605D01*
X104167673Y-66552887D01*
X103946543Y-66399484D01*
X103705584Y-66279609D01*
X103701250Y-66278188D01*
X103701247Y-66278187D01*
X103454177Y-66197193D01*
X103454171Y-66197192D01*
X103449844Y-66195773D01*
X103445352Y-66194993D01*
X103188462Y-66150389D01*
X103188454Y-66150388D01*
X103184681Y-66149733D01*
X103174718Y-66149237D01*
X103101223Y-66145578D01*
X103101215Y-66145578D01*
X103099652Y-66145500D01*
X102931626Y-66145500D01*
X102929358Y-66145665D01*
X102929346Y-66145665D01*
X102798543Y-66155156D01*
X102731575Y-66160015D01*
X102727120Y-66160999D01*
X102727117Y-66160999D01*
X102473230Y-66217053D01*
X102473228Y-66217054D01*
X102468774Y-66218037D01*
X102217100Y-66313387D01*
X101981828Y-66444069D01*
X101978196Y-66446841D01*
X101771509Y-66604579D01*
X101771505Y-66604583D01*
X101767884Y-66607346D01*
X101579751Y-66799797D01*
X101577066Y-66803486D01*
X101424058Y-67013696D01*
X101424053Y-67013703D01*
X101421370Y-67017390D01*
X101296059Y-67255567D01*
X101206443Y-67509338D01*
X101205560Y-67513820D01*
X101170855Y-67689900D01*
X101154399Y-67773389D01*
X101154172Y-67777942D01*
X101154172Y-67777945D01*
X101144991Y-67962383D01*
X101141018Y-68042186D01*
X95254000Y-68042186D01*
X95254000Y-60380000D01*
X95274002Y-60311879D01*
X95327658Y-60265386D01*
X95380000Y-60254000D01*
X197620000Y-60254000D01*
X197688121Y-60274002D01*
G37*
G04 #@! TD.AperFunction*
M02*
